<svg version="1.2" baseProfile="tiny-ps" xmlns="http://www.w3.org/2000/svg" viewBox="0 0 98 33" width="98" height="33">
	<title>4_Homepage/Mobile</title>
	<style>
		tspan { white-space:pre }
		.shp0 { fill: #385d82 } 
		.shp1 { fill: #ffffff } 
	</style>
	<g id="4_Homepage/Mobile">
		<g id="Group 137">
			<path id="Vector" class="shp0" d="M93.51 32.53L4.32 32.53C1.94 32.53 0 30.6 0 28.21L0 4.86C0 2.47 1.94 0.54 4.32 0.54L93.51 0.54C95.89 0.54 97.83 2.47 97.83 4.86L97.83 28.21L97.83 28.21C97.83 30.6 95.89 32.53 93.51 32.53Z" />
			<path id="Vector" class="shp1" d="M24.08 24.36C23.15 25.78 21.84 27.54 20.21 27.56C18.77 27.57 18.4 26.62 16.44 26.63C14.48 26.64 14.07 27.57 12.63 27.56C11 27.55 9.76 25.95 8.83 24.54C6.23 20.58 5.96 15.93 7.56 13.46C8.7 11.7 10.5 10.67 12.19 10.67C13.91 10.67 14.99 11.62 16.42 11.62C17.8 11.62 18.64 10.67 20.63 10.67C22.14 10.67 23.73 11.49 24.87 12.91C21.14 14.95 21.75 20.27 25.51 21.69C24.99 22.83 24.75 23.35 24.08 24.36Z" />
			<path id="Vector" class="shp1" d="M20.19 5.51C19.01 5.59 17.63 6.34 16.82 7.32C16.09 8.21 15.49 9.53 15.72 10.82C17.01 10.85 18.35 10.08 19.12 9.09C19.85 8.16 20.39 6.85 20.19 5.51Z" />
			<path id="Vector" fill-rule="evenodd" class="shp1" d="M33.44 13.4L35.29 13.4L39.03 24.37L37.28 24.37L36.14 21L32.53 21L31.42 24.37L29.71 24.37L33.44 13.4ZM34.32 15.2C34.19 15.74 34.05 16.25 33.9 16.73L32.91 19.66L35.76 19.66L34.76 16.75C34.58 16.2 34.45 15.69 34.32 15.2Z" />
			<path id="Vector" fill-rule="evenodd" class="shp1" d="M43.86 16.24C44.81 16.24 45.68 16.64 46.3 17.36C46.93 18.1 47.26 19.11 47.26 20.28C47.26 21.6 46.88 22.7 46.15 23.47C45.5 24.16 44.61 24.54 43.64 24.54C42.7 24.54 41.88 24.18 41.37 23.56L41.37 27.51L39.71 27.51L39.71 19.05C39.71 17.98 39.69 17.23 39.64 16.55L39.64 16.41L41.15 16.41L41.22 17.51C41.82 16.68 42.73 16.24 43.86 16.24ZM43.45 17.61C42.51 17.61 41.69 18.28 41.44 19.23C41.44 19.27 41.43 19.32 41.42 19.36C41.39 19.5 41.37 19.65 41.37 19.77L41.37 21.11C41.37 21.32 41.39 21.5 41.43 21.64C41.65 22.55 42.45 23.18 43.38 23.18C44.74 23.18 45.59 22.09 45.59 20.34C45.59 18.98 44.93 17.61 43.45 17.61Z" />
			<path id="Vector" fill-rule="evenodd" class="shp1" d="M52.41 16.24C53.36 16.24 54.23 16.64 54.85 17.36C55.48 18.1 55.81 19.11 55.81 20.28C55.81 21.6 55.43 22.7 54.7 23.47C54.05 24.16 53.15 24.54 52.18 24.54C51.25 24.54 50.43 24.18 49.92 23.56L49.92 27.51L48.26 27.51L48.26 19.05C48.26 17.98 48.24 17.23 48.19 16.55L48.18 16.41L49.7 16.41L49.77 17.51C50.37 16.68 51.27 16.24 52.41 16.24ZM51.99 17.61C51.06 17.61 50.24 18.28 49.99 19.23C49.98 19.27 49.98 19.31 49.97 19.36C49.94 19.5 49.92 19.65 49.92 19.77L49.92 21.11C49.92 21.32 49.93 21.5 49.97 21.64C50.2 22.55 51 23.18 51.93 23.18C53.29 23.18 54.13 22.09 54.13 20.34C54.13 18.98 53.47 17.61 51.99 17.61Z" />
			<path id="Vector" class="shp1" d="M61.07 16.1C61.07 15.37 61.65 14.63 62.96 14.63C64.03 14.63 64.72 15 64.9 15.12L65.04 15.2L65.51 13.82L65.42 13.76C65.14 13.6 64.35 13.22 63 13.22C60.89 13.22 59.41 14.47 59.41 16.26C59.41 17.7 60.34 18.71 62.32 19.43C63.73 19.96 64.26 20.5 64.26 21.42C64.26 22.47 63.45 23.12 62.15 23.12C61.3 23.12 60.43 22.87 59.75 22.44L59.61 22.35L59.16 23.76L59.25 23.82C59.87 24.24 61.05 24.54 62.05 24.54C64.9 24.54 65.92 22.8 65.92 21.31C65.91 19.78 65.1 18.83 63.12 18.05C61.57 17.45 61.07 16.97 61.07 16.1Z" />
			<path id="Vector" class="shp1" d="M67.27 15.04L67.27 16.42L66.08 16.42L66.08 17.74L67.27 17.74L67.27 21.81C67.27 22.79 67.46 23.48 67.85 23.91C68.22 24.32 68.79 24.54 69.45 24.54C70.08 24.54 70.53 24.42 70.74 24.34L70.83 24.31L70.75 22.98L70.59 23.03C70.38 23.09 70.17 23.12 69.82 23.12C69.18 23.12 68.9 22.71 68.9 21.76L68.9 17.74L70.9 17.74L70.9 16.42L68.9 16.42L68.9 14.53L68.9 14.53L67.27 15.04Z" />
			<path id="Vector" fill-rule="evenodd" class="shp1" d="M75.02 16.24C76.14 16.24 77.1 16.63 77.79 17.37C78.48 18.11 78.85 19.13 78.85 20.31C78.85 23.22 76.81 24.54 74.91 24.54L74.89 24.54C72.64 24.54 71.07 22.86 71.07 20.45C71.07 17.97 72.69 16.24 75.02 16.24ZM74.97 17.55C73.44 17.55 72.75 18.99 72.75 20.41C72.75 22.04 73.66 23.23 74.92 23.23L74.94 23.23C76.21 23.23 77.14 22.02 77.14 20.36C77.14 19.01 76.46 17.55 74.97 17.55Z" />
			<path id="Vector" class="shp1" d="M83.83 16.29C83.69 16.26 83.57 16.24 83.42 16.24C82.55 16.24 81.77 16.75 81.34 17.58L81.29 16.42L79.8 16.42L79.81 16.56C79.86 17.21 79.87 17.95 79.87 18.95L79.86 24.37L81.52 24.37L81.52 20.14C81.52 19.91 81.53 19.69 81.56 19.5C81.75 18.48 82.43 17.82 83.31 17.82C83.48 17.82 83.61 17.84 83.75 17.85L83.93 17.87L83.93 16.32L83.93 16.32L83.83 16.29Z" />
			<path id="Vector" fill-rule="evenodd" class="shp1" d="M87.66 16.22C90.1 16.22 90.96 18.25 90.96 19.98C90.96 20.28 90.94 20.5 90.91 20.67L90.88 20.78L85.53 20.76C85.63 22.93 87.29 23.17 88.01 23.17C89.04 23.17 89.64 22.98 90.09 22.8L90.23 22.74L90.55 23.98L90.45 24.02C89.94 24.25 89.07 24.53 87.82 24.53C85.45 24.53 83.91 22.95 83.91 20.52C83.91 17.99 85.46 16.22 87.66 16.22ZM87.55 17.49C86.31 17.49 85.71 18.54 85.56 19.5L89.34 19.5C89.33 19.15 89.25 18.44 88.77 17.95C88.47 17.64 88.06 17.49 87.55 17.49Z" />
			<path id="Vector" fill-rule="evenodd" class="shp1" d="M31.3 5.8C32.37 5.8 33.13 6.01 33.64 6.43C34.16 6.86 34.46 7.47 34.46 8.31C34.46 9.15 34.16 9.85 33.63 10.32C33.08 10.81 32.19 11.07 31.07 11.07C30.53 11.07 30.09 11.06 29.71 11.01L29.71 5.9L29.71 5.9C30.17 5.84 30.71 5.8 31.3 5.8ZM31.22 10.53C32.81 10.54 33.67 9.73 33.67 8.33C33.68 7.09 32.91 6.33 31.34 6.33C30.95 6.33 30.66 6.36 30.46 6.4L30.46 10.5C30.65 10.53 30.93 10.53 31.22 10.53Z" />
			<path id="Vector" fill-rule="evenodd" class="shp1" d="M35.14 9.19C35.14 7.94 36.06 7.21 37.2 7.21C38.39 7.21 39.19 7.99 39.19 9.12C39.19 10.51 38.12 11.11 37.14 11.11L37.13 11.11C36.02 11.11 35.14 10.37 35.14 9.19ZM38.41 9.15C38.41 8.51 38.06 7.72 37.17 7.72C36.29 7.72 35.91 8.46 35.91 9.17C35.91 9.98 36.42 10.6 37.15 10.6L37.16 10.6C37.88 10.6 38.41 9.99 38.41 9.15Z" />
			<path id="Vector" class="shp1" d="M40.94 9.18C41.05 9.6 41.17 9.99 41.24 10.38L41.27 10.38C41.36 10 41.5 9.6 41.64 9.19L42.31 7.3L42.95 7.3L43.59 9.16C43.74 9.6 43.86 10 43.96 10.38L43.98 10.38C44.05 10 44.16 9.61 44.3 9.17L44.89 7.3L45.63 7.3L44.3 11.02L43.62 11.02L42.98 9.25C42.83 8.82 42.71 8.45 42.61 8.01L42.6 8.01C42.49 8.46 42.37 8.85 42.22 9.25L41.55 11.02L40.87 11.02L39.62 7.3L40.39 7.3L40.94 9.18Z" />
			<path id="Vector" class="shp1" d="M46.35 7.3L47.02 7.3L47.06 7.91L47.08 7.91C47.29 7.56 47.76 7.21 48.45 7.21C49.02 7.21 49.91 7.52 49.91 8.8L49.91 11.02L49.16 11.02L49.16 8.88C49.16 8.28 48.91 7.77 48.2 7.77C47.72 7.77 47.33 8.08 47.19 8.46C47.16 8.55 47.14 8.67 47.14 8.78L47.14 11.03L46.39 11.03L46.39 8.31L46.39 8.31C46.39 7.91 46.38 7.6 46.35 7.3Z" />
			<path id="Vector" class="shp1" d="M51.89 5.56L51.89 11.03L51.14 11.03L51.14 5.56L51.89 5.56Z" />
			<path id="Vector" fill-rule="evenodd" class="shp1" d="M52.84 9.19C52.84 7.94 53.76 7.21 54.9 7.21C56.08 7.21 56.89 7.99 56.89 9.12C56.89 10.51 55.82 11.11 54.83 11.11L54.83 11.11C53.71 11.11 52.84 10.37 52.84 9.19ZM56.11 9.15C56.11 8.51 55.76 7.72 54.87 7.72C53.99 7.72 53.6 8.46 53.6 9.17C53.6 9.98 54.12 10.6 54.84 10.6L54.85 10.6C55.57 10.6 56.11 9.99 56.11 9.15Z" />
			<path id="Vector" fill-rule="evenodd" class="shp1" d="M60.82 11.02L60.14 11.02L60.07 10.56L60.05 10.56C59.83 10.85 59.37 11.11 58.78 11.11C57.94 11.11 57.51 10.58 57.51 10.04C57.51 9.14 58.4 8.65 60 8.65L60 8.58C60 8.27 59.91 7.71 59.06 7.72C58.67 7.72 58.27 7.81 57.97 7.99L57.8 7.54C58.15 7.35 58.65 7.21 59.17 7.21C60.45 7.21 60.76 7.99 60.76 8.74L60.76 10.13L60.76 10.13C60.76 10.45 60.78 10.77 60.82 11.02ZM58.27 9.96C58.27 10.41 58.59 10.61 58.97 10.61C59.52 10.61 59.87 10.3 59.99 9.99C60.01 9.92 60.02 9.84 60.02 9.77L60.02 9.12L60.02 9.12C59.2 9.11 58.27 9.24 58.27 9.96Z" />
			<path id="Vector" fill-rule="evenodd" class="shp1" d="M65.54 10.06C65.54 10.39 65.55 10.77 65.58 11.03L64.9 11.03L64.87 10.38L64.85 10.38C64.62 10.8 64.12 11.11 63.44 11.11C62.44 11.11 61.66 10.35 61.66 9.22C61.65 7.97 62.52 7.21 63.52 7.21C64.16 7.21 64.59 7.48 64.77 7.78L64.79 7.78L64.79 5.56L65.54 5.56L65.54 10.06ZM64.76 8.52C64.65 8.1 64.24 7.74 63.67 7.74C62.89 7.74 62.43 8.36 62.43 9.18C62.43 9.94 62.85 10.56 63.65 10.56C64.16 10.56 64.62 10.25 64.76 9.75C64.78 9.66 64.79 9.57 64.79 9.46L64.79 8.81C64.79 8.72 64.78 8.61 64.76 8.52Z" />
			<path id="Vector" fill-rule="evenodd" class="shp1" d="M68.31 9.19C68.31 7.94 69.23 7.21 70.36 7.21C71.55 7.21 72.36 7.99 72.36 9.12C72.36 10.51 71.29 11.11 70.31 11.11L70.29 11.11C69.18 11.11 68.31 10.37 68.31 9.19ZM71.58 9.15C71.58 8.51 71.23 7.72 70.34 7.72C69.46 7.72 69.07 8.46 69.07 9.17C69.07 9.98 69.58 10.6 70.31 10.6L70.32 10.6C71.04 10.6 71.58 9.99 71.58 9.15Z" />
			<path id="Vector" class="shp1" d="M73.27 7.3L73.94 7.3L73.99 7.91L74 7.91C74.21 7.56 74.69 7.21 75.37 7.21C75.94 7.21 76.84 7.52 76.84 8.8L76.84 11.02L76.08 11.02L76.08 8.88C76.08 8.28 75.83 7.77 75.12 7.77C74.64 7.77 74.25 8.08 74.11 8.46C74.08 8.55 74.06 8.67 74.06 8.78L74.06 11.03L73.31 11.03L73.31 8.31L73.31 8.31C73.31 7.91 73.3 7.6 73.27 7.3Z" />
			<path id="Vector" class="shp1" d="M80.78 7.3L81.86 7.3L81.86 7.81L80.78 7.81L80.78 9.82C80.78 10.28 80.93 10.55 81.35 10.55C81.55 10.55 81.67 10.53 81.78 10.5L81.82 11.02C81.67 11.06 81.44 11.11 81.15 11.11C80.8 11.11 80.51 11 80.33 10.82C80.13 10.61 80.04 10.28 80.04 9.84L80.04 7.81L79.4 7.81L79.4 7.29L80.04 7.29L80.04 6.61L80.78 6.4L80.78 7.3Z" />
			<path id="Vector" class="shp1" d="M83.46 5.56L83.46 7.88L83.48 7.88C83.6 7.69 83.78 7.51 84.02 7.41C84.24 7.28 84.51 7.21 84.79 7.21C85.34 7.21 86.23 7.52 86.23 8.81L86.23 11.02L85.48 11.02L85.48 8.88C85.48 8.27 85.23 7.77 84.52 7.77C84.03 7.77 83.66 8.08 83.51 8.45C83.47 8.54 83.46 8.65 83.46 8.78L83.46 11.03L82.7 11.03L82.7 5.56L82.71 5.56L83.46 5.56Z" />
			<path id="Vector" fill-rule="evenodd" class="shp1" d="M89.3 10.57C89.84 10.57 90.17 10.49 90.45 10.39L90.58 10.86C90.32 10.97 89.86 11.1 89.19 11.1C87.93 11.1 87.16 10.34 87.16 9.22C87.16 8.09 87.9 7.21 89.11 7.21C90.46 7.21 90.81 8.28 90.81 8.96C90.81 9.1 90.8 9.21 90.79 9.28L87.89 9.28C87.9 10.19 88.55 10.57 89.3 10.57ZM89.05 7.69C88.28 7.69 87.96 8.32 87.9 8.79L90.09 8.79C90.1 8.37 89.89 7.69 89.05 7.69Z" />
		</g>
	</g>
</svg>