<svg version="1.2" baseProfile="tiny-ps" xmlns="http://www.w3.org/2000/svg" viewBox="0 0 74 74" width="74" height="74">
	<title>Lender page</title>
	<style>
		tspan { white-space:pre }
		.shp0 { fill: #eaf6ff;stroke: #ffffff;paint-order:stroke fill markers;stroke-width: 2 } 
		.shp1 { fill: #052f91 } 
	</style>
	<g id="Lender page">
		<g id="Group 25">
			<path id="Rectangle" class="shp0" d="M37 1L37 1C56.91 1 73 17.09 73 37L73 37C73 56.91 56.91 73 37 73L37 73C17.09 73 1 56.91 1 37L1 37C1 17.09 17.09 1 37 1Z" />
			<g id="id-card (1)">
				<path id="Shape" fill-rule="evenodd" class="shp1" d="M57.91 24.88L57.91 49.12C57.91 50.71 56.62 52 55.03 52L19.88 52C18.29 52 17 50.71 17 49.12L17 24.88C17 23.29 18.29 22 19.88 22L55.03 22C56.62 22 57.91 23.29 57.91 24.88ZM56.55 32.23L18.36 32.23L18.36 49.12C18.36 49.96 19.04 50.64 19.88 50.64L55.03 50.64C55.87 50.64 56.55 49.96 56.55 49.12L56.55 32.23ZM56.55 25.41L56.55 24.88C56.55 24.04 55.87 23.36 55.03 23.36L19.88 23.36C19.04 23.36 18.36 24.04 18.36 24.88L18.36 25.41L56.55 25.41Z" />
				<path id="Shape" fill-rule="evenodd" class="shp1" d="M39.5 48.59L39.5 33.59L54.5 33.59L54.5 48.59L39.5 48.59ZM40.86 47.23L42.23 47.23L42.23 47.22C42.23 46.43 42.66 45.7 43.36 45.32L44.86 44.58C44.2 44.15 43.73 43.51 43.44 42.67C42.98 42.39 42.68 41.88 42.68 41.32L42.68 40.86C42.68 40.41 42.88 39.98 43.21 39.68C43.28 39.26 43.39 38.87 43.53 38.51C43.6 38.34 43.66 38.22 43.71 38.12C43.74 38.05 43.78 37.96 43.79 37.94C43.79 37.92 43.79 37.83 43.73 37.55C43.68 37.32 43.65 37.12 43.63 36.94C43.61 36.73 43.68 36.51 43.82 36.34C44.13 36 44.72 36.02 45.01 36.38C45.06 36.45 45.17 36.55 45.37 36.69C45.72 36.93 46.2 37.03 46.69 36.99C46.79 36.98 46.9 36.98 47 36.98C49.66 36.98 50.53 38.38 50.78 39.67C51.12 39.97 51.32 40.4 51.32 40.86L51.32 41.32C51.32 41.88 51.03 42.39 50.56 42.67C50.27 43.52 49.79 44.16 49.13 44.58L50.58 45.32C51.3 45.68 51.76 46.41 51.77 47.23L53.14 47.23L53.14 34.95L40.86 34.95L40.86 47.23Z" />
				<path id="Shape" class="shp1" d="M21.09 36.32L27.23 36.32C27.6 36.32 27.91 36.01 27.91 35.64C27.91 35.26 27.6 34.95 27.23 34.95L21.09 34.95C20.71 34.95 20.41 35.26 20.41 35.64C20.41 36.01 20.71 36.32 21.09 36.32Z" />
				<path id="Shape" class="shp1" d="M29.95 36.32L36.09 36.32C36.47 36.32 36.77 36.01 36.77 35.64C36.77 35.26 36.47 34.95 36.09 34.95L29.95 34.95C29.58 34.95 29.27 35.26 29.27 35.64C29.27 36.01 29.58 36.32 29.95 36.32Z" />
				<path id="Shape" class="shp1" d="M21.09 39.73L21.77 39.73C22.15 39.73 22.45 39.42 22.45 39.04C22.45 38.67 22.15 38.36 21.77 38.36L21.09 38.36C20.71 38.36 20.41 38.67 20.41 39.04C20.41 39.42 20.71 39.73 21.09 39.73Z" />
				<path id="Shape" class="shp1" d="M25.86 39.73C26.24 39.73 26.55 39.42 26.55 39.04C26.55 38.67 26.24 38.36 25.86 38.36L24.5 38.36C24.12 38.36 23.82 38.67 23.82 39.04C23.82 39.42 24.12 39.73 24.5 39.73L25.86 39.73Z" />
				<path id="Shape" class="shp1" d="M28.59 39.73L29.27 39.73C29.65 39.73 29.95 39.42 29.95 39.04C29.95 38.67 29.65 38.36 29.27 38.36L28.59 38.36C28.21 38.36 27.91 38.67 27.91 39.04C27.91 39.42 28.21 39.73 28.59 39.73Z" />
				<path id="Shape" class="shp1" d="M33.36 39.73C33.74 39.73 34.05 39.42 34.05 39.04C34.05 38.67 33.74 38.36 33.36 38.36L32 38.36C31.62 38.36 31.32 38.67 31.32 39.04C31.32 39.42 31.62 39.73 32 39.73L33.36 39.73Z" />
				<path id="Shape" class="shp1" d="M35.61 38.56C35.48 38.69 35.41 38.86 35.41 39.04C35.41 39.23 35.48 39.4 35.61 39.53C35.74 39.65 35.91 39.73 36.09 39.73C36.27 39.73 36.45 39.65 36.57 39.53C36.7 39.4 36.77 39.22 36.77 39.04C36.77 38.87 36.7 38.69 36.57 38.56C36.32 38.31 35.86 38.31 35.61 38.56Z" />
				<path id="Shape" class="shp1" d="M24.94 42.05C23.45 42.82 22.95 44.31 22.76 45.85C22.48 45.62 22.2 45.38 21.92 45.14C21.25 44.58 20.28 45.54 20.95 46.11C21.59 46.64 22.23 47.17 22.87 47.71C23.32 48.09 24.01 47.85 24.03 47.23C24.08 45.75 24.15 43.99 25.63 43.22C26.41 42.82 25.72 41.64 24.94 42.05Z" />
				<path id="Shape" class="shp1" d="M34.17 44.09C33.18 44.01 31.47 45.43 30.77 44.18C30.59 43.86 30.14 43.74 29.83 43.93C28.87 44.52 27.6 45.38 26.59 44.27C25.99 43.62 25.03 44.59 25.63 45.24C26.9 46.62 28.55 46.2 29.99 45.41C30.3 45.74 30.66 45.96 31.15 46.14C31.77 46.36 33.94 45.31 34.11 45.54C34.62 46.24 35.8 45.56 35.28 44.85C34.99 44.45 34.7 44.13 34.17 44.09Z" />
			</g>
		</g>
	</g>
</svg>