<svg version="1.2" baseProfile="tiny-ps" xmlns="http://www.w3.org/2000/svg" viewBox="0 0 34 34" width="34" height="34">
	<title>Lender page</title>
	<style>
		tspan { white-space:pre }
		.shp0 { fill: none;stroke: #153a5b;stroke-width: 2.1 } 
		.shp1 { fill: #153a5b } 
	</style>
	<g id="Lender page">
		<g id="Group 42">
			<path id="Oval 7" class="shp0" d="M16.8 31.61C24.98 31.61 31.61 24.98 31.61 16.8C31.61 8.63 24.98 2 16.8 2C8.63 2 2 8.63 2 16.8C2 24.98 8.63 31.61 16.8 31.61Z" />
			<path id="Path" class="shp1" d="M22.65 11.59C23.1 12.03 23.1 12.75 22.65 13.2L14.99 20.86C14.55 21.3 13.83 21.3 13.38 20.86L9.74 17.21C9.29 16.77 9.29 16.04 9.74 15.6C10.18 15.15 10.9 15.15 11.35 15.6L14.19 18.43L21.04 11.59C21.48 11.14 22.2 11.14 22.65 11.59L22.65 11.59Z" />
		</g>
	</g>
</svg>