<svg version="1.2" baseProfile="tiny-ps" xmlns="http://www.w3.org/2000/svg" viewBox="0 0 74 74" width="74" height="74">
	<title>Lender page</title>
	<style>
		tspan { white-space:pre }
		.shp0 { fill: #eaf6ff;stroke: #ffffff;paint-order:stroke fill markers;stroke-width: 2 } 
		.shp1 { fill: #0a3493 } 
	</style>
	<g id="Lender page">
		<g id="Group 25">
			<path id="Rectangle" class="shp0" d="M6 1L68 1C70.76 1 73 3.23 73 6L73 68C73 70.76 70.76 73 68 73L6 73C3.23 73 1 70.76 1 68L1 6C1 3.23 3.23 1 6 1Z" />
			<g id="piggy-bank">
				<path id="Path" class="shp1" d="M26.48 33.5C25.95 33.5 25.52 33.93 25.52 34.46L25.52 35.9C25.52 36.43 25.95 36.85 26.48 36.85C27.01 36.85 27.44 36.43 27.44 35.9L27.44 34.46C27.44 33.93 27.01 33.5 26.48 33.5Z" />
				<path id="Shape" fill-rule="evenodd" class="shp1" d="M61.03 35.01C60.61 36.49 59.45 37.62 58.03 38.05C57.78 41.55 55.78 44.84 52.43 47.27L52.43 53.5C52.43 54.3 51.79 54.94 50.99 54.94L46.02 54.94C45.36 54.94 44.78 54.48 44.62 53.83L43.92 50.79C42.46 51.06 40.97 51.19 39.45 51.19C37.77 51.19 35.98 51.01 34.13 50.63L33.5 53.79C33.36 54.46 32.77 54.94 32.09 54.94L27.02 54.94C26.23 54.94 25.58 54.3 25.58 53.5L25.58 47.81C22.9 46.61 20.69 45.33 19.26 44.43C17.84 43.54 17 42.02 17 40.36L17 35.82C17 35.03 17.64 34.39 18.44 34.39L21.25 34.39C21.69 32.8 22.51 31.29 23.65 29.92L20.94 27.21C20.53 26.8 20.41 26.18 20.63 25.65C20.85 25.11 21.38 24.76 21.96 24.76L25.89 24.76C27.06 24.76 28.17 25.1 29.11 25.7C30.08 25.22 31.11 24.81 32.17 24.47C31.82 23.59 31.64 22.64 31.64 21.67C31.64 17.47 35.05 14.06 39.25 14.06C43.45 14.06 46.87 17.47 46.87 21.67C46.87 22.6 46.7 23.51 46.38 24.36C48.62 25.02 50.67 26.02 52.44 27.3C55.65 29.63 57.59 32.69 57.98 36C58.55 35.68 59 35.14 59.18 34.49C59.33 33.98 59.86 33.68 60.37 33.83C60.88 33.97 61.17 34.5 61.03 35.01ZM35 23.77C36.44 23.51 37.93 23.37 39.45 23.37C40.84 23.37 42.21 23.48 43.54 23.7C43.84 23.07 43.99 22.39 43.99 21.67C43.99 19.06 41.87 16.93 39.25 16.93C36.64 16.93 34.51 19.06 34.51 21.67C34.51 22.41 34.68 23.12 35 23.77ZM55.19 37.28C55.19 34.42 53.61 31.7 50.75 29.62C47.75 27.45 43.74 26.25 39.45 26.25C36.48 26.25 33.64 26.82 31.15 27.92C31.17 27.94 31.18 27.97 31.19 27.99C31.56 28.7 31.28 29.57 30.57 29.93C29.87 30.29 29 30.02 28.64 29.31C28.11 28.28 27.05 27.63 25.89 27.63L25.43 27.63L27.79 30C28.35 30.56 28.35 31.47 27.79 32.03C27.51 32.31 27.14 32.45 26.77 32.45C26.4 32.45 26.03 32.31 25.75 32.03L25.69 31.96C24.69 33.23 24.05 34.62 23.82 36.05C23.71 36.75 23.11 37.26 22.4 37.26L19.87 37.26L19.87 40.36C19.87 41.03 20.21 41.64 20.78 41.99C22.28 42.93 24.68 44.31 27.58 45.55C28.11 45.78 28.46 46.3 28.46 46.87L28.46 52.07L30.91 52.07L31.61 48.63C31.68 48.24 31.91 47.91 32.25 47.7C32.58 47.49 32.98 47.42 33.36 47.52C35.51 48.05 37.56 48.32 39.45 48.32C41.24 48.32 42.99 48.11 44.65 47.7C45.03 47.6 45.42 47.66 45.75 47.87C46.08 48.07 46.31 48.39 46.4 48.77L47.17 52.07L49.55 52.07L49.55 46.52C49.55 46.04 49.8 45.59 50.2 45.32C53.37 43.23 55.19 40.3 55.19 37.28Z" />
			</g>
		</g>
	</g>
</svg>