<svg version="1.2" baseProfile="tiny-ps" xmlns="http://www.w3.org/2000/svg" viewBox="0 0 75 74" width="75" height="74">
	<title>Lender page</title>
	<style>
		tspan { white-space:pre }
		.shp0 { fill: #d8eeff;stroke: #ffffff;paint-order:stroke fill markers;stroke-width: 2 } 
		.shp1 { fill: #ffffff;stroke: #052f91 } 
		.shp2 { fill: #052f91 } 
		.shp3 { fill: none;stroke: #55c4c6;stroke-linecap:round;stroke-linejoin:round } 
	</style>
	<g id="Lender page">
		<g id="Group 25">
			<path id="Rectangle" class="shp0" d="M7 1L69 1C71.76 1 74 3.23 74 6L74 68C74 70.76 71.76 73 69 73L7 73C4.23 73 2 70.76 2 68L2 6C2 3.23 4.23 1 7 1Z" />
			<g id="Group 7981">
				<g id="Group 23">
					<path id="Rectangle" class="shp1" d="M17.5 21L57.5 21C59.44 21 61 22.56 61 24.5L61 48.5C61 50.44 59.44 52 57.5 52L17.5 52C15.56 52 14 50.44 14 48.5L14 24.5C14 22.56 15.56 21 17.5 21Z" />
					<g id="bank (25)">
						<path id="Shape" fill-rule="evenodd" class="shp2" d="M50 45.25L50 48.58C50 48.81 49.81 49 49.58 49L25.42 49C25.19 49 25 48.81 25 48.58L25 45.25C25 45.02 25.19 44.83 25.42 44.83L26.25 44.83L26.25 44.42C26.25 43.89 26.59 43.42 27.08 43.24L27.08 34.76C26.59 34.58 26.25 34.11 26.25 33.58L26.25 33.17C25.56 33.17 25 32.61 25 31.92C25 31.23 25.56 30.67 26.25 30.67L26.55 30.67L37.28 24.06C37.42 23.98 37.58 23.98 37.72 24.06L48.45 30.67L48.75 30.67C49.44 30.67 50 31.23 50 31.92C50 32.61 49.44 33.17 48.75 33.17L48.75 33.58C48.75 34.11 48.41 34.58 47.92 34.76L47.92 43.24C48.41 43.42 48.75 43.89 48.75 44.42L48.75 44.83L49.58 44.83C49.81 44.83 50 45.02 50 45.25ZM47.92 33.17L45.42 33.17L45.42 33.58C45.42 33.81 45.6 34 45.83 34L47.5 34C47.73 34 47.92 33.81 47.92 33.58L47.92 33.17ZM45.83 44C45.6 44 45.42 44.19 45.42 44.42L45.42 44.83L47.92 44.83L47.92 44.42C47.92 44.19 47.73 44 47.5 44L45.83 44ZM47.08 43.17L47.08 34.83L46.25 34.83L46.25 43.17L47.08 43.17ZM48.75 32.33C48.98 32.33 49.17 32.15 49.17 31.92C49.17 31.69 48.98 31.5 48.75 31.5L31.67 31.5L31.67 30.67L46.86 30.67L37.5 24.91L28.14 30.67L29.17 30.67L29.17 31.5L26.25 31.5C26.02 31.5 25.83 31.69 25.83 31.92C25.83 32.15 26.02 32.33 26.25 32.33L48.75 32.33ZM35.42 44.42L35.42 44.83L39.58 44.83L39.58 44.42C39.59 43.89 39.92 43.42 40.42 43.24L40.42 34.76C39.92 34.58 39.59 34.11 39.58 33.58L39.58 33.17L35.42 33.17L35.42 33.58C35.41 34.11 35.08 34.58 34.58 34.76L34.58 43.24C35.08 43.42 35.41 43.89 35.42 44.42ZM32.5 44C32.27 44 32.08 44.19 32.08 44.42L32.08 44.83L34.58 44.83L34.58 44.42C34.58 44.19 34.4 44 34.17 44L32.5 44ZM33.75 43.17L33.75 34.83L32.92 34.83L32.92 43.17L33.75 43.17ZM34.58 33.58L34.58 33.17L32.08 33.17L32.08 33.58C32.08 33.81 32.27 34 32.5 34L34.17 34C34.4 34 34.58 33.81 34.58 33.58ZM40.42 44.83L42.92 44.83L42.92 44.42C42.92 44.19 42.73 44 42.5 44L40.83 44C40.6 44 40.42 44.19 40.42 44.42L40.42 44.83ZM42.08 43.17L42.08 34.83L41.25 34.83L41.25 43.17L42.08 43.17ZM42.92 33.58L42.92 33.17L40.42 33.17L40.42 33.58C40.42 33.81 40.6 34 40.83 34L42.5 34C42.73 34 42.92 33.81 42.92 33.58ZM29.17 34C29.4 34 29.58 33.81 29.58 33.58L29.58 33.17L27.08 33.17L27.08 33.58C27.08 33.81 27.27 34 27.5 34L29.17 34ZM27.92 34.83L27.92 43.17L28.75 43.17L28.75 34.83L27.92 34.83ZM27.08 44.83L29.58 44.83L29.58 44.42C29.58 44.19 29.4 44 29.17 44L27.5 44C27.27 44 27.08 44.19 27.08 44.42L27.08 44.83ZM30.42 45.67L25.83 45.67L25.83 48.17L30.42 48.17L30.42 45.67ZM30.42 44.42L30.42 44.83L31.25 44.83L31.25 44.42C31.25 43.89 31.59 43.42 32.08 43.24L32.08 34.76C31.59 34.58 31.25 34.11 31.25 33.58L31.25 33.17L30.42 33.17L30.42 33.58C30.41 34.11 30.08 34.58 29.58 34.76L29.58 43.24C30.08 43.42 30.41 43.89 30.42 44.42ZM43.75 45.67L31.25 45.67L31.25 46.5L41.25 46.5L41.25 47.33L31.25 47.33L31.25 48.17L43.75 48.17L43.75 45.67ZM43.75 44.42L43.75 44.83L44.58 44.83L44.58 44.42C44.59 43.89 44.92 43.42 45.42 43.24L45.42 34.76C44.92 34.58 44.59 34.11 44.58 33.58L44.58 33.17L43.75 33.17L43.75 33.58C43.75 34.11 43.41 34.58 42.92 34.76L42.92 43.24C43.41 43.42 43.75 43.89 43.75 44.42ZM49.17 45.67L44.58 45.67L44.58 48.17L49.17 48.17L49.17 45.67Z" />
						<path id="Rectangle" class="shp2" d="M42.08 46.5L42.92 46.5L42.92 47.33L42.08 47.33L42.08 46.5Z" />
						<path id="Rectangle" class="shp2" d="M30 30.67L30.83 30.67L30.83 31.5L30 31.5L30 30.67Z" />
						<path id="Shape" fill-rule="evenodd" class="shp2" d="M39.17 28.17C39.17 29.09 38.42 29.83 37.5 29.83C36.58 29.83 35.83 29.09 35.83 28.17C35.83 27.25 36.58 26.5 37.5 26.5C38.42 26.5 39.17 27.25 39.17 28.17ZM38.33 28.17C38.33 27.71 37.96 27.33 37.5 27.33C37.04 27.33 36.67 27.71 36.67 28.17C36.67 28.63 37.04 29 37.5 29C37.96 29 38.33 28.63 38.33 28.17Z" />
					</g>
					<path id="Oval" class="shp1" d="M58 57.5C62.69 57.5 66.5 53.69 66.5 49C66.5 44.31 62.69 40.5 58 40.5C53.31 40.5 49.5 44.31 49.5 49C49.5 53.69 53.31 57.5 58 57.5Z" />
					<path id="Path" class="shp3" d="M54 49L56 51.5L62 46" />
				</g>
			</g>
		</g>
	</g>
</svg>