<svg version="1.2" baseProfile="tiny-ps" xmlns="http://www.w3.org/2000/svg" viewBox="0 0 74 74" width="74" height="74">
	<title>Lender page</title>
	<style>
		tspan { white-space:pre }
		.shp0 { fill: #eaf6ff;stroke: #ffffff;paint-order:stroke fill markers;stroke-width: 2 } 
		.shp1 { fill: #052f91;stroke: #052f91;stroke-width: 0.5 } 
	</style>
	<g id="Lender page">
		<g id="Group 25">
			<path id="Rectangle" class="shp0" d="M6 1L68 1C70.76 1 73 3.23 73 6L73 68C73 70.76 70.76 73 68 73L6 73C3.23 73 1 70.76 1 68L1 6C1 3.23 3.23 1 6 1Z" />
			<g id="money-bag">
				<path id="Shape" fill-rule="evenodd" class="shp1" d="M56 46.5C56 46.83 55.8 47.13 55.5 47.26C54.89 47.53 53.94 48 52.79 48.57C48.39 50.73 41.73 54 38.5 54C34.83 54 26.2 49.98 24.34 49.09C23.96 50.01 23.08 50.67 22.05 50.67L16.83 50.67C16.37 50.67 16 50.29 16 49.83L16 36.5C16 36.25 16.11 36.01 16.31 35.86C16.5 35.7 16.75 35.63 17 35.68L23.78 37.04C24.73 37.23 25.44 37.93 25.69 38.8C26.41 38.61 27.56 38.35 28.89 38.23C29.49 36.89 30.14 35.77 30.41 35.32C30.44 29.09 31.54 24.54 36.06 22.95C35.84 22.48 35.5 21.91 35.17 21.39C34.51 20.33 33.89 19.33 33.89 18.46C33.89 17.95 34.09 17.49 34.46 17.14C35.05 16.6 35.95 16.45 36.56 16.42C37.04 15.33 38.04 14 39.56 14C40.92 14 41.49 14.65 41.83 15.03C41.84 15.04 41.85 15.06 41.87 15.07C42.12 14.58 42.57 14 43.8 14C45.63 14 46.45 15.33 46.45 16.65C46.45 17.61 45.81 19.06 45.14 20.6C44.79 21.4 44.41 22.27 44.2 22.93C48.78 24.49 49.89 29.06 49.92 35.32C50.49 36.25 52.67 39.97 52.67 42.85C52.67 43.02 52.61 43.17 52.58 43.33C54.65 43.73 56 44.91 56 46.5ZM23.46 38.67L17.67 37.52L17.67 49L22.05 49C22.47 49 22.82 48.69 22.88 48.28L24.12 39.61C24.18 39.17 23.89 38.76 23.46 38.67ZM36.58 20.51C37.02 21.21 37.43 21.89 37.69 22.54C38.44 22.41 39.26 22.33 40.17 22.33C41.05 22.33 41.85 22.41 42.59 22.53C42.81 21.77 43.2 20.88 43.61 19.94C44.13 18.74 44.78 17.26 44.78 16.65C44.78 15.67 44.07 15.67 43.8 15.67C43.49 15.67 43.41 15.72 43.41 15.72C43.39 15.74 43.35 15.84 43.32 15.9C43.21 16.17 42.91 16.88 41.98 16.88C41.24 16.88 40.84 16.43 40.58 16.14C40.32 15.84 40.17 15.67 39.56 15.67C38.7 15.67 38.08 17.02 37.94 17.5C37.82 17.87 37.47 18.13 37.08 18.08C36.62 18.06 35.84 18.13 35.59 18.36C35.55 18.85 36.15 19.81 36.58 20.51ZM30.73 38.22C32.06 38.34 33.15 38.83 34.27 39.37C35.31 39.87 36.39 40.39 37.83 40.68C41 41.33 44.06 42.17 44.29 44.56C45.98 44.08 49.29 43.19 50.94 43.17C50.98 43.06 51 42.96 51 42.85C51 40.1 48.41 36.05 48.39 36.01C48.3 35.88 48.25 35.72 48.25 35.56C48.25 27.03 46.14 24 40.17 24C34.19 24 32.08 27.03 32.08 35.56C32.08 35.72 32.03 35.88 31.95 36.01C31.94 36.02 31.35 36.95 30.73 38.22ZM54.21 46.02C53.79 45.25 52.36 44.83 51 44.83C49.39 44.83 45.22 46.01 43.74 46.46C43.69 46.48 43.64 46.47 43.59 46.48C43.54 46.52 43.5 46.57 43.44 46.62C42.8 47.1 41.81 47.34 40.45 47.34C38.37 47.34 35.43 46.77 31.6 45.63C31.16 45.5 30.9 45.04 31.03 44.6C31.17 44.15 31.63 43.9 32.07 44.03C39.85 46.34 41.92 45.68 42.45 45.28C42.6 45.16 42.67 45.04 42.67 44.83C42.67 43.8 41.12 43.05 37.5 42.32C35.85 41.98 34.63 41.39 33.55 40.87C32.35 40.29 31.4 39.83 30.17 39.83C28.13 39.83 26.27 40.36 25.67 40.55L24.69 47.41C24.69 47.42 24.69 47.42 24.7 47.42C27.51 48.78 35.47 52.33 38.5 52.33C41.35 52.33 48.05 49.04 52.05 47.07C52.89 46.66 53.63 46.29 54.21 46.02ZM40.01 40L35.54 34.79L35.53 33.44L37.75 33.44C38.41 33.44 38.93 33.31 39.31 33.03C39.69 32.76 39.95 32.4 40.08 31.96L35.35 31.96L35.8 30.36L40.04 30.36C39.76 29.45 38.98 29 37.72 29L35.35 29L35.83 27.2L44.11 27.2L43.66 28.81L41.74 28.81C42.04 29.25 42.23 29.77 42.32 30.36L44.1 30.36L43.66 31.96L42.33 31.96C42.2 32.92 41.81 33.66 41.17 34.18C40.53 34.69 39.61 35 38.44 35.1L42.53 39.89L42.53 40L40.01 40Z" />
			</g>
		</g>
	</g>
</svg>