<svg version="1.2" baseProfile="tiny-ps" xmlns="http://www.w3.org/2000/svg" viewBox="0 0 75 74" width="75" height="74">
	<title>Lender page</title>
	<style>
		tspan { white-space:pre }
		.shp0 { fill: #eaf6ff;stroke: #ffffff;paint-order:stroke fill markers;stroke-width: 2 } 
		.shp1 { fill: #052f91 } 
	</style>
	<g id="Lender page">
		<g id="Group 25">
			<path id="Rectangle" class="shp0" d="M7 1L69 1C71.76 1 74 3.23 74 6L74 68C74 70.76 71.76 73 69 73L7 73C4.23 73 2 70.76 2 68L2 6C2 3.23 4.23 1 7 1Z" />
			<g id="currency-exchange">
				<g id="Group 31">
					<path id="Shape" fill-rule="evenodd" class="shp1" d="M57 53.16L47.77 59.75C46.9 60.37 45.69 59.75 45.69 58.68L45.69 56.04C39.27 56.02 38.91 56.11 37.77 55.95L37.77 55.96C27.6 55.96 19.32 47.68 19.32 37.5C19.32 33.61 20.52 29.95 22.65 26.91L18.55 23.98C17.82 23.46 17.82 22.36 18.55 21.84L27.78 15.25C28.65 14.62 29.86 15.25 29.86 16.32L29.86 18.96C36.77 18.96 36.89 18.91 37.94 19.05C48.04 19.13 56.23 27.38 56.23 37.5C56.23 41.4 55.02 45.06 52.89 48.08L57 51.02C57.73 51.54 57.73 52.64 57 53.16ZM21.59 22.91L27.23 26.94L27.23 25.55C27.23 24.82 27.82 24.23 28.55 24.23L36.46 24.23C38.94 24.23 41.26 25.23 42.95 26.9C42.45 23.69 40.16 21.59 36.48 21.59L28.55 21.59C27.82 21.59 27.23 21 27.23 20.27L27.23 18.88L21.59 22.91ZM31.47 52.01C29.74 49.48 29.45 46.39 30.39 43.74C30.58 43.21 31.08 42.86 31.63 42.86C31.6 42.85 32.56 42.83 32.88 43.74C33.8 46.37 36.3 48.13 39.09 48.13L45.69 48.13L45.69 45.5C45.69 44.43 46.9 43.8 47.77 44.42L50.74 46.55C56.31 38.65 53.48 27.32 44.37 23.12C45.73 25.43 46.11 28.59 45.16 31.26C44.97 31.79 44.47 32.14 43.92 32.14C43.95 32.15 42.99 32.17 42.67 31.26C41.74 28.63 39.25 26.87 36.46 26.87L29.86 26.87L29.86 29.5C29.86 30.57 28.65 31.2 27.78 30.58L24.8 28.45C19.09 36.61 22.3 48.01 31.47 52.01ZM53.96 52.09L48.32 48.06L48.32 49.45C48.32 50.18 47.73 50.77 47 50.77L39.09 50.77C36.63 50.77 34.32 49.78 32.63 48.13C33.24 51.14 35.91 53.41 39.09 53.41L47 53.41C47.73 53.41 48.32 54 48.32 54.72L48.32 56.12L53.96 52.09Z" />
					<path id="₹" class="shp1" d="M38.89 42L38.89 41.91L35.54 37.99C36.5 37.91 37.25 37.66 37.78 37.24C38.3 36.82 38.62 36.21 38.72 35.42L38.72 35.42L39.81 35.42L40.17 34.11L38.72 34.11C38.65 33.63 38.49 33.2 38.24 32.85L38.24 32.85L39.81 32.85L40.18 31.53L33.4 31.53L33.01 33L34.95 33C35.98 33 36.62 33.37 36.85 34.11L36.85 34.11L33.38 34.11L33.01 35.42L36.88 35.42C36.78 35.78 36.57 36.08 36.25 36.3C35.94 36.52 35.51 36.64 34.98 36.64L34.98 36.64L33.16 36.64L33.17 37.74L36.83 42L38.89 42Z" />
				</g>
			</g>
		</g>
	</g>
</svg>