<svg version="1.2" baseProfile="tiny-ps" xmlns="http://www.w3.org/2000/svg" viewBox="0 0 39 38" width="39" height="38">
	<title>borrower page</title>
	<style>
		tspan { white-space:pre }
		.shp0 { fill: #eaf6ff;stroke: #ffffff;paint-order:stroke fill markers } 
		.shp1 { fill: #052f91 } 
	</style>
	<g id="borrower page">
		<g id="Group 25">
			<path id="Rectangle" class="shp0" d="M19.5 1L19.5 1C29.45 1 37.5 9.05 37.5 19L37.5 19C37.5 28.95 29.45 37 19.5 37L19.5 37C9.55 37 1.5 28.95 1.5 19L1.5 19C1.5 9.05 9.55 1 19.5 1Z" />
			<g id="file (4)">
				<path id="Shape" fill-rule="evenodd" class="shp1" d="M31.64 25.81C31.64 28.39 29.54 30.49 26.95 30.49C25.04 30.49 23.39 29.33 22.66 27.68L12.43 27.68C11.65 27.68 11.02 27.05 11.02 26.27L11.02 9.41C11.02 8.63 11.65 8 12.43 8L21.99 8L22.12 8.14C23.17 9.18 24.84 10.85 25.88 11.9C25.88 11.9 25.88 11.9 25.88 11.9C25.88 11.9 25.88 11.9 25.88 11.9L26.02 12.04L26.02 21.21C26.32 21.15 26.63 21.12 26.95 21.12C29.54 21.12 31.64 23.22 31.64 25.81ZM22.26 9.6L22.26 11.77L24.42 11.77C23.73 11.08 22.95 10.29 22.26 9.6ZM22.36 26.74C22.3 26.44 22.27 26.13 22.27 25.81C22.27 23.89 23.43 22.24 25.08 21.51L25.08 12.7L21.79 12.7C21.53 12.7 21.32 12.49 21.32 12.23L21.32 8.94L12.43 8.94C12.17 8.94 11.96 9.15 11.96 9.41L11.96 26.27C11.96 26.53 12.17 26.74 12.43 26.74L22.36 26.74ZM27.42 29.52C29.12 29.31 30.46 27.97 30.67 26.27L29.95 26.27L29.95 25.34L30.67 25.34C30.46 23.65 29.12 22.3 27.42 22.09L27.42 22.9L26.49 22.9L26.49 22.09C24.79 22.3 23.45 23.65 23.24 25.34L24.05 25.34L24.05 26.27L23.24 26.27C23.45 27.97 24.79 29.31 26.49 29.52L26.49 28.71L27.42 28.71L27.42 29.52Z" />
				<path id="₹" class="shp1" d="M27.68 24.85C27.77 24.97 27.83 25.11 27.87 25.27L28.28 25.27L28.28 25.6L27.9 25.6C27.88 26 27.72 26.29 27.4 26.47L28.28 27.64L27.26 27.64L26.55 26.68L25.54 26.68L25.54 26.03L26.42 26.03C26.59 26.03 26.74 25.99 26.85 25.92C26.96 25.85 27.03 25.74 27.06 25.6L25.54 25.6L25.54 25.27L27.06 25.27C27.03 25.14 26.96 25.03 26.85 24.96C26.74 24.89 26.59 24.85 26.42 24.85L25.54 24.85L25.54 24.19L28.28 24.19L28.28 24.85L27.68 24.85Z" />
				<path id="Shape" class="shp1" d="M13.36 10.81L14.3 10.81L14.3 11.75L13.36 11.75L13.36 10.81Z" />
				<path id="Shape" class="shp1" d="M13.36 23.93L14.3 23.93L14.3 24.87L13.36 24.87L13.36 23.93Z" />
				<path id="Shape" class="shp1" d="M13.36 20.65L14.3 20.65L14.3 21.59L13.36 21.59L13.36 20.65Z" />
				<path id="Shape" class="shp1" d="M13.36 17.37L14.3 17.37L14.3 18.31L13.36 18.31L13.36 17.37Z" />
				<path id="Shape" class="shp1" d="M13.36 14.09L14.3 14.09L14.3 15.03L13.36 15.03L13.36 14.09Z" />
				<path id="Shape" class="shp1" d="M15.71 14.09L21.33 14.09L21.33 15.03L15.71 15.03L15.71 14.09Z" />
				<path id="Shape" class="shp1" d="M15.71 17.37L21.33 17.37L21.33 18.31L15.71 18.31L15.71 17.37Z" />
				<path id="Shape" class="shp1" d="M15.71 20.65L21.33 20.65L21.33 21.59L15.71 21.59L15.71 20.65Z" />
				<path id="Shape" class="shp1" d="M15.71 23.93L18.52 23.93L18.52 24.87L15.71 24.87L15.71 23.93Z" />
				<path id="Shape" class="shp1" d="M15.71 10.81L18.52 10.81L18.52 11.75L15.71 11.75L15.71 10.81Z" />
			</g>
		</g>
	</g>
</svg>