<svg version="1.2" baseProfile="tiny-ps" xmlns="http://www.w3.org/2000/svg" viewBox="0 0 39 39" width="39" height="39">
	<title>borrower page</title>
	<style>
		tspan { white-space:pre }
		.shp0 { fill: #eaf6ff;stroke: #ffffff;paint-order:stroke fill markers } 
		.shp1 { fill: #052f91 } 
	</style>
	<g id="borrower page">
		<g id="Group 25">
			<path id="Rectangle" class="shp0" d="M6 2L32 2C34.76 2 37 4.23 37 7L37 33C37 35.76 34.76 38 32 38L6 38C3.23 38 1 35.76 1 33L1 7C1 4.23 3.23 2 6 2Z" />
			<g id="search">
				<path id="Shape" fill-rule="evenodd" class="shp1" d="M27.42 27.74C27.25 27.9 27.03 27.99 26.8 27.99C26.56 27.99 26.33 27.89 26.16 27.72L22.08 23.48C20.93 24.29 19.57 24.72 18.15 24.72C14.37 24.72 11.29 21.64 11.29 17.86C11.29 14.08 14.37 11 18.15 11C21.94 11 25.01 14.08 25.01 17.86C25.01 19.48 24.44 21.03 23.4 22.27L27.45 26.47C27.79 26.83 27.78 27.4 27.42 27.74ZM13.08 17.86C13.08 20.65 15.36 22.93 18.15 22.93C20.95 22.93 23.22 20.65 23.22 17.86C23.22 15.06 20.95 12.79 18.15 12.79C15.36 12.79 13.08 15.06 13.08 17.86Z" />
				<g id="Group 12">
					<path id="Path" class="shp1" d="M16.02 19.94C16.3 20.22 16.75 20.22 17.03 19.94L20.04 16.93C20.32 16.65 20.32 16.2 20.04 15.92C19.77 15.64 19.32 15.64 19.04 15.92L16.02 18.94C15.74 19.22 15.74 19.67 16.02 19.94Z" />
					<path id="Oval" class="shp1" d="M16.49 17.09C16.88 17.09 17.2 16.78 17.2 16.38C17.2 15.99 16.88 15.67 16.49 15.67C16.1 15.67 15.78 15.99 15.78 16.38C15.78 16.78 16.1 17.09 16.49 17.09Z" />
					<path id="Path" class="shp1" d="M19.01 18.9C18.73 19.18 18.73 19.63 19.01 19.91C19.28 20.18 19.73 20.18 20.01 19.91C20.29 19.63 20.29 19.18 20.01 18.9C19.73 18.63 19.28 18.63 19.01 18.9L19.01 18.9Z" />
				</g>
			</g>
		</g>
	</g>
</svg>