<svg version="1.2" baseProfile="tiny-ps" xmlns="http://www.w3.org/2000/svg" viewBox="0 0 32 32" width="32" height="32">
	<title>1_Home_page_web</title>
	<style>
		tspan { white-space:pre }
		.shp0 { fill: #385d82 } 
		.shp1 { fill: #ffffff } 
	</style>
	<g id="1_Home_page_web">
		<g id="tweeter">
			<path id="Rectangle 2" class="shp0" d="M3 0L29 0C30.66 0 32 1.34 32 3L32 29C32 30.66 30.66 32 29 32L3 32C1.34 32 0 30.66 0 29L0 3C0 1.34 1.34 0 3 0Z" />
			<path id="Shape" class="shp1" d="M27.76 9.8C26.91 10.16 26.02 10.4 25.08 10.52C26.04 9.96 26.78 9.08 27.12 8.02C26.23 8.54 25.24 8.91 24.18 9.11C23.33 8.23 22.12 7.68 20.79 7.68C18.22 7.68 16.15 9.71 16.15 12.2C16.15 12.56 16.18 12.91 16.26 13.23C12.4 13.05 8.99 11.25 6.7 8.5C6.3 9.18 6.06 9.96 6.06 10.79C6.06 12.36 6.89 13.74 8.12 14.55C7.38 14.53 6.65 14.32 6.03 13.99C6.03 14 6.03 14.02 6.03 14.04C6.03 16.24 7.63 18.06 9.74 18.48C9.37 18.58 8.95 18.63 8.53 18.63C8.23 18.63 7.93 18.62 7.65 18.55C8.25 20.34 9.96 21.66 11.98 21.7C10.41 22.91 8.4 23.63 6.23 23.63C5.85 23.63 5.48 23.62 5.12 23.57C7.18 24.86 9.61 25.6 12.24 25.6C20.78 25.6 25.45 18.71 25.45 12.73C25.45 12.53 25.44 12.34 25.43 12.15C26.35 11.51 27.12 10.72 27.76 9.8Z" />
		</g>
	</g>
</svg>