<svg version="1.2" baseProfile="tiny-ps" xmlns="http://www.w3.org/2000/svg" viewBox="0 0 74 75" width="74" height="75">
	<title>Lender page</title>
	<style>
		tspan { white-space:pre }
		.shp0 { fill: #eaf6ff;stroke: #ffffff;paint-order:stroke fill markers;stroke-width: 2 } 
		.shp1 { fill: #052f91 } 
	</style>
	<g id="Lender page">
		<g id="Group 25">
			<path id="Rectangle" class="shp0" d="M37 2L37 2C56.91 2 73 18.09 73 38L73 38C73 57.91 56.91 74 37 74L37 74C17.09 74 1 57.91 1 38L1 38C1 18.09 17.09 2 37 2Z" />
			<g id="bank (6)">
				<path id="Shape" fill-rule="evenodd" class="shp1" d="M21.92 33.11C21.71 32.48 21.93 31.78 22.46 31.38L36.26 21.17C36.58 20.94 37.01 20.94 37.32 21.17L51.12 31.38C51.66 31.78 51.88 32.48 51.67 33.11C51.46 33.75 50.87 34.18 50.2 34.18L49.48 34.18C49.49 34.21 49.49 34.25 49.49 34.29L49.49 48.26L49.98 48.26C50.47 48.26 50.87 48.66 50.87 49.15C50.87 49.64 50.47 50.04 49.98 50.04L23.61 50.04C23.12 50.04 22.72 49.64 22.72 49.15C22.72 48.66 23.12 48.26 23.61 48.26L24.1 48.26L24.1 34.29C24.1 34.25 24.1 34.21 24.1 34.18L23.39 34.18C22.72 34.18 22.13 33.75 21.92 33.11ZM37.59 48.26L37.59 34.29C37.59 34.25 37.59 34.21 37.6 34.18L35.99 34.18C35.99 34.21 35.99 34.25 35.99 34.29L35.99 48.26L37.59 48.26ZM30.84 34.29C30.84 34.25 30.85 34.21 30.85 34.18L29.24 34.18C29.24 34.21 29.25 34.25 29.25 34.29L29.25 48.26L30.84 48.26L30.84 34.29ZM27.47 48.26L27.47 35.18L25.87 35.18L25.87 48.26L27.47 48.26ZM34.22 48.26L34.22 35.18L32.62 35.18L32.62 48.26L34.22 48.26ZM40.96 48.26L40.96 35.18L39.37 35.18L39.37 48.26L40.96 48.26ZM47.71 48.26L47.71 35.18L46.12 35.18L46.12 48.26L47.71 48.26ZM44.34 34.29C44.34 34.25 44.34 34.21 44.35 34.18L42.73 34.18C42.74 34.21 42.74 34.25 42.74 34.29L42.74 48.26L44.34 48.26L44.34 34.29ZM24.08 32.4L49.5 32.4L36.79 22.99L24.08 32.4Z" />
				<path id="Shape" class="shp1" d="M51.65 51.1L21.94 51.1C21.45 51.1 21.05 51.5 21.05 51.99C21.05 52.48 21.45 52.88 21.94 52.88L51.65 52.88C52.14 52.88 52.54 52.48 52.54 51.99C52.54 51.5 52.14 51.1 51.65 51.1Z" />
			</g>
		</g>
	</g>
</svg>