<svg version="1.2" baseProfile="tiny-ps" xmlns="http://www.w3.org/2000/svg" viewBox="0 0 89 82" width="89" height="82">
	<title>Lender page</title>
	<style>
		tspan { white-space:pre }
		.shp0 { fill: #052f91 } 
		.shp1 { fill: #ffffff } 
	</style>
	<g id="Lender page">
		<g id="feature">
			<path id="Shape" class="shp0" d="M5.94 70.23L8.91 70.23L8.91 67.3L5.94 67.3C4.3 67.3 2.97 65.99 2.97 64.38L2.97 5.87C2.97 4.26 4.3 2.95 5.94 2.95L71.26 2.95C72.9 2.95 74.22 4.26 74.22 5.87L74.22 8.8L77.19 8.8L77.19 5.87C77.19 2.64 74.53 0.02 71.26 0.02L5.94 0.02C2.66 0.02 0 2.64 0 5.87L0 64.38C0 67.61 2.66 70.23 5.94 70.23Z" />
			<path id="Shape" class="shp0" d="M5.94 5.87L8.91 5.87L8.91 8.8L5.94 8.8L5.94 5.87Z" />
			<path id="Shape" class="shp0" d="M11.88 5.87L14.84 5.87L14.84 8.8L11.88 8.8L11.88 5.87Z" />
			<path id="Shape" class="shp0" d="M17.81 5.87L20.78 5.87L20.78 8.8L17.81 8.8L17.81 5.87Z" />
			<path id="Rectangle" class="shp1" d="M15 14L86 14L86 80L15 80L15 14Z" />
			<path id="Shape" fill-rule="evenodd" class="shp0" d="M11.65 17.33C11.65 14.1 14.31 11.48 17.59 11.48L82.91 11.48C86.19 11.48 88.85 14.1 88.85 17.33L88.85 75.83C88.85 79.07 86.19 81.69 82.91 81.69L17.59 81.69C14.31 81.69 11.65 79.07 11.65 75.83L11.65 17.33ZM14.62 75.83C14.62 77.45 15.95 78.76 17.59 78.76L82.91 78.76C84.55 78.76 85.88 77.45 85.88 75.83L85.88 17.33C85.88 15.71 84.55 14.4 82.91 14.4L17.59 14.4C15.95 14.4 14.62 15.71 14.62 17.33L14.62 75.83Z" />
			<path id="Shape" class="shp0" d="M17.81 17.57L20.78 17.57L20.78 20.5L17.81 20.5L17.81 17.57Z" />
			<path id="Shape" class="shp0" d="M23.75 17.57L26.72 17.57L26.72 20.5L23.75 20.5L23.75 17.57Z" />
			<path id="Shape" class="shp0" d="M29.69 17.57L32.66 17.57L32.66 20.5L29.69 20.5L29.69 17.57Z" />
			<path id="Shape" class="shp0" d="M17.81 23.43L83.13 23.43L83.13 26.35L17.81 26.35L17.81 23.43Z" />
			<path id="Shape" class="shp0" d="M17.81 30.74L29.69 30.74L29.69 33.66L17.81 33.66L17.81 30.74Z" />
			<path id="Shape" class="shp0" d="M17.81 36.59L26.72 36.59L26.72 39.51L17.81 39.51L17.81 36.59Z" />
		</g>
	</g>
</svg>