<svg version="1.2" baseProfile="tiny-ps" xmlns="http://www.w3.org/2000/svg" viewBox="0 0 36 36" width="36" height="36">
	<title>Contact us_web</title>
	<defs>
		<linearGradient id="grd1" gradientUnits="userSpaceOnUse"  x1="26.734" y1="17.947" x2="10.001" y2="17.947">
			<stop offset="0" stop-color="#1facd4"  />
			<stop offset="1" stop-color="#6acac0"  />
		</linearGradient>
	</defs>
	<style>
		tspan { white-space:pre }
		.shp0 { fill: #eaf6ff;stroke: #24499f } 
		.shp1 { fill: url(#grd1) } 
	</style>
	<g id="Contact us_web">
		<g id="facebook (2) copy 3">
			<path id="Rectangle 2" class="shp0" d="M18 0L18 0C27.95 0 36 8.05 36 18L36 18C36 27.95 27.95 36 18 36L18 36C8.05 36 0 27.95 0 18L0 18C0 8.05 8.05 0 18 0Z" />
			<g id="placeholder">
				<path id="Shape" fill-rule="evenodd" class="shp1" d="M25.06 20.23L18.37 29.89L11.66 20.21C9.16 16.88 9.53 11.38 12.45 8.45C14.03 6.87 16.13 6 18.37 6C20.6 6 22.7 6.87 24.29 8.45C27.21 11.38 27.57 16.88 25.06 20.23ZM21.5 14.29C21.5 12.61 20.13 11.24 18.45 11.24C16.76 11.24 15.39 12.61 15.39 14.29C15.39 15.97 16.76 17.35 18.45 17.35C20.13 17.35 21.5 15.97 21.5 14.29Z" />
			</g>
		</g>
	</g>
</svg>