<svg version="1.2" baseProfile="tiny-ps" xmlns="http://www.w3.org/2000/svg" viewBox="0 0 75 74" width="75" height="74">
	<title>Lender page</title>
	<style>
		tspan { white-space:pre }
		.shp0 { fill: #eaf6ff;stroke: #ffffff;paint-order:stroke fill markers;stroke-width: 2 } 
		.shp1 { fill: #052f91 } 
	</style>
	<g id="Lender page">
		<g id="Group 25">
			<path id="Rectangle" class="shp0" d="M38 1L38 1C57.91 1 74 17.09 74 37L74 37C74 56.91 57.91 73 38 73L38 73C18.09 73 2 56.91 2 37L2 37C2 17.09 18.09 1 38 1Z" />
			<g id="-18">
				<path id="Shape" fill-rule="evenodd" class="shp1" d="M37.96 56.92C27.24 57.14 17.78 47.69 18 36.96C18.02 19.24 39.54 10.33 52.08 22.85C64.6 35.39 55.68 56.9 37.96 56.92ZM37.96 19.34C28.49 19.14 20.15 27.49 20.34 36.96C20.36 52.6 39.35 60.47 50.43 49.42C61.47 38.35 53.61 19.35 37.96 19.34Z" />
				<path id="Path" class="shp1" d="M33.33 31.58L35.35 31.58L35.35 44.91L37.69 44.91L37.69 29.24L33.33 29.24L33.33 31.58Z" />
				<path id="Shape" fill-rule="evenodd" class="shp1" d="M48.05 35.86C51.91 38.72 49.93 44.91 45.06 44.94C40.2 44.91 38.22 38.72 42.08 35.86C39.82 33.34 41.65 29.23 45.06 29.24C48.48 29.23 50.31 33.34 48.05 35.86ZM45.06 34.88C47.25 34.79 47.25 31.67 45.06 31.58C44.16 31.58 43.42 32.32 43.42 33.23C43.42 34.14 44.16 34.88 45.06 34.88ZM45.06 42.6C46.55 42.6 47.76 41.4 47.76 39.91C47.61 36.34 42.52 36.33 42.37 39.91C42.37 41.4 43.58 42.6 45.06 42.6Z" />
				<path id="Path" class="shp1" d="M29.97 32.83L27.63 32.83L27.63 35.05L25.41 35.05L25.41 37.39L27.63 37.39L27.63 39.61L29.97 39.61L29.97 37.39L32.19 37.39L32.19 35.05L29.97 35.05L29.97 32.83Z" />
			</g>
		</g>
	</g>
</svg>