<svg version="1.2" baseProfile="tiny-ps" xmlns="http://www.w3.org/2000/svg" viewBox="0 0 33 33" width="33" height="33">
	<title>1_Home_page_web</title>
	<style>
		tspan { white-space:pre }
		.shp0 { fill: #385d82 } 
		.shp1 { fill: #fafafa } 
	</style>
	<g id="1_Home_page_web">
		<g id="facebook (2)">
			<path id="Shape" class="shp0" d="M28 0L4 0C1.79 0 0 1.79 0 4L0 28C0 30.21 1.79 32 4 32L28 32C30.21 32 32 30.21 32 28L32 4C32 1.79 30.21 0 28 0Z" />
			<path id="Shape" class="shp1" d="M27 16L22 16L22 12C22 10.9 22.9 11 24 11L26 11L26 6L22 6L22 6C18.69 6 16 8.69 16 12L16 16L12 16L12 21L16 21L16 32L22 32L22 21L25 21L27 16Z" />
		</g>
	</g>
</svg>