<svg version="1.2" baseProfile="tiny-ps" xmlns="http://www.w3.org/2000/svg" viewBox="0 0 75 75" width="75" height="75">
	<title>Lender page</title>
	<style>
		tspan { white-space:pre }
		.shp0 { fill: #eaf6ff;stroke: #ffffff;paint-order:stroke fill markers;stroke-width: 2 } 
		.shp1 { fill: #052f91 } 
	</style>
	<g id="Lender page">
		<g id="Group 25">
			<path id="Rectangle" class="shp0" d="M38 2L38 2C57.91 2 74 18.09 74 38L74 38C74 57.91 57.91 74 38 74L38 74C18.09 74 2 57.91 2 38L2 38C2 18.09 18.09 2 38 2Z" />
			<g id="id-card">
				<path id="Shape" fill-rule="evenodd" class="shp1" d="M57.21 33.5L57.21 49.81C57.21 52.67 54.89 55 52.03 55L23.18 55C20.32 55 18 52.67 18 49.81L18 33.5C18 30.64 20.32 28.32 23.18 28.32L36.46 28.32L36.46 23.15C36.46 22.51 36.97 22 37.61 22C38.24 22 38.75 22.51 38.75 23.15L38.75 28.32L52.03 28.32C54.89 28.32 57.21 30.64 57.21 33.5ZM54.91 33.5C54.91 31.91 53.62 30.62 52.03 30.62L23.18 30.62C21.59 30.62 20.3 31.91 20.3 33.5L20.3 49.81C20.3 51.4 21.59 52.7 23.18 52.7L52.03 52.7C53.62 52.7 54.91 51.4 54.91 49.81L54.91 33.5Z" />
				<path id="Shape" fill-rule="evenodd" class="shp1" d="M32.87 42.68C34.2 43.55 35.16 44.96 35.44 46.64C35.53 47.17 35.39 47.71 35.04 48.13C34.69 48.55 34.18 48.79 33.64 48.79L25.65 48.79C25.11 48.79 24.6 48.55 24.25 48.13C23.9 47.7 23.76 47.15 23.85 46.61C24.14 44.94 25.1 43.55 26.43 42.68C25.59 41.84 25.08 40.69 25.08 39.41C25.08 36.88 27.13 34.81 29.65 34.81C32.17 34.81 34.22 36.88 34.22 39.41C34.22 40.69 33.7 41.84 32.87 42.68ZM29.65 41.72C30.91 41.72 31.94 40.68 31.94 39.41C31.94 38.14 30.91 37.11 29.65 37.11C28.38 37.11 27.35 38.14 27.35 39.41C27.35 40.68 28.38 41.72 29.65 41.72ZM33.07 46.49C32.59 45.03 31.22 44.02 29.65 44.02C28.07 44.02 26.7 45.03 26.22 46.49L33.07 46.49Z" />
				<path id="Shape" class="shp1" d="M51.02 36.36L40.11 36.36C39.48 36.36 38.96 36.89 38.96 37.53C38.96 38.17 39.48 38.69 40.11 38.69L51.02 38.69C51.65 38.69 52.16 38.17 52.16 37.53C52.16 36.89 51.65 36.36 51.02 36.36Z" />
				<path id="Shape" class="shp1" d="M40.11 42.96L48.69 42.96C49.32 42.96 49.84 42.44 49.84 41.8C49.84 41.16 49.32 40.64 48.69 40.64L40.11 40.64C39.48 40.64 38.96 41.16 38.96 41.8C38.96 42.44 39.48 42.96 40.11 42.96Z" />
				<path id="Shape" class="shp1" d="M51.02 44.52L40.11 44.52C39.48 44.52 38.96 45.04 38.96 45.68C38.96 46.33 39.48 46.85 40.11 46.85L51.02 46.85C51.65 46.85 52.16 46.33 52.16 45.68C52.16 45.04 51.65 44.52 51.02 44.52Z" />
			</g>
		</g>
	</g>
</svg>