<svg version="1.2" baseProfile="tiny-ps" xmlns="http://www.w3.org/2000/svg" viewBox="0 0 77 81" width="77" height="81">
	<title>Lender page</title>
	<defs>
		<linearGradient id="grd1" gradientUnits="userSpaceOnUse"  x1="73" y1="38" x2="41" y2="38">
			<stop offset="0" stop-color="#1facd4"  />
			<stop offset="1" stop-color="#6acac0"  />
		</linearGradient>
	</defs>
	<style>
		tspan { white-space:pre }
		.shp0 { fill: #ffffff } 
		.shp1 { fill: url(#grd1) } 
		.shp2 { fill: #052f91 } 
	</style>
	<g id="Lender page">
		<g id="file (5)">
			<path id="Rectangle" class="shp0" d="M7 0L51 0C54.32 0 56.95 2.68 56.88 6L55.62 70.5C55.55 73.82 52.82 76.67 49.51 76.88L6.99 79.62C3.68 79.83 1 77.32 1 74L1 6C1 2.68 3.68 0 7 0Z" />
			<path id="Oval" class="shp1" d="M57 54C65.84 54 73 46.84 73 38C73 29.16 65.84 22 57 22C48.16 22 41 29.16 41 38C41 46.84 48.16 54 57 54Z" />
			<path id="Shape" fill-rule="evenodd" class="shp2" d="M76.11 38.33C76.11 48.44 67.69 56.67 57.33 56.67C46.98 56.67 38.56 48.44 38.56 38.33C38.56 28.23 46.98 20 57.33 20C67.69 20 76.11 28.23 76.11 38.33ZM72.7 38.33C72.7 30.06 65.81 23.33 57.33 23.33C48.86 23.33 41.97 30.06 41.97 38.33C41.97 46.6 48.86 53.33 57.33 53.33C65.81 53.33 72.7 46.6 72.7 38.33Z" />
			<path id="Shape" fill-rule="evenodd" class="shp2" d="M55.63 60L59.04 60L59.04 70C59.04 70.44 58.86 70.87 58.54 71.18L50 79.51C49.69 79.82 49.25 80 48.8 80L4.41 80C2.53 80 1 78.51 1 76.67L1 3.33C1 1.49 2.53 0 4.41 0L55.63 0C57.51 0 59.04 1.49 59.04 3.33L59.04 16.67L55.63 16.67L55.63 3.33L4.41 3.33L4.41 76.67L41.97 76.67L41.97 65C41.97 64.08 42.73 63.33 43.68 63.33L55.63 63.33L55.63 60ZM55.63 66.67L45.38 66.67L45.38 76.67L48.09 76.67L55.63 69.31L55.63 66.67Z" />
			<path id="Shape" class="shp2" d="M48.8 20L48.8 15C48.8 14.08 48.03 13.33 47.09 13.33L12.95 13.33C12.01 13.33 11.24 14.08 11.24 15L11.24 35C11.24 35.92 12.01 36.67 12.95 36.67L35.14 36.67L35.14 33.33L14.66 33.33L14.66 16.67L45.38 16.67L45.38 20L48.8 20Z" />
			<path id="Shape" class="shp2" d="M11.24 43.33L28.31 43.33L28.31 46.67L11.24 46.67L11.24 43.33Z" />
			<path id="Shape" class="shp2" d="M31.73 43.33L35.14 43.33L35.14 46.67L31.73 46.67L31.73 43.33Z" />
			<path id="Shape" class="shp2" d="M11.24 53.33L21.48 53.33L21.48 56.67L11.24 56.67L11.24 53.33Z" />
			<path id="Shape" class="shp2" d="M24.9 53.33L41.97 53.33L41.97 56.67L24.9 56.67L24.9 53.33Z" />
			<path id="Shape" class="shp2" d="M11.24 63.33L28.31 63.33L28.31 66.67L11.24 66.67L11.24 63.33Z" />
			<path id="Shape" class="shp2" d="M31.73 63.33L38.56 63.33L38.56 66.67L31.73 66.67L31.73 63.33Z" />
			<path id="Shape" class="shp0" d="M56.13 30.49L49.3 37.15L51.71 39.51L55.63 35.69L55.63 46.67L59.04 46.67L59.04 35.69L62.95 39.51L65.37 37.15L58.54 30.49C57.87 29.84 56.79 29.84 56.13 30.49L56.13 30.49Z" />
		</g>
	</g>
</svg>