<svg version="1.2" baseProfile="tiny-ps" xmlns="http://www.w3.org/2000/svg" viewBox="0 0 32 32" width="32" height="32">
	<title>1_Home_page_web</title>
	<style>
		tspan { white-space:pre }
		.shp0 { fill: #385d82 } 
		.shp1 { fill: #ffffff } 
	</style>
	<g id="1_Home_page_web">
		<g id="LinkedIn Copy">
			<path id="Rectangle 2" class="shp0" d="M3 0L29 0C30.66 0 32 1.34 32 3L32 29C32 30.66 30.66 32 29 32L3 32C1.34 32 0 30.66 0 29L0 3C0 1.34 1.34 0 3 0Z" />
			<path id="LinkedIn" fill-rule="evenodd" class="shp1" d="M26.49 18.17L26.49 25.6L22.19 25.6L22.19 18.67C22.19 16.93 21.56 15.74 20 15.74C18.81 15.74 18.11 16.54 17.79 17.31C17.68 17.59 17.65 17.98 17.65 18.36L17.65 25.6L13.34 25.6C13.34 25.6 13.4 13.86 13.34 12.64L17.65 12.64L17.65 14.48C17.64 14.49 17.63 14.51 17.62 14.52L17.65 14.52L17.65 14.48C18.22 13.6 19.25 12.34 21.53 12.34C24.37 12.34 26.49 14.19 26.49 18.17ZM11.25 8.64C11.25 9.88 10.31 10.88 8.81 10.88L8.78 10.88C7.34 10.88 6.4 9.88 6.4 8.64C6.4 7.37 7.36 6.4 8.84 6.4C10.31 6.4 11.22 7.37 11.25 8.64ZM6.66 12.64L10.96 12.64L10.96 25.6L6.66 25.6L6.66 12.64Z" />
		</g>
	</g>
</svg>