<svg version="1.2" baseProfile="tiny-ps" xmlns="http://www.w3.org/2000/svg" viewBox="0 0 24 24" width="24" height="24">
	<title>Lender page</title>
	<style>
		tspan { white-space:pre }
		.shp0 { fill: #000000 } 
	</style>
	<g id="Lender page">
		<g id="plus (3)">
			<path id="Path" class="shp0" d="M22.78 10.79L13.19 10.79L13.19 1.2C13.19 0.54 12.65 0 11.99 0C11.33 0 10.79 0.54 10.79 1.2L10.79 10.79L1.2 10.79C0.54 10.79 0 11.33 0 11.99C0 12.65 0.54 13.19 1.2 13.19L10.79 13.19L10.79 22.78C10.79 23.44 11.33 23.98 11.99 23.98C12.65 23.98 13.19 23.44 13.19 22.78L13.19 13.19L22.78 13.19C23.44 13.19 23.98 12.65 23.98 11.99C23.98 11.33 23.44 10.79 22.78 10.79Z" />
		</g>
	</g>
</svg>