<svg version="1.2" baseProfile="tiny-ps" xmlns="http://www.w3.org/2000/svg" viewBox="0 0 36 36" width="36" height="36">
	<title>Contact us_web</title>
	<defs>
		<linearGradient id="grd1" gradientUnits="userSpaceOnUse"  x1="25.01" y1="18.5" x2="10" y2="18.5">
			<stop offset="0" stop-color="#1facd4"  />
			<stop offset="1" stop-color="#6acac0"  />
		</linearGradient>
	</defs>
	<style>
		tspan { white-space:pre }
		.shp0 { fill: #eaf6ff;stroke: #24499f } 
		.shp1 { fill: url(#grd1) } 
	</style>
	<g id="Contact us_web">
		<g id="facebook (2) copy">
			<path id="Rectangle 2" class="shp0" d="M18 0L18 0C27.95 0 36 8.05 36 18L36 18C36 27.95 27.95 36 18 36L18 36C8.05 36 0 27.95 0 18L0 18C0 8.05 8.05 0 18 0Z" />
			<path id="Shape" class="shp1" d="M25 22.84C25.03 23.08 24.96 23.29 24.78 23.47L22.67 25.57C22.57 25.68 22.45 25.77 22.29 25.84C22.14 25.92 21.99 25.96 21.84 25.98C21.83 25.98 21.8 25.99 21.75 25.99C21.69 26 21.62 26 21.54 26C21.34 26 21.01 25.97 20.56 25.9C20.11 25.83 19.56 25.66 18.91 25.39C18.26 25.12 17.52 24.71 16.69 24.17C15.87 23.63 14.99 22.89 14.05 21.95C13.31 21.22 12.7 20.52 12.21 19.85C11.72 19.18 11.33 18.57 11.04 18C10.74 17.43 10.52 16.92 10.37 16.46C10.22 16 10.12 15.6 10.07 15.27C10.01 14.93 9.99 14.67 10 14.48C10.01 14.29 10.02 14.18 10.02 14.16C10.04 14.01 10.09 13.86 10.16 13.71C10.24 13.56 10.33 13.43 10.43 13.34L12.54 11.22C12.69 11.07 12.86 11 13.05 11C13.19 11 13.31 11.04 13.42 11.12C13.52 11.2 13.61 11.3 13.69 11.41L15.39 14.64C15.48 14.81 15.51 14.99 15.47 15.19C15.43 15.4 15.34 15.57 15.2 15.7L14.42 16.48C14.4 16.5 14.38 16.54 14.36 16.59C14.35 16.63 14.34 16.67 14.34 16.7C14.38 16.93 14.48 17.18 14.63 17.47C14.75 17.72 14.95 18.03 15.21 18.4C15.48 18.76 15.86 19.18 16.34 19.66C16.82 20.15 17.24 20.53 17.61 20.8C17.98 21.07 18.29 21.26 18.54 21.39C18.79 21.52 18.98 21.6 19.12 21.62L19.31 21.66C19.34 21.66 19.37 21.65 19.42 21.64C19.46 21.62 19.5 21.6 19.52 21.58L20.43 20.66C20.62 20.49 20.84 20.41 21.09 20.41C21.27 20.41 21.42 20.44 21.52 20.5L21.54 20.5L24.61 22.31C24.83 22.45 24.96 22.63 25 22.84Z" />
		</g>
	</g>
</svg>