<svg version="1.2" baseProfile="tiny-ps" xmlns="http://www.w3.org/2000/svg" viewBox="0 0 34 34" width="34" height="34">
	<title>borrower page</title>
	<style>
		tspan { white-space:pre }
		.shp0 { fill: #153a5b } 
	</style>
	<g id="borrower page">
		<g id="changing-money">
			<g id="Group 24">
				<path id="Shape" class="shp0" d="M9.49 23.31L23.52 9.28L25.17 10.93L11.14 24.96L9.49 23.31Z" />
				<path id="Shape" fill-rule="evenodd" class="shp0" d="M23.18 19.46C25.11 19.46 26.68 21.03 26.68 22.97C26.68 24.91 25.11 26.48 23.18 26.48C21.24 26.48 19.67 24.91 19.67 22.97C19.67 21.03 21.24 19.46 23.18 19.46ZM23.18 21.8C22.53 21.8 22.01 22.32 22.01 22.97C22.01 23.61 22.53 24.14 23.18 24.14C23.82 24.14 24.35 23.61 24.35 22.97C24.35 22.32 23.82 21.8 23.18 21.8Z" />
				<path id="Shape" fill-rule="evenodd" class="shp0" d="M7.98 11.28C7.98 9.34 9.55 7.77 11.48 7.77C13.42 7.77 14.99 9.34 14.99 11.28C14.99 13.21 13.42 14.78 11.48 14.78C9.55 14.78 7.98 13.21 7.98 11.28ZM10.32 11.28C10.32 11.92 10.84 12.45 11.48 12.45C12.13 12.45 12.65 11.92 12.65 11.28C12.65 10.63 12.13 10.11 11.48 10.11C10.84 10.11 10.32 10.63 10.32 11.28Z" />
			</g>
			<path id="Shape" class="shp0" d="M16.99 1.57C20.37 1.57 23.58 2.65 26.23 4.64L24.17 4.64L24.17 6.21L29.21 6.21L29.21 1.16L27.65 1.16L27.65 3.75C24.64 1.32 20.91 0 16.99 0C7.62 0 0 7.62 0 16.99L1.57 16.99C1.57 8.49 8.49 1.57 16.99 1.57Z" />
			<path id="Shape" class="shp0" d="M32.41 16.99C32.41 25.5 25.5 32.41 16.99 32.41C13.71 32.41 10.58 31.39 7.97 29.5L10.02 29.5L10.02 27.93L4.97 27.93L4.97 32.98L6.54 32.98L6.54 30.39C9.51 32.72 13.16 33.98 16.99 33.98C26.36 33.98 33.98 26.36 33.98 16.99L32.41 16.99Z" />
		</g>
	</g>
</svg>