<svg version="1.2" baseProfile="tiny-ps" xmlns="http://www.w3.org/2000/svg" viewBox="0 0 74 74" width="74" height="74">
	<title>Lender page</title>
	<style>
		tspan { white-space:pre }
		.shp0 { fill: #d8eeff;stroke: #ffffff;paint-order:stroke fill markers;stroke-width: 2 } 
		.shp1 { fill: #ffffff;stroke: #052f91 } 
		.shp2 { fill: #052f91 } 
		.shp3 { fill: #55c4c6 } 
	</style>
	<g id="Lender page">
		<g id="Group 25 Copy 4">
			<path id="Rectangle" class="shp0" d="M6 1L68 1C70.76 1 73 3.23 73 6L73 68C73 70.76 70.76 73 68 73L6 73C3.23 73 1 70.76 1 68L1 6C1 3.23 3.23 1 6 1Z" />
			<g id="Group 28">
				<path id="Rectangle" class="shp1" d="M56.5 17L56.5 57C56.5 58.94 54.94 60.5 53 60.5L22 60.5C20.06 60.5 18.5 58.94 18.5 57L18.5 17C18.5 15.06 20.06 13.5 22 13.5L53 13.5C54.94 13.5 56.5 15.06 56.5 17Z" />
				<g id="collaboration (4)">
					<path id="Shape" fill-rule="evenodd" class="shp2" d="M40.6 24.1C40.6 25.81 39.21 27.2 37.5 27.2C35.79 27.2 34.4 25.81 34.4 24.1C34.4 22.39 35.79 21 37.5 21C39.21 21 40.6 22.39 40.6 24.1ZM39.57 24.1C39.57 22.96 38.64 22.03 37.5 22.03C36.36 22.03 35.43 22.96 35.43 24.1C35.43 25.24 36.36 26.17 37.5 26.17C38.64 26.17 39.57 25.24 39.57 24.1Z" />
					<path id="Shape" fill-rule="evenodd" class="shp2" d="M42.15 30.3L42.15 33.4C42.15 34.26 41.46 34.95 40.6 34.95L34.4 34.95C33.54 34.95 32.85 34.26 32.85 33.4L32.85 30.3C32.85 28.87 34.01 27.72 35.43 27.72L35.56 27.72L35.66 27.77C36.82 28.35 38.18 28.35 39.34 27.77L39.44 27.72L39.57 27.72C40.99 27.72 42.15 28.87 42.15 30.3ZM41.12 30.3C41.12 29.49 40.49 28.81 39.68 28.75C38.3 29.39 36.7 29.39 35.32 28.75C34.51 28.81 33.88 29.49 33.88 30.3L33.88 33.4C33.88 33.69 34.11 33.92 34.4 33.92L40.6 33.92C40.89 33.92 41.12 33.69 41.12 33.4L41.12 30.3Z" />
					<path id="Shape" fill-rule="evenodd" class="shp2" d="M51.45 41.15C51.45 42.86 50.06 44.25 48.35 44.25C46.64 44.25 45.25 42.86 45.25 41.15C45.25 39.44 46.64 38.05 48.35 38.05C50.06 38.05 51.45 39.44 51.45 41.15ZM50.42 41.15C50.42 40.01 49.49 39.08 48.35 39.08C47.21 39.08 46.28 40.01 46.28 41.15C46.28 42.29 47.21 43.22 48.35 43.22C49.49 43.22 50.42 42.29 50.42 41.15Z" />
					<path id="Shape" fill-rule="evenodd" class="shp2" d="M53 47.35L53 50.45C53 51.31 52.31 52 51.45 52L45.25 52C44.39 52 43.7 51.31 43.7 50.45L43.7 47.35C43.7 45.92 44.86 44.77 46.28 44.77L46.41 44.77L46.51 44.82C47.67 45.39 49.03 45.39 50.19 44.82L50.29 44.77L50.42 44.77C51.84 44.77 53 45.92 53 47.35ZM51.97 47.35C51.97 46.54 51.34 45.86 50.53 45.8C49.15 46.44 47.55 46.44 46.17 45.8C45.36 45.86 44.73 46.54 44.73 47.35L44.73 50.45C44.73 50.73 44.96 50.97 45.25 50.97L51.45 50.97C51.74 50.97 51.97 50.73 51.97 50.45L51.97 47.35Z" />
					<path id="Shape" fill-rule="evenodd" class="shp2" d="M29.75 41.15C29.75 42.86 28.36 44.25 26.65 44.25C24.94 44.25 23.55 42.86 23.55 41.15C23.55 39.44 24.94 38.05 26.65 38.05C28.36 38.05 29.75 39.44 29.75 41.15ZM28.72 41.15C28.72 40.01 27.79 39.08 26.65 39.08C25.51 39.08 24.58 40.01 24.58 41.15C24.58 42.29 25.51 43.22 26.65 43.22C27.79 43.22 28.72 42.29 28.72 41.15Z" />
					<path id="Shape" fill-rule="evenodd" class="shp2" d="M31.3 47.35L31.3 50.45C31.3 51.31 30.61 52 29.75 52L23.55 52C22.69 52 22 51.31 22 50.45L22 47.35C22 45.92 23.16 44.77 24.58 44.77L24.71 44.77L24.81 44.82C25.97 45.39 27.33 45.39 28.49 44.82L28.59 44.77L28.72 44.77C30.14 44.77 31.3 45.92 31.3 47.35ZM30.27 47.35C30.27 46.54 29.64 45.86 28.83 45.8C27.45 46.44 25.85 46.44 24.47 45.8C23.66 45.86 23.03 46.54 23.03 47.35L23.03 50.45C23.03 50.73 23.26 50.97 23.55 50.97L29.75 50.97C30.04 50.97 30.27 50.73 30.27 50.45L30.27 47.35Z" />
					<path id="Path" class="shp3" d="M42.63 47.24C42.63 47.24 42.63 47.24 42.63 47.24C42.51 46.97 42.21 46.85 41.95 46.96L41.95 46.96C39.61 47.94 37.02 48.12 34.58 47.47L35.06 47.33C35.34 47.25 35.49 46.96 35.41 46.69C35.33 46.41 35.05 46.26 34.77 46.34L32.7 46.94C32.7 46.94 32.69 46.95 32.68 46.95C32.64 46.97 32.59 47 32.55 47.03C32.53 47.04 32.52 47.05 32.5 47.06C32.44 47.11 32.4 47.17 32.37 47.24C32.34 47.3 32.33 47.38 32.33 47.45C32.35 47.52 32.36 47.59 32.39 47.66C32.39 47.66 32.39 47.67 32.39 47.68L33.42 49.66C33.56 49.91 33.87 50.01 34.12 49.88C34.37 49.74 34.47 49.43 34.34 49.18L33.92 48.37C36.7 49.21 39.68 49.05 42.35 47.92C42.61 47.8 42.74 47.5 42.63 47.24Z" />
					<path id="Path" class="shp3" d="M51.3 34.58C51.1 34.38 50.77 34.38 50.57 34.58L49.84 35.32C49.41 30.79 46.54 26.86 42.35 25.09C42.09 24.97 41.79 25.1 41.67 25.36C41.56 25.62 41.68 25.92 41.95 26.04C45.7 27.63 48.31 31.12 48.78 35.17L48.2 34.58C47.99 34.39 47.67 34.39 47.47 34.6C47.27 34.8 47.27 35.11 47.47 35.32L49.02 36.87C49.22 37.07 49.55 37.07 49.75 36.87C49.75 36.87 49.75 36.87 49.75 36.87L51.3 35.32C51.5 35.11 51.5 34.79 51.3 34.58Z" />
					<path id="Path" class="shp3" d="M33.35 25.47C33.35 25.44 33.35 25.41 33.34 25.38C33.34 25.38 33.33 25.38 33.33 25.37C33.33 25.37 33.33 25.36 33.33 25.36C33.32 25.33 33.3 25.31 33.28 25.29C33.27 25.26 33.25 25.23 33.22 25.2C33.19 25.17 33.16 25.15 33.12 25.13C33.1 25.12 33.08 25.1 33.06 25.09L31 24.15C30.73 24.04 30.43 24.17 30.32 24.43C30.22 24.68 30.33 24.97 30.57 25.09L31.64 25.58C27.61 27.73 25.1 31.93 25.1 36.5C25.1 36.79 25.33 37.02 25.62 37.02C25.9 37.02 26.13 36.79 26.13 36.5C26.13 32.48 28.26 28.75 31.73 26.71L31.35 27.49C31.23 27.75 31.34 28.06 31.59 28.18C31.66 28.22 31.74 28.23 31.82 28.23C32.01 28.23 32.2 28.12 32.28 27.94L33.31 25.78C33.31 25.78 33.31 25.77 33.32 25.77C33.33 25.73 33.34 25.7 33.35 25.66C33.36 25.63 33.36 25.6 33.37 25.57C33.36 25.54 33.36 25.51 33.35 25.47Z" />
				</g>
			</g>
		</g>
	</g>
</svg>