<svg version="1.2" baseProfile="tiny-ps" xmlns="http://www.w3.org/2000/svg" viewBox="0 0 36 44" width="36" height="44">
	<title>Lender page</title>
	<defs>
		<linearGradient id="grd1" gradientUnits="userSpaceOnUse"  x1="11" y1="11" x2="24.334" y2="11">
			<stop offset="0" stop-color="#ff2565"  />
			<stop offset="1" stop-color="#c0083e"  />
		</linearGradient>
	</defs>
	<style>
		tspan { white-space:pre }
		.shp0 { fill: url(#grd1) } 
	</style>
	<g id="Lender page">
		<g id="Group 2">
			<path id="Shape" class="shp0" d="M23.22 5.44L22 5.44C21.83 4.62 21.46 3.87 20.97 3.22L23.22 3.22C23.84 3.22 24.33 2.72 24.33 2.11C24.33 1.5 23.84 1 23.22 1L16.56 1L12.11 1C11.5 1 11 1.5 11 2.11C11 2.72 11.5 3.22 12.11 3.22L16.56 3.22C18 3.22 19.22 4.15 19.68 5.44L12.11 5.44C11.5 5.44 11 5.94 11 6.56C11 7.17 11.5 7.67 12.11 7.67L19.68 7.67C19.22 8.96 18 9.89 16.56 9.89L12.11 9.89C11.97 9.89 11.82 9.92 11.69 9.97C11.42 10.09 11.2 10.3 11.08 10.58C10.97 10.85 10.97 11.15 11.08 11.42C11.14 11.56 11.22 11.68 11.33 11.79L20.21 20.67C20.43 20.89 20.72 21 21 21C21.28 21 21.57 20.89 21.79 20.68C22.22 20.24 22.22 19.54 21.79 19.1L14.79 12.11L16.56 12.11C19.24 12.11 21.48 10.2 22 7.67L23.22 7.67C23.84 7.67 24.33 7.17 24.33 6.56C24.33 5.94 23.84 5.44 23.22 5.44Z" />
		</g>
	</g>
</svg>