<svg version="1.2" baseProfile="tiny-ps" xmlns="http://www.w3.org/2000/svg" viewBox="0 0 75 74" width="75" height="74">
	<title>Lender page</title>
	<style>
		tspan { white-space:pre }
		.shp0 { fill: #eaf6ff;stroke: #ffffff;paint-order:stroke fill markers;stroke-width: 2 } 
		.shp1 { fill: #314451 } 
		.shp2 { fill: #052f91 } 
	</style>
	<g id="Lender page">
		<g id="Group 25">
			<path id="Rectangle" class="shp0" d="M38 1L38 1C57.91 1 74 17.09 74 37L74 37C74 56.91 57.91 73 38 73L38 73C18.09 73 2 56.91 2 37L2 37C2 17.09 18.09 1 38 1Z" />
			<g id="india">
				<path id="Shape" class="shp1" d="M56.86 40.9L56.6 40.56L56.53 40.96L56.86 40.9Z" />
				<path id="Shape" fill-rule="evenodd" class="shp2" d="M64.24 29.95L63.93 31.39C63.87 31.69 63.65 31.94 63.36 32.04L60.77 32.94L60.69 33.48C60.67 33.63 60.61 33.78 60.52 33.9L60.1 34.46L59.62 37.47C59.58 37.71 59.45 37.92 59.25 38.05C59.06 38.19 58.81 38.24 58.58 38.2L57.84 38.06L57.4 40.79C57.35 41.14 57.09 41.43 56.74 41.51C56.39 41.59 56.03 41.46 55.82 41.17L54.23 39L53.54 39.03C53.2 39.05 52.89 38.87 52.72 38.58C52.56 38.29 52.58 37.93 52.76 37.65L53.81 36.11L52.88 36C52.74 35.99 52.61 35.94 52.49 35.87L51.23 35.04L49.38 35.8L50.88 41.31C50.96 41.61 50.89 41.92 50.68 42.14C50.47 42.37 50.16 42.47 49.86 42.41L48.29 42.09L47.11 42.99L46.96 44.23C46.93 44.51 46.76 44.76 46.51 44.9L43.37 46.62C43.21 47.01 43.06 47.39 42.89 47.77C42.75 48.12 42.5 48.33 42.24 48.59C41.92 48.91 41.6 49.25 41.27 49.56C40.99 49.83 40.57 49.94 40.22 50.09L39.18 51.51C39.03 51.71 38.81 51.83 38.57 51.86L37.73 51.96L37.06 52.38L36.25 54.81L36.67 56.08C36.72 56.22 36.73 56.37 36.7 56.51L35.9 61.01C35.88 61.16 35.81 61.3 35.71 61.42L34.2 63.24L33.6 63.97L33.21 64.74C33.11 64.93 32.94 65.08 32.74 65.16L30.97 65.84C30.87 65.87 30.76 65.89 30.65 65.89C30.29 65.89 29.95 65.66 29.83 65.32L22.6 45.79C22.55 45.64 22.53 45.48 22.56 45.32L22.87 43.69L22.36 42.46L21.39 43.72C21.14 44.06 20.68 44.16 20.3 43.98L18.12 42.9C17.98 42.83 17.86 42.73 17.78 42.6L16.43 40.6C16.29 40.38 16.25 40.11 16.32 39.85C16.38 39.66 16.5 39.5 16.66 39.39L15.55 38.85C15.24 38.69 15.04 38.36 15.06 38.01C15.08 37.65 15.31 37.35 15.64 37.23L19.24 35.94L19.23 35.4L18.04 32.96L17.57 32.61C17.27 32.38 17.15 31.98 17.28 31.62L18.18 28.95C18.34 28.5 18.83 28.25 19.29 28.4L20.94 28.93L24.2 25.35L24.21 24.98C24.21 24.83 24.25 24.69 24.32 24.57L26.17 21.23L23.93 18.79C23.79 18.64 23.71 18.43 23.7 18.22L23.63 15.2L22.27 14C22.06 13.82 21.94 13.54 21.97 13.26C22 12.98 22.15 12.73 22.4 12.59L24.83 11.12C25.08 10.98 25.38 10.96 25.64 11.07L30.17 13.06L33.8 12.87C33.97 12.86 34.15 12.9 34.3 12.99L36 14.01C36.39 14.25 36.54 14.75 36.34 15.16L34.44 19.04L34.94 19.91C35.08 20.15 35.09 20.44 34.98 20.69C34.87 20.95 34.65 21.14 34.38 21.2L34.18 21.25L35.61 23.44L36.48 23.74C36.92 23.89 37.16 24.35 37.05 24.8L36.45 27.09L46.92 31.56L48.02 29.19C48.13 28.94 48.35 28.76 48.62 28.7C48.89 28.64 49.17 28.7 49.38 28.88L52.01 31.02L53.34 31.02L53.42 30.22C53.44 29.95 53.59 29.7 53.82 29.56L57.27 27.35L57.61 26.84C57.77 26.61 58.03 26.46 58.32 26.45L61.64 26.37C61.94 26.36 62.22 26.5 62.39 26.75L64.11 29.28C64.24 29.47 64.29 29.72 64.24 29.95ZM62.43 29.96L61.2 28.14L58.82 28.2L58.63 28.48C58.56 28.59 58.48 28.67 58.37 28.74L55.14 30.81L55.03 31.98C54.98 32.44 54.6 32.78 54.15 32.78L51.69 32.78C51.49 32.78 51.29 32.71 51.14 32.59L49.14 30.96L48.17 33.08C47.97 33.51 47.46 33.71 47.02 33.52L35.05 28.41C34.65 28.24 34.44 27.8 34.55 27.38L35.13 25.14L34.75 25.01C34.57 24.95 34.41 24.83 34.3 24.66L32.02 21.18C31.86 20.94 31.83 20.64 31.94 20.37C32.04 20.1 32.27 19.9 32.55 19.84L32.83 19.77L32.68 19.51C32.54 19.26 32.53 18.95 32.66 18.69L34.4 15.11L33.62 14.64L30.05 14.83C29.91 14.84 29.78 14.81 29.65 14.76L25.35 12.87L24.34 13.48L25.08 14.13C25.27 14.29 25.38 14.52 25.38 14.77L25.46 17.84L27.9 20.5C28.16 20.78 28.21 21.19 28.02 21.53L25.97 25.23L25.96 25.71C25.95 25.93 25.87 26.13 25.73 26.29L21.86 30.53C21.63 30.79 21.27 30.89 20.94 30.78L19.58 30.34L19.15 31.59L19.28 31.69C19.39 31.77 19.48 31.88 19.54 32L20.91 34.81C20.96 34.92 20.99 35.05 21 35.18L21.02 36.54C21.02 36.92 20.79 37.26 20.43 37.38L18.2 38.18L18.57 38.36L18.99 38.57C19.29 38.71 19.48 39.01 19.48 39.35C19.49 39.68 19.3 39.99 19.01 40.14L18.51 40.4L19.11 41.42L20.43 42.08L22.34 39.57C22.57 39.27 22.98 39.15 23.34 39.28C23.7 39.4 23.94 39.75 23.92 40.13L23.88 41.54L24.6 43.25C24.67 43.41 24.69 43.58 24.66 43.76L24.34 45.41L31.17 63.87L31.79 63.63L32.07 63.09C32.1 63.03 32.13 62.98 32.17 62.93L32.84 62.11L34.21 60.47L34.93 56.42L34.48 55.09C34.42 54.91 34.42 54.71 34.48 54.53L35.48 51.52C35.55 51.32 35.68 51.15 35.86 51.04L36.97 50.36C37.08 50.29 37.2 50.25 37.33 50.23L37.98 50.16L38.94 48.85C39.04 48.72 39.17 48.61 39.31 48.55L40.12 48.22L41.28 47.05L41.86 45.66C41.94 45.47 42.08 45.32 42.25 45.22L45.27 43.57L45.41 42.41C45.44 42.17 45.56 41.96 45.75 41.82L47.53 40.45C47.73 40.3 47.99 40.24 48.24 40.29L48.81 40.4L47.48 35.52C47.36 35.09 47.58 34.64 47.99 34.47L50.98 33.23C51.25 33.12 51.56 33.15 51.8 33.31L53.28 34.27L55.46 34.51C55.76 34.55 56.03 34.74 56.16 35.02C56.29 35.3 56.26 35.63 56.09 35.88L55.11 37.33C55.21 37.39 55.3 37.47 55.37 37.57L55.99 38.42L56.24 36.88C56.28 36.64 56.41 36.43 56.6 36.3C56.8 36.16 57.04 36.11 57.28 36.15L58.02 36.29L58.39 33.97C58.41 33.82 58.47 33.69 58.56 33.57L58.98 33.02L59.09 32.17C59.13 31.84 59.36 31.56 59.67 31.45L62.31 30.54L62.43 29.96Z" />
			</g>
		</g>
	</g>
</svg>