<svg version="1.2" baseProfile="tiny-ps" xmlns="http://www.w3.org/2000/svg" viewBox="0 0 44 40" width="44" height="40">
	<title>borrower page</title>
	<style>
		tspan { white-space:pre }
		.shp0 { fill: #153a5b } 
	</style>
	<g id="borrower page">
		<g id="loan (6)">
			<path id="Shape" class="shp0" d="M4.51 23.83C4.04 23.83 3.66 24.21 3.66 24.68C3.66 25.15 4.04 25.53 4.51 25.53C4.98 25.53 5.36 25.15 5.36 24.68C5.36 24.21 4.98 23.83 4.51 23.83Z" />
			<path id="Shape" fill-rule="evenodd" class="shp0" d="M43.57 29.33C43.57 30.67 42.78 31.86 41.54 32.37L28.01 38.8C28 38.81 28 38.81 27.99 38.81C26.26 39.6 24.41 40 22.5 40C20.79 40 19.11 39.67 17.53 39.03L9.41 35.74L8.77 35.74L8.77 36.59C8.77 37.07 8.38 37.45 7.91 37.45L0.85 37.45C0.38 37.45 0 37.07 0 36.59L0 21.28C0 20.81 0.38 20.43 0.85 20.43L7.91 20.43C8.38 20.43 8.77 20.81 8.77 21.28L8.77 22.13L14.4 22.13C15.42 22.13 16.43 22.39 17.32 22.89L21.82 25.42C21.94 25.49 22.09 25.53 22.23 25.53L27.74 25.53C29.62 25.53 31.15 27.06 31.15 28.94C31.15 29.1 31.14 29.25 31.11 29.41L39.16 26.26C39.16 26.25 39.17 26.25 39.18 26.25C40.18 25.88 41.3 26.03 42.18 26.65C43.05 27.26 43.57 28.27 43.57 29.33ZM7.06 22.13L1.7 22.13L1.7 35.74L7.06 35.74L7.06 22.13ZM41.87 29.33C41.87 28.81 41.63 28.34 41.2 28.04C40.78 27.74 40.25 27.67 39.77 27.84L29.37 31.92C28.88 32.19 28.32 32.34 27.74 32.34L19.09 32.34C18.62 32.34 18.24 32.72 18.24 33.19C18.24 33.66 17.86 34.04 17.39 34.04C16.92 34.04 16.54 33.66 16.54 33.19C16.54 31.78 17.68 30.64 19.09 30.64L27.74 30.64C27.99 30.64 28.23 30.58 28.45 30.48C28.51 30.44 28.57 30.41 28.63 30.39L28.64 30.38C29.14 30.07 29.45 29.53 29.45 28.94C29.45 28 28.68 27.23 27.74 27.23L22.23 27.23C21.79 27.23 21.36 27.12 20.98 26.91L16.48 24.38C15.85 24.02 15.13 23.83 14.4 23.83L8.77 23.83L8.77 34.04L9.57 34.04C9.68 34.04 9.79 34.06 9.89 34.1L18.16 37.45C19.55 38.01 21.01 38.3 22.5 38.3C24.16 38.3 25.77 37.95 27.28 37.26L40.83 30.82C40.85 30.81 40.86 30.81 40.88 30.8C41.48 30.56 41.87 29.98 41.87 29.33Z" />
			<path id="Shape" class="shp0" d="M4.51 27.23C4.04 27.23 3.66 27.61 3.66 28.08L3.66 33.19C3.66 33.66 4.04 34.04 4.51 34.04C4.98 34.04 5.36 33.66 5.36 33.19L5.36 28.08C5.36 27.61 4.98 27.23 4.51 27.23Z" />
			<path id="Shape" fill-rule="evenodd" class="shp0" d="M38.81 18.72C38.81 21.54 36.52 23.83 33.7 23.83C30.89 23.83 28.6 21.54 28.6 18.72C28.6 15.91 30.89 13.62 33.7 13.62C36.52 13.62 38.81 15.91 38.81 18.72ZM37.11 18.72C37.11 16.85 35.58 15.32 33.7 15.32C31.82 15.32 30.3 16.85 30.3 18.72C30.3 20.6 31.82 22.13 33.7 22.13C35.58 22.13 37.11 20.6 37.11 18.72Z" />
			<path id="Shape" fill-rule="evenodd" class="shp0" d="M35.4 5.11C35.4 7.92 33.11 10.21 30.3 10.21C27.48 10.21 25.19 7.92 25.19 5.11C25.19 2.29 27.48 0 30.3 0C33.11 0 35.4 2.29 35.4 5.11ZM33.7 5.11C33.7 3.23 32.17 1.7 30.3 1.7C28.42 1.7 26.89 3.23 26.89 5.11C26.89 6.98 28.42 8.51 30.3 8.51C32.17 8.51 33.7 6.98 33.7 5.11Z" />
			<path id="Shape" fill-rule="evenodd" class="shp0" d="M25.19 15.32C25.19 18.13 22.9 20.43 20.08 20.43C17.27 20.43 14.98 18.13 14.98 15.32C14.98 12.5 17.27 10.21 20.08 10.21C22.9 10.21 25.19 12.5 25.19 15.32ZM23.49 15.32C23.49 13.44 21.96 11.91 20.08 11.91C18.21 11.91 16.68 13.44 16.68 15.32C16.68 17.2 18.21 18.72 20.08 18.72C21.96 18.72 23.49 17.2 23.49 15.32Z" />
		</g>
	</g>
</svg>