<svg version="1.2" baseProfile="tiny-ps" xmlns="http://www.w3.org/2000/svg" viewBox="0 0 40 40" width="40" height="40">
	<title>borrower page</title>
	<defs>
		<clipPath clipPathUnits="userSpaceOnUse" id="cp1">
			<path d="M-43 -26.5L83 -26.5C89.64 -26.5 95 -21.14 95 -14.5L95 155.5C95 162.14 89.64 167.5 83 167.5L-43 167.5C-49.64 167.5 -55 162.14 -55 155.5L-55 -14.5C-55 -21.14 -49.64 -26.5 -43 -26.5Z" />
		</clipPath>
		<linearGradient id="grd1" gradientUnits="userSpaceOnUse"  x1="25.5" y1="27.5" x2="1.5" y2="27.5">
			<stop offset="0" stop-color="#1facd4"  />
			<stop offset="1" stop-color="#6acac0"  />
		</linearGradient>
	</defs>
	<style>
		tspan { white-space:pre }
		.shp0 { fill: #ffffff } 
		.shp1 { fill: #052f91 } 
		.shp2 { fill: url(#grd1) } 
	</style>
	<g id="borrower page">
		<g id="Mask by Mask" clip-path="url(#cp1)">
			<g id="bitcoin (3)">
				<path id="Rectangle" class="shp0" d="M7.5 1.5L32.5 1.5C35.82 1.5 38.5 4.18 38.5 7.5L38.5 33.5C38.5 36.82 35.82 39.5 32.5 39.5L27.5 39.5C13.12 39.5 1.5 27.88 1.5 13.5L1.5 7.5C1.5 4.18 4.18 1.5 7.5 1.5Z" />
				<path id="Shape" class="shp1" d="M35.63 0.5L4.58 0.5C2.33 0.5 0.5 2.33 0.5 4.58L0.5 16.84L2.13 16.84L2.13 4.58C2.13 3.23 3.23 2.13 4.58 2.13L35.63 2.13C36.98 2.13 38.08 3.23 38.08 4.58L38.08 35.63C38.08 36.98 36.98 38.08 35.63 38.08L22.56 38.08L22.56 39.72L35.63 39.72C37.89 39.71 39.71 37.89 39.72 35.63L39.72 4.58C39.71 2.33 37.89 0.5 35.63 0.5Z" />
				<path id="Rectangle-path" class="shp1" d="M3.77 7.04L36.45 7.04L36.45 8.67L3.77 8.67L3.77 7.04Z" />
				<path id="Rectangle-path" class="shp1" d="M4.58 3.77L6.22 3.77L6.22 5.4L4.58 5.4L4.58 3.77Z" />
				<path id="Rectangle-path" class="shp1" d="M7.85 3.77L9.49 3.77L9.49 5.4L7.85 5.4L7.85 3.77Z" />
				<path id="Rectangle-path" class="shp1" d="M34 3.77L35.63 3.77L35.63 5.4L34 5.4L34 3.77Z" />
				<path id="Oval" class="shp2" d="M13.5 39.5C20.13 39.5 25.5 34.13 25.5 27.5C25.5 20.87 20.13 15.5 13.5 15.5C6.87 15.5 1.5 20.87 1.5 27.5C1.5 34.13 6.87 39.5 13.5 39.5Z" />
				<g id="add-user (5)">
					<path id="Shape" fill-rule="evenodd" class="shp0" d="M18.53 31.3L18.53 31.87L6.77 31.87L6.77 31.3C6.77 29.96 7.29 28.68 8.23 27.69C8.81 27.08 9.51 26.63 10.24 26.39C9.51 25.73 9.05 24.77 9.05 23.71C9.05 21.73 10.67 20.11 12.65 20.11C14.64 20.11 16.26 21.73 16.26 23.71C16.26 24.77 15.8 25.73 15.07 26.39C15.8 26.63 16.5 27.08 17.08 27.69C18.02 28.68 18.53 29.96 18.53 31.3ZM12.65 26.18C14.01 26.18 15.12 25.07 15.12 23.71C15.12 22.35 14.01 21.25 12.65 21.25C11.29 21.25 10.19 22.35 10.19 23.71C10.19 25.07 11.29 26.18 12.65 26.18ZM17.36 30.73C17.07 28.74 15.35 27.32 13.79 27.32L11.52 27.32C9.96 27.32 8.23 28.74 7.95 30.73L17.36 30.73Z" />
					<path id="Shape" class="shp0" d="M20.05 25.04L20.05 23.33L18.91 23.33L18.91 25.04L17.21 25.04L17.21 26.18L18.91 26.18L18.91 27.89L20.05 27.89L20.05 26.18L21.76 26.18L21.76 25.04L20.05 25.04Z" />
				</g>
				<path id="Shape" class="shp1" d="M34.81 12.75L23.38 12.75L23.38 14.39L34 14.39L34 16.02L25.83 16.02L25.83 17.66L34.81 17.66C35.26 17.66 35.63 17.29 35.63 16.84L35.63 13.57C35.63 13.12 35.26 12.75 34.81 12.75Z" />
				<path id="Rectangle-path" class="shp1" d="M34 20.11L35.63 20.11L35.63 21.74L34 21.74L34 20.11Z" />
				<path id="Rectangle-path" class="shp1" d="M30.73 20.11L32.36 20.11L32.36 21.74L30.73 21.74L30.73 20.11Z" />
				<path id="Rectangle-path" class="shp1" d="M28.28 23.38L35.63 23.38L35.63 25.01L28.28 25.01L28.28 23.38Z" />
				<path id="Rectangle-path" class="shp1" d="M28.28 26.64L35.63 26.64L35.63 28.28L28.28 28.28L28.28 26.64Z" />
				<path id="Rectangle-path" class="shp1" d="M28.28 29.91L35.63 29.91L35.63 31.55L28.28 31.55L28.28 29.91Z" />
			</g>
		</g>
	</g>
</svg>