<svg version="1.2" baseProfile="tiny-ps" xmlns="http://www.w3.org/2000/svg" viewBox="0 0 74 74" width="74" height="74">
	<title>Lender page</title>
	<style>
		tspan { white-space:pre }
		.shp0 { fill: #d8eeff;stroke: #ffffff;paint-order:stroke fill markers;stroke-width: 2 } 
		.shp1 { fill: #bddbff } 
		.shp2 { fill: #ffffff } 
		.shp3 { fill: #55c4c6 } 
		.shp4 { fill: #052f91 } 
	</style>
	<g id="Lender page">
		<g id="Group 25 Copy 3">
			<path id="Rectangle" class="shp0" d="M6 1L68 1C70.76 1 73 3.23 73 6L73 68C73 70.76 70.76 73 68 73L6 73C3.23 73 1 70.76 1 68L1 6C1 3.23 3.23 1 6 1Z" />
			<g id="payment-method (5)">
				<path id="Path" class="shp1" d="M44.28 30.24C44.38 30.17 44.47 30.09 44.55 30.01L47.29 27.27L44.55 30.01C44.47 30.09 44.38 30.17 44.28 30.24L44.28 30.24Z" />
				<path id="Path" class="shp2" d="M48.41 25.03L48.41 38.46C48.4 39.07 47.91 39.57 47.29 39.58L22.68 39.58C22.06 39.57 21.56 39.07 21.56 38.46L21.56 26.15C21.56 25.54 22.06 25.04 22.68 25.03L48.41 25.03Z" />
				<path id="Path" class="shp1" d="M40.99 29.62C40.89 29.51 40.83 29.37 40.83 29.22C40.83 29.37 40.89 29.51 40.99 29.62Z" />
				<path id="Path" class="shp1" d="M40.99 29.62L41.38 30.01C41.64 30.27 41.97 30.46 42.32 30.57C41.97 30.46 41.64 30.27 41.38 30.01L40.99 29.62Z" />
				<path id="Path" class="shp2" d="M48.44 44.74C48.19 44.2 47.74 43.78 47.18 43.58C46.62 43.38 46.01 43.41 45.47 43.66L37.87 47.2C37.57 47.33 37.25 47.41 36.93 47.41L35.54 47.41C36.78 47.41 37.78 46.4 37.78 45.17C37.78 43.93 36.78 42.93 35.54 42.93L27.15 42.93C25.73 42.93 24.46 43.83 23.99 45.17L21.56 45.17L21.56 52.44L36.72 52.44C37.05 52.44 37.37 52.37 37.67 52.23L47.36 47.71C48.15 47.34 48.65 46.55 48.65 45.68C48.65 45.36 48.58 45.03 48.44 44.74L48.44 44.74Z" />
				<path id="Path" class="shp1" d="M43.37 26.44L40.99 28.83C40.89 28.93 40.83 29.07 40.83 29.22C40.83 29.07 40.89 28.93 40.99 28.83L43.37 26.44Z" />
				<path id="Path" class="shp1" d="M44.28 30.24C44.1 30.37 43.9 30.47 43.69 30.55C43.9 30.47 44.1 30.37 44.28 30.24Z" />
				<path id="Path" class="shp2" d="M42.62 20.56C42.03 20.56 41.46 20.79 41.04 21.21L37.22 25.03L43.37 25.03L43.37 26.44L40.99 28.83C40.77 29.05 40.77 29.4 40.99 29.62L41.38 30.01C41.64 30.27 41.97 30.46 42.32 30.57C42.66 30.67 43.02 30.69 43.37 30.63C43.48 30.61 43.59 30.58 43.69 30.55C43.9 30.47 44.1 30.37 44.28 30.24C44.38 30.17 44.47 30.09 44.55 30.01L47.29 27.27L48.41 27.27L48.41 32.3L50.64 32.3C51.88 32.3 52.88 31.3 52.88 30.07L54 30.07L54 20.56L42.62 20.56Z" />
				<path id="Path" class="shp3" d="M38.9 32.3C38.9 34.47 37.15 36.22 34.98 36.22C32.82 36.22 31.07 34.47 31.07 32.3C31.07 30.14 32.82 28.39 34.98 28.39C37.15 28.39 38.9 30.14 38.9 32.3Z" />
				<path id="Shape" fill-rule="evenodd" class="shp4" d="M54.56 20.56L54.56 30.07C54.56 30.38 54.31 30.63 54 30.63L53.38 30.63C53.12 31.93 51.97 32.86 50.64 32.86L48.97 32.86L48.97 38.46C48.97 39.38 48.21 40.14 47.29 40.14L22.68 40.14C21.75 40.14 21 39.38 21 38.46L21 26.15C21 25.23 21.75 24.47 22.68 24.47L36.99 24.47L40.64 20.82C41.17 20.3 41.88 20 42.62 20L54 20C54.31 20 54.56 20.25 54.56 20.56ZM47.85 27.83L47.52 27.83L44.94 30.41C44.42 30.93 43.71 31.23 42.96 31.23C42.22 31.23 41.51 30.93 40.99 30.41L40.59 30.02C40.38 29.81 40.27 29.52 40.27 29.22C40.27 29.2 40.27 29.19 40.27 29.17C40.28 28.89 40.4 28.63 40.59 28.43L42.81 26.21L42.81 25.59L22.68 25.59C22.37 25.59 22.12 25.84 22.12 26.15L22.12 38.46C22.12 38.77 22.37 39.02 22.68 39.02L47.29 39.02C47.6 39.02 47.85 38.77 47.85 38.46L47.85 27.83ZM53.44 21.12L42.62 21.12C42.18 21.12 41.75 21.3 41.44 21.61L38.57 24.47L43.37 24.47C43.68 24.47 43.93 24.72 43.93 25.03L43.93 26.44C43.93 26.59 43.87 26.73 43.77 26.84L41.39 29.22L41.78 29.62C42.17 30 42.73 30.18 43.28 30.08C43.61 30.02 43.91 29.86 44.15 29.62L46.89 26.88C47 26.77 47.14 26.71 47.29 26.71L48.97 26.71C49.89 26.71 50.64 25.96 50.64 25.03L51.76 25.03C51.76 26.58 50.51 27.83 48.97 27.83L48.97 31.75L50.64 31.75C51.57 31.75 52.32 30.99 52.32 30.07C52.32 29.76 52.57 29.51 52.88 29.51L53.44 29.51L53.44 21.12Z" />
				<path id="Shape" fill-rule="evenodd" class="shp4" d="M39.46 32.3C39.46 34.78 37.45 36.78 34.98 36.78C32.51 36.78 30.51 34.78 30.51 32.3C30.51 29.83 32.51 27.83 34.98 27.83C37.45 27.83 39.45 29.83 39.46 32.3ZM38.34 32.3C38.34 30.45 36.84 28.95 34.98 28.95C33.13 28.95 31.63 30.45 31.63 32.3C31.63 34.16 33.13 35.66 34.98 35.66C36.84 35.66 38.34 34.16 38.34 32.3Z" />
				<path id="Path" class="shp4" d="M25.43 27.16C25.25 28.04 24.56 28.73 23.68 28.9C23.42 28.96 23.24 29.19 23.24 29.45L23.24 35.16C23.24 35.42 23.42 35.65 23.68 35.71C24.56 35.88 25.25 36.57 25.43 37.45C25.48 37.71 25.71 37.9 25.98 37.9L28.27 37.9L28.27 36.78L26.4 36.78C26.07 35.82 25.31 35.07 24.36 34.73L24.36 29.88C25.31 29.54 26.07 28.79 26.4 27.83L28.27 27.83L28.27 26.71L25.98 26.71C25.71 26.71 25.48 26.9 25.43 27.16Z" />
				<path id="Path" class="shp4" d="M45.61 34.73C44.65 35.07 43.9 35.82 43.56 36.78L41.69 36.78L41.69 37.9L43.99 37.9C44.25 37.9 44.48 37.71 44.54 37.45C44.71 36.57 45.4 35.88 46.28 35.71C46.54 35.65 46.73 35.42 46.73 35.16L46.73 31.75L45.61 31.75L45.61 34.73Z" />
				<path id="Shape" fill-rule="evenodd" class="shp4" d="M47.37 43.06C48.07 43.31 48.64 43.83 48.95 44.5C49.59 45.9 48.99 47.56 47.6 48.22L37.91 52.74C37.54 52.91 37.13 53 36.72 53L21.56 53C21.25 53 21 52.75 21 52.44L21 45.17C21 44.86 21.25 44.61 21.56 44.61L23.62 44.61C24.26 43.24 25.64 42.37 27.15 42.37L35.54 42.37C36.53 42.37 37.45 42.9 37.95 43.75C38.45 44.6 38.47 45.66 37.99 46.53L45.23 43.15C45.9 42.83 46.67 42.8 47.37 43.06ZM48.09 45.68C48.09 45.44 48.03 45.19 47.93 44.97C47.74 44.57 47.4 44.26 46.99 44.11C46.57 43.96 46.11 43.98 45.71 44.17L38.11 47.7C37.74 47.88 37.33 47.96 36.93 47.97L30.51 47.97L30.51 46.85L35.54 46.85C36.47 46.85 37.22 46.1 37.22 45.17C37.22 44.24 36.47 43.49 35.54 43.49L27.15 43.49C25.97 43.49 24.91 44.24 24.52 45.35C24.44 45.58 24.23 45.73 23.99 45.73L22.12 45.73L22.12 51.88L36.72 51.88C36.97 51.88 37.21 51.83 37.43 51.72L47.12 47.21C47.71 46.93 48.09 46.34 48.09 45.68Z" />
			</g>
		</g>
	</g>
</svg>