<svg version="1.2" baseProfile="tiny-ps" xmlns="http://www.w3.org/2000/svg" viewBox="0 0 38 38" width="38" height="38">
	<title>borrower page</title>
	<style>
		tspan { white-space:pre }
		.shp0 { fill: #eaf6ff;stroke: #ffffff;paint-order:stroke fill markers } 
		.shp1 { fill: #052f91 } 
	</style>
	<g id="borrower page">
		<g id="Group 25">
			<path id="Rectangle" class="shp0" d="M19 1L19 1C28.95 1 37 9.05 37 19L37 19C37 28.95 28.95 37 19 37L19 37C9.05 37 1 28.95 1 19L1 19C1 9.05 9.05 1 19 1Z" />
			<g id="bank (7)">
				<path id="Shape" fill-rule="evenodd" class="shp1" d="M29.17 17.62L29.17 28.94C29.17 29.19 28.96 29.4 28.71 29.4L10.05 29.4C9.79 29.4 9.58 29.19 9.58 28.94L9.58 23.18L6.02 12.53C5.94 12.28 6.07 12.02 6.32 11.94L24.01 6.02C24.13 5.98 24.26 5.99 24.37 6.05C24.48 6.1 24.56 6.2 24.6 6.32L28.23 17.16C28.23 17.16 29.17 17.37 29.17 17.62ZM26.27 14.27C24.98 14.92 24.26 16.35 24.52 17.78L27.15 16.9L26.27 14.27ZM21.23 7.94C21.88 9.23 23.32 9.95 24.74 9.69L23.86 7.06L21.23 7.94ZM7.94 15.31C8.57 14.99 9.08 14.49 9.4 13.84C9.73 13.2 9.82 12.49 9.69 11.79L7.06 12.67L7.94 15.31ZM9.17 18.98C10.1 18.78 11.07 18.9 11.94 19.33C12.8 19.77 13.48 20.47 13.88 21.34L23.62 18.08C23.21 16.16 24.19 14.19 25.97 13.37L25.04 10.59C24.75 10.65 24.46 10.69 24.16 10.69C22.55 10.69 21.04 9.74 20.35 8.24L10.59 11.49C10.79 12.43 10.67 13.4 10.24 14.26C9.81 15.13 9.11 15.8 8.24 16.2L9.17 18.98ZM10.35 22.52L12.98 21.64C12.67 21 12.16 20.49 11.52 20.17C10.88 19.85 10.16 19.75 9.47 19.88L10.35 22.52ZM13.3 28.47C13.09 27.03 11.96 25.9 10.52 25.69L10.52 28.47L13.3 28.47ZM28.24 25.69C26.8 25.9 25.67 27.03 25.46 28.47L28.24 28.47L28.24 25.69ZM28.24 21.81C26.52 21.62 25.09 20.39 24.64 18.73L10.52 23.44L10.52 24.75C12.47 24.96 14.03 26.52 14.24 28.47L24.52 28.47C24.73 26.52 26.29 24.96 28.24 24.75L28.24 21.81ZM28.24 18.09L26.54 18.09L25.53 18.43C25.86 19.71 26.93 20.68 28.24 20.87L28.24 18.09Z" />
				<path id="₹10000" fill-rule="evenodd" class="shp1" d="M14.97 25.04L14.54 24.48L13.97 24.48L13.97 24.04L14.51 24.04C14.6 24.04 14.68 24.02 14.74 23.98C14.8 23.94 14.84 23.89 14.86 23.81L13.97 23.81L13.97 23.61L14.86 23.61C14.84 23.53 14.8 23.47 14.74 23.43C14.68 23.39 14.6 23.37 14.51 23.37L13.97 23.37L13.97 22.94L15.67 22.94L15.67 23.37L15.3 23.37C15.35 23.44 15.39 23.52 15.41 23.61L15.67 23.61L15.67 23.81L15.43 23.81C15.43 23.93 15.41 24.03 15.36 24.12C15.31 24.22 15.24 24.29 15.15 24.35L15.67 25.04L14.97 25.04ZM16.46 25.04L16.46 23.44L16.07 23.44L16.07 22.94L17.08 22.94L17.08 25.04L16.46 25.04ZM17.61 24.79C17.45 24.6 17.36 24.34 17.36 23.99C17.36 23.65 17.45 23.38 17.61 23.2C17.77 23.01 18.01 22.92 18.31 22.92C18.62 22.92 18.85 23.01 19.02 23.2C19.18 23.38 19.26 23.65 19.26 23.99C19.26 24.33 19.18 24.6 19.02 24.78C18.85 24.97 18.62 25.06 18.31 25.06C18.01 25.06 17.77 24.97 17.61 24.79ZM18.55 24.47C18.6 24.37 18.62 24.21 18.62 23.99C18.62 23.77 18.6 23.61 18.55 23.51C18.5 23.42 18.42 23.37 18.31 23.37C18.2 23.37 18.12 23.42 18.07 23.51C18.03 23.61 18 23.77 18 23.99C18 24.21 18.03 24.37 18.07 24.47C18.12 24.56 18.2 24.61 18.31 24.61C18.42 24.61 18.5 24.56 18.55 24.47ZM19.59 24.79C19.42 24.6 19.34 24.34 19.34 23.99C19.34 23.65 19.42 23.38 19.59 23.2C19.75 23.01 19.98 22.92 20.29 22.92C20.6 22.92 20.83 23.01 20.99 23.2C21.16 23.38 21.24 23.65 21.24 23.99C21.24 24.33 21.16 24.6 20.99 24.78C20.83 24.97 20.6 25.06 20.29 25.06C19.98 25.06 19.75 24.97 19.59 24.79ZM20.53 24.47C20.58 24.37 20.6 24.21 20.6 23.99C20.6 23.77 20.58 23.61 20.53 23.51C20.48 23.42 20.4 23.37 20.29 23.37C20.18 23.37 20.1 23.42 20.05 23.51C20 23.61 19.98 23.77 19.98 23.99C19.98 24.21 20 24.37 20.05 24.47C20.1 24.56 20.18 24.61 20.29 24.61C20.4 24.61 20.48 24.56 20.53 24.47ZM21.56 24.79C21.4 24.6 21.32 24.34 21.32 23.99C21.32 23.65 21.4 23.38 21.56 23.2C21.73 23.01 21.96 22.92 22.27 22.92C22.57 22.92 22.81 23.01 22.97 23.2C23.14 23.38 23.22 23.65 23.22 23.99C23.22 24.33 23.14 24.6 22.97 24.78C22.81 24.97 22.57 25.06 22.27 25.06C21.96 25.06 21.73 24.97 21.56 24.79ZM22.51 24.47C22.55 24.37 22.58 24.21 22.58 23.99C22.58 23.77 22.55 23.61 22.51 23.51C22.46 23.42 22.38 23.37 22.27 23.37C22.16 23.37 22.08 23.42 22.03 23.51C21.98 23.61 21.96 23.77 21.96 23.99C21.96 24.21 21.98 24.37 22.03 24.47C22.08 24.56 22.16 24.61 22.27 24.61C22.38 24.61 22.46 24.56 22.51 24.47ZM23.54 24.79C23.38 24.6 23.3 24.34 23.3 23.99C23.3 23.65 23.38 23.38 23.54 23.2C23.71 23.01 23.94 22.92 24.25 22.92C24.55 22.92 24.79 23.01 24.95 23.2C25.11 23.38 25.2 23.65 25.2 23.99C25.2 24.33 25.11 24.6 24.95 24.78C24.79 24.97 24.55 25.06 24.25 25.06C23.94 25.06 23.71 24.97 23.54 24.79ZM24.48 24.47C24.53 24.37 24.55 24.21 24.55 23.99C24.55 23.77 24.53 23.61 24.48 23.51C24.44 23.42 24.36 23.37 24.25 23.37C24.14 23.37 24.06 23.42 24.01 23.51C23.96 23.61 23.94 23.77 23.94 23.99C23.94 24.21 23.96 24.37 24.01 24.47C24.06 24.56 24.14 24.61 24.25 24.61C24.36 24.61 24.44 24.56 24.48 24.47Z" />
				<path id="₹10000" fill-rule="evenodd" class="shp1" d="M12.51 17.49L11.92 17.1L11.38 17.29L11.24 16.88L11.75 16.7C11.84 16.67 11.91 16.62 11.95 16.57C12 16.51 12.01 16.44 12 16.37L11.16 16.65L11.1 16.46L11.94 16.17C11.9 16.11 11.84 16.07 11.77 16.05C11.7 16.03 11.62 16.04 11.53 16.07L11.02 16.24L10.88 15.83L12.49 15.28L12.63 15.68L12.28 15.81C12.35 15.85 12.41 15.91 12.46 15.99L12.71 15.91L12.77 16.1L12.55 16.18C12.59 16.29 12.6 16.4 12.58 16.5C12.57 16.6 12.52 16.69 12.45 16.78L13.18 17.27L12.51 17.49ZM13.92 17.01L13.4 15.49L13.03 15.62L12.87 15.15L13.82 14.82L14.51 16.81L13.92 17.01ZM14.92 16.39C14.71 16.27 14.55 16.05 14.43 15.72C14.32 15.39 14.31 15.12 14.41 14.89C14.5 14.66 14.69 14.5 14.98 14.4C15.27 14.3 15.52 14.31 15.74 14.43C15.95 14.55 16.12 14.77 16.23 15.1C16.34 15.43 16.35 15.7 16.25 15.93C16.16 16.16 15.97 16.33 15.68 16.42C15.39 16.52 15.14 16.51 14.92 16.39ZM15.71 15.78C15.72 15.68 15.69 15.52 15.62 15.31C15.55 15.1 15.47 14.95 15.4 14.88C15.33 14.81 15.24 14.79 15.13 14.83C15.03 14.86 14.97 14.93 14.95 15.04C14.94 15.14 14.96 15.3 15.04 15.51C15.11 15.72 15.18 15.86 15.26 15.94C15.34 16.01 15.43 16.03 15.53 15.99C15.64 15.96 15.7 15.89 15.71 15.78ZM16.79 15.75C16.58 15.63 16.42 15.4 16.3 15.07C16.19 14.75 16.18 14.47 16.28 14.25C16.37 14.02 16.56 13.86 16.85 13.76C17.14 13.66 17.39 13.67 17.61 13.79C17.82 13.91 17.99 14.13 18.1 14.46C18.21 14.78 18.22 15.06 18.12 15.29C18.03 15.52 17.84 15.68 17.55 15.78C17.26 15.88 17.01 15.87 16.79 15.75ZM17.58 15.14C17.59 15.04 17.56 14.88 17.49 14.67C17.42 14.45 17.34 14.31 17.27 14.24C17.2 14.17 17.11 14.15 17 14.18C16.9 14.22 16.84 14.29 16.82 14.39C16.81 14.5 16.83 14.65 16.91 14.87C16.98 15.08 17.05 15.22 17.13 15.29C17.21 15.37 17.3 15.39 17.4 15.35C17.51 15.31 17.57 15.24 17.58 15.14ZM18.66 15.1C18.45 14.98 18.29 14.76 18.17 14.43C18.06 14.11 18.05 13.83 18.15 13.6C18.24 13.37 18.43 13.21 18.72 13.11C19.01 13.01 19.26 13.02 19.48 13.14C19.69 13.26 19.86 13.49 19.97 13.81C20.08 14.14 20.09 14.41 20 14.64C19.9 14.87 19.71 15.04 19.42 15.14C19.13 15.24 18.88 15.23 18.66 15.1ZM19.45 14.5C19.46 14.39 19.43 14.23 19.36 14.02C19.29 13.81 19.22 13.67 19.14 13.59C19.07 13.52 18.98 13.5 18.87 13.54C18.77 13.58 18.71 13.65 18.69 13.75C18.68 13.85 18.7 14.01 18.78 14.22C18.85 14.43 18.92 14.58 19 14.65C19.08 14.72 19.17 14.74 19.27 14.71C19.38 14.67 19.44 14.6 19.45 14.5ZM20.53 14.46C20.32 14.34 20.16 14.11 20.04 13.79C19.93 13.46 19.92 13.19 20.02 12.96C20.11 12.73 20.3 12.57 20.6 12.47C20.88 12.37 21.13 12.38 21.35 12.5C21.56 12.62 21.73 12.84 21.84 13.17C21.95 13.49 21.96 13.77 21.87 14C21.77 14.23 21.58 14.39 21.29 14.49C21 14.59 20.75 14.58 20.53 14.46ZM21.32 13.85C21.33 13.75 21.31 13.59 21.23 13.38C21.16 13.17 21.09 13.02 21.01 12.95C20.94 12.88 20.85 12.86 20.74 12.9C20.64 12.93 20.58 13 20.56 13.11C20.55 13.21 20.57 13.37 20.65 13.58C20.72 13.79 20.8 13.93 20.87 14.01C20.95 14.08 21.04 14.1 21.14 14.06C21.25 14.03 21.31 13.96 21.32 13.85Z" />
			</g>
		</g>
	</g>
</svg>