<svg version="1.2" baseProfile="tiny-ps" xmlns="http://www.w3.org/2000/svg" viewBox="0 0 90 91" width="90" height="91">
	<title>Lender page</title>
	<defs>
		<linearGradient id="grd1" gradientUnits="userSpaceOnUse"  x1="89.829" y1="73.389" x2="56.889" y2="73.389">
			<stop offset="0" stop-color="#1facd4"  />
			<stop offset="1" stop-color="#6acac0"  />
		</linearGradient>
	</defs>
	<style>
		tspan { white-space:pre }
		.shp0 { fill: #ffffff } 
		.shp1 { fill: #052f91 } 
		.shp2 { fill: url(#grd1) } 
	</style>
	<g id="Lender page">
		<g id="contract (2)">
			<path id="Rectangle" class="shp0" d="M30 14L84 14C86.21 14 88 15.79 88 18L88 86C88 88.21 86.21 90 84 90L30 90C27.79 90 26 88.21 26 86L26 18C26 15.79 27.79 14 30 14Z" />
			<path id="Shape" class="shp1" d="M37.43 71.86L58.39 71.86C59.21 71.86 59.88 71.19 59.88 70.37C59.88 69.54 59.21 68.87 58.39 68.87L37.43 68.87C36.6 68.87 35.93 69.54 35.93 70.37C35.93 71.19 36.6 71.86 37.43 71.86Z" />
			<path id="Shape" class="shp1" d="M28.44 13.48C28.44 14.3 29.11 14.97 29.94 14.97L82.34 14.97C84.82 14.97 86.83 16.99 86.83 19.46L86.83 55.39C86.83 56.22 87.5 56.89 88.33 56.89C89.16 56.89 89.82 56.22 89.82 55.39L89.82 19.46C89.82 15.34 86.47 11.98 82.34 11.98L29.94 11.98C29.11 11.98 28.44 12.65 28.44 13.48Z" />
			<path id="Shape" class="shp1" d="M37.43 62.88L52.4 62.88C53.23 62.88 53.89 62.21 53.89 61.38C53.89 60.56 53.23 59.89 52.4 59.89L37.43 59.89C36.6 59.89 35.93 60.56 35.93 61.38C35.93 62.21 36.6 62.88 37.43 62.88Z" />
			<path id="Shape" class="shp1" d="M52.4 86.83L26.95 86.83L26.95 19.46C26.95 15.34 23.59 11.98 19.46 11.98C15.33 11.98 11.98 15.34 11.98 19.46L11.98 70.36C11.98 72.84 9.96 74.86 7.49 74.86C5.01 74.86 2.99 72.84 2.99 70.36L2.99 3L62.88 3L62.88 7.49C62.88 8.31 63.55 8.98 64.37 8.98C65.2 8.98 65.87 8.31 65.87 7.49L65.87 1.5C65.87 0.67 65.2 0 64.37 0L1.5 0C0.67 0 0 0.67 0 1.5L0 70.36C0 74.49 3.36 77.85 7.49 77.85C11.61 77.85 14.97 74.49 14.97 70.36L14.97 19.46C14.97 16.99 16.99 14.97 19.46 14.97C21.94 14.97 23.95 16.99 23.95 19.46L23.95 74.86L16.47 74.86C15.64 74.86 14.97 75.53 14.97 76.35C14.97 77.18 15.64 77.85 16.47 77.85L23.95 77.85L23.95 88.33C23.95 89.16 24.62 89.83 25.45 89.83L52.4 89.83C53.23 89.83 53.89 89.16 53.89 88.33C53.89 87.5 53.23 86.83 52.4 86.83Z" />
			<path id="Shape" class="shp1" d="M68.87 61.38C68.87 60.56 68.2 59.89 67.37 59.89L58.39 59.89C57.56 59.89 56.89 60.56 56.89 61.38C56.89 62.21 57.56 62.88 58.39 62.88L67.37 62.88C68.2 62.88 68.87 62.21 68.87 61.38Z" />
			<path id="Shape" fill-rule="evenodd" class="shp2" d="M88.04 69.77L68.43 89.39C68.15 89.67 67.77 89.83 67.37 89.83L58.39 89.83C57.56 89.83 56.89 89.16 56.89 88.33L56.89 79.35C56.89 78.95 57.05 78.57 57.33 78.29L76.94 58.67C79.24 56.38 82.74 56.37 85.05 58.67L88.04 61.67C90.43 64.05 90.43 67.39 88.04 69.77ZM62 77.85L64.37 80.22L77.38 67.22L75.01 64.85L62 77.85ZM66.75 86.83L59.88 79.97L59.88 86.83L66.75 86.83ZM81.87 71.71L79.5 69.34L66.49 82.34L68.87 84.72L81.87 71.71ZM85.92 63.79L82.93 60.79C81.74 59.6 80.24 59.61 79.06 60.79L77.12 62.73L83.99 69.59L85.92 67.66C87.14 66.45 87.14 65 85.92 63.79Z" />
			<path id="Shape" fill-rule="evenodd" class="shp1" d="M70.36 53.9L59.88 53.9C59.06 53.9 58.39 53.23 58.39 52.4L58.39 44.91L55.39 44.91L55.39 52.4C55.39 53.23 54.72 53.9 53.89 53.9L43.42 53.9C42.59 53.9 41.92 53.23 41.92 52.4L41.92 39.55L41.48 39.98C40.89 40.57 39.95 40.57 39.36 39.98C38.78 39.4 38.78 38.45 39.36 37.87L42.36 34.88L42.36 34.87L55.83 21.4C56.42 20.81 57.36 20.81 57.95 21.4L71.42 34.87L71.42 34.88L74.41 37.87C75 38.45 75 39.4 74.41 39.98C74.12 40.28 73.74 40.42 73.36 40.42C72.97 40.42 72.59 40.28 72.3 39.98L71.86 39.55L71.86 52.4C71.86 53.23 71.19 53.9 70.36 53.9ZM68.87 50.9L68.87 36.55L56.89 24.58L44.91 36.55L44.91 50.9L52.4 50.9L52.4 43.42C52.4 42.59 53.07 41.92 53.89 41.92L59.88 41.92C60.71 41.92 61.38 42.59 61.38 43.42L61.38 50.9L68.87 50.9Z" />
		</g>
	</g>
</svg>