<svg version="1.2" baseProfile="tiny-ps" xmlns="http://www.w3.org/2000/svg" viewBox="0 0 39 38" width="39" height="38">
	<title>borrower page</title>
	<style>
		tspan { white-space:pre }
		.shp0 { fill: #eaf6ff;stroke: #ffffff;paint-order:stroke fill markers } 
		.shp1 { fill: #052f91 } 
	</style>
	<g id="borrower page">
		<g id="Group 25">
			<path id="Rectangle" class="shp0" d="M19.5 1L19.5 1C29.45 1 37.5 9.05 37.5 19L37.5 19C37.5 28.95 29.45 37 19.5 37L19.5 37C9.55 37 1.5 28.95 1.5 19L1.5 19C1.5 9.05 9.55 1 19.5 1Z" />
			<g id="-18">
				<path id="Shape" fill-rule="evenodd" class="shp1" d="M19.48 28.96C14.12 29.07 9.39 24.34 9.5 18.98C9.51 10.12 20.27 5.66 26.54 11.92C32.8 18.19 28.34 28.95 19.48 28.96ZM19.48 10.17C14.75 10.07 10.57 14.24 10.67 18.98C10.68 26.8 20.18 30.74 25.71 25.21C31.24 19.68 27.3 10.18 19.48 10.17Z" />
				<path id="Path" class="shp1" d="M22.16 16.29L23.18 16.29L23.18 22.96L24.35 22.96L24.35 15.12L22.16 15.12L22.16 16.29Z" />
				<path id="2" class="shp1" d="M20.84 23L20.84 21.96L17.21 21.96L19.12 19.91C19.63 19.37 19.99 18.88 20.21 18.45C20.43 18.02 20.54 17.62 20.54 17.23C20.54 16.55 20.32 16.03 19.88 15.64C19.44 15.26 18.84 15.07 18.08 15.07C17.56 15.07 17.09 15.18 16.69 15.39C16.29 15.6 15.98 15.9 15.76 16.28C15.54 16.66 15.43 17.09 15.43 17.56L15.43 17.56L16.74 17.56C16.74 17.12 16.86 16.76 17.09 16.51C17.32 16.25 17.65 16.12 18.07 16.12C18.43 16.12 18.71 16.23 18.92 16.46C19.13 16.69 19.23 16.99 19.23 17.37C19.23 17.65 19.15 17.93 18.99 18.21C18.83 18.49 18.57 18.84 18.19 19.26L18.19 19.26L15.59 22.1L15.59 23L20.84 23Z" />
				<path id="Path" class="shp1" d="M13.99 16.91L12.82 16.91L12.82 18.02L11.71 18.02L11.71 19.19L12.82 19.19L12.82 20.31L13.99 20.31L13.99 19.19L15.1 19.19L15.1 18.02L13.99 18.02L13.99 16.91Z" />
			</g>
		</g>
	</g>
</svg>