<svg version="1.2" baseProfile="tiny-ps" xmlns="http://www.w3.org/2000/svg" viewBox="0 0 24 22" width="24" height="22">
	<title>Lender page</title>
	<defs>
		<linearGradient id="grd1" gradientUnits="userSpaceOnUse"  x1="0" y1="10.981" x2="23.002" y2="10.981">
			<stop offset="0" stop-color="#ff2565"  />
			<stop offset="1" stop-color="#c0083e"  />
		</linearGradient>
	</defs>
	<style>
		tspan { white-space:pre }
		.shp0 { fill: url(#grd1) } 
	</style>
	<g id="Lender page">
		<g id="star">
			<path id="Shape" fill-rule="evenodd" class="shp0" d="M22.8 8.96L17.63 14.03L18.87 21.14C18.88 21.18 18.89 21.23 18.89 21.28C18.89 21.63 18.6 21.92 18.25 21.92C18.15 21.92 18.05 21.9 17.96 21.85L11.53 18.49L5.12 21.89C5.03 21.94 4.93 21.96 4.83 21.96C4.7 21.96 4.56 21.92 4.45 21.84C4.26 21.7 4.16 21.46 4.2 21.22L5.4 14.07L0.2 9.02C0.02 8.86 -0.04 8.6 0.03 8.37C0.11 8.14 0.3 7.97 0.55 7.94L7.72 6.87L10.91 0.36C11.02 0.14 11.24 0 11.48 0C11.72 0 11.94 0.14 12.05 0.35L15.28 6.85L22.46 7.87C22.7 7.9 22.89 8.07 22.97 8.3C23.05 8.53 22.98 8.79 22.8 8.96ZM21 8.95L14.77 8.06C14.56 8.03 14.38 7.9 14.29 7.71L11.48 2.08L8.72 7.73C8.63 7.92 8.45 8.04 8.24 8.08L2.01 9L6.53 13.38C6.68 13.53 6.74 13.74 6.71 13.95L5.67 20.15L11.23 17.21C11.42 17.11 11.64 17.11 11.82 17.21L17.4 20.12L16.32 13.92C16.29 13.71 16.35 13.5 16.5 13.36L21 8.95Z" />
		</g>
	</g>
</svg>