<svg version="1.2" baseProfile="tiny-ps" xmlns="http://www.w3.org/2000/svg" viewBox="0 0 39 39" width="39" height="39">
	<title>borrower page</title>
	<style>
		tspan { white-space:pre }
		.shp0 { fill: #eaf6ff;stroke: #ffffff;paint-order:stroke fill markers } 
		.shp1 { fill: #052f91 } 
	</style>
	<g id="borrower page">
		<g id="Group 25">
			<path id="Rectangle" class="shp0" d="M6.5 2L32.5 2C35.26 2 37.5 4.23 37.5 7L37.5 33C37.5 35.76 35.26 38 32.5 38L6.5 38C3.73 38 1.5 35.76 1.5 33L1.5 7C1.5 4.23 3.73 2 6.5 2Z" />
			<g id="time-left (1)">
				<path id="Path" class="shp1" d="M21.59 29.54C21.4 29.59 21.21 29.63 21.02 29.66C20.53 29.76 20.2 30.23 20.29 30.72C20.34 30.97 20.48 31.17 20.66 31.3C20.86 31.44 21.1 31.5 21.35 31.45C21.58 31.41 21.8 31.36 22.03 31.31C22.51 31.18 22.81 30.69 22.69 30.2C22.57 29.72 22.07 29.42 21.59 29.54Z" />
				<path id="Path" class="shp1" d="M28.31 17.36C28.37 17.55 28.49 17.71 28.65 17.82C28.87 17.98 29.17 18.03 29.46 17.94C29.93 17.78 30.19 17.27 30.03 16.79C29.96 16.57 29.88 16.35 29.8 16.14C29.61 15.68 29.08 15.45 28.62 15.64C28.15 15.82 27.92 16.35 28.11 16.82C28.18 17 28.25 17.18 28.31 17.36Z" />
				<path id="Path" class="shp1" d="M24.54 28.24C24.38 28.35 24.21 28.45 24.05 28.55C23.61 28.8 23.46 29.36 23.71 29.79C23.78 29.91 23.87 30.01 23.98 30.08C24.26 30.28 24.64 30.31 24.96 30.12C25.15 30.01 25.35 29.89 25.54 29.76C25.96 29.48 26.08 28.92 25.8 28.5C25.52 28.08 24.96 27.97 24.54 28.24Z" />
				<path id="Path" class="shp1" d="M30.6 19.9C30.58 19.4 30.16 19.01 29.65 19.03C29.15 19.05 28.76 19.47 28.78 19.97C28.79 20.16 28.79 20.36 28.79 20.55C28.78 20.86 28.93 21.14 29.17 21.31C29.32 21.41 29.49 21.47 29.68 21.48C30.18 21.49 30.59 21.09 30.6 20.59C30.61 20.36 30.61 20.13 30.6 19.9Z" />
				<path id="Path" class="shp1" d="M28.16 25.85C27.76 25.55 27.19 25.63 26.89 26.04C26.77 26.19 26.65 26.34 26.53 26.49C26.2 26.87 26.25 27.44 26.63 27.77C26.65 27.79 26.67 27.8 26.69 27.82C27.07 28.09 27.6 28.03 27.91 27.67C28.06 27.49 28.2 27.31 28.34 27.13C28.64 26.72 28.56 26.15 28.16 25.85Z" />
				<path id="Path" class="shp1" d="M29.5 22.57C29.02 22.42 28.51 22.68 28.36 23.16C28.3 23.35 28.24 23.53 28.17 23.71C28.02 24.11 28.16 24.54 28.49 24.78C28.55 24.82 28.62 24.86 28.69 24.88C29.16 25.06 29.69 24.83 29.86 24.36C29.95 24.14 30.02 23.92 30.09 23.71C30.24 23.23 29.97 22.72 29.5 22.57Z" />
				<path id="Path" class="shp1" d="M17.62 29.67C16.81 29.53 16.03 29.28 15.29 28.93C15.28 28.93 15.27 28.92 15.27 28.92C15.09 28.84 14.92 28.75 14.75 28.66C14.75 28.66 14.75 28.66 14.75 28.65C14.44 28.48 14.14 28.3 13.84 28.09C9.57 25.08 8.54 19.15 11.55 14.88C12.21 13.95 13 13.17 13.88 12.56C13.89 12.55 13.9 12.54 13.91 12.53C17.03 10.39 21.25 10.24 24.56 12.45L23.85 13.47C23.65 13.76 23.77 13.97 24.12 13.94L27.2 13.66C27.55 13.63 27.76 13.33 27.66 13L26.84 10.01C26.74 9.68 26.51 9.64 26.31 9.92L25.6 10.95C23.17 9.32 20.26 8.7 17.37 9.2C17.08 9.25 16.79 9.31 16.51 9.39C16.51 9.39 16.51 9.39 16.51 9.39C16.5 9.39 16.48 9.39 16.47 9.4C13.98 10.04 11.81 11.49 10.26 13.56C10.25 13.58 10.23 13.59 10.22 13.61C10.17 13.68 10.12 13.75 10.07 13.82C9.99 13.94 9.91 14.06 9.83 14.17C9.82 14.19 9.81 14.2 9.8 14.22C8.52 16.2 7.91 18.49 8.01 20.83C8.01 20.84 8.01 20.84 8.01 20.85C8.02 21.08 8.04 21.31 8.06 21.54C8.07 21.55 8.07 21.57 8.07 21.58C8.1 21.81 8.13 22.04 8.17 22.27C8.57 24.61 9.68 26.71 11.33 28.35C11.34 28.35 11.34 28.36 11.34 28.36C11.34 28.36 11.35 28.36 11.35 28.37C11.79 28.8 12.27 29.21 12.79 29.58C14.16 30.53 15.67 31.17 17.3 31.46C17.8 31.55 18.27 31.22 18.36 30.73C18.44 30.23 18.12 29.76 17.62 29.67Z" />
				<path id="Path" class="shp1" d="M18.75 12.99C18.34 12.99 18.01 13.32 18.01 13.73L18.01 21.06L24.71 24.52C24.82 24.57 24.93 24.6 25.05 24.6C25.31 24.6 25.57 24.46 25.7 24.2C25.89 23.84 25.75 23.4 25.39 23.21L19.48 20.16L19.48 13.73C19.48 13.32 19.15 12.99 18.75 12.99Z" />
			</g>
		</g>
	</g>
</svg>