<svg version="1.2" baseProfile="tiny-ps" xmlns="http://www.w3.org/2000/svg" viewBox="0 0 74 74" width="74" height="74">
	<title>Lender page</title>
	<style>
		tspan { white-space:pre }
		.shp0 { fill: #d8eeff;stroke: #ffffff;paint-order:stroke fill markers;stroke-width: 2 } 
		.shp1 { fill: #ffffff } 
		.shp2 { fill: #052f91 } 
		.shp3 { fill: #55c4c6 } 
		.shp4 { fill: #55c4c6;stroke: #ffffff;paint-order:stroke fill markers;stroke-width: 2 } 
	</style>
	<g id="Lender page">
		<g id="Group 25 Copy 2">
			<path id="Rectangle" class="shp0" d="M6 1L68 1C70.76 1 73 3.23 73 6L73 68C73 70.76 70.76 73 68 73L6 73C3.23 73 1 70.76 1 68L1 6C1 3.23 3.23 1 6 1Z" />
			<g id="desktop">
				<path id="Path" class="shp1" d="M38.81 49.26L32.63 51.47L32.39 52.29C32.06 53.46 30.79 54.41 29.58 54.41L41.86 54.41L38.81 49.26Z" />
				<path id="Path" class="shp1" d="M41.25 52.29L40.39 49.26L36.82 47.06L33.26 49.26L32.63 51.47L38.81 51.47L39.05 52.29C39.38 53.46 40.65 54.41 41.86 54.41L44.07 54.41C42.85 54.41 41.59 53.46 41.25 52.29Z" />
				<path id="Path" class="shp1" d="M50.68 49.26L52.89 49.26C54.1 49.26 55.1 48.27 55.1 47.06L55.1 42.65L50.68 38.24L50.68 49.26Z" />
				<path id="Path" class="shp1" d="M18.55 47.06C18.55 48.27 19.54 49.26 20.76 49.26L50.68 49.26C51.9 49.26 52.89 48.27 52.89 47.06L52.89 33.82L18.55 42.65L18.55 47.06Z" />
				<path id="Path" class="shp1" d="M52.89 20.59L50.68 20.59L52.89 42.65L55.1 42.65L55.1 22.79C55.1 21.58 54.1 20.59 52.89 20.59Z" />
				<path id="Path" class="shp1" d="M52.89 22.79C52.89 21.58 51.9 20.59 50.68 20.59L20.76 20.59C19.54 20.59 18.55 21.58 18.55 22.79L18.55 42.65L52.89 42.65L52.89 40.44L36.82 31.62L52.89 22.79Z" />
				<path id="Path" class="shp1" d="M52.89 22.79L50.68 22.79L36.82 31.62C36.82 31.62 50.68 40.44 50.68 40.44L52.89 40.44C52.89 40.44 52.89 22.79 52.89 22.79Z" />
				<path id="Path" class="shp1" d="M50.68 22.79L20.76 22.79C20.76 22.79 20.76 40.44 20.76 40.44C20.76 40.44 50.68 40.44 50.68 40.44C50.68 40.44 50.68 22.79 50.68 22.79Z" />
				<path id="Oval" class="shp1" d="M36.82 47.06C37.43 47.06 37.93 46.56 37.93 45.96C37.93 45.35 37.43 44.85 36.82 44.85C36.21 44.85 35.72 45.35 35.72 45.96C35.72 46.56 36.21 47.06 36.82 47.06Z" />
				<path id="Shape" fill-rule="evenodd" class="shp2" d="M55.65 22.79L55.65 47.06C55.65 48.58 54.41 49.82 52.89 49.82L41.12 49.82L41.78 52.14C42.05 53.07 43.1 53.86 44.07 53.86L48.22 53.86C48.53 53.86 48.77 54.11 48.77 54.41C48.77 54.72 48.53 54.96 48.22 54.96L25.43 54.96C25.12 54.96 24.87 54.72 24.87 54.41C24.87 54.11 25.12 53.86 25.43 53.86L29.58 53.86C30.55 53.86 31.6 53.07 31.86 52.14L32.53 49.82L20.76 49.82C19.24 49.82 18 48.58 18 47.06L18 22.79C18 21.27 19.24 20.04 20.76 20.04L52.89 20.04C54.41 20.04 55.65 21.27 55.65 22.79ZM19.1 22.79L19.1 42.1L54.54 42.1L54.54 22.79C54.54 21.88 53.8 21.14 52.89 21.14L20.76 21.14C19.85 21.14 19.1 21.88 19.1 22.79ZM39.97 49.82L33.67 49.82L32.92 52.44C32.77 52.97 32.47 53.46 32.08 53.86L41.57 53.86C41.18 53.46 40.88 52.97 40.72 52.44L39.97 49.82ZM54.54 47.06L54.54 43.2L19.1 43.2L19.1 47.06C19.1 47.97 19.85 48.71 20.76 48.71L52.89 48.71C53.8 48.71 54.54 47.97 54.54 47.06Z" />
				<path id="Path" class="shp2" d="M20.55 40.75L52.68 40.75C52.99 40.75 53.24 40.5 53.24 40.2L53.24 22.55C53.24 22.25 52.99 22 52.68 22L20.55 22C20.25 22 20 22.25 20 22.55L20 30.27C20 30.58 20.25 30.82 20.55 30.82C20.86 30.82 21.1 30.58 21.1 30.27L21.1 23.1L52.13 23.1L52.13 39.65L21.1 39.65L21.1 32.48C21.1 32.17 20.86 31.93 20.55 31.93C20.25 31.93 20 32.17 20 32.48L20 40.2C20 40.5 20.25 40.75 20.55 40.75Z" />
				<path id="Path" class="shp3" d="M26.25 24.76L26.25 38.29L43.2 38.29L46.19 35.3L46.19 24.76L26.25 24.76Z" />
				<path id="Rectangle" class="shp4" d="M26.25 24.76L46.19 24.76L46.19 28.32L26.25 28.32L26.25 24.76Z" />
				<g id="Group 15">
					<path id="Shape" fill-rule="evenodd" class="shp1" d="M44.76 36.15L44.15 36.76C44.1 36.82 44.03 36.84 43.95 36.84C43.88 36.84 43.81 36.82 43.75 36.76L43.15 36.15L42.64 36.66C42.57 36.73 42.46 36.76 42.36 36.73C42.26 36.7 42.18 36.62 42.16 36.52L41.55 33.9C41.53 33.8 41.56 33.7 41.63 33.63C41.7 33.56 41.8 33.53 41.9 33.55L44.52 34.16C44.62 34.18 44.7 34.26 44.73 34.36C44.76 34.46 44.73 34.57 44.66 34.64L44.15 35.15L44.76 35.75C44.87 35.86 44.87 36.04 44.76 36.15ZM44.15 35.95L43.55 35.35C43.44 35.24 43.44 35.05 43.55 34.94L43.89 34.6L42.21 34.21L42.6 35.89L42.94 35.55C43 35.49 43.07 35.47 43.15 35.47C43.22 35.47 43.29 35.49 43.35 35.55L43.95 36.15L44.15 35.95Z" />
					<path id="Path" class="shp1" d="M41.25 32.84L40.96 32.56C40.85 32.45 40.67 32.45 40.56 32.56C40.45 32.67 40.45 32.85 40.56 32.96L40.84 33.25C40.9 33.3 40.97 33.33 41.04 33.33C41.12 33.33 41.19 33.3 41.25 33.25C41.36 33.13 41.36 32.95 41.25 32.84Z" />
					<path id="Path" class="shp1" d="M40.69 33.62L40.29 33.62C40.13 33.62 40 33.74 40 33.9C40 34.06 40.13 34.19 40.29 34.19L40.69 34.19C40.85 34.19 40.98 34.06 40.98 33.9C40.98 33.74 40.85 33.62 40.69 33.62Z" />
					<path id="Path" class="shp1" d="M41.25 34.56C41.13 34.44 40.95 34.44 40.84 34.56L40.56 34.84C40.45 34.95 40.45 35.13 40.56 35.25C40.61 35.3 40.69 35.33 40.76 35.33C40.83 35.33 40.91 35.3 40.96 35.25L41.25 34.96C41.36 34.85 41.36 34.67 41.25 34.56Z" />
					<path id="Path" class="shp1" d="M43.25 32.56C43.13 32.45 42.95 32.45 42.84 32.56L42.56 32.84C42.44 32.95 42.44 33.13 42.56 33.25C42.61 33.3 42.69 33.33 42.76 33.33C42.83 33.33 42.9 33.3 42.96 33.25L43.25 32.96C43.36 32.85 43.36 32.67 43.25 32.56Z" />
					<path id="Path" class="shp1" d="M41.9 32C41.74 32 41.62 32.13 41.62 32.29L41.62 32.69C41.62 32.85 41.74 32.97 41.9 32.97C42.06 32.97 42.19 32.85 42.19 32.69L42.19 32.29C42.19 32.13 42.06 32 41.9 32Z" />
				</g>
				<path id="Shape" fill-rule="evenodd" class="shp2" d="M38.48 45.96C38.48 46.87 37.74 47.61 36.82 47.61C35.91 47.61 35.17 46.87 35.17 45.96C35.17 45.04 35.91 44.3 36.82 44.3C37.74 44.3 38.48 45.04 38.48 45.96ZM37.37 45.96C37.37 45.65 37.13 45.4 36.82 45.4C36.52 45.4 36.27 45.65 36.27 45.96C36.27 46.26 36.52 46.51 36.82 46.51C37.13 46.51 37.37 46.26 37.37 45.96Z" />
			</g>
		</g>
	</g>
</svg>