<svg version="1.2" baseProfile="tiny-ps" xmlns="http://www.w3.org/2000/svg" viewBox="0 0 32 32" width="32" height="32">
	<title>1_Home_page_web</title>
	<style>
		tspan { white-space:pre }
		.shp0 { fill: #385d82 } 
		.shp1 { fill: #ffffff } 
	</style>
	<g id="1_Home_page_web">
		<g id="youtube">
			<path id="Rectangle 2" class="shp0" d="M3 0L29 0C30.66 0 32 1.34 32 3L32 29C32 30.66 30.66 32 29 32L3 32C1.34 32 0 30.66 0 29L0 3C0 1.34 1.34 0 3 0Z" />
			<g id="youtube-logo (2)">
				<path id="Shape" fill-rule="evenodd" class="shp1" d="M25.33 21.58C25.33 23.57 25.21 25.06 24.99 26.04C24.87 26.54 24.63 26.96 24.25 27.31C23.88 27.65 23.44 27.84 22.95 27.89C21.38 28.07 19.02 28.16 15.86 28.16C12.7 28.16 10.34 28.07 8.78 27.89C8.28 27.84 7.85 27.65 7.47 27.31C7.09 26.96 6.84 26.54 6.73 26.04C6.51 25.09 6.4 23.6 6.4 21.58C6.4 19.59 6.51 18.1 6.73 17.11C6.85 16.61 7.1 16.19 7.47 15.85C7.85 15.51 8.29 15.31 8.79 15.25C10.35 15.08 12.7 14.99 15.86 14.99C19.02 14.99 21.38 15.08 22.95 15.25C23.44 15.31 23.88 15.51 24.26 15.85C24.64 16.19 24.88 16.61 24.99 17.11C25.21 18.06 25.33 19.55 25.33 21.58ZM11.8 18.4L11.8 17.2L7.82 17.2L7.82 18.4L9.16 18.4L9.16 25.66L10.44 25.66L10.44 18.4L11.8 18.4ZM15.25 25.66L15.25 19.36L14.11 19.36L14.11 24.18C13.86 24.54 13.62 24.72 13.39 24.72C13.23 24.72 13.14 24.63 13.12 24.45C13.11 24.42 13.1 24.27 13.1 24L13.1 19.36L11.97 19.36L11.97 24.34C11.97 24.76 12 25.07 12.07 25.28C12.17 25.59 12.42 25.75 12.81 25.75C13.22 25.75 13.65 25.49 14.11 24.97L14.11 25.66L15.25 25.66ZM19.59 21.26C19.59 20.64 19.55 20.22 19.48 20C19.33 19.52 19.03 19.28 18.57 19.28C18.14 19.28 17.75 19.51 17.38 19.97L17.38 17.2L16.25 17.2L16.25 25.66L17.38 25.66L17.38 25.05C17.77 25.51 18.16 25.75 18.57 25.75C19.03 25.75 19.33 25.51 19.48 25.05C19.55 24.82 19.59 24.39 19.59 23.77L19.59 21.26ZM23.91 22.72L23.91 21.41C23.91 20.74 23.79 20.25 23.56 19.93C23.23 19.5 22.78 19.28 22.21 19.28C21.63 19.28 21.18 19.5 20.84 19.93C20.6 20.25 20.49 20.74 20.49 21.41L20.49 23.62C20.49 24.29 20.61 24.78 20.86 25.1C21.19 25.53 21.65 25.75 22.23 25.75C22.85 25.75 23.31 25.52 23.61 25.07C23.77 24.84 23.86 24.61 23.88 24.38C23.9 24.31 23.91 24.06 23.91 23.64L23.91 23.48L22.75 23.48C22.75 23.91 22.74 24.17 22.72 24.26C22.66 24.56 22.49 24.72 22.21 24.72C21.82 24.72 21.62 24.42 21.62 23.83L21.62 22.72L23.91 22.72Z" />
				<path id="Shape" class="shp1" d="M17.54 19.93C17.39 19.93 17.24 20.02 17.1 20.19L17.1 23.78C17.24 23.96 17.39 24.05 17.54 24.05C17.79 24.05 17.92 23.78 17.92 23.25L17.92 20.73C17.92 20.2 17.79 19.93 17.54 19.93Z" />
				<path id="Shape" class="shp1" d="M22.45 19.93C22.17 19.93 22.03 20.26 22.03 20.91L22.03 21.58L22.86 21.58L22.86 20.91C22.86 20.26 22.72 19.93 22.45 19.93Z" />
				<path id="Shape" class="shp1" d="M11.19 10.51L11.19 14.17L12.37 14.17L12.37 10.51L13.81 5.12L12.6 5.12L11.79 8.67L10.95 5.12L9.69 5.12C9.91 5.88 10.17 6.72 10.46 7.65C10.83 8.89 11.07 9.84 11.19 10.51Z" />
				<path id="Shape" fill-rule="evenodd" class="shp1" d="M14.15 13.52C13.92 13.19 13.81 12.68 13.81 12L13.81 9.75C13.81 9.06 13.92 8.56 14.15 8.24C14.46 7.81 14.89 7.59 15.45 7.59C16.01 7.59 16.45 7.81 16.75 8.24C16.98 8.56 17.1 9.06 17.1 9.75L17.1 12C17.1 12.69 16.98 13.2 16.75 13.52C16.45 13.95 16.01 14.17 15.45 14.17C14.89 14.17 14.46 13.95 14.15 13.52ZM14.91 9.52L14.91 12.22C14.91 12.82 15.09 13.12 15.45 13.12C15.8 13.12 15.98 12.82 15.98 12.22L15.98 9.52C15.98 8.93 15.8 8.63 15.45 8.63C15.09 8.63 14.91 8.93 14.91 9.52Z" />
				<path id="Shape" class="shp1" d="M18.76 14.17C19.19 14.17 19.62 13.9 20.06 13.36L20.06 14.08L21.21 14.08L21.21 7.59L20.06 7.59L20.06 12.54C19.81 12.92 19.57 13.1 19.34 13.1C19.19 13.1 19.1 13.01 19.08 12.82C19.07 12.8 19.07 12.65 19.07 12.36L19.07 7.59L17.92 7.59L17.92 12.71C17.92 13.16 17.95 13.48 18.02 13.69C18.13 14.01 18.38 14.17 18.76 14.17Z" />
			</g>
		</g>
	</g>
</svg>