<svg version="1.2" baseProfile="tiny-ps" xmlns="http://www.w3.org/2000/svg" viewBox="0 0 34 34" width="34" height="34">
	<title>Lender page</title>
	<style>
		tspan { white-space:pre }
		.shp0 { fill: #153a5b } 
	</style>
	<g id="Lender page">
		<g id="changing-money">
			<path id="Shape" class="shp0" d="M21.02 13.7C20.97 13.64 20.9 13.62 20.82 13.62L19.32 13.62C19.22 13.13 19.03 12.71 18.75 12.35L20.8 12.35C20.88 12.35 20.95 12.33 21 12.27C21.05 12.22 21.08 12.15 21.08 12.07L21.08 11.18C21.08 11.09 21.05 11.03 21 10.97C20.95 10.92 20.88 10.9 20.8 10.9L13.49 10.9C13.41 10.9 13.35 10.92 13.29 10.97C13.24 11.03 13.21 11.09 13.21 11.18L13.21 12.34C13.21 12.42 13.24 12.49 13.3 12.54C13.35 12.6 13.42 12.63 13.49 12.63L14.77 12.63C16 12.63 16.79 12.96 17.12 13.62L13.49 13.62C13.41 13.62 13.35 13.64 13.29 13.7C13.24 13.75 13.21 13.82 13.21 13.9L13.21 14.79C13.21 14.88 13.24 14.94 13.29 15C13.35 15.05 13.41 15.07 13.49 15.07L17.24 15.07C17.12 15.55 16.82 15.92 16.34 16.17C15.87 16.42 15.25 16.55 14.48 16.55L13.49 16.55C13.42 16.55 13.35 16.58 13.3 16.63C13.24 16.69 13.21 16.76 13.21 16.83L13.21 17.95C13.21 18.02 13.24 18.09 13.29 18.14C14.42 19.33 15.87 21.01 17.67 23.15C17.72 23.22 17.79 23.26 17.89 23.26L19.6 23.26C19.72 23.26 19.81 23.21 19.85 23.1C19.91 23 19.9 22.9 19.82 22.8C18.11 20.71 16.76 19.14 15.79 18.1C16.78 17.98 17.59 17.66 18.21 17.13C18.83 16.6 19.21 15.92 19.34 15.07L20.82 15.07C20.9 15.07 20.97 15.05 21.02 15C21.07 14.94 21.1 14.88 21.1 14.79L21.1 13.9C21.1 13.82 21.07 13.75 21.02 13.7Z" />
			<path id="Shape" class="shp0" d="M16.99 1.57C20.37 1.57 23.58 2.65 26.23 4.64L24.17 4.64L24.17 6.21L29.22 6.21L29.22 1.16L27.65 1.16L27.65 3.75C24.64 1.32 20.91 0 16.99 0C7.62 0 0 7.62 0 16.99L1.57 16.99C1.57 8.49 8.49 1.57 16.99 1.57Z" />
			<path id="Shape" class="shp0" d="M32.41 16.99C32.41 25.5 25.5 32.41 16.99 32.41C13.71 32.41 10.58 31.39 7.97 29.5L10.02 29.5L10.02 27.93L4.97 27.93L4.97 32.98L6.54 32.98L6.54 30.39C9.51 32.72 13.16 33.98 16.99 33.98C26.36 33.98 33.98 26.36 33.98 16.99L32.41 16.99Z" />
		</g>
	</g>
</svg>