<svg version="1.2" baseProfile="tiny-ps" xmlns="http://www.w3.org/2000/svg" viewBox="0 0 90 90" width="90" height="90">
	<title>Lender page</title>
	<defs>
		<linearGradient id="grd1" gradientUnits="userSpaceOnUse"  x1="52.001" y1="23.25" x2="37" y2="23.25">
			<stop offset="0" stop-color="#1facd4"  />
			<stop offset="1" stop-color="#6acac0"  />
		</linearGradient>
	</defs>
	<style>
		tspan { white-space:pre }
		.shp0 { fill: #ffffff } 
		.shp1 { fill: #052f91 } 
		.shp2 { fill: url(#grd1) } 
	</style>
	<g id="Lender page">
		<g id="cryptocurrency (1)">
			<path id="Shape" class="shp0" d="M14.26 49.56L22.69 49.56L24.67 49.56C25.69 49.56 26.52 48.84 26.52 47.95L26.52 42.61L10.43 42.61L10.43 47.95C10.43 48.84 11.27 49.56 12.29 49.56L14.26 49.56Z" />
			<path id="Shape" class="shp0" d="M40.35 49.56L48.78 49.56L50.75 49.56C51.77 49.56 52.61 48.84 52.61 47.95L52.61 42.61L44.73 42.61L36.52 42.61L36.52 47.95C36.52 48.84 37.36 49.56 38.38 49.56L40.35 49.56Z" />
			<path id="Shape" class="shp0" d="M66.87 49.56L75.31 49.56L77.27 49.56C78.29 49.56 79.13 48.84 79.13 47.95L79.13 42.61L63.04 42.61L63.04 47.95C63.04 48.84 63.88 49.56 64.9 49.56L66.87 49.56Z" />
			<path id="Shape Copy 2" class="shp0" d="M72.87 42.57L81.31 42.57L83.27 42.57C84.29 42.57 85.13 41.84 85.13 40.95L65 28C65 28 63.73 14.97 61 11C56.34 4.23 47.46 2.43 44.5 2.5C41.42 2.57 33.2 4.43 28 12C25.27 15.98 23 29 23 29L3.04 40.95C3.04 41.84 69.88 42.57 70.9 42.57L72.87 42.57Z" />
			<path id="Shape" class="shp0" d="M7.39 81.17L81.74 81.17L81.74 74.53C81.74 73.23 80.8 72.17 79.65 72.17L74.91 72.17L66.49 72.17L48.63 72.17L40.22 72.17L22.36 72.17L13.94 72.17L9.48 72.17C8.33 72.17 7.39 73.23 7.39 74.53L7.39 81.17Z" />
			<path id="Shape Copy" class="shp0" d="M1.74 88.17L86.74 88.17L86.74 83C86.74 82 85.67 81.17 84.35 81.17L78.93 81.17L69.31 81.17L48.89 81.17L39.27 81.17L18.85 81.17L9.23 81.17L4.12 81.17C2.81 81.17 1.74 82 1.74 83L1.74 88.17Z" />
			<g id="Group">
				<path id="Shape" fill-rule="evenodd" class="shp1" d="M89.57 82.34L89.57 88.24C89.57 89.21 88.78 90 87.81 90L1.76 90C0.79 90 0 89.21 0 88.24L0 82.34C0 80.21 1.73 78.48 3.85 78.48L5.75 78.48L5.75 74.33C5.75 72.21 7.48 70.48 9.6 70.48L12.32 70.48L12.32 51.55L12.1 51.55C10.11 51.55 8.48 50.01 8.48 48.13L8.48 44.39L5.1 44.39C2.86 44.39 1.28 43.44 0.85 41.83C0.39 40.09 1.47 38.28 3.73 36.99L22.94 26.01C22.73 24.77 22.61 23.5 22.61 22.2C22.61 9.96 32.57 0 44.81 0C57.04 0 67 9.96 67 22.2C67 23.5 66.88 24.77 66.67 26.01L85.89 36.99C88.15 38.28 89.22 40.09 88.76 41.83C88.33 43.44 86.75 44.39 84.51 44.39L80.8 44.39L80.8 48.13C80.8 50.01 79.18 51.55 77.18 51.55L76.97 51.55L76.97 70.48L79.97 70.48C82.09 70.48 83.81 72.21 83.81 74.33L83.81 78.48L85.72 78.48C87.84 78.48 89.57 80.21 89.57 82.34ZM73.46 51.55L68.52 51.55L68.52 70.48L73.46 70.48L73.46 51.55ZM50.62 70.48L65.01 70.48L65.01 51.55L64.8 51.55C62.8 51.55 61.18 50.01 61.18 48.13L61.18 44.39L54.45 44.39L54.45 48.13C54.45 50.01 52.83 51.55 50.83 51.55L50.62 51.55L50.62 70.48ZM42.18 70.48L47.11 70.48L47.11 51.55L42.18 51.55L42.18 70.48ZM24.27 70.48L38.67 70.48L38.67 51.55L38.45 51.55C36.45 51.55 34.83 50.01 34.83 48.13L34.83 44.39L28.1 44.39L28.1 48.13C28.1 50.01 26.48 51.55 24.49 51.55L24.27 51.55L24.27 70.48ZM38.35 44.39L38.35 48.01C38.37 48.02 38.4 48.03 38.45 48.03L50.83 48.03C50.88 48.03 50.92 48.02 50.94 48.01L50.94 44.39L38.35 44.39ZM77.28 44.39L64.7 44.39L64.7 48.01C64.72 48.02 64.75 48.03 64.8 48.03L77.18 48.03C77.23 48.03 77.26 48.02 77.28 48.01L77.28 44.39ZM65.75 29.53C64.1 34.24 60.9 38.22 56.78 40.88L84.51 40.88C84.79 40.88 85 40.85 85.16 40.82C84.98 40.62 84.67 40.34 84.15 40.04L65.75 29.53ZM26.13 22.2C26.13 32.5 34.51 40.88 44.81 40.88C55.1 40.88 63.48 32.5 63.48 22.2C63.48 11.9 55.1 3.52 44.81 3.52C34.51 3.52 26.13 11.9 26.13 22.2ZM5.1 40.88L32.83 40.88C28.71 38.22 25.51 34.24 23.86 29.53L5.47 40.04C4.94 40.34 4.63 40.62 4.45 40.82C4.61 40.85 4.82 40.88 5.1 40.88ZM12.1 48.03L24.49 48.03C24.53 48.03 24.57 48.02 24.59 48.01L24.59 44.39L12 44.39L12 48.01C12.02 48.02 12.06 48.03 12.1 48.03ZM15.83 70.48L20.76 70.48L20.76 51.55L15.83 51.55L15.83 70.48ZM86.05 86.48L86.05 82.34C86.05 82.15 85.9 82 85.72 82L52.67 82C51.7 82 50.92 81.21 50.92 80.24C50.92 79.27 51.7 78.48 52.67 78.48L80.3 78.48L80.3 74.33C80.3 74.15 80.15 74 79.97 74L9.6 74C9.42 74 9.26 74.15 9.26 74.33L9.26 78.48L36.89 78.48C37.86 78.48 38.65 79.27 38.65 80.24C38.65 81.21 37.86 82 36.89 82L3.85 82C3.67 82 3.51 82.15 3.51 82.34L3.51 86.48L86.05 86.48Z" />
				<path id="Shape" class="shp1" d="M44.79 78.48C43.82 78.48 43.03 79.27 43.03 80.24C43.03 81.21 43.82 82 44.79 82L44.79 82C45.76 82 46.54 81.21 46.54 80.24C46.54 79.27 45.75 78.48 44.79 78.48L44.79 78.48Z" />
				<path id="Shape" class="shp2" d="M50.75 17L49.37 17C49.19 16.07 48.77 15.23 48.22 14.5L50.75 14.5C51.44 14.5 52 13.94 52 13.25C52 12.56 51.44 12 50.75 12L43.25 12L38.25 12C37.56 12 37 12.56 37 13.25C37 13.94 37.56 14.5 38.25 14.5L43.25 14.5C44.88 14.5 46.25 15.55 46.77 17L38.25 17C37.56 17 37 17.56 37 18.25C37 18.94 37.56 19.5 38.25 19.5L46.77 19.5C46.25 20.95 44.88 22 43.25 22L38.25 22C38.09 22 37.93 22.03 37.77 22.09C37.47 22.22 37.22 22.46 37.1 22.77C36.97 23.08 36.97 23.42 37.1 23.73C37.16 23.88 37.25 24.02 37.37 24.13L47.37 34.13C47.61 34.38 47.93 34.5 48.25 34.5C48.57 34.5 48.89 34.38 49.14 34.13C49.62 33.65 49.62 32.85 49.14 32.37L41.27 24.5L43.25 24.5C46.27 24.5 48.79 22.35 49.37 19.5L50.75 19.5C51.44 19.5 52 18.94 52 18.25C52 17.56 51.44 17 50.75 17Z" />
			</g>
		</g>
	</g>
</svg>