<svg version="1.2" baseProfile="tiny-ps" xmlns="http://www.w3.org/2000/svg" viewBox="0 0 80 93" width="80" height="93">
	<title>Lender page</title>
	<defs>
		<linearGradient id="grd1" gradientUnits="userSpaceOnUse"  x1="31" y1="16" x2="1" y2="16">
			<stop offset="0" stop-color="#1facd4"  />
			<stop offset="1" stop-color="#6acac0"  />
		</linearGradient>
	</defs>
	<style>
		tspan { white-space:pre }
		.shp0 { fill: #ffffff } 
		.shp1 { fill: #052f91 } 
		.shp2 { fill: url(#grd1) } 
	</style>
	<g id="Lender page">
		<g id="approved (1)">
			<path id="Rectangle" class="shp0" d="M17 1L63 1C71.85 1 79 8.15 79 17L79 77C79 85.85 71.85 93 63 93L17 93C8.15 93 1 85.85 1 77L1 17C1 8.15 8.15 1 17 1Z" />
			<path id="Shape" class="shp1" d="M4.16 31.53C3.82 31.2 3.34 31.01 2.85 31.01C2.36 31.01 1.89 31.2 1.54 31.53C1.2 31.87 1 32.33 1 32.8C1 33.28 1.2 33.74 1.54 34.07C1.89 34.41 2.36 34.6 2.85 34.6C3.34 34.6 3.82 34.41 4.16 34.07C4.5 33.74 4.7 33.28 4.7 32.8C4.7 32.33 4.5 31.87 4.16 31.53Z" />
			<path id="Shape" class="shp1" d="M73.94 1L36.48 1C35.46 1 34.63 1.8 34.63 2.8C34.63 3.79 35.46 4.59 36.48 4.59L73.94 4.59C74.96 4.59 75.79 5.4 75.79 6.39L75.79 87.61C75.79 88.6 74.96 89.41 73.94 89.41L6.55 89.41C5.53 89.41 4.7 88.6 4.7 87.61L4.7 39.51C4.7 38.52 3.87 37.72 2.85 37.72C1.83 37.72 1 38.52 1 39.51L1 87.61C1 90.58 3.49 93 6.55 93L73.94 93C77 93 79.49 90.58 79.49 87.61L79.49 6.39C79.49 3.42 77 1 73.94 1Z" />
			<path id="Shape" fill-rule="evenodd" class="shp1" d="M64.87 32.09C64.87 45.26 53.82 55.98 40.24 55.98C34.39 55.98 28.71 53.95 24.26 50.26C19.86 46.62 16.92 41.57 15.96 36.07C15.79 35.09 16.48 34.16 17.48 34C18.49 33.83 19.45 34.49 19.62 35.47C20.25 39.17 21.89 42.49 24.23 45.18C25.59 42.9 27.45 40.94 29.71 39.41C31.02 38.53 32.43 37.82 33.91 37.3C32.22 35.7 31.17 33.47 31.17 31.01L31.17 29.26C31.17 24.4 35.24 20.45 40.24 20.45C45.25 20.45 49.32 24.4 49.32 29.26L49.32 31.01C49.32 33.47 48.27 35.7 46.58 37.3C48.06 37.82 49.47 38.53 50.78 39.41C53.03 40.93 54.89 42.88 56.24 45.15C59.31 41.62 61.16 37.06 61.16 32.09C61.16 20.89 51.78 11.78 40.24 11.78C39.17 11.78 38.1 11.86 37.04 12.02C36.03 12.17 35.09 11.49 34.93 10.51C34.78 9.53 35.47 8.62 36.48 8.46C37.72 8.28 38.99 8.19 40.24 8.19C53.82 8.19 64.87 18.91 64.87 32.09ZM34.88 31.01C34.88 33.88 37.28 36.22 40.24 36.22C43.2 36.22 45.61 33.88 45.61 31.01L45.61 29.26C45.61 26.38 43.2 24.04 40.24 24.04C37.28 24.04 34.88 26.38 34.88 29.26L34.88 31.01ZM53.5 47.78C51.01 42.9 45.94 39.81 40.24 39.81C34.54 39.81 29.46 42.91 26.97 47.81C30.6 50.69 35.23 52.39 40.24 52.39C45.27 52.39 49.89 50.66 53.5 47.78Z" />
			<path id="Shape" class="shp1" d="M57.34 72.52L31.06 72.52C30.03 72.52 29.2 73.32 29.2 74.31C29.2 75.3 30.03 76.11 31.06 76.11L57.34 76.11C58.36 76.11 59.19 75.3 59.19 74.31C59.19 73.32 58.36 72.52 57.34 72.52Z" />
			<path id="Shape" class="shp1" d="M24.46 62.98C24.11 62.65 23.63 62.45 23.15 62.45C22.66 62.45 22.18 62.65 21.84 62.98C21.49 63.31 21.3 63.78 21.3 64.25C21.3 64.72 21.49 65.19 21.84 65.52C22.18 65.85 22.66 66.05 23.15 66.05C23.63 66.05 24.11 65.85 24.46 65.52C24.8 65.19 25 64.72 25 64.25C25 63.78 24.8 63.31 24.46 62.98Z" />
			<path id="Shape" class="shp1" d="M24.46 73.04C24.11 72.71 23.64 72.52 23.15 72.52C22.66 72.52 22.18 72.71 21.84 73.04C21.49 73.38 21.3 73.84 21.3 74.31C21.3 74.79 21.49 75.25 21.84 75.58C22.18 75.92 22.66 76.11 23.15 76.11C23.63 76.11 24.11 75.92 24.46 75.58C24.8 75.25 25 74.79 25 74.31C25 73.84 24.8 73.38 24.46 73.04Z" />
			<path id="Shape" class="shp1" d="M57.34 62.45L31.06 62.45C30.03 62.45 29.2 63.26 29.2 64.25C29.2 65.24 30.03 66.05 31.06 66.05L57.34 66.05C58.36 66.05 59.19 65.24 59.19 64.25C59.19 63.26 58.36 62.45 57.34 62.45Z" />
			<path id="Oval" class="shp2" d="M16 31C24.28 31 31 24.28 31 16C31 7.72 24.28 1 16 1C7.72 1 1 7.72 1 16C1 24.28 7.72 31 16 31Z" />
			<path id="Shape" class="shp0" d="M22.77 11.35C22.05 10.65 20.88 10.65 20.16 11.35L14.13 17.21L12.07 15.21C11.34 14.51 10.17 14.51 9.45 15.21C8.73 15.91 8.73 17.05 9.45 17.75L12.82 21.02C13.18 21.37 13.65 21.54 14.13 21.54C14.6 21.54 15.08 21.37 15.44 21.02L22.77 13.9C23.5 13.19 23.5 12.06 22.77 11.35Z" />
		</g>
	</g>
</svg>