<svg version="1.2" baseProfile="tiny-ps" xmlns="http://www.w3.org/2000/svg" viewBox="0 0 115 71" width="115" height="71">
	<title>borrower page</title>
	<style>
		tspan { white-space:pre }
		.shp0 { fill: #ceeaff } 
		.shp1 { fill: #f2a60f } 
		.shp2 { fill: #f22d06 } 
		.shp3 { fill: #f2f21c } 
		.shp4 { fill: #3ba40f } 
		.shp5 { fill: #ffffff } 
		.shp6 { fill: #000000 } 
	</style>
	<g id="borrower page">
		<g id="Folder 1">
			<path id="Fill 240" class="shp0" d="M57.52 0.73C26.18 0.62 0.53 26.6 0.53 57.94L0.53 64.06C0.53 67.69 3.48 70.64 8.43 70.64L108.81 70.64C111.13 70.64 114.07 67.69 114.07 64.06L114.07 57.5C114.07 26.22 88.77 0.84 57.52 0.73" />
			<path id="Fill 241" class="shp1" d="M22.02 22.13L57.5 57.61L57.5 7.43C43.64 7.43 31.1 13.05 22.02 22.13" />
			<path id="Fill 242" class="shp2" d="M7.32 57.61L57.5 57.61L22.02 22.13C12.22 31.93 7.32 44.77 7.32 57.61" />
			<path id="Fill 244" class="shp3" d="M92.89 22.13L57.41 57.61L57.41 7.43C71.26 7.43 83.81 13.05 92.89 22.13" />
			<path id="Fill 245" class="shp4" d="M107.58 57.61L57.41 57.61L92.89 22.13C102.68 31.93 107.58 44.77 107.58 57.61" />
			<path id="Fill 248" class="shp5" d="M57.41 42.89C49.45 42.89 43 49.73 43 57.61L71.82 57.61C71.82 49.73 65.37 42.89 57.41 42.89" />
			<path id="Fill 249" class="shp6" d="M55.45 57.18C55.62 55.58 57.07 54.42 58.67 54.6C60.27 54.78 61.42 56.22 61.25 57.82C61.07 59.42 59.63 60.57 58.03 60.4C56.43 60.22 55.27 58.78 55.45 57.18" />
			<path id="Fill 250" class="shp6" d="M61.06 58.35L84.87 51.89L60.43 55.46L58.34 57.32L61.06 58.35" />
		</g>
	</g>
</svg>