<svg version="1.2" baseProfile="tiny-ps" xmlns="http://www.w3.org/2000/svg" viewBox="0 0 163 163" width="163" height="163">
	<title>about us_web</title>
	<defs>
		<linearGradient id="grd1" gradientUnits="userSpaceOnUse"  x1="107.115" y1="77.354" x2="56.598" y2="77.354">
			<stop offset="0" stop-color="#1facd4"  />
			<stop offset="1" stop-color="#6acac0"  />
		</linearGradient>
	</defs>
	<style>
		tspan { white-space:pre }
		.shp0 { fill: #d8eeff;stroke: #ffffff;paint-order:stroke fill markers;stroke-width: 2 } 
		.shp1 { fill: url(#grd1) } 
		.shp2 { fill: #ffffff } 
		.shp3 { fill: #052f91 } 
		.shp4 { fill: #55c4c6 } 
	</style>
	<g id="about us_web">
		<g id="Group 15">
			<path id="Rectangle Copy 4" class="shp0" d="M82 2L82 2C126.24 2 162 37.76 162 82L162 82C162 126.24 126.24 162 82 162L82 162C37.76 162 2 126.24 2 82L2 82C2 37.76 37.76 2 82 2Z" />
			<g id="idea (3)">
				<path id="Shape" class="shp1" d="M91.92 104.36C93.02 100.7 95.22 97.41 98.15 94.85C103.64 90.27 107.11 83.32 107.11 75.63C107.11 61.36 95.22 49.64 80.58 50.38C67.59 50.93 56.97 61.91 56.6 74.9C56.42 82.95 59.9 90.09 65.57 94.85C68.68 97.41 70.88 100.7 71.98 104.36L91.92 104.36L91.92 104.36Z" />
				<path id="Shape" class="shp2" d="M79.48 104.73L81.13 104.73L73.81 77.46C73.99 77.46 74.17 77.46 74.36 77.46C75.27 77.46 76.19 77.1 76.92 76.36C77.28 76 77.65 75.81 78.2 75.81C78.75 75.81 79.11 76 79.48 76.36C80.76 77.83 82.96 77.83 84.24 76.36C84.6 76 84.97 75.81 85.52 75.81C85.89 75.81 86.43 76 86.8 76.36C87.53 77.1 88.26 77.46 89.36 77.46C89.55 77.46 89.73 77.46 89.91 77.46L82.77 104.73L84.42 104.73L91.92 76.18C91.92 75.81 91.92 75.45 91.56 75.27C91.19 75.08 90.83 75.27 90.64 75.45C90.28 75.81 89.91 76 89.55 76C89 76 88.63 75.81 88.08 75.45C87.35 74.72 86.62 74.35 85.7 74.35C84.79 74.35 84.06 74.72 83.32 75.45C82.59 76.18 81.49 76.18 80.76 75.45C80.21 74.72 79.3 74.35 78.38 74.35L78.38 74.35C77.47 74.35 76.55 74.72 76 75.45C75.64 75.81 75.09 76 74.54 76C74.17 76 73.62 75.81 73.44 75.45C73.26 75.27 72.89 75.08 72.53 75.27C72.16 75.45 71.98 75.81 72.16 76.18L79.48 104.73Z" />
				<g id="Group">
					<path id="Shape" class="shp3" d="M76.19 121.2C77.1 123.4 79.3 125.04 81.86 125.04C84.42 125.04 86.62 123.4 87.53 121.2L76.19 121.2Z" />
					<path id="Shape" class="shp3" d="M88.63 121.38L75.27 121.38C73.44 121.38 71.98 119.92 71.98 118.09L71.98 104.18L91.92 104.18L91.92 118.09C91.92 119.92 90.46 121.38 88.63 121.38Z" />
				</g>
				<g id="Group">
					<path id="Shape" class="shp3" d="M91.74 111.13L71.98 111.13C70.88 111.13 69.96 110.22 69.96 109.12L69.96 109.12C69.96 108.02 70.88 107.11 71.98 107.11L91.74 107.11C92.84 107.11 93.76 108.02 93.76 109.12L93.76 109.12C93.76 110.22 92.84 111.13 91.74 111.13Z" />
					<path id="Shape" class="shp3" d="M91.74 117.54L71.98 117.54C70.88 117.54 69.96 116.62 69.96 115.53L69.96 115.53C69.96 114.43 70.88 113.51 71.98 113.51L91.74 113.51C92.84 113.51 93.76 114.43 93.76 115.53L93.76 115.53C93.76 116.62 92.84 117.54 91.74 117.54Z" />
				</g>
				<g id="Group">
					<path id="Shape" class="shp4" d="M81.86 37.2C80.94 37.2 80.03 37.93 80.03 39.03L80.03 45.25C80.03 46.17 80.76 47.08 81.86 47.08C82.96 47.08 83.69 46.35 83.69 45.25L83.69 39.03C83.69 37.93 82.77 37.2 81.86 37.2Z" />
					<path id="Shape" class="shp4" d="M57.34 48.36C56.6 47.63 55.51 47.63 54.77 48.36C54.04 49.1 54.04 50.19 54.77 50.93L59.17 55.32C59.9 56.05 61 56.05 61.73 55.32C62.46 54.59 62.46 53.49 61.73 52.76L57.34 48.36Z" />
					<path id="Shape" class="shp4" d="M51.66 73.62L45.44 73.62C44.53 73.62 43.61 74.35 43.61 75.45L43.61 75.45C43.61 76.36 44.34 77.28 45.44 77.28L51.66 77.28C52.58 77.28 53.49 76.55 53.49 75.45L53.49 75.45C53.49 74.53 52.58 73.62 51.66 73.62Z" />
					<path id="Shape" class="shp4" d="M59.17 95.58L54.77 99.97C54.04 100.7 54.04 101.8 54.77 102.53C55.51 103.27 56.6 103.27 57.34 102.53L61.73 98.14C62.46 97.41 62.46 96.31 61.73 95.58C61 94.85 59.9 94.85 59.17 95.58Z" />
					<path id="Shape" class="shp4" d="M104.55 95.58C103.82 94.85 102.72 94.85 101.99 95.58C101.26 96.31 101.26 97.41 101.99 98.14L106.38 102.53C107.11 103.27 108.21 103.27 108.94 102.53C109.68 101.8 109.68 100.7 108.94 99.97L104.55 95.58Z" />
					<path id="Shape" class="shp4" d="M118.28 73.62L112.06 73.62C111.14 73.62 110.23 74.35 110.23 75.45L110.23 75.45C110.23 76.36 110.96 77.28 112.06 77.28L118.28 77.28C119.19 77.28 120.11 76.55 120.11 75.45L120.11 75.45C120.11 74.53 119.38 73.62 118.28 73.62Z" />
					<path id="Shape" class="shp4" d="M106.38 48.36L101.99 52.76C101.26 53.49 101.26 54.59 101.99 55.32C102.72 56.05 103.82 56.05 104.55 55.32L108.94 50.93C109.68 50.19 109.68 49.1 108.94 48.36C108.21 47.63 107.11 47.63 106.38 48.36Z" />
				</g>
			</g>
		</g>
	</g>
</svg>