<svg version="1.2" baseProfile="tiny-ps" xmlns="http://www.w3.org/2000/svg" viewBox="0 0 98 33" width="98" height="33">
	<title>4_Homepage/Mobile</title>
	<defs>
		<linearGradient id="grd1" gradientUnits="userSpaceOnUse"  x1="12.801" y1="6.612" x2="12.801" y2="28.283">
			<stop offset="0" stop-color="#257cb0"  />
			<stop offset="0.286" stop-color="#4a93b5"  />
			<stop offset="0.767" stop-color="#78bcbb"  />
			<stop offset="1" stop-color="#89cfbd"  />
		</linearGradient>
		<linearGradient id="grd2" gradientUnits="userSpaceOnUse"  x1="7.337" y1="11.99" x2="21.2" y2="11.99">
			<stop offset="0" stop-color="#52c1ad"  />
			<stop offset="1" stop-color="#dee89a"  />
		</linearGradient>
		<linearGradient id="grd3" gradientUnits="userSpaceOnUse"  x1="14.269" y1="17.447" x2="14.269" y2="28.36">
			<stop offset="0" stop-color="#ec413d"  />
			<stop offset="0.167" stop-color="#da4452"  />
			<stop offset="0.575" stop-color="#b0487a"  />
			<stop offset="0.862" stop-color="#954a92"  />
			<stop offset="1" stop-color="#8a4a9d"  />
		</linearGradient>
		<linearGradient id="grd4" gradientUnits="userSpaceOnUse"  x1="22.253" y1="14.538" x2="22.253" y2="20.357">
			<stop offset="0" stop-color="#f58879"  />
			<stop offset="0.119" stop-color="#f69079"  />
			<stop offset="0.713" stop-color="#fcb877"  />
			<stop offset="1" stop-color="#fec874"  />
		</linearGradient>
	</defs>
	<style>
		tspan { white-space:pre }
		.shp0 { fill: #385d82 } 
		.shp1 { fill: url(#grd1) } 
		.shp2 { fill: url(#grd2) } 
		.shp3 { fill: url(#grd3) } 
		.shp4 { fill: url(#grd4) } 
		.shp5 { fill: #f9f9f9 } 
		.shp6 { fill: #f9f9fa } 
	</style>
	<g id="4_Homepage/Mobile">
		<g id="Group 136">
			<path id="Vector" class="shp0" d="M93.5 32.53L4.32 32.53C1.94 32.53 0 30.6 0 28.21L0 4.86C0 2.47 1.94 0.54 4.32 0.54L93.5 0.54C95.89 0.54 97.83 2.47 97.83 4.86L97.83 28.21C97.83 30.6 95.89 32.53 93.5 32.53Z" />
			<path id="Vector" class="shp1" d="M7.34 17.45L7.34 28.28L18.27 17.45L7.34 6.61L7.34 17.45Z" />
			<path id="Vector" class="shp2" d="M16.79 11.99L7.34 6.53L7.34 6.61L18.27 17.45L21.2 14.54L16.79 11.99Z" />
			<path id="Vector" class="shp3" d="M7.34 28.36L16.79 22.9L21.2 20.36L18.27 17.45L7.34 28.28L7.34 28.36Z" />
			<path id="Vector" class="shp4" d="M18.27 17.45L21.2 20.36L26.24 17.45L21.2 14.54L18.27 17.45Z" />
			<path id="Vector" fill-rule="evenodd" class="shp5" d="M75.01 21.46C74.67 21.3 74.39 21.07 74.15 20.76L74.09 20.76C74.13 21.12 74.15 21.47 74.15 21.8L74.15 24.4L73.2 24.4L73.2 15.27L73.98 15.27L74.11 16.13L74.15 16.13C74.4 15.78 74.69 15.53 75.01 15.38C75.34 15.23 75.71 15.15 76.13 15.15C76.97 15.15 77.61 15.44 78.07 16.01C78.52 16.58 78.75 17.38 78.75 18.41C78.75 19.45 78.52 20.25 78.06 20.82C77.59 21.4 76.95 21.68 76.13 21.68C75.72 21.68 75.35 21.61 75.01 21.46ZM74.6 16.5C74.31 16.85 74.16 17.42 74.16 18.2L74.16 18.41C74.16 19.3 74.3 19.93 74.6 20.31C74.89 20.69 75.37 20.89 76.02 20.89C76.56 20.89 76.99 20.67 77.3 20.22C77.61 19.78 77.76 19.18 77.76 18.4C77.76 17.61 77.61 17.01 77.3 16.59C76.99 16.17 76.55 15.96 76 15.96C75.35 15.96 74.89 16.14 74.6 16.5Z" />
			<path id="Vector" class="shp5" d="M80 21.57L80 12.62L80.96 12.62L80.96 21.57L80 21.57Z" />
			<path id="Vector" fill-rule="evenodd" class="shp5" d="M86.26 20.67L86.21 20.67C85.9 21.07 85.59 21.33 85.27 21.47C84.96 21.61 84.57 21.68 84.1 21.68C83.48 21.68 82.99 21.52 82.63 21.2C82.28 20.88 82.1 20.42 82.1 19.83C82.1 18.55 83.12 17.89 85.15 17.83L86.22 17.79L86.22 17.4C86.22 16.9 86.12 16.54 85.9 16.3C85.69 16.07 85.35 15.95 84.88 15.95C84.36 15.95 83.76 16.11 83.1 16.43L82.81 15.7C83.12 15.54 83.46 15.4 83.83 15.31C84.2 15.21 84.57 15.16 84.94 15.16C85.69 15.16 86.25 15.33 86.61 15.67C86.97 16 87.15 16.53 87.15 17.27L87.15 21.57L86.45 21.57L86.45 21.57L86.26 20.67ZM85.69 20.41C86.03 20.08 86.2 19.63 86.2 19.04L86.2 18.47L85.25 18.51C84.49 18.53 83.94 18.65 83.6 18.86C83.27 19.07 83.1 19.4 83.1 19.84C83.1 20.18 83.2 20.45 83.41 20.63C83.62 20.8 83.92 20.89 84.29 20.89C84.89 20.89 85.35 20.73 85.69 20.41Z" />
			<path id="Vector" class="shp5" d="M88.73 15.27L90.11 18.86C90.41 19.68 90.6 20.27 90.68 20.64L90.72 20.64C90.77 20.44 90.88 20.11 91.04 19.63C91.2 19.16 91.72 17.7 92.6 15.27L93.62 15.27L90.91 22.44C90.64 23.15 90.33 23.65 89.97 23.95C89.61 24.25 89.17 24.4 88.65 24.4C88.36 24.4 88.07 24.36 87.79 24.3L87.79 23.53C88 23.58 88.24 23.6 88.5 23.6C89.15 23.6 89.62 23.24 89.9 22.5L90.25 21.6L87.71 15.27L88.73 15.27Z" />
			<path id="Vector" fill-rule="evenodd" class="shp5" d="M59.39 17.63C59.39 18.61 58.83 19.07 58.28 19.5C58.11 19.67 57.91 19.86 57.91 20.15C57.91 20.44 58.11 20.6 58.25 20.72L58.73 21.09C59.31 21.57 59.83 22.02 59.83 22.93C59.83 24.17 58.63 25.42 56.37 25.42C54.46 25.42 53.53 24.51 53.53 23.54C53.53 23.06 53.77 22.39 54.55 21.93C55.37 21.43 56.47 21.36 57.07 21.32C56.88 21.08 56.67 20.83 56.67 20.43C56.67 20.2 56.74 20.07 56.8 19.91C56.66 19.93 56.51 19.94 56.38 19.94C54.98 19.94 54.19 18.9 54.19 17.87C54.19 17.26 54.47 16.59 55.04 16.1C55.79 15.48 56.68 15.38 57.4 15.38L60.11 15.38L59.27 15.85L58.45 15.85C58.75 16.1 59.39 16.63 59.39 17.63ZM57.21 21.69C57.09 21.69 56.38 21.72 55.83 21.9C55.54 22.01 54.69 22.32 54.69 23.26C54.69 24.2 55.6 24.87 57.01 24.87C58.28 24.87 58.95 24.26 58.95 23.44C58.95 22.77 58.52 22.42 57.51 21.7C57.41 21.69 57.34 21.69 57.21 21.69ZM58.23 18.24C58.23 17.29 57.66 15.81 56.57 15.81C56.22 15.81 55.85 15.98 55.64 16.25C55.42 16.53 55.35 16.88 55.35 17.22C55.35 18.11 55.87 19.57 57 19.57C57.33 19.57 57.69 19.41 57.9 19.2C58.2 18.9 58.23 18.48 58.23 18.24Z" />
			<path id="Vector" fill-rule="evenodd" class="shp5" d="M46.94 18.39C46.94 16.66 48.35 15.19 50.35 15.19C52.28 15.19 53.49 16.7 53.49 18.3C53.5 19.85 52.3 21.49 50.15 21.49C48.06 21.49 46.94 19.86 46.94 18.39ZM52.19 18.97C52.19 17.81 51.64 15.6 50.01 15.6C49.57 15.6 49.14 15.77 48.83 16.05C48.31 16.51 48.22 17.09 48.22 17.65C48.22 18.96 48.86 21.1 50.46 21.1C50.97 21.1 51.5 20.85 51.8 20.43C52.11 20.01 52.19 19.48 52.19 18.97Z" />
			<path id="Vector" fill-rule="evenodd" class="shp5" d="M39.81 18.39C39.81 16.66 41.21 15.19 43.22 15.19C45.15 15.19 46.36 16.7 46.36 18.3C46.36 19.85 45.16 21.49 43.02 21.49C40.93 21.49 39.81 19.86 39.81 18.39ZM45.06 18.97C45.06 17.81 44.51 15.6 42.88 15.6C42.44 15.6 42.01 15.77 41.69 16.05C41.18 16.51 41.09 17.09 41.09 17.65C41.09 18.96 41.73 21.1 43.32 21.1C43.83 21.1 44.36 20.85 44.67 20.43C44.98 20.01 45.06 19.48 45.06 18.97Z" />
			<path id="Vector" class="shp5" d="M36.91 21.72C36.14 21.84 35.46 21.95 34.73 21.95C31.08 21.95 29.69 19.26 29.69 17.16C29.69 14.59 31.66 12.21 35.03 12.21C35.75 12.21 36.44 12.32 37.06 12.49C38.05 12.76 38.51 13.11 38.8 13.31L37.71 14.35L37.24 14.46L37.57 13.93C37.12 13.49 36.3 12.69 34.74 12.69C32.65 12.69 31.08 14.27 31.08 16.59C31.08 19.08 32.88 21.42 35.76 21.42C36.61 21.42 37.05 21.25 37.44 21.09L37.44 18.96L35.45 19.06L36.5 18.5L39.31 18.5L38.97 18.83C38.87 18.91 38.86 18.93 38.83 19.04C38.82 19.16 38.81 19.54 38.81 19.67L38.81 21.29L38.8 21.29L36.91 21.72Z" />
			<path id="Vector" class="shp5" d="M62.1 20.27L62.1 20.13L62.1 12.78C62.11 12.75 62.11 12.72 62.11 12.69C62.17 12.23 62.3 12.15 62.71 11.91L60.82 11.91L59.82 12.39L60.83 12.39L60.83 12.4L60.83 12.39L60.83 20.13L60.83 20.56C60.83 20.83 60.78 20.87 60.48 21.26L62.82 21.26L63.31 20.97C63.08 20.95 62.86 20.93 62.63 20.91C62.2 20.87 62.1 20.79 62.1 20.27Z" />
			<path id="Vector" fill-rule="evenodd" class="shp5" d="M67.58 21.27C67.15 21.46 66.7 21.52 66.31 21.52C65.89 21.52 65.23 21.49 64.56 21C63.63 20.35 63.22 19.22 63.22 18.23C63.22 16.19 64.88 15.2 66.23 15.2C66.7 15.2 67.19 15.31 67.58 15.56C68.24 15.99 68.41 16.56 68.5 16.86L65.42 18.11L64.4 18.19C64.73 19.86 65.86 20.83 67.11 20.83C67.78 20.83 68.27 20.59 68.71 20.37L68.02 21.03C67.87 21.11 67.73 21.2 67.58 21.27ZM67.16 16.76C67.16 16.23 66.57 15.63 65.86 15.63C65.34 15.63 64.35 16.03 64.35 17.45C64.35 17.68 64.38 17.91 64.39 18.15L66.78 17.11C67.03 17.02 67.16 16.94 67.16 16.76Z" />
			<path id="Vector" class="shp5" d="M69.29 16.15L69.18 16.15L69.18 15.28L68.89 15.28L68.89 15.19L69.57 15.19L69.57 15.28L69.29 15.28L69.29 16.15Z" />
			<path id="Vector" class="shp5" d="M70.47 15.28L70.46 15.28L70.19 16.15L70.11 16.15L69.84 15.28L69.84 15.28L69.84 16.15L69.74 16.15L69.74 15.2L69.91 15.2L70.15 15.97L70.15 15.97L70.39 15.2L70.56 15.2L70.56 16.15L70.47 16.15L70.47 15.28Z" />
			<g id="Group">
				<path id="Vector" fill-rule="evenodd" class="shp6" d="M31.66 9.64C31.66 9.54 31.59 9.29 31.47 8.87L30.52 8.87C30.39 9.28 30.33 9.54 30.33 9.64L29.71 9.64C29.71 9.58 29.87 9.14 30.19 8.32C30.51 7.5 30.67 7.04 30.67 6.96L31.45 6.96C31.45 7.04 31.59 7.48 31.88 8.3C32.17 9.11 32.31 9.56 32.31 9.64L31.66 9.64ZM31.01 7.33L30.98 7.33C30.98 7.38 30.86 7.76 30.62 8.47L31.36 8.47C31.13 7.77 31.01 7.39 31.01 7.33Z" />
				<path id="Vector" class="shp6" d="M34.46 9.64C34.46 9.58 34.27 9.28 33.89 8.75C33.5 8.18 33.27 7.79 33.22 7.58L33.19 7.58C33.22 7.88 33.24 8.16 33.24 8.4C33.24 8.74 33.25 9.15 33.27 9.64L32.76 9.64C32.78 9.21 32.79 8.74 32.79 8.24C32.79 7.74 32.78 7.31 32.76 6.96L33.37 6.96C33.37 7.03 33.54 7.32 33.88 7.83C34.24 8.37 34.45 8.73 34.5 8.92L34.53 8.92C34.5 8.62 34.48 8.34 34.48 8.1C34.48 7.73 34.47 7.35 34.45 6.96L34.97 6.96C34.95 7.3 34.94 7.72 34.94 8.24C34.94 8.75 34.95 9.22 34.96 9.64L34.46 9.64Z" />
				<path id="Vector" fill-rule="evenodd" class="shp6" d="M37.57 9.22C37.32 9.52 36.97 9.66 36.52 9.66C36.32 9.66 36.04 9.65 35.68 9.64C35.7 9.22 35.71 8.76 35.71 8.24C35.71 7.74 35.7 7.31 35.68 6.96L36.04 6.96C36.1 6.96 36.19 6.96 36.31 6.95C36.42 6.95 36.5 6.95 36.53 6.95C37.03 6.95 37.39 7.07 37.61 7.32C37.83 7.56 37.94 7.86 37.94 8.2C37.94 8.59 37.82 8.93 37.57 9.22ZM37.15 7.63C37 7.45 36.76 7.36 36.45 7.36C36.39 7.36 36.31 7.36 36.21 7.38C36.22 7.65 36.23 7.94 36.23 8.24C36.23 8.56 36.23 8.89 36.25 9.21C36.34 9.23 36.43 9.24 36.52 9.24C36.81 9.24 37.03 9.14 37.17 8.96C37.31 8.78 37.38 8.56 37.38 8.29C37.38 8.03 37.3 7.81 37.15 7.63Z" />
				<path id="Vector" fill-rule="evenodd" class="shp6" d="M40.08 9.64C39.92 9.15 39.8 8.85 39.71 8.74C39.63 8.63 39.49 8.57 39.3 8.57C39.22 8.57 39.15 8.57 39.07 8.57C39.07 8.92 39.08 9.28 39.09 9.64L38.52 9.64C38.54 9.22 38.55 8.76 38.55 8.24C38.55 7.74 38.54 7.31 38.52 6.96L38.88 6.96C38.92 6.96 39 6.96 39.14 6.96C39.27 6.95 39.39 6.95 39.5 6.95C40.13 6.95 40.44 7.16 40.44 7.59C40.44 7.93 40.26 8.17 39.9 8.31L39.9 8.34C40.04 8.38 40.16 8.48 40.27 8.66C40.37 8.84 40.51 9.16 40.69 9.64L40.08 9.64ZM39.39 7.33C39.26 7.33 39.15 7.34 39.05 7.36C39.06 7.58 39.07 7.85 39.07 8.19C39.15 8.2 39.21 8.2 39.26 8.2C39.7 8.2 39.92 8.05 39.92 7.74C39.92 7.47 39.74 7.33 39.39 7.33Z" />
				<path id="Vector" fill-rule="evenodd" class="shp6" d="M43.25 9.29C42.99 9.57 42.67 9.71 42.29 9.71C41.93 9.71 41.63 9.58 41.38 9.33C41.14 9.07 41.02 8.75 41.02 8.36C41.02 7.94 41.14 7.59 41.4 7.31C41.66 7.04 41.98 6.9 42.36 6.9C42.72 6.9 43.02 7.02 43.27 7.28C43.51 7.53 43.63 7.85 43.63 8.25C43.63 8.67 43.5 9.02 43.25 9.29ZM42.85 7.61C42.7 7.43 42.52 7.34 42.3 7.34C42.1 7.34 41.93 7.43 41.79 7.61C41.65 7.79 41.58 8.02 41.58 8.29C41.58 8.58 41.66 8.81 41.8 8.99C41.95 9.17 42.13 9.26 42.35 9.26C42.55 9.26 42.71 9.17 42.85 8.99C43 8.81 43.07 8.58 43.07 8.31C43.07 8.02 42.99 7.79 42.85 7.61Z" />
				<path id="Vector" class="shp6" d="M44.21 9.64C44.23 9.21 44.24 8.74 44.24 8.24C44.24 7.74 44.23 7.31 44.21 6.96L44.79 6.96C44.78 7.3 44.77 7.73 44.77 8.24C44.77 8.75 44.78 9.22 44.79 9.64L44.21 9.64Z" />
				<path id="Vector" fill-rule="evenodd" class="shp6" d="M47.4 9.22C47.15 9.52 46.8 9.66 46.35 9.66C46.15 9.66 45.87 9.65 45.51 9.64C45.53 9.22 45.54 8.76 45.54 8.24C45.54 7.74 45.53 7.31 45.51 6.96L45.87 6.96C45.93 6.96 46.02 6.96 46.13 6.95C46.25 6.95 46.33 6.95 46.36 6.95C46.86 6.95 47.21 7.07 47.44 7.32C47.66 7.56 47.77 7.86 47.77 8.2C47.77 8.59 47.65 8.93 47.4 9.22ZM46.98 7.63C46.83 7.45 46.59 7.36 46.28 7.36C46.22 7.36 46.14 7.36 46.04 7.38C46.05 7.65 46.06 7.94 46.06 8.24C46.06 8.56 46.07 8.89 46.08 9.21C46.17 9.23 46.26 9.24 46.35 9.24C46.64 9.24 46.86 9.14 47 8.96C47.14 8.78 47.21 8.56 47.21 8.29C47.21 8.03 47.13 7.81 46.98 7.63Z" />
				<path id="Vector" fill-rule="evenodd" class="shp6" d="M51.06 9.64C51.06 9.54 51 9.29 50.88 8.87L49.93 8.87C49.8 9.28 49.74 9.54 49.74 9.64L49.12 9.64C49.12 9.58 49.28 9.14 49.6 8.32C49.92 7.5 50.08 7.04 50.08 6.96L50.85 6.96C50.85 7.04 51 7.48 51.29 8.3C51.58 9.11 51.72 9.56 51.72 9.64L51.06 9.64ZM50.42 7.33L50.39 7.33C50.39 7.38 50.27 7.76 50.03 8.47L50.77 8.47C50.54 7.77 50.42 7.39 50.42 7.33Z" />
				<path id="Vector" fill-rule="evenodd" class="shp6" d="M53.75 8.38C53.51 8.54 53.21 8.62 52.86 8.62C52.79 8.62 52.75 8.62 52.72 8.61C52.72 8.87 52.73 9.21 52.74 9.63L52.17 9.63C52.18 9.24 52.19 8.77 52.19 8.23C52.19 7.74 52.18 7.31 52.17 6.96L52.52 6.96C52.57 6.96 52.67 6.96 52.82 6.95C52.96 6.95 53.08 6.95 53.19 6.95C53.45 6.95 53.67 7.01 53.85 7.12C54.03 7.24 54.12 7.42 54.12 7.66C54.12 7.99 54 8.23 53.75 8.38ZM53.01 7.33C52.91 7.33 52.81 7.34 52.7 7.36C52.71 7.62 52.72 7.92 52.72 8.24C52.76 8.24 52.8 8.25 52.84 8.25C53.34 8.25 53.59 8.09 53.59 7.77C53.59 7.48 53.39 7.33 53.01 7.33Z" />
				<path id="Vector" fill-rule="evenodd" class="shp6" d="M56.22 8.38C55.97 8.54 55.68 8.62 55.32 8.62C55.26 8.62 55.21 8.62 55.18 8.61C55.18 8.87 55.19 9.21 55.21 9.63L54.63 9.63C54.65 9.24 54.66 8.77 54.66 8.23C54.66 7.74 54.65 7.31 54.63 6.96L54.99 6.96C55.04 6.96 55.14 6.96 55.28 6.95C55.42 6.95 55.55 6.95 55.66 6.95C55.92 6.95 56.14 7.01 56.32 7.12C56.5 7.24 56.58 7.42 56.58 7.66C56.58 7.99 56.46 8.23 56.22 8.38ZM55.47 7.33C55.37 7.33 55.27 7.34 55.16 7.36C55.18 7.62 55.18 7.92 55.18 8.24C55.22 8.24 55.26 8.25 55.3 8.25C55.8 8.25 56.05 8.09 56.05 7.77C56.05 7.48 55.86 7.33 55.47 7.33Z" />
				<path id="Vector" fill-rule="evenodd" class="shp6" d="M60.23 9.29C59.97 9.57 59.65 9.71 59.27 9.71C58.91 9.71 58.61 9.58 58.36 9.33C58.12 9.07 58 8.75 58 8.36C58 7.94 58.12 7.59 58.38 7.31C58.64 7.04 58.96 6.9 59.34 6.9C59.7 6.9 60 7.02 60.25 7.28C60.49 7.53 60.61 7.85 60.61 8.25C60.61 8.67 60.48 9.02 60.23 9.29ZM59.82 7.61C59.68 7.43 59.5 7.34 59.28 7.34C59.08 7.34 58.91 7.43 58.77 7.61C58.63 7.79 58.56 8.02 58.56 8.29C58.56 8.58 58.63 8.81 58.78 8.99C58.93 9.17 59.11 9.26 59.33 9.26C59.53 9.26 59.69 9.17 59.83 8.99C59.98 8.81 60.04 8.58 60.04 8.31C60.04 8.02 59.97 7.79 59.82 7.61Z" />
				<path id="Vector" class="shp6" d="M62.89 9.64C62.89 9.58 62.7 9.28 62.33 8.75C61.93 8.18 61.71 7.79 61.65 7.58L61.62 7.58C61.66 7.88 61.67 8.16 61.67 8.4C61.67 8.74 61.68 9.15 61.7 9.64L61.2 9.64C61.22 9.21 61.23 8.74 61.23 8.24C61.23 7.74 61.22 7.31 61.2 6.96L61.81 6.96C61.81 7.03 61.97 7.32 62.31 7.83C62.67 8.37 62.88 8.73 62.93 8.92L62.96 8.92C62.93 8.62 62.91 8.34 62.91 8.1C62.91 7.73 62.9 7.35 62.88 6.96L63.4 6.96C63.38 7.3 63.37 7.72 63.37 8.24C63.37 8.75 63.38 9.22 63.4 9.64L62.89 9.64Z" />
			</g>
		</g>
	</g>
</svg>