<svg version="1.2" baseProfile="tiny-ps" xmlns="http://www.w3.org/2000/svg" viewBox="0 0 36 36" width="36" height="36">
	<title>Contact us_web</title>
	<style>
		tspan { white-space:pre }
		.shp0 { fill: #385d82 } 
		.shp1 { fill: #ffffff } 
	</style>
	<g id="Contact us_web">
		<g id="LinkedIn Copy">
			<path id="Rectangle 2" class="shp0" d="M18 0L18 0C27.95 0 36 8.05 36 18L36 18C36 27.95 27.95 36 18 36L18 36C8.05 36 0 27.95 0 18L0 18C0 8.05 8.05 0 18 0Z" />
			<path id="LinkedIn" fill-rule="evenodd" class="shp1" d="M27.84 20.04L27.84 27L23.8 27L23.8 20.5C23.8 18.87 23.22 17.76 21.75 17.76C20.64 17.76 19.97 18.51 19.68 19.23C19.58 19.49 19.55 19.85 19.55 20.22L19.55 27L15.51 27C15.51 27 15.56 15.99 15.51 14.85L19.55 14.85L19.55 16.58C19.54 16.59 19.53 16.6 19.52 16.62L19.55 16.62L19.55 16.58C20.09 15.75 21.04 14.57 23.19 14.57C25.84 14.57 27.84 16.31 27.84 20.04ZM13.54 11.1C13.54 12.26 12.67 13.2 11.26 13.2L11.23 13.2C9.88 13.2 9 12.26 9 11.1C9 9.91 9.9 9 11.29 9C12.67 9 13.52 9.91 13.54 11.1ZM9.24 14.85L13.28 14.85L13.28 27L9.24 27L9.24 14.85Z" />
		</g>
	</g>
</svg>