<svg version="1.2" baseProfile="tiny-ps" xmlns="http://www.w3.org/2000/svg" viewBox="0 0 36 36" width="36" height="36">
	<title>Contact us_web</title>
	<style>
		tspan { white-space:pre }
		.shp0 { fill: #385d82 } 
		.shp1 { fill: #ffffff } 
	</style>
	<g id="Contact us_web">
		<g id="tweeter">
			<path id="Rectangle 2" class="shp0" d="M18 0L18 0C27.95 0 36 8.05 36 18L36 18C36 27.95 27.95 36 18 36L18 36C8.05 36 0 27.95 0 18L0 18C0 8.05 8.05 0 18 0Z" />
			<path id="Shape" class="shp1" d="M29.64 11.12C28.79 11.48 27.9 11.72 26.96 11.84C27.92 11.28 28.66 10.4 29 9.34C28.11 9.86 27.12 10.23 26.06 10.43C25.21 9.55 24 9 22.67 9C20.1 9 18.03 11.03 18.03 13.52C18.03 13.88 18.06 14.23 18.14 14.55C14.28 14.37 10.87 12.57 8.58 9.82C8.18 10.5 7.94 11.28 7.94 12.11C7.94 13.68 8.77 15.06 10 15.87C9.26 15.85 8.53 15.64 7.91 15.31C7.91 15.32 7.91 15.34 7.91 15.36C7.91 17.56 9.51 19.38 11.62 19.8C11.25 19.9 10.83 19.95 10.41 19.95C10.11 19.95 9.81 19.94 9.53 19.87C10.13 21.67 11.84 22.98 13.86 23.02C12.29 24.23 10.28 24.95 8.11 24.95C7.73 24.95 7.36 24.94 7 24.89C9.06 26.18 11.49 26.92 14.12 26.92C22.66 26.92 27.33 20.03 27.33 14.05C27.33 13.85 27.32 13.66 27.31 13.47C28.23 12.83 29 12.04 29.64 11.12Z" />
		</g>
	</g>
</svg>