<svg version="1.2" baseProfile="tiny-ps" xmlns="http://www.w3.org/2000/svg" viewBox="0 0 37 36" width="37" height="36">
	<title>Contact us_web</title>
	<style>
		tspan { white-space:pre }
		.shp0 { fill: #385d82 } 
		.shp1 { fill: #ffffff } 
	</style>
	<g id="Contact us_web">
		<g id="youtube">
			<path id="Rectangle 2" class="shp0" d="M18 0L18 0C27.95 0 36 8.05 36 18L36 18C36 27.95 27.95 36 18 36L18 36C8.05 36 0 27.95 0 18L0 18C0 8.05 8.05 0 18 0Z" />
			<g id="youtube (7)">
				<path id="Path" class="shp1" d="M29.14 12.59C28.87 11.58 28.07 10.78 27.06 10.51C25.21 10 17.81 10 17.81 10C17.81 10 10.42 10 8.57 10.49C7.58 10.76 6.76 11.58 6.49 12.59C6 14.44 6 18.27 6 18.27C6 18.27 6 22.13 6.49 23.96C6.76 24.97 7.56 25.77 8.57 26.04C10.44 26.54 17.81 26.54 17.81 26.54C17.81 26.54 25.21 26.54 27.06 26.06C28.07 25.79 28.87 24.99 29.14 23.98C29.63 22.13 29.63 18.29 29.63 18.29C29.63 18.29 29.65 14.44 29.14 12.59Z" />
				<path id="Path" class="shp0" d="M15.46 21.81L21.61 18.27L15.46 14.73L15.46 21.81Z" />
			</g>
		</g>
	</g>
</svg>