<svg version="1.2" baseProfile="tiny-ps" xmlns="http://www.w3.org/2000/svg" viewBox="0 0 20 21" width="20" height="21">
	<title>2_Account Statement_web</title>
	<style>
		tspan { white-space:pre }
		.shp0 { fill: #3a3b3f } 
	</style>
	<g id="2_Account Statement_web">
		<g id="agreement (1)">
			<path id="Shape" fill-rule="evenodd" class="shp0" d="M20 3.93C20 5.55 18.69 6.86 17.07 6.86L15.31 6.86L15.31 18.07C15.31 19.69 14 21 12.38 21L2.93 21C1.31 21 0 19.69 0 18.07C0 16.66 1.01 15.47 2.34 15.2L2.34 13.67L1.17 14.25L1.17 9.79C0.46 9.25 0 8.4 0 7.45C0 6.02 1.03 4.83 2.38 4.57C2.64 2.56 4.36 1 6.44 1L17.07 1C18.69 1 20 2.31 20 3.93ZM2.93 9.2C3.9 9.2 4.69 8.41 4.69 7.45C4.69 6.48 3.9 5.69 2.93 5.69C1.96 5.69 1.17 6.48 1.17 7.45C1.17 8.41 1.96 9.2 2.93 9.2ZM2.93 10.37C2.73 10.37 2.53 10.35 2.34 10.32L2.34 12.36L2.93 12.06L3.52 12.36L3.52 10.32C3.33 10.35 3.13 10.37 2.93 10.37ZM9.45 18.07C9.45 17.41 9.67 16.8 10.04 16.31L2.93 16.31C1.96 16.31 1.17 17.1 1.17 18.07C1.17 19.04 1.96 19.83 2.93 19.83L10.04 19.83C9.67 19.34 9.45 18.73 9.45 18.07ZM14.73 2.17L6.44 2.17C5.01 2.17 3.81 3.22 3.56 4.59C4.87 4.88 5.86 6.05 5.86 7.45C5.86 8.4 5.4 9.25 4.69 9.79L4.69 14.25L3.52 13.67L3.52 15.14L12.38 15.14L12.38 16.31C11.41 16.31 10.62 17.1 10.62 18.07C10.62 19.04 11.41 19.83 12.38 19.83C13.35 19.83 14.14 19.04 14.14 18.07C14.14 17.47 14.14 4.53 14.14 3.93C14.14 3.27 14.36 2.66 14.73 2.17ZM18.83 3.93C18.83 2.96 18.04 2.17 17.07 2.17C16.1 2.17 15.31 2.96 15.31 3.93L15.31 5.69L17.07 5.69C18.04 5.69 18.83 4.9 18.83 3.93Z" />
			<path id="Rectangle-path" class="shp0" d="M7.03 5.69L11.8 5.69L11.8 6.86L7.03 6.86L7.03 5.69Z" />
			<path id="Rectangle-path" class="shp0" d="M7.03 8.03L11.8 8.03L11.8 9.2L7.03 9.2L7.03 8.03Z" />
			<path id="Rectangle-path" class="shp0" d="M7.03 10.37L11.8 10.37L11.8 11.55L7.03 11.55L7.03 10.37Z" />
			<path id="Rectangle-path" class="shp0" d="M7.03 12.72L11.8 12.72L11.8 13.89L7.03 13.89L7.03 12.72Z" />
		</g>
	</g>
</svg>