<svg version="1.2" baseProfile="tiny-ps" xmlns="http://www.w3.org/2000/svg" viewBox="0 0 21 21" width="21" height="21">
	<title>2_Account Statement_web</title>
	<style>
		tspan { white-space:pre }
		.shp0 { fill: #3a3b3f } 
	</style>
	<g id="2_Account Statement_web">
		<g id="phone-call (4)">
			<path id="Shape" fill-rule="evenodd" class="shp0" d="M20.63 16.65C20.69 17.3 20.46 17.94 20 18.4L18.47 19.94C17.73 20.67 16.73 21.05 15.72 20.99C13.75 20.88 9.79 20.03 5.38 15.62C0.97 11.21 0.12 7.25 0.01 5.28C-0.05 4.27 0.33 3.27 1.06 2.53L2.6 1C3.06 0.54 3.7 0.31 4.35 0.37C5 0.44 5.58 0.79 5.94 1.33L8.4 5.01C8.97 5.87 8.86 7.03 8.13 7.75L7.16 8.72C7.24 9.29 7.58 10.65 8.97 12.03C10.35 13.42 11.71 13.76 12.28 13.84L13.25 12.87C13.97 12.14 15.13 12.03 15.98 12.6L19.67 15.06C20.21 15.42 20.56 16 20.63 16.65ZM18.87 16.26L15.18 13.81C14.9 13.61 14.51 13.65 14.27 13.9L13.06 15.1C12.92 15.24 12.74 15.32 12.55 15.32C12.45 15.32 10.18 15.29 7.94 13.06C5.71 10.82 5.68 8.55 5.68 8.45C5.68 8.26 5.76 8.07 5.9 7.94L7.1 6.73C7.35 6.49 7.38 6.1 7.19 5.82L4.74 2.13C4.48 1.75 3.95 1.7 3.62 2.02L2.09 3.56C1.65 4 1.42 4.59 1.45 5.19C1.55 6.96 2.34 10.52 6.41 14.59C10.48 18.66 14.04 19.45 15.81 19.55C16.41 19.58 17 19.35 17.44 18.91L18.98 17.38C19.3 17.05 19.25 16.52 18.87 16.26Z" />
		</g>
	</g>
</svg>