<svg xmlns="http://www.w3.org/2000/svg" width="29.217" height="29.217" viewBox="0 0 29.217 29.217"><defs><style>.a{fill:#fff;}</style></defs><g transform="translate(-2 -2)"><path class="a" d="M29.412,19.085a7.3,7.3,0,1,0,2.2,5.22,7.3,7.3,0,0,0-2.2-5.22Zm1.2,4.733H27.7a15.059,15.059,0,0,0-.3-2.644,7.575,7.575,0,0,0,1.636-1.057A6.223,6.223,0,0,1,30.61,23.818ZM28.34,19.436a6.423,6.423,0,0,1-1.183.774A7.158,7.158,0,0,0,26.29,18.3a6.335,6.335,0,0,1,2.05,1.135Zm-6.462,4.383a14.511,14.511,0,0,1,.248-2.284,7.219,7.219,0,0,0,4.353,0,14.512,14.512,0,0,1,.248,2.284Zm4.85.974a14.512,14.512,0,0,1-.248,2.284,7.219,7.219,0,0,0-4.353,0,14.511,14.511,0,0,1-.248-2.284ZM24.3,17.975c.706,0,1.466.989,1.943,2.61a6.213,6.213,0,0,1-3.886,0c.477-1.622,1.237-2.61,1.943-2.61Zm-1.987.326a7.158,7.158,0,0,0-.867,1.909,6.423,6.423,0,0,1-1.183-.774,6.335,6.335,0,0,1,2.05-1.135ZM19.57,20.117a7.575,7.575,0,0,0,1.636,1.057,15.059,15.059,0,0,0-.3,2.644H18a6.223,6.223,0,0,1,1.573-3.7ZM18,24.792H20.9a15.059,15.059,0,0,0,.3,2.644,7.575,7.575,0,0,0-1.636,1.057A6.223,6.223,0,0,1,18,24.792Zm2.274,4.383A6.229,6.229,0,0,1,21.45,28.4a7.158,7.158,0,0,0,.867,1.909A6.263,6.263,0,0,1,20.272,29.175ZM24.3,30.636c-.706,0-1.466-.989-1.943-2.61a6.213,6.213,0,0,1,3.886,0C25.769,29.647,25.01,30.636,24.3,30.636Zm1.987-.326a7.158,7.158,0,0,0,.867-1.909,6.423,6.423,0,0,1,1.183.774A6.335,6.335,0,0,1,26.29,30.309Zm2.746-1.816A7.575,7.575,0,0,0,27.4,27.436a15.059,15.059,0,0,0,.3-2.644H30.61a6.223,6.223,0,0,1-1.573,3.7Z" transform="translate(-7.695 -7.697)"/><path class="a" d="M27,11h.974v.974H27Z" transform="translate(-12.826 -4.617)"/><path class="a" d="M31,11h.974v.974H31Z" transform="translate(-14.878 -4.617)"/><path class="a" d="M35,11h.974v.974H35Z" transform="translate(-16.93 -4.617)"/><path class="a" d="M27,51h.974v.974H27Z" transform="translate(-12.826 -25.139)"/><path class="a" d="M31,51h.974v.974H31Z" transform="translate(-14.878 -25.139)"/><path class="a" d="M35,51h.974v.974H35Z" transform="translate(-16.93 -25.139)"/><path class="a" d="M11,27h.974v.974H11Z" transform="translate(-4.617 -12.826)"/><path class="a" d="M11,31h.974v.974H11Z" transform="translate(-4.617 -14.878)"/><path class="a" d="M11,35h.974v.974H11Z" transform="translate(-4.617 -16.93)"/><path class="a" d="M51,27h.974v.974H51Z" transform="translate(-25.139 -12.826)"/><path class="a" d="M51,31h.974v.974H51Z" transform="translate(-25.139 -14.878)"/><path class="a" d="M51,35h.974v.974H51Z" transform="translate(-25.139 -16.93)"/><path class="a" d="M7.357,2a5.357,5.357,0,1,0,5.357,5.357A5.357,5.357,0,0,0,7.357,2Zm2.435,9a4.375,4.375,0,0,1-4.87,0v-.721A1.465,1.465,0,0,1,6.383,8.817H8.33a1.465,1.465,0,0,1,1.461,1.461ZM6.383,6.87V5.9a.974.974,0,1,1,1.948,0V6.87a.974.974,0,1,1-1.948,0Zm4.368,3.258A2.435,2.435,0,0,0,8.978,7.941,1.931,1.931,0,0,0,9.3,6.87V5.9a1.948,1.948,0,1,0-3.9,0V6.87a1.931,1.931,0,0,0,.326,1.071,2.435,2.435,0,0,0-1.773,2.186,4.383,4.383,0,1,1,6.788,0Z"/><path class="a" d="M45.357,2a5.357,5.357,0,1,0,5.357,5.357A5.357,5.357,0,0,0,45.357,2Zm2.435,9a4.375,4.375,0,0,1-4.87,0v-.721a1.465,1.465,0,0,1,1.461-1.461H46.33a1.465,1.465,0,0,1,1.461,1.461ZM44.383,6.87V5.9a.974.974,0,1,1,1.948,0V6.87a.974.974,0,1,1-1.948,0Zm4.368,3.258a2.435,2.435,0,0,0-1.773-2.186A1.931,1.931,0,0,0,47.3,6.87V5.9a1.948,1.948,0,0,0-3.9,0V6.87a1.931,1.931,0,0,0,.326,1.071,2.435,2.435,0,0,0-1.773,2.186,4.383,4.383,0,1,1,6.788,0Z" transform="translate(-19.496)"/><path class="a" d="M7.357,40a5.357,5.357,0,1,0,5.357,5.357A5.357,5.357,0,0,0,7.357,40Zm2.435,9a4.375,4.375,0,0,1-4.87,0v-.721a1.465,1.465,0,0,1,1.461-1.461H8.33a1.465,1.465,0,0,1,1.461,1.461ZM6.383,44.87V43.9a.974.974,0,0,1,1.948,0v.974a.974.974,0,1,1-1.948,0Zm4.368,3.258a2.435,2.435,0,0,0-1.773-2.186A1.931,1.931,0,0,0,9.3,44.87V43.9a1.948,1.948,0,0,0-3.9,0v.974a1.931,1.931,0,0,0,.326,1.071,2.435,2.435,0,0,0-1.773,2.186,4.383,4.383,0,1,1,6.788,0Z" transform="translate(0 -19.496)"/><path class="a" d="M45.357,40a5.357,5.357,0,1,0,5.357,5.357A5.357,5.357,0,0,0,45.357,40Zm2.435,9a4.375,4.375,0,0,1-4.87,0v-.721a1.465,1.465,0,0,1,1.461-1.461H46.33a1.465,1.465,0,0,1,1.461,1.461ZM44.383,44.87V43.9a.974.974,0,0,1,1.948,0v.974a.974.974,0,1,1-1.948,0Zm4.368,3.258a2.435,2.435,0,0,0-1.773-2.186A1.931,1.931,0,0,0,47.3,44.87V43.9a1.948,1.948,0,0,0-3.9,0v.974a1.931,1.931,0,0,0,.326,1.071,2.435,2.435,0,0,0-1.773,2.186,4.383,4.383,0,1,1,6.788,0Z" transform="translate(-19.496 -19.496)"/></g></svg>