<svg xmlns="http://www.w3.org/2000/svg" width="29.986" height="31.269" viewBox="0 0 29.986 31.269"><defs><style>.a,.b{fill:#fff;}.a{stroke:#fff;}</style></defs><g transform="translate(-41.983 -32.491)"><path class="a" d="M125.5,132.872A7.872,7.872,0,1,0,133.372,125a7.872,7.872,0,0,0-7.872,7.872Zm7.872-7.058a7.058,7.058,0,1,1-7.058,7.058A7.058,7.058,0,0,1,133.372,125.814Z" transform="translate(-77.377 -85.764)"/><path class="a" d="M221.924,376.65a.407.407,0,0,0-.407.407v3.748a1.425,1.425,0,1,0,.814,0v-3.748A.407.407,0,0,0,221.924,376.65Zm.611,5.521a.611.611,0,1,1-.611-.611A.611.611,0,0,1,222.534,382.171Z" transform="translate(-165.928 -320.336)"/><path class="a" d="M221.924,37.9a.407.407,0,0,0,.407-.407V35.782a1.425,1.425,0,1,0-.814,0v1.712A.407.407,0,0,0,221.924,37.9Zm-.611-3.485a.611.611,0,1,1,.611.611A.611.611,0,0,1,221.313,34.417Z" transform="translate(-165.928)"/><path class="a" d="M367.557,221.016a.407.407,0,1,0,0,.814h3.749a1.425,1.425,0,1,0,0-.814Zm5.114-.2a.611.611,0,1,1-.611.611A.611.611,0,0,1,372.671,220.813Z" transform="translate(-302.628 -174.316)"/><path class="a" d="M43.915,222.848a1.427,1.427,0,0,0,1.365-1.018h1.713a.407.407,0,1,0,0-.814H45.28a1.425,1.425,0,1,0-1.365,1.832Zm0-2.036a.611.611,0,1,1-.611.611A.611.611,0,0,1,43.915,220.812Z" transform="translate(0 -174.315)"/><path class="a" d="M50.285,46.687a1.426,1.426,0,0,0,.677-.171l4.008,4.008a.407.407,0,1,0,.576-.576l-4.007-4.007a1.426,1.426,0,1,0-1.254.747Zm-.432-1.856a.611.611,0,1,1-.179.432A.611.611,0,0,1,49.854,44.831Z" transform="translate(-5.937 -10.107)"/><path class="a" d="M354.627,332.641a1.425,1.425,0,1,0,.33-2.261l-1.211-1.211a.407.407,0,1,0-.576.576l1.21,1.21A1.426,1.426,0,0,0,354.627,332.641Zm1.44-1.44a.611.611,0,1,1-.432-.179A.611.611,0,0,1,356.066,331.2Z" transform="translate(-289.486 -275.967)"/><path class="a" d="M59.3,340.853a1.425,1.425,0,1,0,2.262.33l2.65-2.65a.407.407,0,1,0-.576-.576l-2.65,2.651A1.427,1.427,0,0,0,59.3,340.853Zm1.44,1.44h0a.611.611,0,1,1,.179-.432.611.611,0,0,1-.179.432Z" transform="translate(-15.283 -284.158)"/><path class="a" d="M344.168,97.835a.407.407,0,0,0,.576,0l1.211-1.211a1.422,1.422,0,1,0-.577-.575l-1.21,1.21A.407.407,0,0,0,344.168,97.835Zm2.032-2.9h0a.611.611,0,1,1-.179.432.611.611,0,0,1,.179-.432Z" transform="translate(-281.094 -56.822)"/><g transform="translate(-1105.885 -3145.37)"><path class="b" d="M1175.276,3189a1.117,1.117,0,1,1-1.117,1.117,1.118,1.118,0,0,1,1.117-1.117m0-.683a1.8,1.8,0,1,0,1.8,1.8,1.8,1.8,0,0,0-1.8-1.8Z" transform="translate(-13.206)"/><path class="b" d="M1162.071,3224.117a2.816,2.816,0,0,1,2.813,2.811h-5.625a2.815,2.815,0,0,1,2.812-2.812m0-.683a3.5,3.5,0,0,0-3.495,3.495.682.682,0,0,0,.682.682h5.625a.682.682,0,0,0,.682-.682,3.5,3.5,0,0,0-3.495-3.495Z" transform="translate(0 -31.124)"/></g></g></svg>