<svg xmlns="http://www.w3.org/2000/svg" width="24" height="24" viewBox="0 0 24 24"><defs><style>.a{fill:#fff;}</style></defs><path class="a" d="M19.2,9.6a4.8,4.8,0,1,0-4.345-6.826L13.57,2.3A1.942,1.942,0,0,0,13.6,2a2.017,2.017,0,1,0-.306,1.05l1.283.474A4.713,4.713,0,0,0,14.643,6.3l-4.4,1.864a4.777,4.777,0,0,0-5.936-2.25L3.2,3.588A1.99,1.99,0,1,0,2,4a1.967,1.967,0,0,0,.481-.065L3.586,6.258a4.792,4.792,0,0,0-.256,8.128L2.6,15.7a1.979,1.979,0,0,0-.6-.1,2.024,2.024,0,1,0,1.3.49l.733-1.318A4.76,4.76,0,0,0,8.917,14.2l1.574,1.732A4.777,4.777,0,0,0,9.2,19.2a4.831,4.831,0,0,0,.06.718l-1.852.44A1.988,1.988,0,1,0,7.6,21.2c0-.022-.006-.043-.006-.065L9.443,20.7a4.8,4.8,0,1,0,8.785-3.766l2.35-1.528a2.04,2.04,0,1,0-.434-.672l-2.355,1.531A4.827,4.827,0,0,0,16,14.842L17.953,9.43A4.783,4.783,0,0,0,19.2,9.6ZM11.6,3.2A1.2,1.2,0,1,1,12.8,2,1.2,1.2,0,0,1,11.6,3.2ZM.8,2A1.2,1.2,0,1,1,2,3.2,1.2,1.2,0,0,1,.8,2ZM2,18.8a1.2,1.2,0,1,1,1.2-1.2A1.2,1.2,0,0,1,2,18.8Zm3.6,3.6a1.2,1.2,0,1,1,1.2-1.2A1.2,1.2,0,0,1,5.6,22.4ZM22,12.8A1.2,1.2,0,1,1,20.8,14,1.2,1.2,0,0,1,22,12.8ZM16.845,8.026A2.006,2.006,0,0,1,18.8,6.4h.8a2.006,2.006,0,0,1,1.956,1.626,3.97,3.97,0,0,1-4.711,0ZM19.2,5.6a1.2,1.2,0,1,1,1.2-1.2A1.2,1.2,0,0,1,19.2,5.6Zm0-4.8a3.994,3.994,0,0,1,3.019,6.616A2.833,2.833,0,0,0,20.627,5.8a2,2,0,1,0-2.853,0,2.833,2.833,0,0,0-1.593,1.618A3.994,3.994,0,0,1,19.2.8ZM2,10.4a4,4,0,1,1,7.014,2.622A2.834,2.834,0,0,0,7.419,11.4a2,2,0,1,0-2.853,0,2.833,2.833,0,0,0-1.591,1.612A3.979,3.979,0,0,1,2,10.4ZM4.792,10a1.2,1.2,0,1,1,1.2,1.2A1.2,1.2,0,0,1,4.792,10ZM3.638,13.62A2.005,2.005,0,0,1,5.592,12h.8a2.005,2.005,0,0,1,1.956,1.631,3.969,3.969,0,0,1-4.711-.011Zm8,8.8a2.005,2.005,0,0,1,1.954-1.62h.8a2.005,2.005,0,0,1,1.956,1.631,3.969,3.969,0,0,1-4.711-.011ZM13.992,20a1.2,1.2,0,1,1,1.2-1.2A1.2,1.2,0,0,1,13.992,20ZM18,19.2a3.98,3.98,0,0,1-.986,2.622A2.834,2.834,0,0,0,15.419,20.2a2,2,0,1,0-2.853,0,2.833,2.833,0,0,0-1.591,1.612A4,4,0,1,1,18,19.2Zm-2.752-4.63a4.734,4.734,0,0,0-4.164.827L9.509,13.665A4.765,4.765,0,0,0,10.557,8.9l4.4-1.864A4.826,4.826,0,0,0,17.2,9.158Zm0,0" transform="translate(0)"/></svg>