<svg xmlns="http://www.w3.org/2000/svg" width="27" height="27" viewBox="0 0 27 27"><defs><style>.a{fill:#fff;}.b{fill:none;}</style></defs><g transform="translate(48 47.97)"><g transform="translate(-48 -47.97)"><path class="a" d="M18.1,34.571a11.667,11.667,0,0,1-6.288-21.487.842.842,0,1,1,.909,1.417,9.967,9.967,0,1,0,10.758,0,.842.842,0,1,1,.909-1.417A11.664,11.664,0,0,1,18.1,34.571Z" transform="translate(-4.631 -9.255)"/><path class="a" d="M45.842,13.286A.842.842,0,0,1,45,12.445v-5.6a.842.842,0,1,1,1.684,0v5.6a.842.842,0,0,1-.842.842Z" transform="translate(-32.373 -4.255)"/><rect class="b" width="27" height="27" transform="translate(0 0.001)"/></g></g></svg>