<svg xmlns="http://www.w3.org/2000/svg" width="31" height="31" viewBox="0 0 31 31"><defs><style>.a{fill:#fff;}.b{fill:#ed544e;}.c{fill:none;}</style></defs><g transform="translate(47.762 47.762)"><g transform="translate(-48 -48)"><path class="a" d="M40.426,80.5a2.343,2.343,0,1,0-2.343-2.343A2.343,2.343,0,0,0,40.426,80.5Z" transform="translate(-25.485 -50.733)"/><circle class="b" cx="4.427" cy="4.427" r="4.427" transform="translate(19.491 2.851)"/><path class="a" d="M32.919,24.22a3.966,3.966,0,0,1-.9-1.554,33.178,33.178,0,0,0-.367-5.249,5.833,5.833,0,0,1-2.02-.053,30.353,30.353,0,0,1,.4,5.3,4.732,4.732,0,0,0,1.311,2.769,2.68,2.68,0,0,1,.253.395H12.458a2.684,2.684,0,0,1,.252-.395,4.732,4.732,0,0,0,1.311-2.769c0-8.735,2.4-12.463,8.009-12.463a9.257,9.257,0,0,1,2.669.357,6.114,6.114,0,0,1,.559-1.907,10.323,10.323,0,0,0-1.583-.329V7.677a1.654,1.654,0,0,0-3.308,0v.648c-7.1.925-8.331,7.882-8.331,14.341a3.967,3.967,0,0,1-.9,1.554c-.529.684-1.128,1.885-.654,2.769a1.661,1.661,0,0,0,1.562.825H32.01a1.661,1.661,0,0,0,1.562-.825C34.047,26.1,33.448,24.9,32.919,24.22Z" transform="translate(-6.902 -4.03)"/><rect class="c" width="31" height="31" transform="translate(0.238 0.238)"/></g></g></svg>