<svg xmlns="http://www.w3.org/2000/svg" width="32" height="31" viewBox="0 0 32 31"><defs><style>.a{fill:none;}.b{fill:#45545e;}</style></defs><g transform="translate(0.189)"><g transform="translate(0 0)"><rect class="a" width="32" height="31" transform="translate(-0.189)"/><path class="b" d="M44.9,33.75H33.938a2.263,2.263,0,0,1-2.3-2.213V22.87c0-.166-.006-.333-.011-.5a4.062,4.062,0,0,1,.664-2.844c.377-.48.792-.942,1.194-1.39a15.884,15.884,0,0,0,1.7-2.116,3.747,3.747,0,0,0,.2-1.2c.015-.205.03-.4.052-.573a3.767,3.767,0,0,0-.012-.858,5.56,5.56,0,0,1-.005-1.278,2.932,2.932,0,0,1,1.312-2.3A2.485,2.485,0,0,1,39,9.78c1.579.685,2.582,4.471,2.087,7.673l5.978-.049.06.007c1.179.136,3.149,1.025,3.09,5.45-.056,4.2-2.124,10.614-4.863,10.856l-.088.009a3.329,3.329,0,0,1-.358.024ZM37.84,11.479a.27.27,0,0,0-.134.029c-.12.069-.282.331-.344.841a3.775,3.775,0,0,0,.012.863,5.561,5.561,0,0,1,.005,1.278c-.018.143-.029.305-.042.475a4.632,4.632,0,0,1-.5,2.091,17.578,17.578,0,0,1-1.9,2.389c-.4.443-.774.862-1.112,1.292a2.359,2.359,0,0,0-.247,1.568c.006.188.013.377.013.565v8.667a.32.32,0,0,0,.348.256H44.9a1.38,1.38,0,0,0,.147-.013l.127-.013c.931-.082,3.02-4.614,3.079-8.932.013-.984-.089-3.272-1.307-3.473l-6.24.052h-.015a1.618,1.618,0,0,1-1.252-.58,1.649,1.649,0,0,1-.344-1.377c.569-2.906-.452-5.514-.911-5.9a.959.959,0,0,0-.347-.084Z" transform="translate(-21.299 -6.416)"/><path class="b" d="M11.28,45.218v9.941H9.6V45.218H11.28m.631-1.957H8.967A1.283,1.283,0,0,0,7.641,44.5V55.881a1.283,1.283,0,0,0,1.326,1.235h2.943a1.283,1.283,0,0,0,1.326-1.235V44.5a1.283,1.283,0,0,0-1.326-1.235Z" transform="translate(-5.149 -29.149)"/></g></g></svg>