<svg version="1.2" baseProfile="tiny-ps" xmlns="http://www.w3.org/2000/svg" viewBox="0 0 18 19" width="18" height="19">
	<title>2_Account Statement_web</title>
	<style>
		tspan { white-space:pre }
		.shp0 { fill: #3a3b3f } 
	</style>
	<g id="2_Account Statement_web">
		<path id="Shape" fill-rule="evenodd" class="shp0" d="M18 7.19C18 10.6 15.22 13.37 11.81 13.37C10.88 13.37 9.99 13.17 9.19 12.79L3.19 18.79C2.91 19.07 2.47 19.07 2.19 18.79L0.21 16.81C-0.07 16.53 -0.07 16.09 0.21 15.81L6.21 9.81C5.83 9.01 5.62 8.12 5.62 7.19C5.62 3.78 8.4 1 11.81 1C15.22 1 18 3.78 18 7.19ZM7.96 12.03C7.6 11.74 7.26 11.4 6.97 11.04L1.7 16.31L2.69 17.3L7.96 12.03ZM16.59 7.19C16.59 4.55 14.45 2.41 11.81 2.41C9.18 2.41 7.03 4.55 7.03 7.19C7.03 9.82 9.18 11.97 11.81 11.97C14.45 11.97 16.59 9.82 16.59 7.19ZM15.19 6.03C15.19 6.42 14.87 6.73 14.48 6.73L9.14 6.73C8.75 6.73 8.44 6.42 8.44 6.03C8.44 5.64 8.75 5.32 9.14 5.32L14.48 5.32C14.87 5.32 15.19 5.64 15.19 6.03ZM13.89 9.05C13.89 9.44 13.57 9.75 13.18 9.75L10.51 9.75C10.12 9.75 9.81 9.44 9.81 9.05C9.81 8.66 10.12 8.35 10.51 8.35L13.18 8.35C13.57 8.35 13.89 8.66 13.89 9.05Z" />
	</g>
</svg>