<svg version="1.2" baseProfile="tiny-ps" xmlns="http://www.w3.org/2000/svg" viewBox="0 0 20 20" width="20" height="20">
	<title>2_Account Statement_web</title>
	<style>
		tspan { white-space:pre }
		.shp0 { fill: #3a3b3f } 
	</style>
	<g id="2_Account Statement_web">
		<g id="kettlebell">
			<g id="loan (3)">
				<path id="Shape" fill-rule="evenodd" class="shp0" d="M14.76 4.88C14.76 7.57 12.57 9.76 9.88 9.76C7.19 9.76 5 7.57 5 4.88C5 2.19 7.19 0 9.88 0C12.57 0 14.76 2.19 14.76 4.88ZM13.7 4.85C13.7 2.73 11.97 1 9.85 1C7.73 1 6 2.73 6 4.85C6 6.97 7.73 8.7 9.85 8.7C11.97 8.7 13.7 6.97 13.7 4.85ZM18.73 14.86L10.73 19.87C10.64 19.93 10.53 19.96 10.42 19.96C10.34 19.96 10.26 19.95 10.19 19.91L5.2 17.79L0.69 18.57C0.52 18.6 0.34 18.55 0.21 18.44C0.08 18.33 0 18.16 0 17.99L0 13.02C0 12.74 0.2 12.49 0.49 12.44L7.32 11.23C7.48 11.2 7.64 11.24 7.77 11.33L10.91 13.62L17.47 11.93C18.27 11.72 19.1 12.15 19.39 12.92C19.66 13.64 19.39 14.46 18.73 14.86ZM2.13 13.35L1.18 13.52L1.18 17.29L2.13 17.12L2.13 13.35ZM18.29 13.34C18.21 13.13 17.98 13.01 17.77 13.07L11.83 14.6C11.89 14.74 11.93 14.89 11.96 15.05C12.03 15.53 11.9 16 11.61 16.39C11.26 16.85 10.73 17.1 10.19 17.1C9.84 17.1 9.48 16.99 9.17 16.77L7.09 15.32C6.82 15.14 6.76 14.77 6.94 14.5C7.13 14.24 7.5 14.17 7.76 14.36L9.84 15.81C10.11 15.99 10.47 15.94 10.67 15.68C10.77 15.55 10.81 15.38 10.79 15.22C10.77 15.06 10.68 14.92 10.55 14.82L10.44 14.74C10.44 14.74 10.44 14.74 10.44 14.74L7.28 12.43L3.31 13.14L3.31 16.92L5.17 16.59C5.21 16.59 5.24 16.59 5.28 16.59C5.35 16.59 5.43 16.6 5.51 16.63L10.37 18.71L18.11 13.86C18.29 13.75 18.36 13.53 18.29 13.34ZM10.53 3.67C10.65 3.84 10.73 4.05 10.76 4.29L11.23 4.29L11.23 4.66L10.77 4.66C10.73 5.15 10.52 5.5 10.12 5.73L11.23 7.2L10.32 7.2L9.38 5.95C9.28 5.96 9.18 5.96 9.07 5.96L8 5.96L8 5.29L9.06 5.29C9.33 5.29 9.54 5.23 9.7 5.13C9.86 5.03 9.96 4.87 10 4.66L8 4.66L8 4.29L10 4.29C9.93 3.88 9.61 3.68 9.06 3.68L8 3.68L8 3L11.23 3L11.23 3.67L10.53 3.67Z" />
			</g>
		</g>
	</g>
</svg>