<svg version="1.2" baseProfile="tiny-ps" xmlns="http://www.w3.org/2000/svg" viewBox="0 0 16 16" width="16" height="16">
	<title>1_Borrower_Overview</title>
	<style>
		tspan { white-space:pre }
		.shp0 { fill: #3a3b3f } 
	</style>
	<g id="1_Borrower_Overview">
		<path id="Shape" fill-rule="evenodd" class="shp0" d="M16 8L16 13C16 14.65 14.65 16 13 16L3 16C1.35 16 0 14.65 0 13L0 0.62C0 0.28 0.28 0 0.62 0L10.62 0C10.97 0 11.25 0.28 11.25 0.62L11.25 7.37L15.37 7.37C15.72 7.37 16 7.65 16 8ZM10.56 14.75C10.21 14.26 10 13.65 10 13L10 1.25L1.25 1.25L1.25 13C1.25 13.96 2.03 14.75 3 14.75L10.56 14.75ZM14.75 8.62L11.25 8.62L11.25 13C11.25 13.96 12.03 14.75 13 14.75C13.96 14.75 14.75 13.96 14.75 13L14.75 8.62ZM8.75 4.33L8.75 9.21C8.75 9.55 8.47 9.83 8.12 9.83L3.12 9.83C2.78 9.83 2.5 9.55 2.5 9.21L2.5 4.33C2.5 3.99 2.78 3.71 3.12 3.71L8.12 3.71C8.47 3.71 8.75 3.99 8.75 4.33ZM7.5 4.96L3.75 4.96L3.75 8.58L7.5 8.58L7.5 4.96ZM8.75 11.67C8.75 12.01 8.47 12.29 8.12 12.29L3.12 12.29C2.78 12.29 2.5 12.01 2.5 11.67C2.5 11.32 2.78 11.04 3.12 11.04L8.12 11.04C8.47 11.04 8.75 11.32 8.75 11.67Z" />
	</g>
</svg>