<svg version="1.2" baseProfile="tiny-ps" xmlns="http://www.w3.org/2000/svg" viewBox="0 0 18 18" width="18" height="18">
	<title>1_Borrower_Overview</title>
	<style>
		tspan { white-space:pre }
		.shp0 { fill: #74798c } 
	</style>
	<g id="1_Borrower_Overview">
		<g id="background copy">
			<g id="log-out">
				<g id="Shape 3">
					<path id="Shape" class="shp0" d="M15.52 8.82L11.73 5.04C11.38 4.69 11.38 4.13 11.73 3.79C12.07 3.44 12.63 3.44 12.98 3.79L17.39 8.2C17.73 8.54 17.73 9.1 17.39 9.45L12.98 13.86C12.63 14.2 12.07 14.2 11.73 13.86C11.38 13.51 11.38 12.96 11.73 12.61L15.52 8.82Z" />
					<path id="Shape 2" class="shp0" d="M6.18 15.88C6.66 15.88 7.06 16.28 7.06 16.76C7.06 17.25 6.66 17.65 6.18 17.65L2.65 17.65C1.18 17.65 0 16.46 0 15L0 2.65C0 1.19 1.18 0 2.65 0L6.18 0C6.66 0 7.06 0.39 7.06 0.88C7.06 1.37 6.66 1.76 6.18 1.76L2.65 1.76C2.16 1.76 1.76 2.16 1.76 2.65L1.76 15C1.76 15.49 2.16 15.88 2.65 15.88L6.18 15.88ZM16.76 7.94C17.25 7.94 17.65 8.34 17.65 8.82C17.65 9.31 17.25 9.71 16.76 9.71L6.18 9.71C5.69 9.71 5.29 9.31 5.29 8.82C5.29 8.34 5.69 7.94 6.18 7.94L16.76 7.94Z" />
				</g>
			</g>
		</g>
	</g>
</svg>