<svg xmlns="http://www.w3.org/2000/svg" width="70.657" height="66.753" viewBox="0 0 70.657 66.753"><defs><style>.a{fill:#2e6bdc;}</style></defs><g transform="matrix(0.914, -0.407, 0.407, 0.914, -224.456, -455.767)"><path class="a" d="M65.007,534.163l-.652-2.021-3.718,5.044a3.617,3.617,0,0,1-2.9,1.467,3.569,3.569,0,0,1-2.175-.706A3.608,3.608,0,0,1,54.8,532.9l3.587-4.87-2.435.326a8.36,8.36,0,0,0-5,2.425,8.488,8.488,0,0,0-2.174,8.261l-22.883,22.85a8.466,8.466,0,0,0-10.36,10.654l.641,2.054,3.892-5.283a3.6,3.6,0,1,1,5.794,4.272l-3.782,5.131,2.446-.249a8.354,8.354,0,0,0,5.1-2.425,8.5,8.5,0,0,0,2.175-8.261l22.828-22.829a8.485,8.485,0,0,0,10.381-10.795Z" transform="translate(-0.039 -0.022)"/><path class="a" d="M44.391,536.632l-3.925.891a13.041,13.041,0,0,0-2.728-3.849l2.174-3.4-4.728-2.957-2.175,3.4a13.354,13.354,0,0,0-4.642-.8L27.573,526l-5.435,1.25.891,3.925a13.047,13.047,0,0,0-3.849,2.729l-3.4-2.175L12.833,536.4l3.4,2.175a13.058,13.058,0,0,0-.8,4.641l-3.924.891,1.217,5.436,3.979-.968a13.074,13.074,0,0,0,2.728,3.849l-2.174,3.4,4.653,2.945,2.174-3.4a13.025,13.025,0,0,0,4.512.8h.065l.521,2.326,16.447-16.4Zm-14.36,12.914a6.664,6.664,0,1,1,5.034-7.979A6.664,6.664,0,0,1,30.031,549.546Z" transform="translate(0)"/></g></svg>