<svg xmlns="http://www.w3.org/2000/svg" width="50.759" height="61.17" viewBox="0 0 50.759 61.17"><defs><style>.a{fill:#fff;}</style></defs><g transform="translate(-43.572)"><path class="a" d="M53.462,18.753H76.779v3.584H53.462Z" transform="translate(-1.149 -2.178)"/><path class="a" d="M84.372,40.622V0H51.79L43.572,8.218V52.712H59.664l-3.226,5.794L58,61.17H92.766l1.565-2.664ZM52.979,3.88V9.407H47.452ZM47.156,49.128V12.991h9.407V3.584H80.788v30.6L76.95,27.292H75.631V23.743H52.313v3.584H73.8l-2,3.584H52.313V34.5H69.807L61.66,49.128Zm13.9,8.458L75.384,31.848,89.716,57.586Z" transform="translate(0)"/><path class="a" d="M77.536,57.042H81.12v3.584H77.536Z" transform="translate(-3.944 -6.624)"/><path class="a" d="M77.536,45.144H81.12v6.932H77.536Z" transform="translate(-3.944 -5.242)"/></g></svg>