<svg xmlns="http://www.w3.org/2000/svg" width="55.171" height="55.164" viewBox="0 0 55.171 55.164"><defs><style>.a{fill:#2e6bdc;}</style></defs><g transform="translate(0.001 -0.029)"><path class="a" d="M4.547,161.255a3.36,3.36,0,0,0-1.218.246l-2.095.893a2.03,2.03,0,0,0-.946,2.913l1.366,2.281Z" transform="translate(0 -143.004)"/><path class="a" d="M207.995,42.06c-1.037-2.436-7.384-2.063-9.819-1.025l-10.341,4.41-13.648-4.786a5.265,5.265,0,0,1-.565.985,6.567,6.567,0,0,1-1.077,6.516c-.025.032-.052.063-.079.094h.924a1.735,1.735,0,0,1,1.736,1.735V50a3.979,3.979,0,0,1,.271.465L182.626,66.3a4.144,4.144,0,0,1-2.05,5.491,3.874,3.874,0,0,1-2.665.24l1.129,4.7A1.857,1.857,0,0,0,181.577,78l3.784-1.614a1.862,1.862,0,0,0,1.056-1.192L192.6,53.839l9.338-3.982C204.375,48.818,209.035,44.5,207.995,42.06Z" transform="translate(-152.974 -35.66)"/><path class="a" d="M30.658,151.458a2.168,2.168,0,0,0,1.072-2.872L25.256,134.4a1.7,1.7,0,0,1-.964.33H21.209A1.735,1.735,0,0,1,19.474,133v-.917a6.625,6.625,0,0,1-2.653,0V133a1.735,1.735,0,0,1-1.733,1.735H12a1.683,1.683,0,0,1-.96-.33L4.565,148.586a2.168,2.168,0,0,0,3.944,1.8L12,142.733s0,6.494,0,26.984a2.6,2.6,0,1,0,5.2,0v-15.5h1.9v15.5a2.6,2.6,0,1,0,5.2,0c0-14.434-.007-22.325-.007-26.984l3.494,7.653A2.167,2.167,0,0,0,30.658,151.458Z" transform="translate(-3.875 -117.125)"/><rect class="a" width="3.087" height="1.542" transform="translate(8.126 14.329)"/><rect class="a" width="3.082" height="1.542" transform="translate(17.334 14.329)"/><path class="a" d="M88.64,65.211H84.362a5.242,5.242,0,0,1-2.831-.833,5.223,5.223,0,0,0-.1.982,5.069,5.069,0,0,0,10.138,0,5.216,5.216,0,0,0-.1-.983A5.244,5.244,0,0,1,88.64,65.211Z" transform="translate(-72.229 -57.076)"/><path class="a" d="M78.043,35.885A3.534,3.534,0,0,0,81.356,38.2h4.278a3.536,3.536,0,0,0,3.313-2.319Z" transform="translate(-69.223 -31.803)"/><path class="a" d="M66.1,2.348H78.209l.674-.929a.876.876,0,0,0-.707-1.39H66.134a.875.875,0,0,0-.708,1.39Z" transform="translate(-57.883 0)"/></g></svg>