<svg xmlns="http://www.w3.org/2000/svg" width="54.602" height="54.999" viewBox="0 0 54.602 54.999"><defs><style>.a{fill:#2e6bdc;}</style></defs><path class="a" d="M10295.1,8476a1.778,1.778,0,0,1-1.657-1.147l0-.007a1.391,1.391,0,0,1-.052-.167l-.006-.019a1.784,1.784,0,0,1,.813-1.971l4.165-2.459a3.366,3.366,0,0,0,1.668-3.094l-1.718-34.592a5.923,5.923,0,0,1,5.87-5.856,5.807,5.807,0,0,1,3.1.895,15.328,15.328,0,0,0,2.163,17.4l-1.1,22.14a3.363,3.363,0,0,0,1.693,3.109l4.267,2.467a1.77,1.77,0,0,1-.887,3.3,1.8,1.8,0,0,1-.449-.058c-.058-.016-.114-.033-.174-.054l-7.343-2.755a3.4,3.4,0,0,0-2.386,0l-7.343,2.755A1.785,1.785,0,0,1,10295.1,8476Zm32.693-17.011a.748.748,0,0,1-.2-.028l-16.96-5.133.365-7.34a15.33,15.33,0,0,0,13.807,3.092l1.054.6a5.205,5.205,0,0,1,2.624,4.5v3.626A.69.69,0,0,1,10327.793,8458.989Zm-47.067,0a.656.656,0,0,1-.321-.08.8.8,0,0,1-.4-.6v-3.621a5.216,5.216,0,0,1,2.648-4.5l14.491-8.186.593,11.837-16.807,5.128A.627.627,0,0,1,10280.726,8458.984Zm40.143-10.52a13.734,13.734,0,1,1,9.711-4.022A13.668,13.668,0,0,1,10320.868,8448.465Zm-6.03-19.906a1.84,1.84,0,0,0-1.837,1.839v8.585a1.84,1.84,0,0,0,1.837,1.839h12.244a1.841,1.841,0,0,0,1.839-1.839V8430.4a1.841,1.841,0,0,0-1.839-1.839h-2.143a.614.614,0,0,1-.611-.615v-.611a2.15,2.15,0,0,0-2.143-2.146h-2.448a2.152,2.152,0,0,0-2.146,2.146v.611a.614.614,0,0,1-.611.615Zm7.041,9.2h-1.836a.306.306,0,0,1-.306-.307v-.921a.612.612,0,0,0-.612-.611h-.921a.306.306,0,0,1-.306-.307v-1.841a.306.306,0,0,1,.306-.307h.921a.614.614,0,0,0,.612-.614v-.918a.306.306,0,0,1,.306-.307h1.836a.307.307,0,0,1,.307.307v.918a.614.614,0,0,0,.612.614h.918a.306.306,0,0,1,.306.307v1.841a.306.306,0,0,1-.306.307h-.918a.612.612,0,0,0-.612.611v.921A.307.307,0,0,1,10321.879,8437.756Zm0-9.2h-1.836a.615.615,0,0,1-.612-.615v-.611a.307.307,0,0,1,.307-.307h2.448a.306.306,0,0,1,.306.307v.611A.615.615,0,0,1,10321.879,8428.559Z" transform="translate(-10280 -8421.001)"/></svg>