<svg xmlns="http://www.w3.org/2000/svg" width="65.832" height="61.37" viewBox="0 0 65.832 61.37"><defs><style>.a,.b{fill:#fff;}.b{stroke:#fff;}.c{fill:none;}</style></defs><g transform="translate(-554.5 -266.5)"><g transform="translate(555 267)"><path class="a" d="M40.076,41.879l5.315-5.446-5.315,5.446-8.2-7.349-4.331,4.79L31.873,34.6Z" transform="translate(2.906 0.643)"/><path class="a" d="M53.626,26.014l-7.349,7.743,7.415-7.743Z" transform="translate(5.825 -0.685)"/><path class="a" d="M60.377,30.175,48.3,42.774l-3.806,4L39.51,51.83l-6.234-5.643L39.51,51.83h0L44.5,46.777l3.806-4,12.074-12.6-2.362-2.231Z" transform="translate(3.799 -0.384)"/><path class="b" d="M49.5,59.418a1.334,1.334,0,0,1-1.181,1.247h-42a1.464,1.464,0,0,1-1.312-1.247V9.088A1.347,1.347,0,0,1,6.318,7.906h42A1.27,1.27,0,0,1,49.5,9.088V37.5l3.806-4V9.088A5.071,5.071,0,0,0,48.315,4.1h-42A5.188,5.188,0,0,0,1.2,9.088v50.33A5.245,5.245,0,0,0,6.318,64.47h42A5.128,5.128,0,0,0,53.3,59.418V50.165l-3.806,4Z" transform="translate(-1.2 -4.1)"/><path class="a" d="M45.391,47.078l3.806-4,12.074-12.6-2.362-2.231-2.3-2.231L49.2,33.757l-3.806,4-5.315,5.446-8.2-7.284-4.331,4.725L32,44.585l2.165,1.9L40.4,52.131Z" transform="translate(4.061 -1.84)"/><line class="c" x2="6.234" y2="5.578" transform="translate(37.075 45.934)"/><line class="c" x1="4.462" y1="4.003" transform="translate(30.448 40.028)"/><line class="c" x2="2.165" y2="1.903" transform="translate(34.91 44.031)"/></g><circle class="a" cx="2.5" cy="2.5" r="2.5" transform="translate(563.809 282.14)"/><circle class="a" cx="2.5" cy="2.5" r="2.5" transform="translate(563.809 290.14)"/><circle class="a" cx="2.5" cy="2.5" r="2.5" transform="translate(563.809 307.14)"/><circle class="a" cx="2.5" cy="2.5" r="2.5" transform="translate(563.809 299.14)"/><rect class="a" width="26" height="5" rx="2.5" transform="translate(570.809 282.14)"/><rect class="a" width="26" height="5" rx="2.5" transform="translate(570.809 290.14)"/><rect class="a" width="17" height="5" rx="2.5" transform="translate(570.809 307.14)"/><rect class="a" width="13" height="5" rx="2.5" transform="translate(570.809 299.14)"/></g></svg>