<svg xmlns="http://www.w3.org/2000/svg" width="55.332" height="45.781" viewBox="0 0 55.332 45.781"><defs><style>.a{fill:#2e6bdc;}.b{fill:#fff;}</style></defs><g transform="translate(4 -15.636)"><path class="a" d="M172.635,42.156a1.971,1.971,0,0,0-2.735.537l-5.426,8.079a4.412,4.412,0,0,0-1.978-.466h-2.957a4.416,4.416,0,0,0-1.969.461l-5.423-8.075a1.971,1.971,0,0,0-3.273,2.2l6.261,9.324c-.046.39-.026,26.276-.026,26.276a2.464,2.464,0,0,0,4.928,0V69.4h1.971V80.491a2.464,2.464,0,0,0,4.928,0c0-9.522.012-25.838-.036-26.261l6.271-9.338A1.971,1.971,0,0,0,172.635,42.156Z" transform="translate(-122.176 -21.537)"/><path class="a" d="M196.982,27.392a4.722,4.722,0,0,0,2.574-8.682,4.931,4.931,0,0,1,.887-.467.446.446,0,0,0,.038-.81,3.9,3.9,0,0,0-2.516-.231,4.907,4.907,0,0,1,.565-.835.446.446,0,0,0-.348-.732c-1.726.02-3.31,1.77-3.941,2.817a3.024,3.024,0,0,0-.271.579,4.722,4.722,0,0,0,3.011,8.361Z" transform="translate(-158.134 0)"/><path class="a" d="M24.095,31.325a1.971,1.971,0,0,0-2.735.537l-1.285,1.914a1.733,1.733,0,0,0-1.607.022c-.033.018-.063.038-.095.057l.008-.022a.737.737,0,0,0-1.186-.8,4.723,4.723,0,0,0-9.421,0,.737.737,0,0,0-1.186.8l.008.022c-.031-.019-.062-.04-.095-.057a1.734,1.734,0,0,0-1.607-.022L3.608,31.863a1.971,1.971,0,0,0-3.273,2.2L2.591,37.42a3.432,3.432,0,0,0,.085,1.833.446.446,0,0,0,.808.067c.059-.1.121-.2.183-.3L6.6,43.384c-.044.376-.032.025-.032,6.334L3.881,60.658a1.711,1.711,0,0,0,1.661,2.118H6.57V69.66a2.464,2.464,0,0,0,4.928,0V62.776h1.971V69.66a2.464,2.464,0,0,0,4.928,0V62.776h1.016a1.711,1.711,0,0,0,1.661-2.118L18.391,49.717h0c0-6.31.011-5.953-.03-6.318L21.3,39.022c.062.095.124.193.183.3a.446.446,0,0,0,.808-.067,3.432,3.432,0,0,0,.085-1.833l2.256-3.359A1.971,1.971,0,0,0,24.095,31.325Zm-8.161,8.617a4.413,4.413,0,0,0-1.978-.466H11a4.417,4.417,0,0,0-1.969.461L6.89,36.751a1.025,1.025,0,0,0,.382-.373,1.918,1.918,0,0,0,.149-.359.733.733,0,0,0,1.118-.043,4.724,4.724,0,0,0,7.888,0,.733.733,0,0,0,1.118.043,1.911,1.911,0,0,0,.149.359,1.026,1.026,0,0,0,.382.373Z" transform="translate(-4 -10.707)"/><circle class="a" cx="7.5" cy="7.5" r="7.5" transform="translate(16 30.635)"/><g transform="translate(21 34.635)"><path class="b" d="M53.933,24.227H49.51a.712.712,0,1,1,0-1.423h4.423a.712.712,0,0,1,0,1.423Z" transform="translate(-48.776 -22.804)"/><path class="b" d="M53.933,26.394H49.51a.712.712,0,1,1,0-1.424h4.423a.712.712,0,1,1,0,1.424Z" transform="translate(-48.776 -22.931)"/><path class="b" d="M51.991,30.972l-2.5-2.913a.712.712,0,0,1,.54-1.176H50.8a1.328,1.328,0,0,0,0-2.655H49.487a.712.712,0,0,1,0-1.423H50.8a2.751,2.751,0,0,1,.7,5.413l1.568,1.827Z" transform="translate(-48.775 -22.804)"/></g></g></svg>