<svg xmlns="http://www.w3.org/2000/svg" width="40.858" height="51.324" viewBox="0 0 40.858 51.324"><defs><style>.a{fill:#2e6bdc;}</style></defs><path class="a" d="M11.146,51.324H0V5.133H7.661V0H33.2V5.133h7.661V9.411a8.71,8.71,0,0,0-2.969-.49q-.126,0-.254,0c-4.726.112-6.1,3.47-6.419,6.267a7.564,7.564,0,0,0-.332,1.79C27.3,17.61,25.848,19.918,26,21.926a3.124,3.124,0,0,0,3.051,3.023,7.744,7.744,0,0,1,1.919-6.276,7.676,7.676,0,0,0,2.539,4.55,7.494,7.494,0,0,0,7.352,1.434v.6h-6.72l-7.819,9.467.531,2.018,1.167.294,5.841-6.719.333,2.663-5.425,9.368h6.258V50.5H34.2v.817H21.361V46.191H11.146v5.133ZM18.807,33.36v5.133h5.108V33.36Zm-10.214,0v5.133H13.7V33.36ZM18.807,23.1v5.131h5.108V23.1Zm-10.214,0v5.131H13.7V23.1ZM18.807,12.831v5.133h5.108V12.831Zm-10.214,0v5.133H13.7V12.831ZM39.345,51.323h-1.4V50.5l0-8.157h1.4v8.974Zm-.924-28.415a5.369,5.369,0,0,1-3.795-1.565A5.464,5.464,0,0,1,33,17.561c1.066-.389,1.87-2.251,1.878-2.27.068.029.639.339.639,2.34a.531.531,0,0,0,.175.029c1.122,0,2.868-3.289,2.886-3.322v2.9a6.165,6.165,0,0,0,1.474.126c.245,0,.517-.006.808-.017v4.978A5.352,5.352,0,0,1,38.421,22.908Z"/></svg>