<?xml version="1.0" encoding="utf-8"?>
<!-- Generator: Adobe Illustrator 22.1.0, SVG Export Plug-In . SVG Version: 6.00 Build 0)  -->
<svg version="1.1" id="Layer_1" xmlns="http://www.w3.org/2000/svg" xmlns:xlink="http://www.w3.org/1999/xlink" x="0px" y="0px"
	 viewBox="0 0 24 24" style="enable-background:new 0 0 24 24;" xml:space="preserve">
<title>task-list-cash</title>
<g fill="#ffffff">
	<path d="M17.25,21.761c-0.414,0-0.75-0.336-0.75-0.75h-0.75c-0.414,0-0.75-0.336-0.75-0.75s0.336-0.75,0.75-0.75h2.031
		c0.242,0,0.458-0.146,0.548-0.371c0.059-0.146,0.057-0.307-0.005-0.453c-0.062-0.146-0.177-0.259-0.323-0.317l-2.063-0.825
		c-0.797-0.321-1.312-1.082-1.312-1.94c0-0.559,0.217-1.084,0.612-1.48c0.344-0.344,0.786-0.554,1.262-0.603v-0.011
		c0-0.414,0.336-0.75,0.75-0.75S18,13.097,18,13.511h0.75c0.414,0,0.75,0.336,0.75,0.75s-0.336,0.75-0.75,0.75h-2.033
		c-0.326,0-0.591,0.266-0.591,0.593c0,0.243,0.146,0.458,0.371,0.549l2.063,0.825c1.071,0.431,1.592,1.652,1.161,2.722
		C19.428,20.428,18.767,20.92,18,21v0.011C18,21.424,17.664,21.761,17.25,21.761z"/>
	<path d="M17.25,24.011c-3.722,0-6.75-3.028-6.75-6.75s3.028-6.75,6.75-6.75S24,13.539,24,17.261S20.972,24.011,17.25,24.011z
		 M17.25,12.011c-2.895,0-5.25,2.355-5.25,5.25s2.355,5.25,5.25,5.25s5.25-2.355,5.25-5.25S20.145,12.011,17.25,12.011z"/>
	<path d="M5.25,11.261c-0.414,0-0.75-0.336-0.75-0.75s0.336-0.75,0.75-0.75h5.25c0.414,0,0.75,0.336,0.75,0.75
		s-0.336,0.75-0.75,0.75H5.25z"/>
	<path d="M5.25,15.011c-0.414,0-0.75-0.336-0.75-0.75s0.336-0.75,0.75-0.75h3c0.414,0,0.75,0.336,0.75,0.75s-0.336,0.75-0.75,0.75
		H5.25z"/>
	<path d="M5.25,18.761c-0.414,0-0.75-0.336-0.75-0.75s0.336-0.75,0.75-0.75h3c0.414,0,0.75,0.336,0.75,0.75s-0.336,0.75-0.75,0.75
		H5.25z"/>
	<path d="M2.25,24.011c-1.241,0-2.25-1.009-2.25-2.25V6.011c0-1.241,1.009-2.25,2.25-2.25h3.063c0.362-2.129,2.248-3.75,4.437-3.75
		c2.19,0,4.076,1.621,4.437,3.75h3.063c1.241,0,2.25,1.009,2.25,2.25v2.25c0,0.414-0.336,0.75-0.75,0.75S18,8.675,18,8.261v-2.25
		c0-0.414-0.336-0.75-0.75-0.75H13.5c-0.414,0-0.75-0.336-0.75-0.75c0-1.654-1.346-3-3-3s-3,1.346-3,3c0,0.414-0.336,0.75-0.75,0.75
		H2.25c-0.414,0-0.75,0.336-0.75,0.75v15.75c0,0.414,0.336,0.75,0.75,0.75h7.5c0.414,0,0.75,0.336,0.75,0.75s-0.336,0.75-0.75,0.75
		H2.25z"/>
	<circle cx="9.75" cy="4.136" r="1.125"/>
</g>
</svg>
