<?xml version="1.0" encoding="utf-8"?>
<!-- Generator: Adobe Illustrator 22.1.0, SVG Export Plug-In . SVG Version: 6.00 Build 0)  -->
<svg version="1.1" id="Layer_1" xmlns="http://www.w3.org/2000/svg" xmlns:xlink="http://www.w3.org/1999/xlink" x="0px" y="0px"
	 viewBox="0 0 24 24" style="enable-background:new 0 0 24 24;" xml:space="preserve">
<title>task-list-star</title>
<g fill="#ffffff">
	<path d="M13.363,24.011c-0.135,0-0.27-0.018-0.4-0.053c-0.396-0.106-0.728-0.36-0.933-0.716c-0.237-0.411-0.271-0.918-0.089-1.357
		l1.203-2.763l-2.097-1.464c-0.022-0.015-0.046-0.034-0.068-0.053c-0.613-0.542-0.67-1.482-0.128-2.095
		c0.282-0.318,0.687-0.5,1.113-0.5l0.055,0.001l2.454,0l1.361-3.586c0.011-0.029,0.024-0.058,0.04-0.087
		c0.195-0.365,0.521-0.632,0.917-0.753c0.147-0.045,0.299-0.067,0.451-0.067c0.252,0,0.505,0.064,0.729,0.184
		c0.271,0.145,0.491,0.365,0.636,0.636c0.015,0.029,0.029,0.058,0.04,0.089l1.357,3.584l2.514,0c0.373,0,0.729,0.14,1.005,0.395
		c0.291,0.269,0.46,0.635,0.476,1.032c0.018,0.445-0.163,0.87-0.496,1.167c-0.023,0.021-0.048,0.04-0.073,0.058l-2.093,1.461
		l1.197,2.751c0.328,0.791-0.043,1.694-0.825,2.019c-0.187,0.077-0.384,0.116-0.587,0.116c0,0,0,0,0,0
		c-0.271,0-0.537-0.071-0.769-0.205l-3.114-1.75l-3.119,1.754C13.893,23.94,13.63,24.011,13.363,24.011z M17.24,20.444
		c0.128,0,0.255,0.033,0.367,0.096l3.49,1.961l0.027,0.009c0.028-0.009,0.038-0.034,0.031-0.05l-1.437-3.302
		c-0.142-0.326-0.033-0.711,0.259-0.914l2.483-1.733l-2.972,0c-0.31,0-0.592-0.195-0.701-0.484l-1.512-3.994
		c-0.005-0.004-0.01-0.009-0.01-0.009l-0.147-0.363l0.096,0.317l0.013,0.005L17.221,12l0.006,0.02
		c-0.007,0.002-0.012,0.005-0.017,0.009l-1.517,3.998c-0.11,0.289-0.392,0.484-0.701,0.484h-2.968l2.483,1.733
		c0.292,0.203,0.401,0.588,0.258,0.914l-1.443,3.314c0,0,0,0,0,0c0.001,0,0.002,0.011,0.007,0.021
		c0.005,0.009,0.012,0.014,0.021,0.016c0.001-0.001,0.03-0.005,0.031-0.006l3.49-1.963C16.985,20.477,17.112,20.444,17.24,20.444z"
		/>
	<path d="M5.25,11.261c-0.414,0-0.75-0.336-0.75-0.75s0.336-0.75,0.75-0.75H12c0.414,0,0.75,0.336,0.75,0.75s-0.336,0.75-0.75,0.75
		H5.25z"/>
	<path d="M5.25,15.011c-0.414,0-0.75-0.336-0.75-0.75s0.336-0.75,0.75-0.75H7.5c0.414,0,0.75,0.336,0.75,0.75s-0.336,0.75-0.75,0.75
		H5.25z"/>
	<path d="M5.25,18.761c-0.414,0-0.75-0.336-0.75-0.75s0.336-0.75,0.75-0.75H7.5c0.414,0,0.75,0.336,0.75,0.75s-0.336,0.75-0.75,0.75
		H5.25z"/>
	<path d="M2.25,24.011c-1.241,0-2.25-1.009-2.25-2.25V6.011c0-1.241,1.009-2.25,2.25-2.25h3.063c0.362-2.129,2.248-3.75,4.437-3.75
		c2.19,0,4.076,1.621,4.437,3.75h3.063c1.241,0,2.25,1.009,2.25,2.25v2.25c0,0.414-0.336,0.75-0.75,0.75S18,8.675,18,8.261v-2.25
		c0-0.414-0.336-0.75-0.75-0.75H13.5c-0.414,0-0.75-0.336-0.75-0.75c0-1.654-1.346-3-3-3s-3,1.346-3,3c0,0.414-0.336,0.75-0.75,0.75
		H2.25c-0.414,0-0.75,0.336-0.75,0.75v15.75c0,0.414,0.336,0.75,0.75,0.75H9c0.414,0,0.75,0.336,0.75,0.75s-0.336,0.75-0.75,0.75
		H2.25z"/>
	<circle cx="9.75" cy="4.136" r="1.125"/>
</g>
</svg>
