<svg xmlns="http://www.w3.org/2000/svg" width="26.212" height="55" viewBox="0 0 26.212 55"><defs><style>.a{fill:#2e6bdc;}</style></defs><g transform="translate(-22.566 85)"><g transform="translate(22.566 -85)"><path class="a" d="M179.95,40V55.7h19.365V40Zm7.532,11.389a1.273,1.273,0,1,1-2.546,0V45.405a1.273,1.273,0,1,1,2.546,0Zm7.532,0a1.273,1.273,0,0,1-2.546,0V45.405a1.273,1.273,0,0,1,2.546,0Z" transform="translate(-176.526 -40)"/><path class="a" d="M153.059,206.809a13.107,13.107,0,1,0,26.212,0V183.3H153.059Zm13.106-5.445a6.089,6.089,0,1,1-6.089,6.089A6.1,6.1,0,0,1,166.165,201.363Z" transform="translate(-153.059 -165.051)"/><circle class="a" cx="3.543" cy="3.543" r="3.543" transform="translate(9.563 38.858)"/></g></g></svg>