<svg xmlns="http://www.w3.org/2000/svg" width="39.44" height="48.926" viewBox="0 0 39.44 48.926"><defs><style>.a{fill:#2e6bdc;}</style></defs><path class="a" d="M10318.453,8469.927h-35.494a3.014,3.014,0,0,1-2.96-3.059v-42.812a3.013,3.013,0,0,1,2.96-3.056h22.846a2.924,2.924,0,0,1,2.091.894l10.677,11.039a3.109,3.109,0,0,1,.867,2.16v33.815A1,1,0,0,1,10318.453,8469.927Zm-25.636-9.683a1.53,1.53,0,0,0,0,3.058h19.721a1.53,1.53,0,0,0,0-3.058Zm9.86-9.174a1.529,1.529,0,0,0,0,3.057h9.86a1.529,1.529,0,0,0,0-3.057Zm-14.637-11.5a1.922,1.922,0,0,0-1.263.482,2.055,2.055,0,0,0-.207,2.825l6.816,8.2,2.93-2.611-4.268-5.139a7.638,7.638,0,0,0,5.33-5.484h1.288a2.006,2.006,0,0,0,0-4.009h-1.288a7.878,7.878,0,0,0-.676-1.73h1.964a2,2,0,0,0,0-4.006h-12.1a2,2,0,0,0,0,4.006h3.579a3.572,3.572,0,0,1,3.049,1.73h-6.569a2.005,2.005,0,0,0,0,4.009h6.569a3.576,3.576,0,0,1-3.049,1.729Zm18.58,2.33a1.53,1.53,0,0,0,0,3.059h5.917a1.53,1.53,0,0,0,0-3.059Z" transform="translate(-10279.999 -8421.001)"/></svg>