<svg xmlns="http://www.w3.org/2000/svg" width="56.568" height="56.568" viewBox="0 0 56.568 56.568"><defs><style>.a{fill:#fff;}</style></defs><g transform="translate(0.001)"><path class="a" d="M18.24,232.431a1.657,1.657,0,0,0-2.23,0L.542,246.493a1.657,1.657,0,0,0,2.23,2.453l.542-.493v12.826a1.657,1.657,0,0,0,1.657,1.657H29.278a1.657,1.657,0,0,0,1.657-1.657V248.452l.542.493a1.657,1.657,0,1,0,2.23-2.453Zm.542,27.19H15.468v-6.629h3.315Zm8.839,0H22.1v-8.286a1.657,1.657,0,0,0-1.657-1.657H13.81a1.657,1.657,0,0,0-1.657,1.657v8.286H6.629V245.439l10.5-9.542,10.5,9.542Z" transform="translate(0 -206.368)"/><path class="a" d="M125,333.657a1.657,1.657,0,0,0,1.657,1.657h3.315a1.657,1.657,0,0,0,0-3.315h-3.315A1.657,1.657,0,0,0,125,333.657Z" transform="translate(-111.19 -295.319)"/><path class="a" d="M202.431,16.834a1.657,1.657,0,0,0,2.341.111l.542-.493V29.279a1.657,1.657,0,0,0,1.657,1.657h24.307a1.657,1.657,0,0,0,1.657-1.657V16.452l.542.493a1.657,1.657,0,1,0,2.23-2.453L220.24.431a1.657,1.657,0,0,0-2.23,0L202.542,14.493A1.657,1.657,0,0,0,202.431,16.834Zm18.351,10.787h-3.315V20.992h3.315ZM219.125,3.9l10.5,9.542V27.621H224.1V19.335a1.657,1.657,0,0,0-1.657-1.657H215.81a1.657,1.657,0,0,0-1.657,1.657v8.286h-5.524V13.439Z" transform="translate(-179.682 0)"/><path class="a" d="M328.657,103.315h3.315a1.657,1.657,0,0,0,0-3.315h-3.315a1.657,1.657,0,0,0,0,3.315Z" transform="translate(-290.872 -88.952)"/><path class="a" d="M333.612,316.905l-4.419-4.419a1.657,1.657,0,0,0-2.344,0l-4.419,4.419a1.657,1.657,0,0,0,2.344,2.344l1.59-1.59v10.362a2.765,2.765,0,0,1-2.762,2.762h-9.944a1.657,1.657,0,1,0,0,3.315H323.6a6.084,6.084,0,0,0,6.077-6.077V317.659l1.59,1.59a1.657,1.657,0,0,0,2.344-2.344Z" transform="translate(-277.529 -277.529)"/><path class="a" d="M4.9,27.136a1.657,1.657,0,0,0,2.344,0l4.419-4.419a1.657,1.657,0,0,0-2.344-2.344l-1.59,1.59V6.077A2.765,2.765,0,0,1,10.5,3.315H28.173a1.657,1.657,0,0,0,0-3.315H10.5A6.084,6.084,0,0,0,4.419,6.077V21.963l-1.59-1.59A1.657,1.657,0,0,0,.485,22.716Z" transform="translate(0)"/></g></svg>