<svg xmlns="http://www.w3.org/2000/svg" width="65.441" height="60.44" viewBox="0 0 65.441 60.44"><defs><style>.a{fill:#fff;}</style></defs><g transform="translate(0 -5)"><path class="a" d="M10.9,11.393,18.573,14.1V24.923A1.917,1.917,0,0,0,20.49,26.84H46.052a1.917,1.917,0,0,0,1.917-1.917V14.1l5.113-1.806v7.517a1.917,1.917,0,0,0,3.834,0V9.586a1.918,1.918,0,0,0-1.279-1.809L33.908.109a1.917,1.917,0,0,0-1.276,0L10.9,7.777a1.917,1.917,0,0,0,0,3.616Zm33.23,11.613H22.407V15.453l10.225,3.608a1.9,1.9,0,0,0,1.276,0l10.227-3.608ZM33.27,3.949,49.239,9.586,33.27,15.221,17.3,9.586Z" transform="translate(4.69 5)"/><path class="a" d="M61.465,23.7a5.776,5.776,0,0,0-6.526,1.989L47.8,35.027c0-.051,0-.1,0-.152a6.4,6.4,0,0,0-6.391-6.391H28.728a13.03,13.03,0,0,0-14.413-1.643v-.274A1.917,1.917,0,0,0,12.4,24.65H1.917A1.917,1.917,0,0,0,0,26.567V52.129a1.917,1.917,0,0,0,1.917,1.917H12.4a1.917,1.917,0,0,0,1.917-1.917V50.212H45.74a13.363,13.363,0,0,0,11.289-6.163L64.511,32.41a5.84,5.84,0,0,0,.93-3.165A5.777,5.777,0,0,0,61.465,23.7ZM10.481,50.212H3.834V28.484h6.647Zm50.8-19.875L53.8,41.975a9.547,9.547,0,0,1-8.064,4.4H14.315V31.387l.641-.458a9.191,9.191,0,0,1,11.706.854,1.915,1.915,0,0,0,1.328.535H41.412a2.557,2.557,0,0,1,0,5.113H27.735a1.917,1.917,0,1,0,0,3.834H43.118A9.646,9.646,0,0,0,50.733,37.5l7.252-9.484a2.018,2.018,0,0,1,3.622,1.227,2.021,2.021,0,0,1-.321,1.092Z" transform="translate(0 11.393)"/></g></svg>