<svg xmlns="http://www.w3.org/2000/svg" width="66.955" height="53.529" viewBox="0 0 66.955 53.529"><defs><style>.a{fill:#fff;}</style></defs><g transform="translate(-0.001 -418)"><circle class="a" cx="1.966" cy="1.966" r="1.966" transform="translate(55.076 426.35)"/><path class="a" d="M26.319,426.811a1.966,1.966,0,1,1,2.455,1.306,1.966,1.966,0,0,1-2.455-1.306Z" transform="translate(6.68 1.597)"/><circle class="a" cx="1.966" cy="1.966" r="1.966" transform="translate(14.814 438.657)"/><path class="a" d="M9.833,471.513H44.66a9.844,9.844,0,0,0,9.829-6.532l11.9-33.613a9.832,9.832,0,0,0-18.537-6.563l-1.943,5.488-1.631-5.335a9.831,9.831,0,0,0-18.8,5.749l1.631,5.335-4.484-3.319a9.832,9.832,0,1,0-11.7,15.808l4.484,3.319H9.833a9.832,9.832,0,0,0,0,19.663Zm19.209-29.148,5.8,18.969L13.267,445.369a5.9,5.9,0,1,1,7.017-9.484Zm14.665-5.839-6.622,18.7-7.847-25.666a5.9,5.9,0,0,1,11.283-3.45Zm-.454,30.734a5.99,5.99,0,0,1-1.883-1.1,5.911,5.911,0,0,1-1.709-6.434l11.9-33.613a5.9,5.9,0,0,1,11.121,3.938l-11.9,33.611a5.91,5.91,0,0,1-7.531,3.592ZM3.933,461.681a5.906,5.906,0,0,1,5.9-5.9H20.726l15.944,11.8H9.833A5.907,5.907,0,0,1,3.933,461.681Z" transform="translate(0 0)"/><path class="a" d="M6.27,453.214a1.966,1.966,0,1,1,1.966,1.966A1.966,1.966,0,0,1,6.27,453.214Z" transform="translate(1.597 8.467)"/><circle class="a" cx="1.966" cy="1.966" r="1.966" transform="translate(43.255 459.733)"/></g></svg>