<svg xmlns="http://www.w3.org/2000/svg" width="50.976" height="49.586" viewBox="0 0 50.976 49.586"><defs><style>.a{fill:#2e6bdc;}</style></defs><g transform="translate(0 -6.979)"><path class="a" d="M0,415.021v1.493a7.476,7.476,0,0,0,7.467,7.467H43.509a7.476,7.476,0,0,0,7.467-7.467v-1.493Z" transform="translate(0 -367.416)"/><path class="a" d="M212,303.668c0,1.619,2.052,2.987,4.48,2.987a5.144,5.144,0,0,0,3.908-1.579l-6.588-3.769A2.858,2.858,0,0,0,212,303.668Z" transform="translate(-190.893 -265.024)"/><path class="a" d="M263.5,354.036a7.878,7.878,0,0,1-6.5,3.085h11.887Z" transform="translate(-231.412 -312.503)"/><path class="a" d="M37.974,210.995h5.974v2.987H40.961v5.974h2.987v2.987H54.4c-4.117,0-7.467-2.679-7.467-5.974a5.345,5.345,0,0,1,1.946-3.987l-13.913-7.961H32v17.921h5.974Z" transform="translate(-28.814 -178.324)"/><path class="a" d="M98.133,45.36a23.808,23.808,0,0,0-5.558-30.282,4.4,4.4,0,0,0,1.314-1.4h0a4.481,4.481,0,1,0-8.342-2.611,23.906,23.906,0,0,0-28.895,10.55l-.745,1.3L97.391,46.655ZM88.7,10.717a1.489,1.489,0,0,1,2.037-.556,1.493,1.493,0,1,1-2.182,1.689A1.479,1.479,0,0,1,88.7,10.717Z" transform="translate(-50.341)"/></g></svg>