<svg xmlns="http://www.w3.org/2000/svg" width="60.574" height="43.733" viewBox="0 0 60.574 43.733"><defs><style>.a{fill:#2e6bdc;}</style></defs><path class="a" d="M12351.941,8464.732a1.988,1.988,0,0,1-1.98-1.99v-.736h-12.739v1.3a1.274,1.274,0,0,1-1.272,1.277h-2.969a1.273,1.273,0,0,1-1.269-1.277v-3.243c-.007-.006-.016-.01-.022-.016a.029.029,0,0,0-.016-.013,5.624,5.624,0,0,1-1.769-4.219,5.767,5.767,0,0,1,1.374-3.754h-.954a.852.852,0,0,1-.831-.678l-.476-2.319a.85.85,0,0,1,.827-1.022h3.222c1-2.618,2.009-4.279,3.007-4.938,1.909-1.262,5.45-2.018,9.465-2.018a28.39,28.39,0,0,1,4.422.335v-15.605a4.441,4.441,0,0,1,4.458-4.471h18.321a4.443,4.443,0,0,1,4.455,4.471v6.313h1.089a4.446,4.446,0,0,1,4.458,4.471v13.965a1.928,1.928,0,0,0,1.829,1.841h.093a1.931,1.931,0,0,0,1.938-1.841V8429.8l-7.476-6.562,1.932-2.235,8.517,7.456v22.111a4.981,4.981,0,0,1-4.755,4.772h-.1a4.916,4.916,0,0,1-4.953-4.772V8436.6a1.456,1.456,0,0,0-1.486-1.489h-1.089v27.63a1.988,1.988,0,0,1-1.98,1.99Zm1.915-2.727v1.3a1.274,1.274,0,0,0,1.271,1.277h2.967a1.274,1.274,0,0,0,1.271-1.277v-3.181a5.646,5.646,0,0,0,1.807-4.2,5.731,5.731,0,0,0-1.437-3.868h1.02a.844.844,0,0,0,.827-.681l.479-2.316a.856.856,0,0,0-.175-.706.844.844,0,0,0-.655-.316h-3.219c-.988-2.612-2-4.275-3.007-4.941a12.615,12.615,0,0,0-4.567-1.6v2.574a24.965,24.965,0,0,0-4.9-.454c-3.477,0-6.57.616-8.072,1.607-.581.386-1.355,1.856-2.18,4.146h15.152v12.627Zm-20.189-5.871a2.5,2.5,0,1,0,2.5-2.506A2.509,2.509,0,0,0,12333.667,8456.135Zm21.293-15.755h17.232v-13.566h-17.232Zm-2.515,15.755a2.5,2.5,0,1,1,2.5,2.51A2.5,2.5,0,0,1,12352.445,8456.135Zm-2.484-6.756v-5.389a10.062,10.062,0,0,1,3.646,1.243c.579.383,1.353,1.854,2.184,4.146Z" transform="translate(-12329 -8420.999)"/></svg>