<?xml version="1.0" encoding="utf-8"?>
<!-- Generator: Adobe Illustrator 22.1.0, SVG Export Plug-In . SVG Version: 6.00 Build 0)  -->
<svg version="1.1" id="Layer_1" xmlns="http://www.w3.org/2000/svg" xmlns:xlink="http://www.w3.org/1999/xlink" x="0px" y="0px"
	 viewBox="0 0 24 24" style="enable-background:new 0 0 24 24;" xml:space="preserve">
<title>task-list-pen</title>
<g fill="#ffffff">
	<path d="M21.75,24.01c-0.286,0-0.543-0.159-0.671-0.415l-1.5-3c-0.052-0.104-0.079-0.22-0.079-0.335v-9.75
		c0-1.241,1.009-2.25,2.25-2.25S24,9.269,24,10.51v9.75c0,0.115-0.027,0.231-0.079,0.335l-1.5,3.001
		C22.293,23.851,22.036,24.01,21.75,24.01z M21.75,21.583l0.75-1.5V10.51c0-0.414-0.336-0.75-0.75-0.75S21,10.096,21,10.51v9.573
		L21.75,21.583z"/>
	<path d="M4.5,24.01c-0.827,0-1.5-0.673-1.5-1.5V6.76c0-0.414,0.336-0.75,0.75-0.75C4.991,6.01,6,5,6,3.76S4.991,1.51,3.75,1.51
		S1.5,2.519,1.5,3.76v12c0,0.414-0.336,0.75-0.75,0.75S0,16.173,0,15.76v-12c0-2.068,1.682-3.75,3.75-3.75h12
		c2.068,0,3.75,1.682,3.75,3.75c0,1.183-0.557,2.289-1.5,2.998V22.51c0,0.827-0.673,1.5-1.5,1.5H4.5z M4.5,22.51h12V7.432
		c-0.248,0.052-0.499,0.078-0.75,0.078H4.5V22.51z M15.75,6.01C16.991,6.01,18,5,18,3.76s-1.009-2.25-2.25-2.25h-9
		C7.233,2.152,7.5,2.937,7.5,3.76S7.233,5.367,6.75,6.01H15.75z"/>
	<path d="M10.5,13.51c-0.2,0-0.389-0.078-0.53-0.22l-1.5-1.5c-0.142-0.141-0.22-0.33-0.22-0.53s0.078-0.389,0.22-0.53
		C8.611,10.588,8.8,10.51,9,10.51l0,0c0.2,0,0.389,0.078,0.53,0.22l0.97,0.97l1.72-1.72c0.142-0.142,0.33-0.22,0.53-0.22
		s0.389,0.078,0.53,0.22c0.142,0.141,0.22,0.33,0.22,0.53s-0.078,0.389-0.22,0.53l-2.25,2.25C10.889,13.432,10.7,13.51,10.5,13.51z"
		/>
	<path d="M10.5,18.76c-0.2,0-0.389-0.078-0.53-0.22l-1.5-1.5c-0.292-0.292-0.292-0.768,0-1.061C8.611,15.838,8.8,15.76,9,15.76l0,0
		c0.2,0,0.389,0.078,0.53,0.22l0.97,0.97l1.72-1.72c0.142-0.142,0.33-0.22,0.53-0.22s0.389,0.078,0.53,0.22
		c0.292,0.292,0.292,0.768,0,1.061l-2.25,2.25C10.889,18.682,10.7,18.76,10.5,18.76z"/>
</g>
</svg>
