<?xml version="1.0" encoding="utf-8"?>
<!-- Generator: Adobe Illustrator 22.1.0, SVG Export Plug-In . SVG Version: 6.00 Build 0)  -->
<svg version="1.1" id="Layer_1" xmlns="http://www.w3.org/2000/svg" xmlns:xlink="http://www.w3.org/1999/xlink" x="0px" y="0px"
	 viewBox="0 0 24 24" style="enable-background:new 0 0 24 24;" xml:space="preserve">
<title>task-list-heart</title>
<g fill="#ffffff">
	<path d="M17.252,24.011c-0.203,0-0.4-0.084-0.541-0.231l-5.114-5.335c-1.142-1.142-1.424-2.891-0.696-4.346
		c0.451-0.902,1.227-1.574,2.184-1.893c0.389-0.13,0.792-0.195,1.197-0.195c0.587,0,1.155,0.135,1.686,0.401
		c0.363,0.181,0.693,0.419,0.981,0.707l0.305,0.305l0.305-0.305c0.713-0.713,1.661-1.106,2.67-1.106c1.008,0,1.957,0.393,2.67,1.106
		c0.287,0.287,0.525,0.617,0.707,0.981c0.728,1.456,0.443,3.207-0.708,4.358l-5.103,5.324
		C17.652,23.927,17.455,24.011,17.252,24.011z M14.279,13.51c-0.244,0-0.487,0.04-0.722,0.118c-0.577,0.192-1.044,0.597-1.316,1.141
		c-0.438,0.877-0.267,1.933,0.427,2.626l4.584,4.781l4.573-4.77c0.703-0.703,0.876-1.76,0.438-2.637
		c-0.11-0.219-0.253-0.418-0.426-0.591c-0.43-0.43-1.002-0.667-1.61-0.667s-1.179,0.237-1.609,0.667l-0.835,0.835
		c-0.14,0.14-0.333,0.22-0.53,0.22c-0.2,0-0.389-0.078-0.53-0.22l-0.835-0.835c-0.173-0.173-0.372-0.316-0.591-0.426
		C14.974,13.592,14.633,13.51,14.279,13.51z"/>
	<path d="M5.252,11.261c-0.414,0-0.75-0.336-0.75-0.75s0.336-0.75,0.75-0.75h5.25c0.414,0,0.75,0.336,0.75,0.75
		s-0.336,0.75-0.75,0.75H5.252z"/>
	<path d="M5.252,15.011c-0.414,0-0.75-0.336-0.75-0.75s0.336-0.75,0.75-0.75h2.25c0.414,0,0.75,0.336,0.75,0.75
		s-0.336,0.75-0.75,0.75H5.252z"/>
	<path d="M5.252,18.761c-0.414,0-0.75-0.336-0.75-0.75s0.336-0.75,0.75-0.75h2.25c0.414,0,0.75,0.336,0.75,0.75
		s-0.336,0.75-0.75,0.75H5.252z"/>
	<path d="M2.252,24.011c-1.241,0-2.25-1.009-2.25-2.25V6.011c0-1.241,1.009-2.25,2.25-2.25h3.063c0.362-2.129,2.248-3.75,4.437-3.75
		c2.19,0,4.076,1.621,4.437,3.75h3.063c1.241,0,2.25,1.009,2.25,2.25v2.25c0,0.414-0.336,0.75-0.75,0.75s-0.75-0.336-0.75-0.75
		v-2.25c0-0.414-0.336-0.75-0.75-0.75h-3.75c-0.414,0-0.75-0.336-0.75-0.75c0-1.654-1.346-3-3-3s-3,1.346-3,3
		c0,0.414-0.336,0.75-0.75,0.75h-3.75c-0.414,0-0.75,0.336-0.75,0.75v15.75c0,0.414,0.336,0.75,0.75,0.75h7.5
		c0.414,0,0.75,0.336,0.75,0.75s-0.336,0.75-0.75,0.75H2.252z"/>
	<circle cx="9.752" cy="4.136" r="1.125"/>
</g>
</svg>
