<svg xmlns="http://www.w3.org/2000/svg" width="40.045" height="40.045" viewBox="0 0 40.045 40.045"><defs><style>.a{fill:#2e6bdc;}</style></defs><g transform="translate(-23.864 -24)"><g transform="translate(23.864 24)"><path class="a" d="M37.148,31.71l3.645-3.644-1.66-1.66-2.755,2.755-.9-2.97L39,22.677l-1.66-1.659-2.623,2.623-.734-2.432-7.88,7.56,9.007,14.386,4.219-4.22Z" transform="translate(-3.863 -3.11)"/><path class="a" d="M21.946,10.468l-2.432-.734,2.623-2.623-1.659-1.66L16.964,8.965l-2.97-.9,2.755-2.755L15.09,3.655,11.445,7.3,4.22,5.121,0,9.34l14.386,9.007Z" transform="translate(0 -0.54)"/><path class="a" d="M38.9,6.424a3.732,3.732,0,1,0-5.277-5.277L10.819,24.924,3.643,23.358.051,26.95l8.322,4.73L13.1,40l3.592-3.592-1.565-7.176Z" transform="translate(-0.008 0)"/></g></g></svg>