<svg xmlns="http://www.w3.org/2000/svg" width="30.183" height="53.299" viewBox="0 0 30.183 53.299"><defs><style>.a{fill:#2e6bdc;}</style></defs><g transform="translate(0 0)"><path class="a" d="M145.26-19.21H122.835a3.879,3.879,0,0,0-3.879,3.883V30.211a3.877,3.877,0,0,0,3.879,3.879H145.26a3.88,3.88,0,0,0,3.879-3.879V-15.327A3.882,3.882,0,0,0,145.26-19.21Zm-16.746,2.358h11.071c.28,0,.507.418.507.934s-.227.936-.507.936H128.514c-.282,0-.5-.42-.5-.936S128.232-16.852,128.514-16.852Zm5.535,47.109a2.476,2.476,0,1,1,2.472-2.478A2.48,2.48,0,0,1,134.049,30.257Zm12.184-8.486H121.864v-34.43h24.369Z" transform="translate(-118.956 19.21)"/></g></svg>