<svg xmlns="http://www.w3.org/2000/svg" width="35.8" height="57.88" viewBox="0 0 35.8 57.88"><defs><style>.a{fill:#fff;}</style></defs><g transform="translate(-97.659)"><g transform="translate(97.659)"><path class="a" d="M133.457,52.218V5.662A5.669,5.669,0,0,0,127.795,0H103.321a5.669,5.669,0,0,0-5.662,5.662V52.218a5.669,5.669,0,0,0,5.662,5.662h24.536a5.656,5.656,0,0,0,4.037-1.707A5.449,5.449,0,0,0,133.457,52.218Zm-4.272,1.326a1.83,1.83,0,0,1-1.328.561H103.321a1.89,1.89,0,0,1-1.887-1.887V5.662a1.89,1.89,0,0,1,1.887-1.887h24.473a1.89,1.89,0,0,1,1.887,1.887V52.275A1.736,1.736,0,0,1,129.185,53.544Z" transform="translate(-97.659)"/></g><g transform="translate(99.546 7.361)"><g transform="translate(0)"><rect class="a" width="32.086" height="3.775"/></g></g><g transform="translate(99.546 43.788)"><g transform="translate(0)"><rect class="a" width="32.086" height="3.775"/></g></g><g transform="translate(112.129 48.884)"><g transform="translate(0)"><path class="a" d="M230.692,432.417h-3.146a1.887,1.887,0,1,0,0,3.775h3.146a1.887,1.887,0,1,0,0-3.775Z" transform="translate(-225.659 -432.417)"/></g></g></g></svg>