<?xml version="1.0" encoding="utf-8"?>
<!-- Generator: Adobe Illustrator 22.1.0, SVG Export Plug-In . SVG Version: 6.00 Build 0)  -->
<svg version="1.1" id="Regular" xmlns="http://www.w3.org/2000/svg" xmlns:xlink="http://www.w3.org/1999/xlink" x="0px" y="0px"
	 viewBox="0 0 24 24" style="enable-background:new 0 0 24 24;" xml:space="preserve">
<title>insurance-umbrella-heart</title>
<g fill="#ffffff">
	<path d="M10.5,23.997c-1.241,0-2.25-1.009-2.25-2.25c0-0.414,0.336-0.75,0.75-0.75s0.75,0.336,0.75,0.75s0.336,0.75,0.75,0.75
		s0.75-0.336,0.75-0.75v-8.986c-0.933,0.155-1.798,0.597-2.469,1.269c-0.141,0.142-0.331,0.22-0.534,0.22
		c-0.005,0-0.028,0-0.034-0.001c-0.219-0.013-0.417-0.115-0.55-0.282l-0.052-0.063c-0.674-0.809-1.626-1.309-2.679-1.405
		c-0.122-0.011-0.246-0.017-0.368-0.017c-0.931,0-1.803,0.317-2.524,0.918L1.23,14.076c-0.135,0.112-0.305,0.174-0.48,0.174
		c-0.11,0-0.217-0.024-0.318-0.071C0.169,14.056,0,13.79,0,13.5c0-3.133,1.205-6.098,3.392-8.351
		c2.097-2.16,4.876-3.438,7.858-3.622V0.75C11.25,0.336,11.586,0,12,0s0.75,0.336,0.75,0.75v0.777
		c2.982,0.184,5.76,1.462,7.858,3.622C22.795,7.402,24,10.367,24,13.5c0,0.29-0.17,0.556-0.432,0.679
		c-0.099,0.046-0.209,0.071-0.318,0.071c-0.176,0-0.346-0.062-0.48-0.174l-0.88-0.732c-0.701-0.561-1.553-0.859-2.459-0.859
		c-1.213,0-2.341,0.541-3.095,1.484c-0.14,0.175-0.349,0.278-0.573,0.281c-0.225-0.004-0.419-0.087-0.558-0.235
		c-0.677-0.672-1.521-1.103-2.455-1.255v8.987C12.75,22.988,11.741,23.997,10.5,23.997z M12,11.195c1.344,0,2.643,0.445,3.697,1.26
		c1.004-0.938,2.345-1.47,3.734-1.47c1.041,0,2.066,0.302,2.938,0.86C21.568,6.821,17.17,3,12,3C6.83,3,2.433,6.82,1.631,11.843
		c0.875-0.565,1.877-0.86,2.935-0.86c0.167,0,0.336,0.008,0.503,0.023c1.216,0.111,2.352,0.622,3.235,1.45
		c1.052-0.814,2.351-1.259,3.693-1.26C11.996,11.195,12,11.195,12,11.195z"/>
	<path d="M18.733,24.005c-0.37-0.009-0.7-0.155-0.945-0.412l-3.507-3.627c-1.041-1.091-1.042-2.796-0.003-3.885
		c0.03-0.031,0.061-0.062,0.092-0.092c0.492-0.469,1.141-0.729,1.825-0.729c0.733,0,1.415,0.292,1.919,0.821l0.636,0.655l0.641-0.66
		c0.025-0.026,0.056-0.057,0.088-0.087c0.493-0.47,1.153-0.729,1.857-0.729c0.001,0,0.026,0,0.027,0
		c0.713,0.017,1.372,0.309,1.86,0.821c1.034,1.087,1.034,2.789,0,3.875l-3.515,3.64c-0.014,0.015-0.031,0.031-0.047,0.047
		c-0.244,0.232-0.568,0.361-0.911,0.361C18.749,24.005,18.735,24.005,18.733,24.005z M16.194,16.762
		c-0.297,0-0.578,0.112-0.792,0.316c-0.016,0.015-0.028,0.028-0.04,0.04c-0.484,0.507-0.484,1.302,0,1.809l3.387,3.503l3.39-3.511
		c0.479-0.503,0.478-1.296-0.004-1.802c-0.212-0.222-0.497-0.348-0.804-0.356l-0.05-0.001c-0.282,0-0.556,0.113-0.771,0.318
		c-0.016,0.015-0.029,0.028-0.041,0.04l-1.183,1.218c-0.137,0.142-0.333,0.223-0.538,0.223s-0.401-0.081-0.538-0.223l-1.179-1.214
		C16.81,16.889,16.513,16.762,16.194,16.762z"/>
</g>
</svg>
