<svg xmlns="http://www.w3.org/2000/svg" width="66" height="57.493" viewBox="0 0 66 57.493"><defs><style>.a{fill:#fff;}</style></defs><g transform="translate(0 -33)"><g transform="translate(0 33)"><path class="a" d="M48.469,33c-5.457,0-10.2,2.6-13.715,7.512A25.164,25.164,0,0,0,33,43.354a25.164,25.164,0,0,0-1.753-2.842C27.732,35.6,22.988,33,17.532,33,7.425,33,0,41.412,0,51.725,0,63.221,9.34,71.087,23.477,83c2.633,2.218,5.357,4.512,8.257,7.025a1.933,1.933,0,0,0,2.532,0c2.9-2.513,5.623-4.807,8.257-7.025C56.66,71.087,66,63.221,66,51.725,66,41.415,58.579,33,48.469,33ZM40.031,80.038C37.773,81.94,35.449,83.9,33,86c-2.449-2.107-4.773-4.064-7.031-5.966-7.6-6.4-13.725-11.561-17.583-16.616h9.146a1.933,1.933,0,0,0,1.729-1.069L21.4,58.078l6,12.01a1.933,1.933,0,0,0,3.459,0L33,65.812l2.138,4.275a1.933,1.933,0,0,0,3.459,0l6-12.01,2.138,4.275a1.921,1.921,0,0,0,1.729,1.056h9.146C53.756,68.464,47.63,73.637,40.031,80.038Zm9.633-20.483-3.333-6.666a1.934,1.934,0,0,0-3.459,0L36.867,64.9l-2.138-4.275a1.933,1.933,0,0,0-3.458,0L29.133,64.9l-6.005-12.01a1.934,1.934,0,0,0-3.459,0l-3.333,6.666H5.889a16.629,16.629,0,0,1-2.022-7.83c0-8.471,5.874-14.858,13.664-14.858,4.182,0,7.717,1.954,10.506,5.806a22.124,22.124,0,0,1,3.1,6.186,1.934,1.934,0,0,0,3.726,0c.033-.12,3.438-11.988,13.605-11.988,7.79,0,13.664,6.387,13.664,14.858a16.629,16.629,0,0,1-2.022,7.83Z" transform="translate(0 -33)"/></g></g></svg>