<svg xmlns="http://www.w3.org/2000/svg" width="48.683" height="60.794" viewBox="0 0 48.683 60.794"><defs><style>.a{fill:#fff;}</style></defs><g transform="translate(-51)"><path class="a" d="M97.891,8.312A13.766,13.766,0,0,1,85.685.95,1.781,1.781,0,0,0,84.11,0H66.573A1.781,1.781,0,0,0,65,.95,13.77,13.77,0,0,1,52.781,8.312,1.781,1.781,0,0,0,51,10.093V28.23A34.062,34.062,0,0,0,74.8,60.711a1.782,1.782,0,0,0,1.073,0,34.062,34.062,0,0,0,23.8-32.481V10.093a1.79,1.79,0,0,0-1.792-1.781ZM96.12,28.23A30.38,30.38,0,0,1,75.341,57.14,30.38,30.38,0,0,1,54.562,28.23V11.784A17.307,17.307,0,0,0,67.609,3.562H83.074A17.31,17.31,0,0,0,96.12,11.784Z"/><path class="a" d="M134.581,60.654A1.781,1.781,0,0,0,133.2,60h-9.97a1.781,1.781,0,0,0-1.379.654,20.805,20.805,0,0,1-9.628,6.61A1.781,1.781,0,0,0,111,68.956v12.15a26.838,26.838,0,0,0,16.532,24.849,1.782,1.782,0,0,0,1.371,0,26.838,26.838,0,0,0,16.532-24.849V68.957a1.781,1.781,0,0,0-1.225-1.692,20.806,20.806,0,0,1-9.628-6.611Zm7.291,20.452a23.285,23.285,0,0,1-13.655,21.262,23.285,23.285,0,0,1-13.655-21.262v-10.9a24.35,24.35,0,0,0,9.5-6.647h8.319a24.35,24.35,0,0,0,9.5,6.648Z" transform="translate(-52.876 -52.876)"/><path class="a" d="M180.249,137h-7.124a1.781,1.781,0,0,0-1.781,1.781v3.562h-3.562A1.781,1.781,0,0,0,166,144.124v7.124a1.781,1.781,0,0,0,1.781,1.781h3.562v3.562a1.781,1.781,0,0,0,1.781,1.781h7.124a1.781,1.781,0,0,0,1.781-1.781V153.03h3.562a1.781,1.781,0,0,0,1.781-1.781v-7.124a1.781,1.781,0,0,0-1.781-1.781H182.03v-3.562A1.781,1.781,0,0,0,180.249,137Zm3.562,8.905v3.562h-3.562a1.781,1.781,0,0,0-1.781,1.781v3.562h-3.562v-3.562a1.781,1.781,0,0,0-1.781-1.781h-3.562v-3.562h3.562a1.781,1.781,0,0,0,1.781-1.781v-3.562h3.562v3.562a1.781,1.781,0,0,0,1.781,1.781Z" transform="translate(-101.345 -120.733)"/></g></svg>