<?xml version="1.0" encoding="utf-8"?>
<!-- Generator: Adobe Illustrator 22.1.0, SVG Export Plug-In . SVG Version: 6.00 Build 0)  -->
<svg version="1.1" id="Layer_1" xmlns="http://www.w3.org/2000/svg" xmlns:xlink="http://www.w3.org/1999/xlink" x="0px" y="0px"
	 viewBox="0 0 24 24" style="enable-background:new 0 0 24 24;" xml:space="preserve">
<title>task-list-warning</title>
<g fill="#ffffff">
	<path d="M5.25,11.261c-0.414,0-0.75-0.336-0.75-0.75s0.336-0.75,0.75-0.75H12c0.414,0,0.75,0.336,0.75,0.75s-0.336,0.75-0.75,0.75
		H5.25z"/>
	<path d="M5.25,15.011c-0.414,0-0.75-0.336-0.75-0.75s0.336-0.75,0.75-0.75H7.5c0.414,0,0.75,0.336,0.75,0.75s-0.336,0.75-0.75,0.75
		H5.25z"/>
	<path d="M5.25,18.761c-0.414,0-0.75-0.336-0.75-0.75s0.336-0.75,0.75-0.75H7.5c0.414,0,0.75,0.336,0.75,0.75s-0.336,0.75-0.75,0.75
		H5.25z"/>
	<path d="M2.25,24.011c-1.241,0-2.25-1.009-2.25-2.25V6.011c0-1.241,1.009-2.25,2.25-2.25h3.063c0.362-2.129,2.248-3.75,4.437-3.75
		c2.19,0,4.076,1.621,4.437,3.75h3.063c1.241,0,2.25,1.009,2.25,2.25v2.25c0,0.414-0.336,0.75-0.75,0.75S18,8.675,18,8.261v-2.25
		c0-0.414-0.336-0.75-0.75-0.75H13.5c-0.414,0-0.75-0.336-0.75-0.75c0-1.654-1.346-3-3-3s-3,1.346-3,3c0,0.414-0.336,0.75-0.75,0.75
		H2.25c-0.414,0-0.75,0.336-0.75,0.75v15.75c0,0.414,0.336,0.75,0.75,0.75H9c0.414,0,0.75,0.336,0.75,0.75s-0.336,0.75-0.75,0.75
		H2.25z"/>
	<circle cx="9.75" cy="4.136" r="1.125"/>
	<circle cx="17.25" cy="20.625" r="1.125"/>
	<path d="M17.25,18.75c-0.414,0-0.75-0.336-0.75-0.75v-3c0-0.414,0.336-0.75,0.75-0.75S18,14.586,18,15v3
		C18,18.414,17.664,18.75,17.25,18.75z"/>
	<path d="M13.024,24c-0.675,0-1.309-0.263-1.786-0.741c-0.477-0.477-0.739-1.111-0.739-1.786c0-0.389,0.092-0.778,0.266-1.126
		l4.226-8.453c0.431-0.86,1.297-1.394,2.261-1.394c0.394,0,0.773,0.09,1.127,0.267c0.484,0.242,0.884,0.643,1.126,1.127l4.226,8.453
		c0.301,0.603,0.349,1.287,0.135,1.928c-0.214,0.64-0.664,1.159-1.266,1.459C22.255,23.908,21.865,24,21.476,24H13.024z M17.253,12
		c-0.392,0-0.744,0.217-0.919,0.566l-4.225,8.451c-0.07,0.141-0.108,0.299-0.108,0.457c0,0.274,0.106,0.531,0.3,0.725
		c0.194,0.194,0.451,0.301,0.725,0.301h8.451c0.157,0,0.315-0.037,0.457-0.108c0.245-0.122,0.427-0.333,0.514-0.592
		c0.087-0.26,0.067-0.538-0.055-0.782l-4.226-8.452c-0.098-0.196-0.26-0.358-0.457-0.457C17.566,12.037,17.412,12,17.253,12z"/>
</g>
</svg>
