<?xml version="1.0" encoding="utf-8"?>
<!-- Generator: Adobe Illustrator 22.1.0, SVG Export Plug-In . SVG Version: 6.00 Build 0)  -->
<svg version="1.1" id="Layer_1" xmlns="http://www.w3.org/2000/svg" xmlns:xlink="http://www.w3.org/1999/xlink" x="0px" y="0px"
	 viewBox="0 0 24 24" style="enable-background:new 0 0 24 24;" xml:space="preserve">
<title>task-list-settings</title>
<g fill="#ffffff">
	<path d="M17.25,18.762c-1.241,0-2.25-1.009-2.25-2.25s1.009-2.25,2.25-2.25s2.25,1.009,2.25,2.25S18.491,18.762,17.25,18.762z
		 M17.25,15.762c-0.414,0-0.75,0.336-0.75,0.75s0.336,0.75,0.75,0.75S18,16.925,18,16.512S17.663,15.762,17.25,15.762z"/>
	<path d="M17.252,24.014c-0.202,0-0.404-0.03-0.6-0.089c-0.672-0.201-1.194-0.723-1.395-1.395l-0.441-1.45
		c-0.031-0.103-0.128-0.175-0.235-0.175c-0.018,0-0.036,0.002-0.053,0.006l-1.471,0.341c-0.156,0.036-0.314,0.054-0.471,0.054
		c-0.391,0-0.774-0.111-1.108-0.321c-0.472-0.297-0.801-0.76-0.925-1.304c-0.155-0.678,0.037-1.386,0.512-1.893l1.028-1.108
		c0.089-0.096,0.089-0.246,0-0.341l-1.031-1.111c-0.783-0.846-0.731-2.171,0.114-2.953c0.387-0.358,0.891-0.555,1.418-0.555
		c0.153,0,0.306,0.017,0.456,0.05l1.478,0.342c0.017,0.004,0.035,0.006,0.052,0.006c0.107,0,0.203-0.072,0.234-0.174l0.443-1.454
		c0.159-0.53,0.516-0.968,1.005-1.231c0.302-0.163,0.643-0.249,0.983-0.249c0.202,0,0.404,0.03,0.6,0.089
		c0.672,0.202,1.193,0.723,1.394,1.394l0.442,1.451c0.031,0.103,0.128,0.174,0.236,0.174c0.018,0,0.036-0.002,0.054-0.006
		l1.469-0.341c0.156-0.035,0.312-0.053,0.468-0.053c0.392,0,0.777,0.112,1.112,0.324c0.472,0.298,0.799,0.762,0.922,1.307
		c0.152,0.673-0.038,1.377-0.508,1.882l-1.031,1.111c-0.089,0.096-0.089,0.245,0,0.341l1.031,1.108
		c0.38,0.409,0.578,0.941,0.558,1.499c-0.02,0.557-0.256,1.074-0.665,1.454c-0.388,0.361-0.893,0.559-1.421,0.559c0,0,0,0,0,0
		c-0.155,0-0.309-0.017-0.46-0.052l-1.475-0.339c-0.017-0.004-0.035-0.006-0.052-0.006c-0.108,0-0.205,0.071-0.236,0.173
		l-0.443,1.454c-0.158,0.53-0.515,0.967-1.004,1.231C17.933,23.927,17.593,24.014,17.252,24.014z M14.58,19.406
		c0.763,0,1.451,0.51,1.671,1.239l0.442,1.452c0.057,0.19,0.203,0.336,0.39,0.392c0.055,0.016,0.111,0.025,0.168,0.025
		c0.096,0,0.188-0.024,0.274-0.07c0.136-0.073,0.236-0.196,0.28-0.344l0.443-1.456c0.22-0.729,0.907-1.238,1.671-1.238
		c0.13,0,0.26,0.015,0.387,0.044l1.472,0.338c0.04,0.009,0.083,0.014,0.126,0.014c0.149,0,0.292-0.056,0.401-0.157
		c0.115-0.107,0.182-0.253,0.188-0.41c0.006-0.157-0.05-0.307-0.157-0.423l-1.031-1.108c-0.622-0.668-0.622-1.715,0-2.383
		l1.031-1.111c0.133-0.143,0.187-0.341,0.144-0.531c-0.06-0.266-0.302-0.459-0.575-0.459c-0.043,0-0.087,0.005-0.13,0.014
		l-1.467,0.34c-0.128,0.03-0.26,0.044-0.39,0.044c-0.764,0-1.451-0.51-1.671-1.239c0,0-0.442-1.451-0.443-1.455
		c-0.056-0.187-0.201-0.333-0.389-0.389c-0.055-0.016-0.112-0.025-0.168-0.025c-0.096,0-0.188,0.023-0.273,0.07
		c-0.136,0.073-0.236,0.196-0.281,0.344l-0.443,1.456c-0.22,0.729-0.907,1.238-1.67,1.238c-0.131,0-0.261-0.015-0.389-0.044
		l-1.473-0.342c-0.038-0.009-0.08-0.013-0.122-0.013c-0.149,0-0.291,0.056-0.4,0.157c-0.115,0.106-0.182,0.252-0.188,0.409
		c-0.006,0.157,0.049,0.308,0.156,0.423l1.03,1.11c0.621,0.668,0.621,1.715,0,2.383l-1.031,1.111
		c-0.136,0.145-0.191,0.345-0.147,0.536c0.061,0.266,0.302,0.458,0.575,0.458c0.044,0,0.088-0.005,0.131-0.015l1.469-0.34
		C14.319,19.421,14.45,19.406,14.58,19.406z"/>
	<path d="M5.25,11.262c-0.414,0-0.75-0.336-0.75-0.75s0.336-0.75,0.75-0.75h4.5c0.414,0,0.75,0.336,0.75,0.75s-0.336,0.75-0.75,0.75
		H5.25z"/>
	<path d="M5.25,15.012c-0.414,0-0.75-0.336-0.75-0.75s0.336-0.75,0.75-0.75H7.5c0.414,0,0.75,0.336,0.75,0.75s-0.336,0.75-0.75,0.75
		H5.25z"/>
	<path d="M5.25,18.762c-0.414,0-0.75-0.336-0.75-0.75s0.336-0.75,0.75-0.75H7.5c0.414,0,0.75,0.336,0.75,0.75s-0.336,0.75-0.75,0.75
		H5.25z"/>
	<path d="M2.25,24.012c-1.241,0-2.25-1.009-2.25-2.25V6.012c0-1.241,1.009-2.25,2.25-2.25h3.063c0.362-2.129,2.248-3.75,4.437-3.75
		c2.19,0,4.076,1.621,4.437,3.75h3.063c1.241,0,2.25,1.009,2.25,2.25v0.75c0,0.414-0.336,0.75-0.75,0.75S18,7.175,18,6.762v-0.75
		c0-0.414-0.336-0.75-0.75-0.75H13.5c-0.414,0-0.75-0.336-0.75-0.75c0-1.654-1.346-3-3-3s-3,1.346-3,3c0,0.414-0.336,0.75-0.75,0.75
		H2.25c-0.414,0-0.75,0.336-0.75,0.75v15.75c0,0.414,0.336,0.75,0.75,0.75h7.5c0.414,0,0.75,0.336,0.75,0.75s-0.336,0.75-0.75,0.75
		H2.25z"/>
	<circle cx="9.75" cy="4.137" r="1.125"/>
</g>
</svg>
