<svg xmlns="http://www.w3.org/2000/svg" width="45.516" height="69.692" viewBox="0 0 45.516 69.692"><defs><style>.a{fill:#fff;stroke:#fff;}</style></defs><g transform="translate(-89.875 0.5)"><path class="a" d="M127.57,43.79a1.006,1.006,0,0,0,1.055-1.714l-.87-.535a4.168,4.168,0,0,1-1.574-1.739,6.542,6.542,0,0,0,.8-3.139V5.19A5.2,5.2,0,0,0,121.789,0H95.563a5.2,5.2,0,0,0-5.188,5.19V28.951a1.006,1.006,0,1,0,2.012,0V5.19a3.18,3.18,0,0,1,3.176-3.177h26.226a3.181,3.181,0,0,1,3.177,3.177V35.182L121.806,22.1a3.909,3.909,0,0,0-5.829-2.419,6.546,6.546,0,0,0-3.146,6.033l.8,12.343a4.563,4.563,0,0,1-1.006,3.176H95.563a3.18,3.18,0,0,1-3.176-3.177V27.877a1.006,1.006,0,1,0-2.012,0V38.054a5.2,5.2,0,0,0,5.188,5.19h2.942a4.05,4.05,0,0,0,3.352,6.082,4.051,4.051,0,0,0,3.5,6.089h2.215A15.015,15.015,0,0,0,109.3,60.3l.032.057a6.635,6.635,0,0,1,.854,3.254v4.069a1.006,1.006,0,1,0,2.012,0V63.616a8.649,8.649,0,0,0-1.114-4.242l-.032-.057a13.066,13.066,0,0,1,1.579-15.047L114,42.72a6.564,6.564,0,0,0,1.638-4.8l-.8-12.343a4.541,4.541,0,0,1,2.182-4.183,1.9,1.9,0,0,1,2.829,1.171l4.07,16.856a6.168,6.168,0,0,0,2.779,3.829ZM107.37,53.4h-2.015a2.036,2.036,0,1,1,0-4.073h2.437a15.13,15.13,0,0,0-.423,4.073Zm1.064-6.085h-6.429a2.037,2.037,0,0,1,0-4.073h8.859a15.031,15.031,0,0,0-2.43,4.073ZM132.7,35.987l-1.776-2.46a1.006,1.006,0,0,0-1.629,1.181l1.775,2.46a9.09,9.09,0,0,1,1.19,8.436c-.12.331-5.613,15.3-5.6,15.641v6.44a1.006,1.006,0,1,0,2.013,0V61.422l5.478-15.133A11.1,11.1,0,0,0,132.7,35.987Zm-26.148-7.2a3.166,3.166,0,1,0,3.166,3.166A3.17,3.17,0,0,0,106.551,28.792Zm0,4.32a1.154,1.154,0,1,1,1.154-1.154A1.156,1.156,0,0,1,106.551,33.112Zm0-24.993a3.68,3.68,0,0,0-3.64,4.018L104.155,24.7a2.408,2.408,0,0,0,4.793,0l1.243-12.563a3.694,3.694,0,0,0-3.64-4.018Zm1.637,3.82L106.945,24.5a.4.4,0,0,1-.788,0l-1.243-12.563a1.646,1.646,0,1,1,3.275,0Z"/></g></svg>