<svg xmlns="http://www.w3.org/2000/svg" width="62.308" height="61.947" viewBox="0 0 62.308 61.947"><defs><style>.a,.b{fill:#fff;}.b{stroke:#fff;stroke-width:0.5px;}</style></defs><g transform="translate(-1201.347 -476.396)"><g transform="translate(1201.313 476.396)"><g transform="translate(0.034 0)"><path class="a" d="M30.883,152l3.856-3.856v-8.51a11.568,11.568,0,1,0-23.136,0v8.51L15.458,152v1.866L.034,161.581v12.76H3.89V163.964l15.424-7.712v-5.846l-3.856-3.856v-6.914a7.712,7.712,0,0,1,15.424,0v6.914l-3.856,3.856v5.846l15.424,7.712v6.521H23.17v3.856H46.307v-12.76l-15.424-7.712Z" transform="translate(-0.034 -112.636)"/><rect class="a" width="3.856" height="3.856" transform="translate(7.712 57.849)"/><rect class="a" width="3.856" height="3.856" transform="translate(15.424 57.849)"/><path class="a" d="M219.842,27.737V27h7.712V15.432a15.424,15.424,0,0,0-30.208-4.406l3.7,1.1A11.568,11.568,0,0,1,223.7,15.432v7.712h-7.712V30.12l13.424,5.712v2.593H221.7v3.856h11.568V33.449Z" transform="translate(-173.569 0)"/></g></g><path class="b" d="M20.069,8.634,15.026,6.119a1.42,1.42,0,0,0-1.278,0L8.718,8.634a1.417,1.417,0,0,0-.8,1.278c0,11.379,6.168,11.518,6.475,11.518s6.475-.119,6.475-11.518A1.424,1.424,0,0,0,20.069,8.634ZM14.4,18.546c-1.2,0-3.423-1.8-3.625-7.7L14.4,9l3.576,1.788C17.771,16.806,15.571,18.49,14.4,18.546Z" transform="translate(1242.532 516.662)"/></g></svg>