<svg xmlns="http://www.w3.org/2000/svg" width="65.5" height="65.5" viewBox="0 0 65.5 65.5"><defs><style>.a,.b{fill:#fff;stroke-width:0.5px;}.a{stroke:#fff;}.b{stroke:rgba(0,0,0,0);}</style></defs><g transform="translate(-7.75 -7.75)"><path class="a" d="M69.855,16.387H41.549V11.145A3.15,3.15,0,0,0,38.4,8H11.145A3.15,3.15,0,0,0,8,11.145V34.21a3.149,3.149,0,0,0,3.145,3.145H20.09l1.747,2.1h-8.6A3.15,3.15,0,0,0,10.1,42.6V63.564a3.149,3.149,0,0,0,3.145,3.145H24.284l4.5,5.4a2.475,2.475,0,0,0,4.377-1.584V66.71H44.694a3.149,3.149,0,0,0,3.145-3.145V45.742h2.1v3.815a2.476,2.476,0,0,0,4.378,1.585l4.5-5.4H69.855A3.149,3.149,0,0,0,73,42.6V19.532a3.15,3.15,0,0,0-3.145-3.145ZM11.145,35.258A1.049,1.049,0,0,1,10.1,34.21V11.145A1.049,1.049,0,0,1,11.145,10.1H38.4a1.049,1.049,0,0,1,1.048,1.049V34.21A1.049,1.049,0,0,1,38.4,35.258H26.871v5.91a.393.393,0,0,1-.671.243l-5.129-6.153Zm24.113,4.193h-6.29v-2.1h6.29ZM45.742,63.564a1.049,1.049,0,0,1-1.048,1.049H31.064v5.911a.392.392,0,0,1-.67.242l-5.129-6.153H13.242a1.049,1.049,0,0,1-1.048-1.049V42.6a1.049,1.049,0,0,1,1.048-1.048H23.584l1.005,1.2a2.469,2.469,0,0,0,4.339-1.2h6.329V42.6A3.148,3.148,0,0,0,38.4,45.742h7.338ZM70.9,42.6a1.05,1.05,0,0,1-1.049,1.049H57.832L52.7,49.8a.394.394,0,0,1-.671-.242V43.645H38.4A1.049,1.049,0,0,1,37.355,42.6V37.355H38.4a3.149,3.149,0,0,0,3.145-3.145V18.483H69.855A1.051,1.051,0,0,1,70.9,19.532Z" transform="translate(0 0)"/><path class="a" d="M33.354,53.193a4.165,4.165,0,0,0,.388,1.738,6.892,6.892,0,0,0-1.5-1.014,4.194,4.194,0,1,0-6.164,0,6.921,6.921,0,0,0-1.5,1.014,4.15,4.15,0,0,0,.388-1.738,4.193,4.193,0,1,0-7.227,2.88,6.292,6.292,0,0,0-3.257,5.507v2.1h2.1v-2.1a4.186,4.186,0,0,1,6.064-3.748,6.983,6.983,0,0,0-.346,1.5l-.47,4.225,2.083.231.47-4.225a4.809,4.809,0,0,1,9.56,0l.47,4.225,2.083-.231-.47-4.225a6.926,6.926,0,0,0-.346-1.5,4.186,4.186,0,0,1,6.064,3.748v2.1h2.1v-2.1a6.291,6.291,0,0,0-3.258-5.507,4.189,4.189,0,1,0-7.227-2.88Zm-14.677,0a2.1,2.1,0,1,1,2.1,2.1A2.1,2.1,0,0,1,18.677,53.193Zm8.388-2.1a2.1,2.1,0,1,1,2.1,2.1A2.1,2.1,0,0,1,27.065,51.1Zm12.58,2.1a2.1,2.1,0,1,1-2.1-2.1A2.1,2.1,0,0,1,39.645,53.193Z" transform="translate(-0.194 -1.161)"/><path class="a" d="M63.613,27.258H61.705l.252-1.514a4.1,4.1,0,0,0-4.046-4.776A3.143,3.143,0,0,0,54.86,23.35a8.639,8.639,0,0,1-2.274,4.017l-.309.309a2.082,2.082,0,0,0-1.245-.418H46.838a2.1,2.1,0,0,0-2.1,2.1V39.838a2.1,2.1,0,0,0,2.1,2.1h4.194A2.1,2.1,0,0,0,53,40.524a13.475,13.475,0,0,0,6,1.412h4.608a4.2,4.2,0,0,0,4.193-4.194v-6.29a4.2,4.2,0,0,0-4.193-4.193ZM46.838,39.838V29.355h4.194V39.838Zm18.871-2.1a2.1,2.1,0,0,1-2.1,2.1H59.005a11.392,11.392,0,0,1-5.876-1.633V29.789l.939-.939A10.755,10.755,0,0,0,56.9,23.858a1.046,1.046,0,0,1,1.017-.794A2.006,2.006,0,0,1,59.889,25.4l-.659,3.954h4.383a2.1,2.1,0,0,1,2.1,2.1Z" transform="translate(-1.097 -0.387)"/><path class="b" d="M31.767,45a2.278,2.278,0,0,0,1.615.682h0A2.282,2.282,0,0,0,35,45l9.066-9.068a2.28,2.28,0,0,0-3.223-3.225l-7.444,7.444-2.976-3.007a2.28,2.28,0,0,0-3.238,3.21Z" transform="translate(-11.708 -16.103)"/></g></svg>