<svg xmlns="http://www.w3.org/2000/svg" width="35.775" height="46.965" viewBox="0 0 35.775 46.965"><defs><style>.a{fill:#2e6bdc;}</style></defs><g transform="translate(-61 -456.002)"><path class="a" d="M77.406,456h8.255v5.5H77.406Z" transform="translate(-2.646)"/><path class="a" d="M85.767,459.283v5.5H72.008v-5.5H61V503.5H96.775V459.283ZM69.255,497.774H66.5v-2.753h2.752Zm0-5.5H66.5v-2.752h2.752Zm3.469-20.915,2.923.882,1.475-1.474.671.671-1.115,1.115,1.2.362,1.422-1.422.671.672-1.061,1.061.984.3L76.838,476.7l-5.821-3.644Zm-.237,7.6,2.9.633,9.227-9.619a1.51,1.51,0,1,1,2.135,2.135l-9.619,9.227.633,2.9-1.453,1.453L74.4,482.318,71.035,480.4Zm12.877,5.044L83.658,485.7l-3.644-5.82,3.188-3.059.3.984,1.061-1.061.672.671-1.422,1.422.362,1.2,1.115-1.115.671.671-1.474,1.475Zm5.906,13.779H72.008v-2.753H91.271Zm0-5.5H72.008v-2.752H91.271Z" transform="translate(0 -0.529)"/></g></svg>