<?xml version="1.0" encoding="utf-8"?>
<!-- Generator: Adobe Illustrator 22.1.0, SVG Export Plug-In . SVG Version: 6.00 Build 0)  -->
<svg version="1.1" id="Regular" xmlns="http://www.w3.org/2000/svg" xmlns:xlink="http://www.w3.org/1999/xlink" x="0px" y="0px"
	 viewBox="0 0 24 24" style="enable-background:new 0 0 24 24;" xml:space="preserve">
<title>monitor-heart-rate-up</title>
<g fill="#ffffff">
	<path d="M0.746,24.002c-0.2,0-0.389-0.078-0.53-0.22c-0.142-0.142-0.22-0.33-0.22-0.53s0.078-0.389,0.22-0.53l7.189-7.189
		c0.425-0.425,0.99-0.659,1.591-0.659c0.602,0,1.167,0.235,1.592,0.659l3.128,3.128c0.142,0.141,0.33,0.219,0.531,0.219
		s0.389-0.078,0.531-0.219l6.659-6.659h-4.939c-0.414,0-0.75-0.336-0.75-0.75s0.336-0.75,0.75-0.75h6.75
		c0.089,0,0.176,0.016,0.261,0.048c0.011,0.004,0.022,0.008,0.032,0.012c0.176,0.072,0.325,0.221,0.401,0.405
		c0.003,0.008,0.007,0.017,0.01,0.026c0.031,0.081,0.047,0.17,0.047,0.259v6.75c0,0.414-0.336,0.75-0.75,0.75s-0.75-0.336-0.75-0.75
		v-4.939l-6.659,6.659c-0.424,0.425-0.99,0.658-1.591,0.658c-0.601,0-1.166-0.233-1.59-0.657l-3.129-3.129
		c-0.142-0.142-0.33-0.22-0.53-0.22c-0.2,0-0.389,0.078-0.531,0.219l-7.19,7.189C1.135,23.924,0.947,24.002,0.746,24.002z"/>
	<path d="M6.746,12.002c-0.203,0-0.4-0.084-0.541-0.231L1.091,6.436c-1.143-1.142-1.424-2.891-0.695-4.347
		c0.643-1.286,1.939-2.086,3.382-2.086c0.588,0,1.154,0.134,1.682,0.398c0.364,0.182,0.694,0.42,0.982,0.708l0.305,0.305
		l0.305-0.305c0.712-0.712,1.66-1.104,2.67-1.104c1.01,0,1.958,0.392,2.67,1.104c0.287,0.287,0.525,0.617,0.707,0.981
		c0.728,1.456,0.444,3.207-0.708,4.358l-5.103,5.323C7.147,11.918,6.95,12.002,6.746,12.002z M3.776,1.503
		c-0.87,0-1.651,0.482-2.039,1.258c-0.44,0.877-0.269,1.933,0.425,2.626l4.584,4.782l4.573-4.77c0.703-0.703,0.876-1.76,0.438-2.638
		c-0.11-0.219-0.253-0.418-0.426-0.591c-0.429-0.429-1-0.665-1.609-0.665c-0.609,0-1.181,0.236-1.61,0.665L7.277,3.004
		c-0.142,0.142-0.33,0.22-0.53,0.22s-0.389-0.078-0.53-0.22L5.381,2.169C5.208,1.996,5.009,1.852,4.79,1.743
		C4.471,1.583,4.13,1.503,3.776,1.503z"/>
</g>
</svg>
