<svg xmlns="http://www.w3.org/2000/svg" width="79.791" height="73.327" viewBox="0 0 79.791 73.327"><defs><style>.a{fill:#fff;stroke:#fff;}</style></defs><g transform="translate(0.5 -20.5)"><g transform="translate(6.617 64.089)"><path class="a" d="M5.906,49.438a1.539,1.539,0,1,0,1.538,1.538A1.539,1.539,0,0,0,5.906,49.438Z" transform="translate(-4.367 -49.438)"/></g><g transform="translate(0 57.933)"><path class="a" d="M76.268,56.628a5.936,5.936,0,0,0-5.424-.726l-.039.015L56.261,61.624a6.237,6.237,0,0,0,.062-.861,6.163,6.163,0,0,0-6.156-6.155H40.2a1.534,1.534,0,0,1-.755-.2l-8.131-4.573a10.782,10.782,0,0,0-5.284-1.385H15.851V46.914a1.54,1.54,0,0,0-1.539-1.539H1.539A1.54,1.54,0,0,0,0,46.914v27.7a1.54,1.54,0,0,0,1.539,1.539H14.311a1.54,1.54,0,0,0,1.539-1.539V73.074h1.158L31.69,79.019a23.99,23.99,0,0,0,18.925-.4l.023-.011L75.109,66.971a5.932,5.932,0,0,0,1.159-10.343ZM12.773,73.074h-9.7V48.452h9.7Zm61.144-8.941c-.03.012-.061.026-.089.039L49.329,75.82a20.9,20.9,0,0,1-16.484.345l-14.96-6.056A1.541,1.541,0,0,0,17.308,70H15.851V51.531H26.033a7.7,7.7,0,0,1,3.773.988l8.131,4.573a4.614,4.614,0,0,0,2.265.594h9.965a3.075,3.075,0,0,1,1.612,5.7l-.011,0a1.593,1.593,0,0,0-.321.174,3.064,3.064,0,0,1-1.28.282H34.524a4.62,4.62,0,0,0-4.617,4.615,1.539,1.539,0,1,0,3.077,0,1.54,1.54,0,0,1,1.539-1.538H50.167a6.118,6.118,0,0,0,2.941-.753l18.8-7.374a2.854,2.854,0,0,1,2.012,5.341Z" transform="translate(0 -45.375)"/></g><g transform="translate(6.617 70.244)"><path class="a" d="M5.906,53.5a1.54,1.54,0,0,0-1.539,1.539v9.232a1.539,1.539,0,1,0,3.077,0V55.039A1.538,1.538,0,0,0,5.906,53.5Z" transform="translate(-4.367 -53.5)"/></g><g transform="translate(51.706 45.622)"><path class="a" d="M43.359,37.25a9.234,9.234,0,1,0,9.234,9.234A9.245,9.245,0,0,0,43.359,37.25Zm0,15.388a6.156,6.156,0,1,1,6.155-6.155A6.163,6.163,0,0,1,43.359,52.638Z" transform="translate(-34.125 -37.25)"/></g><g transform="translate(45.552 21)"><path class="a" d="M39.3,21a9.234,9.234,0,1,0,9.234,9.234A9.243,9.243,0,0,0,39.3,21Zm0,15.388a6.156,6.156,0,1,1,6.156-6.155A6.161,6.161,0,0,1,39.3,36.388Z" transform="translate(-30.063 -21)"/></g><g transform="translate(27.084 39.467)"><g transform="translate(0 0)"><path class="a" d="M27.109,33.188a9.233,9.233,0,1,0,9.234,9.232A9.243,9.243,0,0,0,27.109,33.188Zm0,15.388a6.156,6.156,0,1,1,6.155-6.156A6.164,6.164,0,0,1,27.109,48.576Z" transform="translate(-17.875 -33.188)"/></g></g></g></svg>