<svg xmlns="http://www.w3.org/2000/svg" width="68.852" height="68.789" viewBox="0 0 68.852 68.789"><defs><style>.a{fill:#fff;}</style></defs><g transform="translate(0 -0.232)"><path class="a" d="M49.2,22.644a2.143,2.143,0,0,0,1.623,0c.512-.209,12.55-5.214,12.55-14.034a8.447,8.447,0,0,0-8.5-8.378A8.558,8.558,0,0,0,50.01,1.741,8.56,8.56,0,0,0,45.144.232a8.447,8.447,0,0,0-8.5,8.378c0,8.82,12.038,13.825,12.55,14.034ZM45.144,4.531a4.234,4.234,0,0,1,3.23,1.477,2.149,2.149,0,0,0,3.269,0,4.238,4.238,0,0,1,3.231-1.477,4.145,4.145,0,0,1,4.2,4.079c0,4.487-5.921,8.209-9.048,9.686-2.349-1.136-9.078-4.82-9.078-9.686A4.145,4.145,0,0,1,45.144,4.531Z" transform="translate(5.406 0)"/><path class="a" d="M46.8,22.229A25.833,25.833,0,0,0,18.347,12.56,26.24,26.24,0,0,0,.609,31.71a25.254,25.254,0,0,0,.938,14.2A25.893,25.893,0,0,0,20.914,62.592l.021,0a24.828,24.828,0,0,0,3.833.444,2.15,2.15,0,0,0,0-4.3A21.473,21.473,0,0,1,5.6,44.467l-.006-.015A20.98,20.98,0,0,1,10.07,22.708,21.429,21.429,0,0,1,41.645,22.7a22.58,22.58,0,1,0,5.158-.473ZM46.28,63.066a18.15,18.15,0,0,1-9.267-2.531A25.848,25.848,0,0,0,51.562,35.083a25.5,25.5,0,0,0-.793-4.532l-.01-.036a2.15,2.15,0,0,0-4.2.931c.006.026.023.106.057.233a21.044,21.044,0,0,1,.658,3.762l0,.015A21.531,21.531,0,0,1,33.157,57.494,18.263,18.263,0,1,1,46.28,63.066ZM50.762,30.53a.71.71,0,0,1,.016.075C50.773,30.58,50.768,30.554,50.762,30.53Z" transform="translate(0 1.656)"/></g></svg>