<svg xmlns="http://www.w3.org/2000/svg" width="51.264" height="76.606" viewBox="0 0 51.264 76.606"><defs><style>.a{fill:#fff;stroke:#fff;}</style></defs><g transform="translate(-81.913 0.502)"><path class="a" d="M107.554,41.219a10.324,10.324,0,0,1,.564-3.371l1.83-5.312a8.5,8.5,0,0,0-.2-5.829,7.9,7.9,0,0,0-2-3.083,1.577,1.577,0,0,1-.514.3l-5.375,1.85a3.118,3.118,0,0,1-1.017.171,3.161,3.161,0,0,1-1.9-.644l-.211.339a12.6,12.6,0,0,1-8,5.67,4.3,4.3,0,0,0-2.406,1.5,4.508,4.508,0,0,0,.58,6.254l.066.055a1.384,1.384,0,0,1,.49,1.312,1.363,1.363,0,0,1-.9,1.064A20.121,20.121,0,0,0,84.1,43.634a1.066,1.066,0,0,1-.581.172,1.081,1.081,0,0,1-.919-.515,1.122,1.122,0,0,1,.336-1.53,21.887,21.887,0,0,1,3.679-1.9,6.768,6.768,0,0,1,.027-8.46,6.442,6.442,0,0,1,3.61-2.254,10.445,10.445,0,0,0,6.637-4.691l.759-1.224L97.1,21.567H94.988a3.456,3.456,0,0,1-2.714-1.318,3.607,3.607,0,0,1-.708-2.98l.7-3.391-.524-.382a1.963,1.963,0,0,1,.22-3.3l1.189-.64.331-1.612c0-.014.006-.028.009-.041a10,10,0,0,1,3.029-5.4A9.513,9.513,0,0,1,103.485.016a9.7,9.7,0,0,1,8.939,8.343h.014a3.842,3.842,0,0,1,3.719,3.013,16,16,0,0,1,6.987,14l-.994,21.9a1.712,1.712,0,0,1-1.3,1.607,1.755,1.755,0,0,1-1.874-.835l-2.278-4.12a22.076,22.076,0,0,1-2.713-9.6l-.432-9.267a23.5,23.5,0,0,0-2.277-9.085,3.786,3.786,0,0,1-.663-.292,9.648,9.648,0,0,1-3.447,2.935h0l.778,2.355a10.053,10.053,0,0,1,3.853,4.983l.168.468A10.383,10.383,0,0,1,112,33.272l-1.83,5.312a8.071,8.071,0,0,0-.441,2.635v5.264a4.781,4.781,0,0,0,2.461,4.247,12.774,12.774,0,0,1,5.483,16.414l-3.192,7.779a1.087,1.087,0,0,1-1,.681,1.064,1.064,0,0,1-.419-.086,1.117,1.117,0,0,1-.583-1.451l3.2-7.8.015-.035a10.53,10.53,0,0,0-4.515-13.543,7,7,0,0,1-3.62-6.208V41.219ZM95.593,8.456l-.424,2.066a1.106,1.106,0,0,1-.557.754l-1.255.675.745.544a1.12,1.12,0,0,1,.431,1.129l-.271,1.324c.355.293.679.654.621.868-.05.285-.575.7-.994.952l-.2.956a1.4,1.4,0,0,0,1.3,1.627h2.9a1.089,1.089,0,0,1,1.03.754l.964,2.916a1.012,1.012,0,0,0,1.288.651l4.825-1.66-1.211-3.663a1.133,1.133,0,0,1-.05-.238l-.021-.008a3.969,3.969,0,0,1-2.631-3.548l-.116-2.077a7.215,7.215,0,0,0-2.026-4.636L97.166,5a7.583,7.583,0,0,0-1.556,3.38C95.605,8.405,95.6,8.431,95.593,8.456Zm16.9,2.123a9.989,9.989,0,0,1-.792,3.178,1.608,1.608,0,0,0,.734.177,1.679,1.679,0,0,0,.059-3.355Zm3.222,14.365.432,9.267a19.809,19.809,0,0,0,2.435,8.62l1.469,2.657.918-20.223a13.8,13.8,0,0,0-5.079-11.355,3.865,3.865,0,0,1-2.237,2.036,25.748,25.748,0,0,1,2.062,9ZM110.335,9.22a7.518,7.518,0,0,0-6.975-6.99,7.333,7.333,0,0,0-4.58,1.28l2.7,2.768a9.452,9.452,0,0,1,2.654,6.073l.116,2.077a1.766,1.766,0,0,0,1.17,1.578l1.162.409a7.679,7.679,0,0,0,3.757-7.2Z" transform="translate(9.512)"/><path class="a" d="M1.045,2.122A1.02,1.02,0,0,0,2.08,1.087,1.071,1.071,0,0,0,1.024.032,1.02,1.02,0,0,0-.011,1.066,1.071,1.071,0,0,0,1.045,2.122Z" transform="translate(106.31 12.458) rotate(-135)"/><path class="a" d="M179.353,215.019a9.9,9.9,0,0,1,1.554-1.965,15.408,15.408,0,0,1,.162-4.728,17.1,17.1,0,0,1,3.628-7.888,1.072,1.072,0,0,1,1.531-.132,1.124,1.124,0,0,1,.13,1.562,14.888,14.888,0,0,0-3.153,6.87c-.047.256-.085.511-.118.765a1.672,1.672,0,0,1,.253-.031l1.884-.071a3.321,3.321,0,0,1,1.706.4l.889.485,10.487-5.987a5.554,5.554,0,0,1,1.395-.563.252.252,0,0,0,.189-.171l4.369-17.8a5.19,5.19,0,0,1,2.57-3.338,5.01,5.01,0,0,1,4.152-.272,5.2,5.2,0,0,1,3.041,6.563L207.73,207.4a5.752,5.752,0,0,1-3.451,3.585L191,215.914a4.107,4.107,0,0,1-2.419,2.482l-2.371.9a13.834,13.834,0,0,0,5.892,3.514c.027.008.072.024.135.049a3.368,3.368,0,0,1,1.9,4.058l-.43,1.447h20.37a1.109,1.109,0,0,1,0,2.217H192.236a1.08,1.08,0,0,1-.873-.448,1.128,1.128,0,0,1-.167-.982l.855-2.877a1.125,1.125,0,0,0-.615-1.352,15.629,15.629,0,0,1-7.688-5.106c-.138.007-3.786.131-4.648-2.025a3.038,3.038,0,0,1,.253-2.77Zm1.753,1.918c.361,1.014,3.026.724,4.327.287l2.388-.906a1.943,1.943,0,0,0,1.216-1.466,1.1,1.1,0,0,1,.695-.828l13.8-5.123a3.565,3.565,0,0,0,2.139-2.222l6.292-18.685a2.982,2.982,0,0,0-1.744-3.764,2.837,2.837,0,0,0-2.381.156,2.937,2.937,0,0,0-1.474,1.915l-4.37,17.8a2.438,2.438,0,0,1-1.776,1.785,3.408,3.408,0,0,0-.856.346l-10.923,6.236c-.3.061-.606.4-1.329-.053l-1.211-.661a1.165,1.165,0,0,0-.6-.142l-.073,0a1.122,1.122,0,0,1,.2.67,1.108,1.108,0,0,1-.708,1.011,6.893,6.893,0,0,0-1.951,1.043c-.524.525-2.026,1.58-1.665,2.593Z" transform="translate(-96.443 -154.977)"/></g></svg>