<svg xmlns="http://www.w3.org/2000/svg" width="59.669" height="44.34" viewBox="0 0 59.669 44.34"><defs><style>.a{fill:#2e6bdc;}</style></defs><path class="a" d="M18.266,44.34a.921.921,0,0,1-.92-.921,21.093,21.093,0,0,1,3.593-11.8H3.045A3.048,3.048,0,0,1,0,28.568V14.335a3.048,3.048,0,0,1,3.046-3.05H6.6a1.015,1.015,0,0,0,1.015-1.017V9.252a3.56,3.56,0,0,1,3.553-3.558h4.06A3.56,3.56,0,0,1,18.78,9.252v1.017A1.016,1.016,0,0,0,19.8,11.286h3.553a3.048,3.048,0,0,1,3.046,3.05V26.051A21.146,21.146,0,0,1,59.668,43.419a.921.921,0,0,1-.92.921ZM8.121,19.927v3.05a.508.508,0,0,0,.508.508h1.522A1.016,1.016,0,0,1,11.166,24.5v1.525a.508.508,0,0,0,.508.508h3.045a.508.508,0,0,0,.508-.508V24.5a1.016,1.016,0,0,1,1.016-1.017h1.522a.508.508,0,0,0,.508-.508v-3.05a.508.508,0,0,0-.508-.508H16.242A1.016,1.016,0,0,1,15.227,18.4V16.877a.508.508,0,0,0-.508-.508H11.674a.508.508,0,0,0-.508.508V18.4a1.016,1.016,0,0,1-1.016,1.017H8.629A.508.508,0,0,0,8.121,19.927ZM10.659,9.252v1.017a1.016,1.016,0,0,0,1.016,1.017h3.045a1.016,1.016,0,0,0,1.016-1.017V9.252a.508.508,0,0,0-.508-.508h-4.06A.508.508,0,0,0,10.659,9.252Zm17.728.883A10.12,10.12,0,1,1,38.507,20.27,10.128,10.128,0,0,1,28.387,10.135Z" transform="translate(0.001)"/></svg>