<svg xmlns="http://www.w3.org/2000/svg" width="38.983" height="36.689" viewBox="0 0 38.983 36.689"><defs><style>.a{fill:#2e6bdc;}</style></defs><path class="a" d="M162.557,15.062h-8.28a3.907,3.907,0,0,0-3.9,3.9v.695h2.284v-.695a1.62,1.62,0,0,1,1.618-1.618h8.28a1.62,1.62,0,0,1,1.618,1.618v.695h2.284v-.695a3.907,3.907,0,0,0-3.9-3.9Z" transform="translate(-138.926 -15.062)"/><path class="a" d="M187.516,229.257v-3.445h-2.3v3.445a1.142,1.142,0,0,1-1.142,1.142h-3.445v2.3h3.445a1.142,1.142,0,0,1,1.142,1.142v3.445h2.3v-3.445a1.142,1.142,0,0,1,1.142-1.142H192.1v-2.3h-3.445A1.142,1.142,0,0,1,187.516,229.257Z" transform="translate(-166.872 -209.766)"/><path class="a" d="M0,112.619v18.2a5.815,5.815,0,0,0,4.663,5.692V106.927A5.815,5.815,0,0,0,0,112.619Z" transform="translate(0 -99.933)"/><path class="a" d="M450.751,106.927v29.582a5.815,5.815,0,0,0,4.663-5.692v-18.2A5.815,5.815,0,0,0,450.751,106.927Z" transform="translate(-416.431 -99.932)"/><path class="a" d="M116.337,105.438H91.249v29.808h25.088Zm-4.521,17.2a1.142,1.142,0,0,1-1.142,1.142h-3.445v3.445a1.142,1.142,0,0,1-1.142,1.142H101.5a1.142,1.142,0,0,1-1.142-1.142v-3.445H96.912a1.142,1.142,0,0,1-1.142-1.142v-4.587a1.142,1.142,0,0,1,1.142-1.142h3.445v-3.445a1.142,1.142,0,0,1,1.142-1.142h4.587a1.142,1.142,0,0,1,1.142,1.142v3.445h3.445a1.142,1.142,0,0,1,1.142,1.142Z" transform="translate(-84.301 -98.557)"/></svg>