<svg xmlns="http://www.w3.org/2000/svg" width="56.956" height="42.969" viewBox="0 0 56.956 42.969"><defs><style>.a{fill:#2e6bdc;}</style></defs><path class="a" d="M29.535,42.969H0V34.017H.013c.278-4.623,6.943-8.355,15.056-8.355H29.535c8.113,0,14.779,3.733,15.055,8.355H44.6v8.952ZM38.8,23.948A2.357,2.357,0,0,1,36.436,21.6V10.664A2.356,2.356,0,0,1,38.8,8.32h2.762a.785.785,0,0,0,.789-.782V6.757a2.751,2.751,0,0,1,2.762-2.735h3.157a2.751,2.751,0,0,1,2.762,2.735v.782a.785.785,0,0,0,.79.782h2.762a2.356,2.356,0,0,1,2.368,2.344V21.6a2.357,2.357,0,0,1-2.368,2.345Zm3.946-8.986v2.345a.393.393,0,0,0,.394.39h1.184a.785.785,0,0,1,.79.782V19.65a.393.393,0,0,0,.394.391H47.88a.393.393,0,0,0,.4-.391V18.478a.785.785,0,0,1,.789-.782h1.184a.393.393,0,0,0,.394-.39V14.962a.393.393,0,0,0-.394-.39H49.064a.785.785,0,0,1-.789-.782V12.617a.393.393,0,0,0-.4-.39H45.513a.393.393,0,0,0-.394.39V13.79a.785.785,0,0,1-.79.782H43.144A.393.393,0,0,0,42.75,14.962Zm1.973-8.2v.782a.786.786,0,0,0,.79.782H47.88a.785.785,0,0,0,.79-.782V6.757a.392.392,0,0,0-.394-.39H45.118A.393.393,0,0,0,44.723,6.757ZM10.849,11.339a11.453,11.453,0,0,1,22.9,0,11.453,11.453,0,0,1-22.9,0Z"/></svg>