<svg xmlns="http://www.w3.org/2000/svg" width="44.082" height="44.087" viewBox="0 0 44.082 44.087"><defs><style>.a{fill:#2e6bdc;}</style></defs><g transform="translate(-0.029)"><path class="a" d="M348.821,218.951l-13.264,13.264a9.467,9.467,0,0,0,13.264-13.264Z" transform="translate(-306.636 -200.098)"/><path class="a" d="M291.971,184.837a9.423,9.423,0,0,0,1.926,5.719l13.264-13.264a9.467,9.467,0,0,0-15.191,7.545Z" transform="translate(-266.803 -160.265)"/><path class="a" d="M23.033,29.879h.818A12.063,12.063,0,0,1,30.137,13.4V0H.029V44.087H16.9a8.58,8.58,0,0,1-2.262-5.812A8.4,8.4,0,0,1,23.033,29.879ZM10.547,9.687h3.229V6.458h2.583V9.687h3.229V12.27H16.359V15.5H13.776V12.27H10.547ZM5.854,21.1H19.632V23.68H5.854Zm5.166,12.916H5.854V31.429h5.166Zm4.305-5.166H5.854V26.263h9.472Z"/><path class="a" d="M208.027,377h-2.535a5.812,5.812,0,1,0,0,11.625h4.521v-9.8A12.149,12.149,0,0,1,208.027,377Z" transform="translate(-182.46 -344.537)"/><path class="a" d="M349.68,412.47v8.348H354.2a5.81,5.81,0,0,0,5.1-8.591A12.04,12.04,0,0,1,349.68,412.47Z" transform="translate(-319.543 -376.731)"/></g></svg>