<svg xmlns="http://www.w3.org/2000/svg" width="47.025" height="30.079" viewBox="0 0 47.025 30.079"><defs><style>.a{fill:#2e6bdc;}</style></defs><g transform="translate(0 0)"><g transform="translate(11.502 2.838)"><path class="a" d="M117.433,106.8a8.833,8.833,0,1,0,8.833,8.833A8.841,8.841,0,0,0,117.433,106.8Zm2.383,5.433h1.027a1.059,1.059,0,0,1,0,2.118h-1.027a3.591,3.591,0,0,1-1.017,1.779c-.011,0-.011.021-.011.021a3.944,3.944,0,0,1-2.161,1.112l3,2.828a1.056,1.056,0,0,1-1.451,1.536l-4.883-4.607a1.064,1.064,0,0,1,.731-1.832h1.949a1.933,1.933,0,0,0,1.324-.561,1.476,1.476,0,0,0,.222-.286h-3.5a1.059,1.059,0,0,1,0-2.118h3.485a1.974,1.974,0,0,0-1.536-.741h-1.949a1.059,1.059,0,0,1,0-2.118h6.821a1.062,1.062,0,0,1,1.059,1.059,1.078,1.078,0,0,1-1.059,1.07H119.5A4.6,4.6,0,0,1,119.816,112.233Z" transform="translate(-108.6 -106.8)"/></g><g transform="translate(34.983 17.666)"><path class="a" d="M331.465,246.8a1.165,1.165,0,1,0,0,2.33,1.175,1.175,0,0,0,1.165-1.165A1.162,1.162,0,0,0,331.465,246.8Z" transform="translate(-330.3 -246.8)"/></g><g transform="translate(6.355 6.778)"><g transform="translate(0 0)"><path class="a" d="M98.647,144H96.434v14.468a4.168,4.168,0,0,1-4.141,4.173H60v2.584a2.069,2.069,0,0,0,2.023,2.076H98.647a2.069,2.069,0,0,0,2.023-2.076v-19.17A2.05,2.05,0,0,0,98.647,144Z" transform="translate(-60 -144)"/></g></g><g transform="translate(0 0)"><path class="a" d="M38.647,80H2.023A2.069,2.069,0,0,0,0,82.076v19.17A2.05,2.05,0,0,0,2.023,103.3H38.647a2.057,2.057,0,0,0,2.023-2.055V82.076A2.069,2.069,0,0,0,38.647,80ZM4.512,87.689A3.283,3.283,0,1,1,7.8,84.406,3.286,3.286,0,0,1,4.512,87.689Zm15.823,14.934A10.957,10.957,0,1,1,31.286,91.661,10.954,10.954,0,0,1,20.335,102.623Zm15.813-.508a3.283,3.283,0,1,1,3.283-3.283A3.286,3.286,0,0,1,36.148,102.114Z" transform="translate(0 -80)"/></g><g transform="translate(3.347 3.23)"><g transform="translate(0 0)"><path class="a" d="M32.765,110.5a1.165,1.165,0,1,0,1.165,1.165A1.162,1.162,0,0,0,32.765,110.5Z" transform="translate(-31.6 -110.5)"/></g></g></g></svg>