<svg xmlns="http://www.w3.org/2000/svg" width="59.514" height="56.04" viewBox="0 0 59.514 56.04"><defs><style>.a{fill:#2e6bdc;}</style></defs><g transform="translate(-1062 -615)"><g transform="translate(1061.999 597.139)"><path class="a" d="M59.515,47.948a10.672,10.672,0,0,0-6.1-1.7c-3.807,0-6.984,1.59-7.723,3.7h-.317c-.721-2.128-3.907-3.732-7.731-3.732a10.646,10.646,0,0,0-6.1,1.71v17.9a8.077,8.077,0,0,1-16.155,0,1.782,1.782,0,0,1,3.564,0,4.514,4.514,0,0,0,9.028,0V47.956a10.649,10.649,0,0,0-6.105-1.711c-3.807,0-6.984,1.59-7.723,3.7H13.83c-.721-2.128-3.908-3.732-7.731-3.732a10.675,10.675,0,0,0-6.1,1.7C1.163,35.229,13.1,25.142,27.976,24.391V23.059a1.782,1.782,0,1,1,3.564,0v1.332C46.423,25.144,58.368,35.245,59.515,47.948ZM4.305,21.277s-2.583,5.1-2.583,6.525a2.583,2.583,0,1,0,5.166,0C6.888,26.376,4.305,21.277,4.305,21.277Zm7.313-3.416s-1.938,3.825-1.938,4.9a1.938,1.938,0,1,0,3.875,0C13.555,21.686,11.618,17.861,11.618,17.861Z"/></g><rect class="a" width="14" height="13" rx="4" transform="translate(1096 649)"/></g></svg>