<svg xmlns="http://www.w3.org/2000/svg" width="45.246" height="55.353" viewBox="0 0 45.246 55.353"><defs><style>.a{fill:#2e6bdc;}</style></defs><g transform="translate(-46.743)"><path class="a" d="M67.744,85.17l-12.907-18.4a1.622,1.622,0,0,1,.107-2l2.171-2.482L53.87,57.658a9.436,9.436,0,0,0-7.127,9.151v32.6a1.346,1.346,0,0,0,1.344,1.344h4.145V75.945a1.622,1.622,0,1,1,3.243,0v29.488a1.346,1.346,0,0,0,1.344,1.344H67.744Z" transform="translate(0 -51.425)"/><path class="a" d="M284.874,57.656l-3.246,4.628,2.171,2.482a1.621,1.621,0,0,1,.107,2L271,85.168v21.607h10.924a1.346,1.346,0,0,0,1.344-1.344V75.943a1.622,1.622,0,1,1,3.243,0v24.813h4.145A1.346,1.346,0,0,0,292,99.411v-32.6a9.437,9.437,0,0,0-7.127-9.151Z" transform="translate(-200.012 -51.423)"/><path class="a" d="M203.568,9.062,209.924,0H197.213Z" transform="translate(-134.203)"/><path class="a" d="M142.121,20.307l-2.171,2.482,9.521,13.576v-15.7l-7.993-11.4-3.1,3.546,3.852,5.493A1.622,1.622,0,0,1,142.121,20.307Z" transform="translate(-81.727 -8.267)"/><path class="a" d="M278.992,9.269,271,20.665v15.7l9.521-13.576-2.171-2.482a1.621,1.621,0,0,1-.107-2l3.852-5.493Z" transform="translate(-200.012 -8.267)"/></g></svg>