<?xml version="1.0" encoding="utf-8"?>
<!-- Generator: Adobe Illustrator 22.1.0, SVG Export Plug-In . SVG Version: 6.00 Build 0)  -->
<svg version="1.1" id="Layer_1" xmlns="http://www.w3.org/2000/svg" xmlns:xlink="http://www.w3.org/1999/xlink" x="0px" y="0px"
	 viewBox="0 0 24 24" style="enable-background:new 0 0 24 24;" xml:space="preserve">
<title>task-list-question</title>
<g fill="#ffffff">
	<path d="M17.25,24.011c-3.722,0-6.75-3.028-6.75-6.75s3.028-6.75,6.75-6.75S24,13.539,24,17.261S20.972,24.011,17.25,24.011z
		 M17.25,12.011c-2.895,0-5.25,2.355-5.25,5.25s2.355,5.25,5.25,5.25s5.25-2.355,5.25-5.25S20.145,12.011,17.25,12.011z"/>
	<path d="M17.25,18.761c-0.414,0-0.75-0.336-0.75-0.75s0.336-0.75,0.75-0.75c0.62,0,1.125-0.505,1.125-1.125
		s-0.505-1.125-1.125-1.125s-1.125,0.505-1.125,1.125c0,0.414-0.336,0.75-0.75,0.75s-0.75-0.336-0.75-0.75
		c0-1.448,1.177-2.625,2.625-2.625s2.625,1.177,2.625,2.625S18.698,18.761,17.25,18.761z"/>
	<circle cx="17.25" cy="20.636" r="1.125"/>
	<path d="M5.25,11.261c-0.414,0-0.75-0.336-0.75-0.75s0.336-0.75,0.75-0.75h5.25c0.414,0,0.75,0.336,0.75,0.75
		s-0.336,0.75-0.75,0.75H5.25z"/>
	<path d="M5.25,15.011c-0.414,0-0.75-0.336-0.75-0.75s0.336-0.75,0.75-0.75h3c0.414,0,0.75,0.336,0.75,0.75s-0.336,0.75-0.75,0.75
		H5.25z"/>
	<path d="M5.25,18.761c-0.414,0-0.75-0.336-0.75-0.75s0.336-0.75,0.75-0.75h3c0.414,0,0.75,0.336,0.75,0.75s-0.336,0.75-0.75,0.75
		H5.25z"/>
	<path d="M2.25,24.011c-1.241,0-2.25-1.009-2.25-2.25V6.011c0-1.241,1.009-2.25,2.25-2.25h3.063c0.362-2.129,2.248-3.75,4.437-3.75
		c2.19,0,4.076,1.621,4.437,3.75h3.063c1.241,0,2.25,1.009,2.25,2.25v2.25c0,0.414-0.336,0.75-0.75,0.75S18,8.675,18,8.261v-2.25
		c0-0.414-0.336-0.75-0.75-0.75H13.5c-0.414,0-0.75-0.336-0.75-0.75c0-1.654-1.346-3-3-3s-3,1.346-3,3c0,0.414-0.336,0.75-0.75,0.75
		H2.25c-0.414,0-0.75,0.336-0.75,0.75v15.75c0,0.414,0.336,0.75,0.75,0.75h7.5c0.414,0,0.75,0.336,0.75,0.75s-0.336,0.75-0.75,0.75
		H2.25z"/>
	<circle cx="9.75" cy="4.136" r="1.125"/>
</g>
</svg>
