<svg xmlns="http://www.w3.org/2000/svg" width="77.361" height="41.046" viewBox="0 0 77.361 41.046"><defs><style>.a{fill:#fff;stroke-width:0.6px;fill-rule:evenodd;}.a,.b{stroke:#fff;}.b{fill:none;stroke-miterlimit:10;stroke-width:3px;}</style></defs><g transform="translate(-5.696 -23.263)"><path class="a" d="M11.629,27.315a6.675,6.675,0,0,1,2.793.676h0l16.339,7.852A5.008,5.008,0,0,1,35.5,32.879h0l9.385.288a20.968,20.968,0,0,0,6.23-1.186,28.412,28.412,0,0,1,8.434-1.325,35.446,35.446,0,0,1,10.264,2.008V30.619a1.736,1.736,0,0,1,.133-.666,1.791,1.791,0,0,1,.378-.566,1.763,1.763,0,0,1,1.235-.514h9.456a1.763,1.763,0,0,1,1.232.514,1.689,1.689,0,0,1,.378.566,1.736,1.736,0,0,1,.133.666v25.95a1.743,1.743,0,0,1-1.742,1.742H71.558a1.741,1.741,0,0,1-1.235-.511,1.867,1.867,0,0,1-.378-.566,1.748,1.748,0,0,1-.133-.666V54.335C58.33,52.3,51.5,55.764,41.151,55.764h0c-2.14,0-4.384-1.044-7.19-2.5s-6.019-3.411-9.268-5.509C18.2,43.56,11.545,38.782,8.079,36.435h0A4.719,4.719,0,0,1,6.03,33.118a5.145,5.145,0,0,1,.905-3.5,5.6,5.6,0,0,1,4.694-2.3Zm-.239,3.4a1.8,1.8,0,0,0-1.581.886A1.715,1.715,0,0,0,9.5,32.714a1.034,1.034,0,0,0,.533.831h0C13.6,35.96,20.193,40.692,26.587,44.821c3.2,2.066,6.343,3.973,8.981,5.344a18.806,18.806,0,0,0,5.586,2.111h0c9.365,0,16.681-3.453,28.659-1.481v-1.5a1.774,1.774,0,0,1,.126-.672,1.8,1.8,0,0,1,.378-.575,1.744,1.744,0,0,1,.569-.381,1.733,1.733,0,0,1,1.345,0,1.715,1.715,0,0,1,.944.957,1.714,1.714,0,0,1,.126.672v5.531h.873V32.361H73.3v5.522a1.744,1.744,0,0,1-.5,1.248,1.753,1.753,0,0,1-.569.385,1.772,1.772,0,0,1-1.345,0,1.753,1.753,0,0,1-.569-.385,1.73,1.73,0,0,1-.5-1.248V36.37a37.569,37.569,0,0,0-10.267-2.227,24.442,24.442,0,0,0-7.461,1.186,24.23,24.23,0,0,1-7.216,1.325l-.055,0L35.4,36.364h0a1.449,1.449,0,0,0-1.529,1.319c0,.659.614,1.28,1.645,1.319h.01l17.916.766a1.84,1.84,0,0,1,.669.155,1.76,1.76,0,0,1,.556.4,1.742,1.742,0,0,1,.362.585,1.8,1.8,0,0,1,.107.679,1.819,1.819,0,0,1-.165.666,1.745,1.745,0,0,1-1.678,1l-17.91-.769h-.006A5.319,5.319,0,0,1,30.9,39.777L12.912,31.136h0a3.67,3.67,0,0,0-1.523-.424Zm67.879,1.652H77.662V54.823h1.607V32.365Z" transform="translate(0 5.698)"/><rect class="b" width="8.123" height="8.123" rx="4" transform="translate(39.636 24.763) rotate(90)"/><rect class="b" width="8.123" height="8.123" rx="4" transform="translate(52.636 24.763) rotate(90)"/><rect class="b" width="8.123" height="8.123" rx="4" transform="translate(65.636 24.763) rotate(90)"/></g></svg>