<svg xmlns="http://www.w3.org/2000/svg" width="43.355" height="43.355" viewBox="0 0 43.355 43.355"><defs><style>.a{fill:#2e6bdc;}</style></defs><path class="a" d="M39.877,28.458a24.616,24.616,0,0,1-7.73-1.231,3.533,3.533,0,0,0-3.437.725l-4.875,3.68a26.94,26.94,0,0,1-12.113-12.11l3.572-4.748a3.5,3.5,0,0,0,.862-3.551A24.653,24.653,0,0,1,14.92,3.479,3.483,3.483,0,0,0,11.441,0H3.479A3.483,3.483,0,0,0,0,3.479,39.921,39.921,0,0,0,39.877,43.355a3.483,3.483,0,0,0,3.479-3.479v-7.94A3.483,3.483,0,0,0,39.877,28.458Z"/></svg>