<?xml version="1.0" encoding="utf-8"?>
<!-- Generator: Adobe Illustrator 22.1.0, SVG Export Plug-In . SVG Version: 6.00 Build 0)  -->
<svg version="1.1" id="Layer_1" xmlns="http://www.w3.org/2000/svg" xmlns:xlink="http://www.w3.org/1999/xlink" x="0px" y="0px"
	 viewBox="0 0 24 24" style="enable-background:new 0 0 24 24;" xml:space="preserve">
<title>task-list-multiple</title>
<g fill="#ffffff">
	<path d="M10.75,24.011c-0.965,0-1.75-0.785-1.75-1.75v-1.25H6.75c-1.241,0-2.25-1.009-2.25-2.25v-0.75H2.25
		c-1.241,0-2.25-1.009-2.25-2.25v-13.5c0-1.241,1.009-2.25,2.25-2.25h10.5c1.241,0,2.25,1.009,2.25,2.25v0.75h2.25
		c1.241,0,2.25,1.009,2.25,2.25v0.75h2.75c0.965,0,1.75,0.785,1.75,1.75v14.5c0,0.965-0.785,1.75-1.75,1.75H10.75z M10.75,7.511
		c-0.138,0-0.25,0.112-0.25,0.25v14.5c0,0.138,0.112,0.25,0.25,0.25h11.5c0.138,0,0.25-0.112,0.25-0.25v-14.5
		c0-0.138-0.112-0.25-0.25-0.25H10.75z M6.75,4.511C6.336,4.511,6,4.847,6,5.261v13.5c0,0.414,0.336,0.75,0.75,0.75H9V7.761
		c0-0.965,0.785-1.75,1.75-1.75H18v-0.75c0-0.414-0.336-0.75-0.75-0.75H6.75z M2.25,1.511c-0.414,0-0.75,0.336-0.75,0.75v13.5
		c0,0.414,0.336,0.75,0.75,0.75H4.5V5.261c0-1.241,1.009-2.25,2.25-2.25h6.75v-0.75c0-0.414-0.336-0.75-0.75-0.75H2.25z"/>
	<path d="M17.25,12.011c-0.414,0-0.75-0.336-0.75-0.75s0.336-0.75,0.75-0.75h3c0.414,0,0.75,0.336,0.75,0.75s-0.336,0.75-0.75,0.75
		H17.25z"/>
	<path d="M13.5,12.011c-0.2,0-0.389-0.078-0.53-0.22l-0.75-0.75C12.078,10.9,12,10.711,12,10.511s0.078-0.389,0.22-0.53
		c0.141-0.142,0.33-0.22,0.53-0.22s0.389,0.078,0.53,0.22l0.22,0.22l0.97-0.97c0.142-0.142,0.33-0.22,0.53-0.22
		s0.389,0.078,0.53,0.22c0.142,0.141,0.22,0.33,0.22,0.53s-0.078,0.389-0.22,0.53l-1.5,1.5C13.889,11.933,13.7,12.011,13.5,12.011z"
		/>
	<path d="M17.25,16.511c-0.414,0-0.75-0.336-0.75-0.75s0.336-0.75,0.75-0.75h3c0.414,0,0.75,0.336,0.75,0.75s-0.336,0.75-0.75,0.75
		H17.25z"/>
	<path d="M13.5,16.511c-0.2,0-0.389-0.078-0.53-0.22l-0.75-0.75c-0.292-0.292-0.292-0.768,0-1.061c0.142-0.142,0.33-0.22,0.53-0.22
		s0.389,0.078,0.53,0.22l0.22,0.22l0.97-0.97c0.142-0.142,0.33-0.22,0.53-0.22s0.389,0.078,0.53,0.22
		c0.292,0.292,0.292,0.768,0,1.061l-1.5,1.5C13.889,16.433,13.7,16.511,13.5,16.511z"/>
	<path d="M17.25,21.011c-0.414,0-0.75-0.336-0.75-0.75s0.336-0.75,0.75-0.75h3c0.414,0,0.75,0.336,0.75,0.75s-0.336,0.75-0.75,0.75
		H17.25z"/>
	<path d="M13.5,21.011c-0.2,0-0.389-0.078-0.53-0.22l-0.75-0.75c-0.292-0.292-0.292-0.768,0-1.061c0.142-0.142,0.33-0.22,0.53-0.22
		s0.389,0.078,0.53,0.22l0.22,0.22l0.97-0.97c0.142-0.142,0.33-0.22,0.53-0.22s0.389,0.078,0.53,0.22
		c0.292,0.292,0.292,0.768,0,1.061l-1.5,1.5C13.889,20.933,13.7,21.011,13.5,21.011z"/>
</g>
</svg>
