<svg xmlns="http://www.w3.org/2000/svg" width="47.519" height="58.149" viewBox="0 0 47.519 58.149"><defs><style>.a{fill:#fff;}</style></defs><g transform="translate(-40.999)"><g transform="translate(40.999)"><path class="a" d="M48.785,58.149h9.56a1.621,1.621,0,0,0,1.62-1.62V45.884H64.51A1.621,1.621,0,0,0,66.1,43.928L60.475,17.363l0-.016a1.615,1.615,0,0,0-.377-.8,9.567,9.567,0,1,0-13.06,0,1.616,1.616,0,0,0-.364.729l-5.625,26.58q-.007.034-.013.068L41.022,44a1.62,1.62,0,0,0,1.6,1.888h4.545V56.528A1.621,1.621,0,0,0,48.785,58.149Zm4.78-54.907a6.326,6.326,0,1,1-6.326,6.326A6.334,6.334,0,0,1,53.565,3.241Zm-8.949,39.4L49.57,19.235h7.989l4.953,23.408H58.345a1.621,1.621,0,0,0-1.62,1.62V54.908H50.405V44.264a1.621,1.621,0,0,0-1.62-1.62Z" transform="translate(-40.999)"/><path class="a" d="M255.954,58.115h9.56a1.621,1.621,0,0,0,1.62-1.62V45.85h2.155a1.621,1.621,0,0,0,1.62-1.62V17.562a1.621,1.621,0,0,0-1.62-1.62h-1.428a9.568,9.568,0,1,0-14.261,0h-1.4a1.62,1.62,0,0,0-1.62,1.62l-.008,26.479a1.62,1.62,0,0,0,1.609,1.815h2.154V56.494A1.621,1.621,0,0,0,255.954,58.115Zm4.78-54.872a6.326,6.326,0,1,1-6.327,6.326A6.334,6.334,0,0,1,260.734,3.242Zm-6.923,39.367.007-23.432,13.851,0V42.609h-2.155a1.621,1.621,0,0,0-1.62,1.62V54.874h-6.319V44.23a1.621,1.621,0,0,0-1.62-1.62Z" transform="translate(-223.391 -0.001)"/></g></g></svg>