<svg xmlns="http://www.w3.org/2000/svg" width="39.168" height="44.979" viewBox="0 0 39.168 44.979"><defs><style>.a{fill:#2e6bdc;}</style></defs><g transform="translate(-33.074)"><g transform="translate(33.074)"><path class="a" d="M68.681,6.16A23.916,23.916,0,0,1,52.743.076L52.658,0l-.085.076A23.916,23.916,0,0,1,36.635,6.16H33.074v9.494A31.7,31.7,0,0,0,51.4,44.394l1.258.585,1.258-.585a31.7,31.7,0,0,0,18.326-28.74V6.16ZM61.747,26.544H56.879v4.868H48.437V26.544H43.57V18.1h4.868V13.235h8.441V18.1h4.868Z" transform="translate(-33.074)"/></g><g transform="translate(46.205 15.87)"><path class="a" d="M190.583,185.516v-4.868h-3.17v4.868h-4.868v3.17h4.868v4.868h3.17v-4.868h4.868v-3.17Z" transform="translate(-182.545 -180.648)"/></g></g></svg>