<svg xmlns="http://www.w3.org/2000/svg" width="47.859" height="59.803" viewBox="0 0 47.859 59.803"><defs><style>.a{fill:#fff;stroke:#fff;stroke-width:0.5px;}</style></defs><g transform="translate(-4.59 -1.75)"><path class="a" d="M24.607,9.63,17.679,6.176a1.951,1.951,0,0,0-1.756,0L9.016,9.63a1.947,1.947,0,0,0-1.094,1.756c0,15.629,8.472,15.821,8.894,15.821s8.894-.163,8.894-15.821A1.956,1.956,0,0,0,24.607,9.63ZM16.816,23.244c-1.65,0-4.7-2.475-4.979-10.583l4.979-2.523,4.912,2.456C21.45,20.855,18.428,23.168,16.816,23.244Z" transform="translate(26.489 34.096)"/><path class="a" d="M46.27,2H18.58a2.046,2.046,0,0,0-.758.144,2.4,2.4,0,0,0-.23.173,1.8,1.8,0,0,0-.4.259L5.331,14.434v.125a1.749,1.749,0,0,0-.489,1.276V55.374A5.928,5.928,0,0,0,10.684,61.3H30.449a1.981,1.981,0,0,0,0-3.962H10.684a1.97,1.97,0,0,1-1.967-1.967h0V17.821h9.892a1.97,1.97,0,0,0,1.967-1.967h0V5.962H46.27a1.97,1.97,0,0,1,1.967,1.967h0V37.586a1.981,1.981,0,0,0,3.962,0V7.929A5.933,5.933,0,0,0,46.27,2ZM11.529,13.859l5.085-5.123v5.123Z" transform="translate(0)"/><path class="a" d="M22.271,11.545a7.9,7.9,0,1,0-7.906,7.906A7.9,7.9,0,0,0,22.271,11.545Zm-11.859,0a3.958,3.958,0,1,1,3.953,3.962h0A3.955,3.955,0,0,1,10.412,11.545Z" transform="translate(14.001 14.172)"/><path class="a" d="M24.284,7.678a1.97,1.97,0,0,0-1.967-1.967H8.233a1.981,1.981,0,1,0,0,3.962H22.318A1.972,1.972,0,0,0,24.284,7.7Z" transform="translate(12.094 31.894)"/><path class="a" d="M8.233,6.534a1.981,1.981,0,1,0,0,3.962h8.146a1.981,1.981,0,1,0,0-3.962Z" transform="translate(12.094 38.967)"/></g></svg>