<svg xmlns="http://www.w3.org/2000/svg" width="63.694" height="63.694" viewBox="0 0 63.694 63.694"><defs><style>.a{fill:#fff;}.b{fill:#2e6bdc;}</style></defs><g transform="translate(-134.697 -272.697)"><g transform="translate(637.443 -31.303)"><g transform="translate(-502.746 304)"><path class="a" d="M-450.278,337.589A5.758,5.758,0,0,0-444.8,341.6a5.755,5.755,0,0,0,5.748-5.748A5.755,5.755,0,0,0-444.8,330.1a5.758,5.758,0,0,0-5.477,4.006h-2.94a17.687,17.687,0,0,0-3.952-9.523l4.844-4.845a6.447,6.447,0,0,0,3.155.823,6.424,6.424,0,0,0,4.557-1.884,6.453,6.453,0,0,0,0-9.115,6.452,6.452,0,0,0-9.115,0,6.455,6.455,0,0,0-1.061,7.712l-4.844,4.844a17.693,17.693,0,0,0-9.524-3.953v-2.939a5.757,5.757,0,0,0,4.007-5.477A5.755,5.755,0,0,0-470.9,304a5.755,5.755,0,0,0-5.748,5.748,5.757,5.757,0,0,0,4.006,5.477v2.939a17.689,17.689,0,0,0-9.526,3.955c-.014-.015-.027-.031-.042-.046l-4.8-4.8a6.456,6.456,0,0,0-1.061-7.712,6.452,6.452,0,0,0-9.115,0,6.452,6.452,0,0,0,0,9.115,6.422,6.422,0,0,0,4.557,1.884,6.447,6.447,0,0,0,3.156-.823l4.8,4.8c.015.015.031.028.047.042a17.69,17.69,0,0,0-3.955,9.526h-2.939A5.757,5.757,0,0,0-497,330.1a5.755,5.755,0,0,0-5.748,5.748A5.755,5.755,0,0,0-497,341.6a5.758,5.758,0,0,0,5.477-4.006h2.939a17.693,17.693,0,0,0,3.953,9.523l-4.844,4.845a6.455,6.455,0,0,0-7.712,1.061,6.452,6.452,0,0,0,0,9.115,6.424,6.424,0,0,0,4.557,1.884,6.425,6.425,0,0,0,4.557-1.884,6.456,6.456,0,0,0,1.061-7.712l4.845-4.844a17.687,17.687,0,0,0,9.523,3.952v2.94a5.757,5.757,0,0,0-4.006,5.477,5.755,5.755,0,0,0,5.748,5.748,5.755,5.755,0,0,0,5.748-5.748,5.757,5.757,0,0,0-4.007-5.477v-2.94a17.688,17.688,0,0,0,9.524-3.952l4.844,4.844a6.455,6.455,0,0,0,1.061,7.712,6.422,6.422,0,0,0,4.557,1.884,6.423,6.423,0,0,0,4.557-1.884,6.452,6.452,0,0,0,0-9.115,6.455,6.455,0,0,0-7.712-1.061l-4.844-4.845a17.689,17.689,0,0,0,3.953-9.523Zm5.477-4.007a2.268,2.268,0,0,1,2.265,2.265,2.267,2.267,0,0,1-2.265,2.264,2.267,2.267,0,0,1-2.264-2.264A2.267,2.267,0,0,1-444.8,333.583Zm-6.464-21.558a2.953,2.953,0,0,1,2.094-.866,2.95,2.95,0,0,1,2.094.866,2.963,2.963,0,0,1,0,4.187,2.964,2.964,0,0,1-4.188,0A2.965,2.965,0,0,1-451.265,312.025Zm-39.269,4.187a2.964,2.964,0,0,1-4.188,0,2.964,2.964,0,0,1,0-4.187,2.951,2.951,0,0,1,2.094-.866,2.95,2.95,0,0,1,2.094.866A2.963,2.963,0,0,1-490.534,316.212Zm-6.464,21.9a2.267,2.267,0,0,1-2.265-2.265A2.267,2.267,0,0,1-497,333.583a2.267,2.267,0,0,1,2.264,2.264A2.267,2.267,0,0,1-497,338.112Zm6.464,21.558a2.964,2.964,0,0,1-4.188,0,2.964,2.964,0,0,1,0-4.187,2.953,2.953,0,0,1,2.094-.866,2.95,2.95,0,0,1,2.094.866A2.963,2.963,0,0,1-490.534,359.669Zm39.27-4.187a2.952,2.952,0,0,1,2.094-.866,2.952,2.952,0,0,1,2.094.866,2.963,2.963,0,0,1,0,4.187,2.964,2.964,0,0,1-4.188,0A2.964,2.964,0,0,1-451.264,355.482Zm-21.9-45.733a2.267,2.267,0,0,1,2.264-2.264,2.267,2.267,0,0,1,2.265,2.264,2.267,2.267,0,0,1-2.265,2.264A2.267,2.267,0,0,1-473.163,309.748Zm4.529,52.2a2.267,2.267,0,0,1-2.265,2.265,2.267,2.267,0,0,1-2.264-2.265,2.267,2.267,0,0,1,2.264-2.264A2.267,2.267,0,0,1-468.634,361.946Zm6.444-14.789a14.207,14.207,0,0,1-8.708,2.973,14.207,14.207,0,0,1-8.708-2.973v-2.644a2.822,2.822,0,0,1,2.3-2.774l1.819-.34a6.691,6.691,0,0,0,4.584,1.814,6.691,6.691,0,0,0,4.585-1.814l1.819.34a2.822,2.822,0,0,1,2.3,2.774v2.644ZM-474.133,336.5v-3.238a3.238,3.238,0,0,1,3.234-3.234,3.238,3.238,0,0,1,3.234,3.234V336.5a3.238,3.238,0,0,1-3.234,3.234A3.238,3.238,0,0,1-474.133,336.5Zm15.332,6.931a6.308,6.308,0,0,0-5.055-5.112l-.548-.1a6.706,6.706,0,0,0,.223-1.717v-3.238a6.726,6.726,0,0,0-6.718-6.718,6.726,6.726,0,0,0-6.718,6.718V336.5a6.7,6.7,0,0,0,.223,1.717l-.548.1A6.308,6.308,0,0,0-483,343.427a14.191,14.191,0,0,1-2.186-7.58A14.3,14.3,0,0,1-470.9,321.564a14.3,14.3,0,0,1,14.284,14.284A14.2,14.2,0,0,1-458.8,343.427Z" transform="translate(502.746 -304)"/></g></g><circle class="a" cx="10" cy="10" r="10" transform="translate(176 275)"/><path class="b" d="M29.969,40.559a1.5,1.5,0,0,0,1.062.448h0a1.5,1.5,0,0,0,1.059-.443l5.96-5.962a1.5,1.5,0,0,0-2.119-2.121l-4.894,4.894L29.082,35.4a1.5,1.5,0,0,0-2.129,2.111Z" transform="translate(153 248.335)"/></g></svg>