<svg xmlns="http://www.w3.org/2000/svg" width="35.941" height="45.361" viewBox="0 0 35.941 45.361"><defs><style>.a{fill:#2e6bdc;stroke:rgba(0,0,0,0);stroke-miterlimit:10;}</style></defs><path class="a" d="M12269.939,8465.361H12235V8421h21.5v13.079h13.438v31.282Zm-29.566-7.888v2.6h24.189v-2.6h-24.189Zm0-5.2v2.606h24.189v-2.6h-24.189Zm0-5.2v2.6h24.189v-2.6h-24.189Zm16.128-5.2v2.606h8.062v-2.6h-8.062Zm-5.378,0v2.606h2.689v-2.6h-2.689Zm-6.2-12.417a4.488,4.488,0,1,0,4.638,4.49A4.57,4.57,0,0,0,12244.924,8429.459Zm24.224,2.022h-9.96v-9.718l9.958,9.716Z" transform="translate(-12234.498 -8420.5)"/></svg>