<svg xmlns="http://www.w3.org/2000/svg" width="53.501" height="53.587" viewBox="0 0 53.501 53.587"><defs><style>.a{fill:#fff;stroke:#fff;stroke-width:2px;}</style></defs><g transform="translate(0.587 1)"><g transform="translate(0.413)"><path class="a" d="M48.643,9.669a1.037,1.037,0,0,0,1.468,0,1.032,1.032,0,0,0,0-1.468l-2.17-2.17h7.224a7.884,7.884,0,0,1,7.874,7.874V18.56a1.038,1.038,0,0,0,2.076,0V13.9a9.965,9.965,0,0,0-9.95-9.95H47.94l2.17-2.17A1.038,1.038,0,0,0,48.643.307L44.7,4.249a1.032,1.032,0,0,0,0,1.468Z" transform="translate(-13.613)"/><path class="a" d="M39.353,63.041H62.147A1.034,1.034,0,0,0,63.185,62V39.2a1.033,1.033,0,0,0-1.038-1.038H39.353A1.033,1.033,0,0,0,38.315,39.2V61.992A1.043,1.043,0,0,0,39.353,63.041Zm1.038-22.8H61.109V60.954H40.391Z" transform="translate(-11.789 -11.454)"/><path class="a" d="M1.451,45.711A1.033,1.033,0,0,0,.413,46.749v4.666a9.965,9.965,0,0,0,9.95,9.95h7.224l-2.17,2.17a1.032,1.032,0,0,0,0,1.468,1.037,1.037,0,0,0,1.468,0l3.942-3.942a1.032,1.032,0,0,0,0-1.468L16.884,55.65a1.038,1.038,0,0,0-1.468,1.468l2.17,2.17H10.363a7.884,7.884,0,0,1-7.874-7.873V46.749A1.033,1.033,0,0,0,1.451,45.711Z" transform="translate(-0.413 -13.72)"/><path class="a" d="M.563,1.042V23.836A1.033,1.033,0,0,0,1.6,24.874H24.395a1.033,1.033,0,0,0,1.038-1.038V1.042A1.033,1.033,0,0,0,24.395,0H1.6A1.04,1.04,0,0,0,.563,1.042ZM2.639,2.08H23.357V22.8H2.639Z" transform="translate(-0.458 -0.001)"/></g></g></svg>