<svg xmlns="http://www.w3.org/2000/svg" width="42.61" height="42.61" viewBox="0 0 42.61 42.61"><defs><style>.a{fill:#2e6bdc;}</style></defs><g transform="translate(22.553)"><path class="a" d="M42.76,10.777a1.249,1.249,0,0,0-1.125-.707H40.317A11.323,11.323,0,0,0,29.151,0h-2.5a1.249,1.249,0,1,0,0,2.5c3.832,0,5.918,2.6,6.206,7.573H31.648a1.248,1.248,0,0,0-.976,2.028l4.993,6.242a1.249,1.249,0,0,0,1.95,0L42.61,12.1A1.25,1.25,0,0,0,42.76,10.777Z" transform="translate(-25.406)"/></g><g transform="translate(2.58 23.825)"><path class="a" d="M19.135,43.128c-3.833,0-5.918-2.6-6.207-7.574h1.214a1.248,1.248,0,0,0,.975-2.028l-4.993-6.242a1.291,1.291,0,0,0-1.95,0L3.179,33.525a1.248,1.248,0,0,0,.976,2.028H5.472a11.323,11.323,0,0,0,11.166,10.07h2.5a1.248,1.248,0,0,0,0-2.5Z" transform="translate(-2.906 -26.839)"/></g><path class="a" d="M11.318,10.07A1.248,1.248,0,0,1,10.07,8.822V0H1.248A1.248,1.248,0,0,0,0,1.248V21.305a1.248,1.248,0,0,0,1.248,1.248H18.809a1.248,1.248,0,0,0,1.248-1.248V10.07Z"/><g transform="translate(12.567 0.731)"><path class="a" d="M14.156.824V7.666h6.759Z" transform="translate(-14.156 -0.824)"/></g><g transform="translate(22.553 20.057)"><path class="a" d="M36.724,32.581a1.248,1.248,0,0,1-1.248-1.248V22.594H26.655a1.248,1.248,0,0,0-1.249,1.248V43.9a1.248,1.248,0,0,0,1.249,1.248h17.56A1.248,1.248,0,0,0,45.463,43.9V32.581Z" transform="translate(-25.406 -22.594)"/></g><g transform="translate(35.12 20.788)"><path class="a" d="M39.563,23.418v6.759h6.759Z" transform="translate(-39.563 -23.418)"/></g></svg>