<svg xmlns="http://www.w3.org/2000/svg" width="62.683" height="63.461" viewBox="0 0 62.683 63.461"><defs><style>.a{fill:#fff;}</style></defs><g transform="translate(-1.646)"><g transform="translate(1.646 0)"><path class="a" d="M62.595,9.4l.038-.036a5.542,5.542,0,0,0,.158-7.821A5.283,5.283,0,0,0,59.025,0a5.713,5.713,0,0,0-4.057,1.7L50.141,6.858,32.876,1.69,29.3,5.269a2.383,2.383,0,0,0,0,3.373l.157.157,12.471,6.863L40.1,17.642a24.991,24.991,0,0,0-13.559-4.005,25.276,25.276,0,0,0-2.775.157l-.087-.1c-.041.036-.087.078-.131.119A24.911,24.911,0,0,0,21.03,62.834a25.023,25.023,0,0,0,5.553.627A24.769,24.769,0,0,0,50.847,44.084a25.043,25.043,0,0,0,.625-6.123,2.8,2.8,0,0,0-.1-1.709,24.777,24.777,0,0,0-3.722-10.962c-.258-.409-.529-.808-.808-1.2l1.852-1.707,6.919,12.571.158.158a2.384,2.384,0,0,0,3.368,0l3.581-3.58-5.2-17.383ZM14.112,56.429A21.8,21.8,0,0,1,5.038,35.264a13.039,13.039,0,0,1,3.344,1.317c-.02.144-.043.29-.065.435-.209,1.357-.525,3.407,1.146,4.623a2.635,2.635,0,0,0,3.411-.445c.245.2.512.394.787.6A10.122,10.122,0,0,1,15.116,43c-.086.3-.213.654-.336,1-.485,1.355-.987,2.756-.053,3.741a18.659,18.659,0,0,1,1.531,2.873c-.005.219.011.467.032.791a9.081,9.081,0,0,1,.021,1.392s-1.9,2.389-1.788,2.954ZM47.8,43.388A21.656,21.656,0,0,1,26.584,60.332,21.92,21.92,0,0,1,16.19,57.7a17.383,17.383,0,0,0,2.867-3.4,5.476,5.476,0,0,0,.354-3.1c-.013-.214-.029-.4-.026-.515a.818.818,0,0,1-.026.174c.251-1.11-1.258-3.665-1.984-4.754.075-.288.235-.733.349-1.053a14.209,14.209,0,0,0,.5-1.593c.431-1.875-1.311-3.16-2.71-4.192a9.429,9.429,0,0,1-1-.793c-.63-.664-1.691-1.177-3.239-.025.028-.331.086-.706.125-.964.052-.337.1-.673.135-1,.18-1.815-1.779-3.255-5.813-4.286A21.629,21.629,0,0,1,20.886,17.5a10.085,10.085,0,0,0-.689,2.737c-.067.607-.154,1.157-.231,1.642-.306,1.934-.653,4.125,2.124,5.362a10.1,10.1,0,0,0,3.419.877,8.412,8.412,0,0,1,1.015.146,9.481,9.481,0,0,1,.01,1.833,4.3,4.3,0,0,0,.106,1.653,14.183,14.183,0,0,0,5.632,8.868,7.04,7.04,0,0,1-2.067.858c-.362.069-.732.116-1.091.161-1.468.184-3.477.435-4.318,2.753a2.478,2.478,0,0,0,.138,2.216,3.676,3.676,0,0,0,2.923,1.409c.153.02.368.049.5.075a8.137,8.137,0,0,0,4.33,1.652,3.7,3.7,0,0,0,2.515-.934,6.794,6.794,0,0,1,2.515-.239c1.514.018,2.944.035,3.856-.887a2.3,2.3,0,0,0,.661-1.715c-.032-1.306,2.469-2.712,4.478-3.841.485-.272.981-.552,1.462-.842Q48.036,42.337,47.8,43.388Zm.514-6.071A14.886,14.886,0,0,1,45.176,39.4c-2.691,1.512-5.717,3.212-6.045,6.023-.394.032-.962.024-1.38.019-1.6-.018-3.413-.041-4.618,1.018-.521.457-2.106-.247-3.011-.952a3.455,3.455,0,0,0-1.755-.579,9.945,9.945,0,0,1,1.135-.185c.389-.049.83-.1,1.292-.192,1.4-.269,5.057-1.8,5.362-3.831a1.945,1.945,0,0,0-1.065-2.041,10.822,10.822,0,0,1-5.4-7.636l-.055-.439c.006-.1.013-.215.018-.311.093-1.492.265-4.27-1.927-4.941a9.531,9.531,0,0,0-1.892-.344,6.987,6.987,0,0,1-2.473-.622,1.212,1.212,0,0,1-.457-.28,6.144,6.144,0,0,1,.149-1.736c.082-.519.175-1.107.251-1.788a6.407,6.407,0,0,1,1.643-3.756c.526-.038,1.056-.061,1.592-.061a21.882,21.882,0,0,1,11.4,3.215l-.156.169a7.721,7.721,0,0,0-.749.878l-5.593-1.448L29,22.032a2.181,2.181,0,0,0,0,3.086l.176.176,6.442,3.27.232.232,3.27,6.444.176.176a2.181,2.181,0,0,0,3.085,0l2.454-2.453-1.477-5.708a7.6,7.6,0,0,0,.829-.711l.335-.308c.164.237.329.473.483.72A21.657,21.657,0,0,1,48.311,37.318Zm10.875-6.676-1.535,1.535-8.144-14.8L42.04,24.263,42,24.306a4.319,4.319,0,0,1-1.139.822l-1.141.563,1.638,6.324-.244.244-2.7-5.322L37.473,26l-5.322-2.7.243-.243,6.232,1.613.557-1.159a4.318,4.318,0,0,1,.84-1.173l6.906-7.491-14.7-8.089,1.535-1.535L51.1,10.411,57.2,3.9a2.6,2.6,0,0,1,1.829-.768,2.177,2.177,0,0,1,1.553.626,2.412,2.412,0,0,1-.142,3.381L53.963,13.19Z" transform="translate(-1.646 0)"/></g></g></svg>