<svg xmlns="http://www.w3.org/2000/svg" width="63.767" height="41.542" viewBox="0 0 63.767 41.542"><defs><style>.a{fill:#2e6bdc;}</style></defs><path class="a" d="M10307.889,8462.543a1.892,1.892,0,0,1-1.888-1.887V8425.58a4.23,4.23,0,0,1,4.247-4.25h17.468a4.23,4.23,0,0,1,4.247,4.25v6H10333a4.229,4.229,0,0,1,4.247,4.247v13.266a1.844,1.844,0,0,0,3.684,0v-19.734l-7.128-6.23,1.84-2.123,8.12,7.081v21.007a4.676,4.676,0,0,1-9.348,0v-13.266a1.391,1.391,0,0,0-1.415-1.417h-1.041v26.25a1.892,1.892,0,0,1-1.887,1.887Zm2.879-23.132h16.43v-12.887h-16.43Zm-20.581,20.417v-5.434a2.717,2.717,0,0,1,5.434,0v5.434a2.717,2.717,0,0,1-5.434,0Zm6.926-1a.336.336,0,0,1-.135-.271v-4.161a4.074,4.074,0,1,0-8.148,0v4.161a.347.347,0,0,1-.141.271.354.354,0,0,1-.3.052,6.138,6.138,0,0,1-4.314-5.841v-4.416a8.8,8.8,0,0,1,4.566-7.712.336.336,0,0,1,.316,0,8.474,8.474,0,0,0,2.311.768.337.337,0,0,1,.277.333v5.254a.679.679,0,0,0,.678.68h1.36a.679.679,0,0,0,.678-.68v-5.249a.344.344,0,0,1,.272-.335,7.476,7.476,0,0,0,2.308-.778.341.341,0,0,1,.324,0,8.82,8.82,0,0,1,4.564,7.723v4.413a6.11,6.11,0,0,1-4.314,5.841.325.325,0,0,1-.1.016A.334.334,0,0,1,10297.112,8458.826Zm-10.311-22.795a.345.345,0,0,0-.341-.31h-5.1a1.357,1.357,0,0,1,0-2.715h6.389a.346.346,0,0,0,.244-.1,7.187,7.187,0,0,1,9.815,0,.349.349,0,0,0,.247.1h6.394a1.358,1.358,0,0,1,0,2.716h-5.106a.341.341,0,0,0-.34.309c-.2,2.178-2.464,4.444-6.1,4.444C10289.208,8440.473,10287,8438.129,10286.8,8436.031Zm4.063-.312a2.038,2.038,0,1,0,2.038-2.038A2.04,2.04,0,0,0,10290.864,8435.72Z" transform="translate(-10280 -8421.001)"/></svg>