<svg xmlns="http://www.w3.org/2000/svg" width="43.822" height="43.824" viewBox="0 0 43.822 43.824"><defs><style>.a{fill:#2e6bdc;}</style></defs><path class="a" d="M10301.911,8464.824l-20.54,0a1.371,1.371,0,0,1-1.371-1.368v-34.238a1.362,1.362,0,0,1,.859-1.27l6.588-2.636,3.908-3.91a1.387,1.387,0,0,1,.969-.4h19.174a1.371,1.371,0,0,1,.972.4l3.91,3.908,6.583,2.636a1.358,1.358,0,0,1,.859,1.27v9.64h-8.322a1.885,1.885,0,0,0-1.883,1.883v5.647l.351,2.376a2.254,2.254,0,0,0,2.16,1.861h1.734v2.886h-.329c-.05-.143-.136-.227-.231-.227-.15,0-.272.206-.272.46s.122.462.272.462c.095,0,.182-.084.231-.226h.329v1.332h.735v-.452h.711c.054.143.14.227.231.227.151,0,.275-.206.275-.46s-.124-.462-.275-.462c-.095,0-.177.08-.231.226h-.711v-2.49h.449c.054.126.133.2.218.2.151,0,.275-.207.275-.462s-.124-.46-.275-.46c-.1,0-.194.1-.241.252h-.426v-.8h1.138a2.559,2.559,0,0,0,2.22-1.843,5.58,5.58,0,0,1,.681-1.319,2.51,2.51,0,0,1,1.187-.771v10.916h-11.462a1.884,1.884,0,0,0-1.883,1.882v3.454a1.877,1.877,0,0,0,1.795,1.878l-10.346,0a1.36,1.36,0,0,0,.953-.4l4.107-4.11a1.369,1.369,0,0,0,.4-1.049l-1.358-23.063.571-2.293,2.158,2.157,6.04-8.457-.358-.358-3.509-3.511h-1.35l-7.671,5.479-7.668-5.479h-1.351l-3.5,3.508-.361.361,6.037,8.457,2.16-2.157.569,2.29-1.358,23.071a1.356,1.356,0,0,0,.4,1.047l4.107,4.11a1.368,1.368,0,0,0,.969.4h0Zm0-3.308h0l-2.705-2.7,1.26-21.363h2.893l1.26,21.363-2.705,2.7Zm21.911-19.366h-2.517a.472.472,0,0,1-.47-.473v-1.135a.472.472,0,0,1,.47-.473h2.517v2.079Zm-20.239-7.455h-3.339l-.563-2.249a1.365,1.365,0,0,0-.377-.623l2.607-2.607,2.6,2.6a1.373,1.373,0,0,0-.369.626l-.563,2.248Z" transform="translate(-10280 -8421)"/></svg>