<svg xmlns="http://www.w3.org/2000/svg" width="71.952" height="57.108" viewBox="0 0 71.952 57.108"><defs><style>.a{fill:#fff;stroke:#fff;stroke-width:0.7px;}</style></defs><g transform="translate(0.35 -52.983)"><g transform="translate(1.485 83.022)"><path class="a" d="M20.26,90.589l-7.167-7.167A7.384,7.384,0,0,0,7.844,81.25H2.881a1.484,1.484,0,1,0,0,2.968H7.844a4.484,4.484,0,0,1,3.147,1.3l4.635,4.635H2.881a1.484,1.484,0,1,0,0,2.968H19.209a1.486,1.486,0,0,0,1.051-2.535Z" transform="translate(-1.396 -81.25)"/></g><g transform="translate(2.969 97.865)"><path class="a" d="M19.12,96.693a1.485,1.485,0,0,0-1.485,1.485v4.453a1.487,1.487,0,0,1-1.485,1.485H7.245A1.487,1.487,0,0,1,5.76,102.63V96.693a1.484,1.484,0,1,0-2.968,0v5.937a4.458,4.458,0,0,0,4.453,4.454h8.906A4.459,4.459,0,0,0,20.6,102.63V98.177A1.485,1.485,0,0,0,19.12,96.693Z" transform="translate(-2.792 -95.208)"/></g><g transform="translate(0 71.146)"><path class="a" d="M64.516,73.221c-4.091-2.141-13.274-3.138-28.89-3.138s-24.8,1-28.89,3.138C2.075,75.656,0,79.723,0,86.411A52.922,52.922,0,0,0,1.535,98.67a1.482,1.482,0,0,0,1.435,1.1H15.978l5.623,2.812a1.5,1.5,0,0,0,.666.157H48.986a1.477,1.477,0,0,0,.661-.157l5.626-2.812H68.283a1.482,1.482,0,0,0,1.435-1.1,52.923,52.923,0,0,0,1.535-12.259C71.252,79.723,69.177,75.656,64.516,73.221ZM67.111,96.8H54.927a1.471,1.471,0,0,0-.666.157l-5.626,2.812H22.617L16.994,96.96a1.49,1.49,0,0,0-.666-.157H4.144A51.056,51.056,0,0,1,2.969,86.411c0-5.591,1.49-8.651,5.139-10.56,3.556-1.859,12.814-2.8,27.518-2.8s23.962.941,27.518,2.8c3.649,1.909,5.139,4.97,5.139,10.56A51.339,51.339,0,0,1,67.111,96.8Z" transform="translate(0 -70.083)"/></g><g transform="translate(50.471 83.022)"><path class="a" d="M65.271,90.156H52.526l4.631-4.635a4.489,4.489,0,0,1,3.15-1.3h4.963a1.485,1.485,0,0,0,0-2.969H60.308a7.384,7.384,0,0,0-5.249,2.173l-7.167,7.167a1.487,1.487,0,0,0,1.051,2.536H65.271a1.485,1.485,0,0,0,0-2.969Z" transform="translate(-47.459 -81.25)"/></g><g transform="translate(17.812 83.022)"><path class="a" d="M52.237,82.105a1.485,1.485,0,0,0-1.345-.855H18.235a1.483,1.483,0,0,0-1.14,2.434l7.422,8.906a1.486,1.486,0,0,0,1.14.534H43.469a1.486,1.486,0,0,0,1.14-.534l7.422-8.906A1.481,1.481,0,0,0,52.237,82.105Zm-9.465,8.051H26.351L21.4,84.218h26.32Z" transform="translate(-16.749 -81.25)"/></g><g transform="translate(5.938 53.333)"><path class="a" d="M64.838,75.008C63.149,71.126,57.5,58.327,55.53,56.655c-2.449-2.081-9.464-3.322-18.774-3.322H33.787c-9.31,0-16.325,1.241-18.774,3.319-1.965,1.672-7.622,14.471-9.307,18.353A1.486,1.486,0,0,0,8.431,76.19c3.351-7.715,7.452-16.29,8.506-17.273,1.143-.971,5.979-2.615,16.851-2.615h2.969c10.872,0,15.708,1.644,16.845,2.61,1.059.988,5.16,9.559,8.512,17.278a1.485,1.485,0,1,0,2.725-1.182Z" transform="translate(-5.584 -53.333)"/></g><g transform="translate(50.47 97.865)"><path class="a" d="M63.787,95.208A1.485,1.485,0,0,0,62.3,96.693v5.937a1.487,1.487,0,0,1-1.485,1.485H51.912a1.487,1.487,0,0,1-1.485-1.485V98.177a1.485,1.485,0,1,0-2.969,0v4.453a4.459,4.459,0,0,0,4.454,4.454h8.906a4.459,4.459,0,0,0,4.453-4.454V96.693A1.484,1.484,0,0,0,63.787,95.208Z" transform="translate(-47.458 -95.208)"/></g></g></svg>