<svg xmlns="http://www.w3.org/2000/svg" width="51.817" height="63.981" viewBox="0 0 51.817 63.981"><defs><style>.a,.b{fill:#fff;}.b{stroke:#fff;stroke-width:2px;}</style></defs><g transform="translate(-1435.279 -476.396)"><g transform="translate(1386.375 476.397)"><path class="a" d="M98.753,27.317a6.317,6.317,0,0,0-5.937-1.1,5.446,5.446,0,0,0-1.451.759A39.829,39.829,0,0,0,85.811,32.7V13.909a6.044,6.044,0,0,0-1.8-4.283,5.809,5.809,0,0,0-6.218-1.29V6.5A6.578,6.578,0,0,0,75.83,1.838,6.3,6.3,0,0,0,71.268,0a6.44,6.44,0,0,0-6.294,6.218A6.171,6.171,0,0,0,62.6,5.671a6.521,6.521,0,0,0-4.7,1.84,6.157,6.157,0,0,0-1.91,4.439l0,1.78a5.395,5.395,0,0,0-7.08,5.122l0,27.315,0,.129a24.209,24.209,0,0,0,2.231,9.124,14.193,14.193,0,0,0,4.789,5.539c3.981,2.679,8.9,3.022,12.738,3.022,7.539,0,14.322-3.748,17.714-9.786.412-.665,1.5-2.374,2.674-4.218,1.143-1.8,2.207-3.451,3.144-4.912.516-.8.985-1.533,1.391-2.169,1.517-2.372,3.133-4.672,4.8-6.836.62-.8.81-1.02.854-1.067a5.551,5.551,0,0,0,1.426-3.023A5.062,5.062,0,0,0,98.753,27.317Zm-1.8,4.154a1.814,1.814,0,0,1-.473.985c-.136.149-.38.432-1.057,1.309-1.739,2.252-3.42,4.643-5,7.108-.406.634-.873,1.362-1.387,2.163-.94,1.464-2.005,3.123-3.153,4.925-1.2,1.887-2.313,3.635-2.72,4.293l-.043.072c-2.722,4.873-8.262,7.9-14.458,7.9-3.306,0-7.5-.271-10.643-2.382-3.2-2.154-4.957-6-5.366-11.744l0-27.249a1.644,1.644,0,0,1,3.288,0V29.073c0,.03,0,.06,0,.09s0,.067.006.1.009.059.014.088.008.066.014.1.015.058.022.087.014.062.024.092.021.058.031.086.02.058.032.087.026.055.039.083.025.055.04.082.031.052.047.077.03.053.047.077.036.049.054.072.034.049.053.072.041.045.06.066.04.047.061.068.043.04.065.06.045.042.068.062.046.035.069.053.049.038.075.056.049.029.073.045.053.033.081.049.053.025.078.037.057.029.086.041.056.021.083.031.06.023.09.033.059.015.088.023.06.017.091.023.063.01.094.015l.092.014.1,0c.031,0,.063,0,.094,0h.006c.064,0,.128,0,.192-.01.027,0,.054-.009.081-.013s.07-.009.1-.016.071-.018.106-.027.05-.011.074-.019c.039-.012.077-.027.115-.041l.057-.021c.038-.016.075-.035.111-.053l.053-.025c.034-.019.067-.041.1-.061s.037-.021.055-.033.059-.043.088-.065.038-.027.057-.042.051-.046.076-.069l.057-.052c.023-.023.045-.049.066-.073s.037-.039.055-.06.037-.049.056-.074.036-.046.052-.071.032-.051.047-.076.033-.051.048-.078.025-.053.039-.08.028-.055.04-.084.021-.056.031-.084.022-.058.033-.088.015-.058.022-.088.017-.06.024-.092.01-.06.014-.09.011-.064.015-.1,0-.062,0-.092,0-.064,0-.1l.044-17.124a2.44,2.44,0,0,1,.771-1.751,2.747,2.747,0,0,1,1.98-.782,2.6,2.6,0,0,1,2.456,2.628l.021,16.923c0,.034,0,.068.006.1s0,.06,0,.09.01.068.016.1.007.057.013.084.018.073.028.109.012.048.018.071c.012.039.028.076.043.115.007.019.012.039.02.057.018.041.037.08.058.119.007.014.014.03.021.044.021.041.046.08.071.118l.023.037c.025.038.054.075.083.111.009.011.016.023.025.033.032.039.066.075.1.111a.284.284,0,0,0,.021.023c.035.036.073.068.112.1l.021.02c.038.032.079.06.119.088a.3.3,0,0,0,.025.019c.041.028.084.053.127.077l.028.018c.045.024.092.045.138.066l.026.013c.048.02.1.037.147.054l.025.009c.049.015.1.028.15.039l.03.007a1.844,1.844,0,0,0,.377.038h0c.033,0,.065,0,.1,0s.063,0,.093,0,.067-.01.1-.016.058-.007.086-.013.067-.017.1-.025.053-.013.08-.021.066-.024.1-.037.05-.017.074-.027.066-.031.1-.048l.065-.031c.032-.018.063-.038.094-.057l.06-.037c.029-.02.057-.043.086-.064l.059-.044c.026-.022.052-.047.078-.071l.055-.05c.024-.025.046-.051.069-.076s.035-.037.052-.057.039-.052.058-.078.034-.044.05-.066.032-.053.048-.08.032-.049.045-.075.026-.055.04-.082.028-.054.04-.082.02-.056.03-.084.023-.059.033-.089.015-.059.023-.089.017-.06.022-.091.01-.062.015-.093.01-.062.014-.093,0-.064,0-.1,0-.062,0-.095V6.411a2.67,2.67,0,0,1,2.611-2.658,2.593,2.593,0,0,1,1.867.762A2.8,2.8,0,0,1,74.039,6.5V29.075c0,.034,0,.068.006.1s0,.06,0,.09.01.065.015.1.008.06.014.088.017.064.025.1.013.056.021.083.024.068.037.1.016.048.026.071.033.068.049.1.019.041.029.061.04.067.061.1c.011.018.021.037.033.054.023.033.048.065.072.1.012.016.023.033.036.048.027.033.057.064.088.1.011.012.021.025.033.037.031.032.064.06.1.088a.457.457,0,0,0,.036.033c.037.031.076.059.115.087l.029.022c.042.028.086.054.131.079.008,0,.015.01.024.014.049.026.1.05.15.072l.014.007c.053.022.107.041.163.059l.01,0a1.878,1.878,0,0,0,.364.075h0a1.9,1.9,0,0,0,.192.01h0c.033,0,.066,0,.1,0l.092,0c.035,0,.068-.01.1-.016s.056-.007.084-.014.072-.018.107-.027.049-.011.072-.018.075-.027.111-.041l.06-.022c.038-.016.074-.035.111-.053.018-.009.036-.016.053-.025.036-.02.07-.041.105-.064l.05-.031c.035-.023.068-.049.1-.076.014-.01.029-.021.043-.032.033-.028.064-.057.095-.087.013-.011.026-.022.038-.034.03-.03.059-.063.087-.1.011-.013.024-.025.035-.038.027-.033.051-.067.076-.1.01-.015.021-.029.032-.043.023-.034.044-.07.064-.106.01-.017.021-.032.03-.049.019-.036.036-.073.053-.111.008-.018.018-.035.025-.053.016-.037.029-.074.042-.112.006-.02.015-.039.021-.06s.019-.073.029-.11.013-.046.018-.069.012-.074.017-.111.009-.05.011-.076,0-.069.006-.1,0-.057,0-.087V13.584a2.152,2.152,0,0,1,2.087-1.9,2.086,2.086,0,0,1,1.5.615,2.268,2.268,0,0,1,.679,1.606V36.144a2.665,2.665,0,0,0,4.967,1.323l.012-.021A36.175,36.175,0,0,1,93.59,30a1.7,1.7,0,0,1,.454-.236,2.527,2.527,0,0,1,2.335.456A1.385,1.385,0,0,1,96.956,31.471Z" transform="translate(0 0)"/></g><g transform="translate(1384.217 470.711)"><path class="b" d="M72.4,56.059h1.774v3.547H72.4Z" transform="translate(-2.409 -4.13)"/><path class="b" d="M67.33,46.609c.021-3.537,1.591-4.547,3.547-4.547s3.547.591,3.547,2.547H76.2c0-2.933-2.387-4.32-5.32-4.32s-5.232,2.213-5.32,6.32v1.774H63.783v10.64H77.97V48.383H67.33ZM76.2,57.249H65.557V50.156H76.2Z" transform="translate(0 0)"/></g></g></svg>