<svg xmlns="http://www.w3.org/2000/svg" width="57.429" height="57.429" viewBox="0 0 57.429 57.429"><defs><style>.a{fill:#fff;}</style></defs><circle class="a" cx="2.243" cy="2.243" r="2.243" transform="translate(41.053 21.312)"/><path class="a" d="M48.456,4.487H45.539V2.243a2.243,2.243,0,0,0-4.486,0V4.487H30.846V2.243a2.243,2.243,0,0,0-4.487,0V4.487H16.264V2.243a2.243,2.243,0,0,0-4.487,0V4.487h-2.8A8.984,8.984,0,0,0,0,13.46v35a8.984,8.984,0,0,0,8.974,8.974H26.135a2.243,2.243,0,0,0,0-4.487H8.974a4.491,4.491,0,0,1-4.487-4.487v-35A4.491,4.491,0,0,1,8.974,8.974h2.8v2.243a2.243,2.243,0,1,0,4.487,0V8.974H26.359v2.243a2.243,2.243,0,1,0,4.487,0V8.974H41.053v2.243a2.243,2.243,0,1,0,4.486,0V8.974h2.916a4.491,4.491,0,0,1,4.487,4.487V26.247a2.243,2.243,0,0,0,4.487,0V13.46A8.984,8.984,0,0,0,48.456,4.487Z"/><path class="a" d="M49.691,36.118A13.572,13.572,0,1,0,63.263,49.691,13.589,13.589,0,0,0,49.691,36.118Zm0,22.658a9.085,9.085,0,1,1,9.085-9.085A9.1,9.1,0,0,1,49.691,58.776Z" transform="translate(-5.833 -5.833)"/><path class="a" d="M55.125,48.743h-1.01V46.388a2.243,2.243,0,0,0-4.487,0v4.6a2.244,2.244,0,0,0,2.244,2.243h3.253a2.243,2.243,0,1,0,0-4.487Z" transform="translate(-8.015 -7.13)"/><circle class="a" cx="2.243" cy="2.243" r="2.243" transform="translate(21.536 31.07)"/><circle class="a" cx="2.243" cy="2.243" r="2.243" transform="translate(11.778 21.312)"/><circle class="a" cx="2.243" cy="2.243" r="2.243" transform="translate(11.778 31.07)"/><circle class="a" cx="2.243" cy="2.243" r="2.243" transform="translate(11.778 40.829)"/><circle class="a" cx="2.243" cy="2.243" r="2.243" transform="translate(21.536 40.829)"/><circle class="a" cx="2.243" cy="2.243" r="2.243" transform="translate(21.536 21.312)"/><rect class="a" width="7.529" height="7.384" rx="1.605" transform="translate(30.341 19.915)"/></svg>